<?xml version="1.0" standalone="no"?>
<!DOCTYPE svg PUBLIC "-//W3C//DTD SVG 20010904//EN"
 "http://www.w3.org/TR/2001/REC-SVG-20010904/DTD/svg10.dtd">
<svg version="1.0" xmlns="http://www.w3.org/2000/svg"
 width="1920.000000pt" height="1080.000000pt" viewBox="0 0 1920.000000 1080.000000"
 preserveAspectRatio="xMidYMid meet">

<g transform="translate(0.000000,1080.000000) scale(0.100000,-0.100000)"
fill="#000000" stroke="none">
<path d="M0 5400 l0 -5400 9334 0 c7458 0 9335 3 9339 13 4 9 6 9 6 0 1 -10
60 -13 261 -13 l260 0 0 5400 0 5400 -9600 0 -9600 0 0 -5400z m630 5280 c0
-5 -4 -10 -10 -10 -5 0 -10 5 -10 10 0 6 5 10 10 10 6 0 10 -4 10 -10z m12335
-270 c3 -5 1 -10 -4 -10 -6 0 -11 5 -11 10 0 6 2 10 4 10 3 0 8 -4 11 -10z
m3485 -50 c0 -5 -4 -10 -10 -10 -5 0 -10 5 -10 10 0 6 5 10 10 10 6 0 10 -4
10 -10z m-3790 -430 c0 -5 -2 -10 -4 -10 -3 0 -8 5 -11 10 -3 6 -1 10 4 10 6
0 11 -4 11 -10z m-5490 -60 c0 -5 -4 -10 -10 -10 -5 0 -10 5 -10 10 0 6 5 10
10 10 6 0 10 -4 10 -10z m6700 -170 c0 -5 -5 -10 -11 -10 -5 0 -7 5 -4 10 3 6
8 10 11 10 2 0 4 -4 4 -10z m3530 -30 c0 -5 -4 -10 -10 -10 -5 0 -10 5 -10 10
0 6 5 10 10 10 6 0 10 -4 10 -10z m-11275 -10 c3 -5 1 -10 -4 -10 -6 0 -11 5
-11 10 0 6 2 10 4 10 3 0 8 -4 11 -10z m-4145 -180 c0 -5 -2 -10 -4 -10 -3 0
-8 5 -11 10 -3 6 -1 10 4 10 6 0 11 -4 11 -10z m3400 0 c0 -5 -4 -10 -10 -10
-5 0 -10 5 -10 10 0 6 5 10 10 10 6 0 10 -4 10 -10z m12850 -120 c8 -5 12 -11
10 -14 -3 -2 -14 2 -24 10 -22 15 -10 19 14 4z m-10335 -220 c3 -5 1 -10 -4
-10 -6 0 -11 5 -11 10 0 6 2 10 4 10 3 0 8 -4 11 -10z m2210 -40 c3 -5 1 -10
-4 -10 -6 0 -11 5 -11 10 0 6 2 10 4 10 3 0 8 -4 11 -10z m385 -370 c0 -5 -2
-10 -4 -10 -3 0 -8 5 -11 10 -3 6 -1 10 4 10 6 0 11 -4 11 -10z m-1920 -14 c0
-11 -19 -15 -25 -6 -3 5 1 10 9 10 9 0 16 -2 16 -4z m1730 -146 c0 -5 -4 -10
-10 -10 -5 0 -10 5 -10 10 0 6 5 10 10 10 6 0 10 -4 10 -10z m-515 -320 c3 -5
1 -10 -4 -10 -6 0 -11 5 -11 10 0 6 2 10 4 10 3 0 8 -4 11 -10z m6845 -370 c0
-5 -2 -10 -4 -10 -3 0 -8 5 -11 10 -3 6 -1 10 4 10 6 0 11 -4 11 -10z m-3020
-140 c0 -5 -4 -10 -10 -10 -5 0 -10 5 -10 10 0 6 5 10 10 10 6 0 10 -4 10 -10z
m-12410 -81 c0 -5 -4 -9 -10 -9 -5 0 -10 7 -10 16 0 8 5 12 10 9 6 -3 10 -10
10 -16z m16470 -59 c0 -5 -4 -10 -10 -10 -5 0 -10 5 -10 10 0 6 5 10 10 10 6
0 10 -4 10 -10z m-7955 -95 c99 -8 187 -15 195 -16 12 0 11 -2 -2 -7 -12 -5
-2 -12 37 -23 30 -9 52 -13 50 -9 -3 5 4 6 16 3 16 -5 18 -8 7 -15 -9 -7 -5
-8 14 -4 29 7 70 -5 68 -19 -1 -5 4 -11 11 -14 7 -2 9 1 4 9 -5 9 -4 11 3 6 7
-4 12 -14 12 -22 0 -13 12 -18 33 -15 4 1 10 -5 13 -13 3 -8 11 -13 18 -10 7
3 50 -35 97 -84 48 -49 124 -114 174 -148 48 -32 100 -70 115 -84 15 -14 43
-38 63 -54 20 -16 33 -35 30 -43 -4 -9 0 -11 13 -6 13 5 16 3 11 -10 -3 -9 -2
-17 4 -17 5 0 9 -6 8 -12 -1 -7 -1 -24 1 -38 1 -22 2 -23 9 -6 6 16 9 17 17 5
20 -32 34 -55 39 -69 4 -8 11 -23 16 -33 6 -11 8 -21 5 -24 -3 -3 2 -12 10
-20 8 -9 18 -28 21 -44 3 -16 9 -29 12 -29 4 0 13 -17 20 -37 8 -21 27 -66 42
-101 16 -34 29 -67 29 -73 0 -18 34 -113 43 -120 4 -3 8 -35 10 -71 1 -36 5
-64 9 -62 6 4 12 -47 24 -209 3 -49 14 -123 24 -165 11 -44 16 -97 14 -126 -3
-32 -1 -46 5 -37 4 7 11 9 14 5 5 -9 22 -266 21 -319 0 -16 5 -33 10 -37 7 -5
11 -77 11 -202 0 -168 -2 -197 -16 -208 -15 -12 -26 -41 -35 -88 -9 -56 -23
-98 -46 -150 -11 -25 -21 -55 -22 -67 0 -13 -4 -23 -8 -23 -5 0 -8 -6 -8 -14
0 -8 -9 -36 -20 -62 -12 -26 -22 -63 -24 -83 -4 -37 -27 -101 -45 -123 -5 -7
-26 -32 -45 -54 -39 -45 -45 -60 -20 -50 9 3 12 2 9 -5 -4 -5 -12 -8 -18 -6
-7 2 -17 -3 -24 -12 -15 -19 -17 -34 -3 -26 14 9 12 -2 -6 -30 -10 -15 -21
-22 -31 -18 -13 5 -15 2 -10 -11 5 -14 3 -17 -8 -12 -8 3 -15 4 -15 2 0 -3 -3
-12 -7 -22 -4 -12 -3 -15 5 -10 8 4 10 2 6 -8 -3 -8 -12 -12 -20 -9 -9 3 -14
-1 -14 -11 0 -9 -7 -19 -15 -23 -9 -3 -15 -13 -13 -22 1 -9 -4 -27 -12 -41 -8
-14 -20 -34 -26 -45 -6 -11 -16 -19 -22 -18 -7 2 -12 -3 -12 -11 0 -7 -18 -34
-40 -59 -22 -25 -40 -53 -40 -64 -1 -21 -49 -114 -50 -95 0 7 -5 10 -10 7 -6
-4 -8 -16 -5 -28 4 -15 3 -18 -3 -9 -7 11 -15 5 -32 -23 -12 -20 -20 -38 -18
-41 3 -2 11 7 18 21 7 14 17 25 22 25 4 0 -2 -15 -14 -34 -12 -19 -27 -32 -34
-29 -6 2 -20 -6 -30 -20 -30 -38 -143 -119 -214 -154 -36 -18 -58 -33 -50 -34
51 -5 -168 -28 -280 -29 -74 -1 -169 -4 -210 -8 -41 -4 -102 -4 -135 -1 l-60
6 60 3 60 3 -80 8 c-44 4 -91 5 -105 2 -20 -4 -22 -3 -10 7 12 9 8 10 -20 6
-22 -4 -30 -3 -21 3 10 6 3 12 -24 21 -21 7 -48 12 -61 12 -13 1 -21 4 -18 9
3 5 -9 9 -26 9 -35 0 -93 27 -85 39 3 5 -2 11 -10 15 -8 3 -15 1 -15 -5 0 -5
-19 0 -42 12 -35 18 -40 23 -25 28 17 6 16 8 -6 18 -17 8 -28 8 -35 1 -12 -12
-32 -2 -28 15 1 7 1 9 -1 5 -9 -15 -35 -8 -29 7 5 14 -50 48 -80 48 -7 0 -15
6 -18 14 -3 7 -11 13 -18 13 -17 0 -139 127 -155 160 -6 14 -14 34 -18 45 -4
14 -8 16 -14 7 -5 -8 -15 6 -29 37 -12 27 -26 52 -32 56 -5 3 -10 11 -10 17 0
6 7 5 18 -3 15 -13 16 -12 3 3 -7 10 -17 16 -21 13 -4 -3 -16 8 -26 23 -15 24
-15 25 -1 13 9 -7 17 -9 17 -4 0 15 -22 32 -35 27 -6 -3 -24 11 -39 30 -21 28
-23 34 -9 29 16 -6 16 -5 4 10 -7 9 -17 14 -22 11 -5 -3 -6 1 -3 9 3 8 -5 18
-20 25 -14 6 -33 24 -43 39 -10 15 -20 30 -23 33 -4 3 -12 20 -20 38 -9 24
-15 30 -21 20 -6 -9 -9 -6 -9 10 0 13 -4 20 -10 17 -14 -9 -13 8 2 23 9 9 7
13 -5 18 -9 3 -17 10 -17 16 0 5 5 6 10 3 13 -8 13 -2 -1 29 -7 14 -16 23 -22
19 -5 -3 -7 3 -3 15 4 11 -2 43 -14 73 -13 32 -22 81 -24 127 -1 40 -7 77 -13
80 -15 10 -25 73 -13 86 6 8 4 22 -6 42 -10 19 -14 42 -10 67 4 21 2 37 -3 37
-18 0 -25 36 -46 245 -8 77 -15 183 -14 235 0 109 26 311 44 340 3 6 2 10 -4
10 -11 0 -8 130 3 148 4 7 4 17 0 23 -10 17 -6 183 6 213 5 15 12 53 14 86 3
36 16 81 33 117 15 32 26 62 25 66 -1 5 8 32 21 60 14 29 30 70 37 92 11 33
14 37 20 20 7 -18 8 -18 14 6 4 14 8 32 10 40 7 41 29 89 42 89 7 0 23 18 34
40 11 22 18 40 15 40 -9 0 55 69 114 124 30 28 67 62 81 76 29 27 90 107 118
154 9 17 28 41 42 55 14 14 33 37 42 50 46 67 159 176 238 231 49 33 95 60
102 60 8 0 18 4 24 9 19 20 153 39 269 40 66 0 201 -6 300 -14z m9130 -355 c3
-5 1 -10 -4 -10 -6 0 -11 5 -11 10 0 6 2 10 4 10 3 0 8 -4 11 -10z m-6555
-370 c0 -5 -5 -10 -11 -10 -5 0 -7 5 -4 10 3 6 8 10 11 10 2 0 4 -4 4 -10z
m-3985 -139 c7 -12 -12 -24 -25 -16 -11 7 -4 25 10 25 5 0 11 -4 15 -9z
m-8131 -312 c-3 -5 -10 -7 -15 -3 -5 3 -7 10 -3 15 3 5 10 7 15 3 5 -3 7 -10
3 -15z m7596 -69 c0 -5 -4 -10 -10 -10 -5 0 -10 5 -10 10 0 6 5 10 10 10 6 0
10 -4 10 -10z m4985 -510 c3 -5 1 -10 -4 -10 -6 0 -11 5 -11 10 0 6 2 10 4 10
3 0 8 -4 11 -10z m-7095 -290 c0 -5 -4 -10 -10 -10 -5 0 -10 5 -10 10 0 6 5
10 10 10 6 0 10 -4 10 -10z m7590 -120 c0 -5 -4 -10 -10 -10 -5 0 -10 5 -10
10 0 6 5 10 10 10 6 0 10 -4 10 -10z m330 -120 c0 -5 -4 -10 -10 -10 -5 0 -10
5 -10 10 0 6 5 10 10 10 6 0 10 -4 10 -10z m1575 -120 c3 -5 1 -10 -4 -10 -6
0 -11 5 -11 10 0 6 2 10 4 10 3 0 8 -4 11 -10z m-55 -190 c0 -5 -2 -10 -4 -10
-3 0 -8 5 -11 10 -3 6 -1 10 4 10 6 0 11 -4 11 -10z m-12350 -90 c0 -5 -2 -10
-4 -10 -3 0 -8 5 -11 10 -3 6 -1 10 4 10 6 0 11 -4 11 -10z m13950 -40 c0 -5
-4 -10 -10 -10 -5 0 -10 5 -10 10 0 6 5 10 10 10 6 0 10 -4 10 -10z m-10765
-80 c3 -5 1 -10 -4 -10 -6 0 -11 5 -11 10 0 6 2 10 4 10 3 0 8 -4 11 -10z
m-1795 -160 c0 -5 -4 -10 -10 -10 -5 0 -10 5 -10 10 0 6 5 10 10 10 6 0 10 -4
10 -10z m8245 0 c3 -5 1 -10 -4 -10 -6 0 -11 5 -11 10 0 6 2 10 4 10 3 0 8 -4
11 -10z m-8245 -274 c0 -11 -19 -15 -25 -6 -3 5 1 10 9 10 9 0 16 -2 16 -4z
m50 -416 c0 -5 -4 -10 -10 -10 -5 0 -10 5 -10 10 0 6 5 10 10 10 6 0 10 -4 10
-10z m1030 -174 c0 -11 -19 -15 -25 -6 -3 5 1 10 9 10 9 0 16 -2 16 -4z m5086
-281 c-41 -35 -53 -31 -14 4 18 16 35 27 38 25 2 -3 -9 -16 -24 -29z m-9466
15 c0 -5 -5 -10 -11 -10 -5 0 -7 5 -4 10 3 6 8 10 11 10 2 0 4 -4 4 -10z
m9418 -55 c-13 -12 -78 -43 -78 -37 0 12 63 51 72 46 5 -4 8 -7 6 -9z m-2964
-66 c-3 -5 -10 -7 -15 -3 -5 3 -7 10 -3 15 3 5 10 7 15 3 5 -3 7 -10 3 -15z
m-2264 -79 c0 -5 -4 -10 -10 -10 -5 0 -10 5 -10 10 0 6 5 10 10 10 6 0 10 -4
10 -10z m-4730 -40 c0 -5 -4 -10 -10 -10 -5 0 -10 5 -10 10 0 6 5 10 10 10 6
0 10 -4 10 -10z m9130 0 c0 -5 -5 -10 -11 -10 -5 0 -7 5 -4 10 3 6 8 10 11 10
2 0 4 -4 4 -10z m7240 -74 c0 -3 -4 -8 -10 -11 -5 -3 -10 -1 -10 4 0 6 5 11
10 11 6 0 10 -2 10 -4z m-11120 -236 c0 -5 -4 -10 -10 -10 -5 0 -10 5 -10 10
0 6 5 10 10 10 6 0 10 -4 10 -10z m4810 -240 c0 -5 -4 -10 -10 -10 -5 0 -10 5
-10 10 0 6 5 10 10 10 6 0 10 -4 10 -10z m6230 0 c0 -5 -4 -10 -10 -10 -5 0
-10 5 -10 10 0 6 5 10 10 10 6 0 10 -4 10 -10z m-8490 -200 c0 -5 -2 -10 -4
-10 -3 0 -8 5 -11 10 -3 6 -1 10 4 10 6 0 11 -4 11 -10z m8680 -330 c0 -5 -4
-10 -10 -10 -5 0 -10 5 -10 10 0 6 5 10 10 10 6 0 10 -4 10 -10z m-8170 -14
c0 -3 -4 -8 -10 -11 -5 -3 -10 -1 -10 4 0 6 5 11 10 11 6 0 10 -2 10 -4z
m8950 -46 c0 -5 -4 -10 -10 -10 -5 0 -10 5 -10 10 0 6 5 10 10 10 6 0 10 -4
10 -10z m-8615 -100 c3 -5 1 -10 -4 -10 -6 0 -11 5 -11 10 0 6 2 10 4 10 3 0
8 -4 11 -10z m3525 -350 c0 -5 -2 -10 -4 -10 -3 0 -8 5 -11 10 -3 6 -1 10 4
10 6 0 11 -4 11 -10z m-6210 -44 c0 -3 -4 -8 -10 -11 -5 -3 -10 -1 -10 4 0 6
5 11 10 11 6 0 10 -2 10 -4z m11130 -26 c0 -5 -4 -10 -9 -10 -6 0 -13 5 -16
10 -3 6 1 10 9 10 9 0 16 -4 16 -10z m-3530 -210 c0 -5 -4 -10 -10 -10 -5 0
-10 5 -10 10 0 6 5 10 10 10 6 0 10 -4 10 -10z m-9715 -110 c3 -5 1 -10 -4
-10 -6 0 -11 5 -11 10 0 6 2 10 4 10 3 0 8 -4 11 -10z m7045 -70 c0 -5 -2 -10
-4 -10 -3 0 -8 5 -11 10 -3 6 -1 10 4 10 6 0 11 -4 11 -10z m2720 -504 c0 -3
-4 -8 -10 -11 -5 -3 -10 -1 -10 4 0 6 5 11 10 11 6 0 10 -2 10 -4z m-7740 -66
c0 -5 -4 -10 -10 -10 -5 0 -10 5 -10 10 0 6 5 10 10 10 6 0 10 -4 10 -10z
m4440 -240 c0 -5 -7 -10 -15 -10 -8 0 -15 5 -15 10 0 6 7 10 15 10 8 0 15 -4
15 -10z m4160 -40 c0 -5 -4 -10 -10 -10 -5 0 -10 5 -10 10 0 6 5 10 10 10 6 0
10 -4 10 -10z m1860 -10 c0 -5 -4 -10 -10 -10 -5 0 -10 5 -10 10 0 6 5 10 10
10 6 0 10 -4 10 -10z m-14280 -220 c0 -5 -5 -10 -11 -10 -5 0 -7 5 -4 10 3 6
8 10 11 10 2 0 4 -4 4 -10z m14390 0 c0 -5 -5 -10 -11 -10 -5 0 -7 5 -4 10 3
6 8 10 11 10 2 0 4 -4 4 -10z"/>
<path d="M9792 6886 c-22 -12 -23 -14 -8 -29 17 -16 12 -47 -8 -47 -6 0 -22
16 -35 35 -19 28 -30 35 -55 35 l-31 -1 31 -13 c35 -15 77 -63 68 -78 -8 -12
-25 -5 -107 44 -64 39 -70 40 -120 33 -29 -4 -83 -11 -122 -15 -38 -4 -60 -7
-47 -8 29 -3 28 -28 -2 -36 -13 -3 -47 -34 -74 -68 -27 -35 -59 -72 -71 -82
-29 -26 -26 -42 9 -55 60 -21 32 -73 -83 -156 -69 -49 -87 -84 -62 -121 15
-23 15 -27 0 -50 -9 -14 -13 -29 -10 -33 3 -5 -4 -7 -15 -4 -16 4 -20 0 -20
-21 0 -15 7 -29 15 -32 26 -10 45 16 45 62 0 75 48 100 70 35 12 -37 11 -41
-19 -86 -58 -86 -89 -154 -97 -215 -4 -31 -1 -27 26 28 22 44 37 62 51 62 25
0 24 -7 -6 -65 -22 -40 -24 -53 -16 -77 7 -21 7 -36 0 -49 -13 -25 -36 -24
-45 3 -6 20 -7 20 -19 -9 -14 -34 -39 -143 -33 -148 1 -1 12 -5 24 -9 16 -5
23 1 38 35 16 37 21 40 46 36 25 -5 29 -1 51 46 32 71 96 149 145 180 53 32
150 55 166 39 19 -19 -9 -65 -99 -159 -12 -12 -25 -33 -28 -45 -9 -30 -48
-101 -59 -109 -5 -4 -5 -13 -1 -20 5 -8 4 -11 0 -6 -5 4 -19 -16 -31 -45 -30
-74 -38 -102 -26 -94 5 3 14 25 20 49 12 47 44 83 63 72 18 -12 4 -93 -25
-146 -35 -62 -58 -215 -63 -419 -6 -216 -1 -242 47 -290 25 -24 43 -53 50 -81
23 -95 71 -163 120 -174 16 -4 34 -13 41 -21 27 -33 175 -84 199 -69 5 3 10 0
12 -5 2 -6 20 -12 40 -13 20 -1 34 -5 31 -9 -2 -5 3 -8 11 -8 38 0 11 32 -51
63 -75 36 -147 97 -170 142 -8 16 -28 44 -43 60 -55 59 -123 216 -153 351 -33
153 47 534 112 534 23 0 25 -8 12 -42 -43 -105 -64 -239 -40 -253 13 -8 51 24
43 37 -3 4 0 7 7 6 15 -4 32 27 60 105 12 33 34 71 50 87 27 25 83 44 102 33
12 -7 8 -47 -8 -70 -16 -23 -13 -30 33 -78 6 -8 12 -18 12 -24 0 -13 7 -13 35
-2 31 12 78 -8 72 -30 -3 -11 -1 -19 3 -19 5 0 16 -3 25 -6 12 -5 16 -2 15 12
-4 38 0 45 20 39 27 -9 25 3 -4 26 -19 15 -24 30 -28 82 -5 60 -23 107 -41
107 -5 0 -22 -11 -39 -25 -54 -46 -94 -24 -64 35 11 23 12 38 6 56 -12 30 1
60 27 68 47 13 134 18 147 7 7 -6 24 -10 36 -9 63 7 171 -277 114 -299 -9 -3
-23 -2 -31 3 -22 14 -55 105 -49 136 3 15 1 30 -4 33 -6 3 -10 -3 -10 -14 0
-11 -9 -26 -19 -33 -33 -23 -34 -58 -3 -112 15 -27 36 -54 47 -60 31 -17 35
-27 35 -101 0 -77 -8 -118 -20 -110 -5 3 -11 -3 -14 -12 -3 -11 -32 -29 -66
-42 -59 -24 -60 -24 -101 -6 -50 23 -75 57 -92 126 -8 29 -19 55 -26 57 -37
12 -12 -134 32 -182 15 -17 30 -39 33 -48 7 -22 43 -33 108 -32 44 0 53 5 88
42 22 24 36 47 32 54 -4 6 -3 8 3 5 15 -9 62 62 79 120 8 26 18 100 21 164 6
116 6 116 -25 170 -18 33 -36 86 -46 134 -8 44 -18 88 -21 97 -4 9 1 30 10 46
17 28 17 31 -6 69 -43 72 -126 132 -223 160 -157 46 -178 110 -40 122 l67 6
-39 21 c-44 25 -126 44 -184 44 -66 0 -177 -28 -254 -65 -41 -19 -79 -35 -86
-35 -6 0 -8 -4 -5 -10 3 -5 0 -8 -7 -5 -7 3 -24 -11 -37 -30 -26 -38 -36 -43
-45 -20 -7 19 10 65 25 65 6 0 9 7 5 15 -3 9 0 15 8 15 8 0 32 18 54 41 32 34
43 39 58 31 21 -11 71 -5 80 9 3 5 -2 9 -10 9 -23 0 -20 27 4 40 11 6 20 17
20 25 0 7 16 19 35 25 19 6 40 20 45 31 8 15 22 19 63 20 l52 1 -45 12 c-25 7
-55 19 -67 26 -18 12 -30 12 -75 1 -29 -7 -71 -22 -93 -33 -22 -11 -48 -24
-57 -29 -24 -12 -25 -12 -31 10 -3 14 -1 18 10 14 10 -4 40 20 87 70 91 97
134 117 259 118 104 1 154 10 124 22 -11 4 -24 4 -29 0 -6 -3 -8 -2 -5 4 3 5
-11 19 -31 31 -76 43 -94 91 -28 77 17 -3 41 -7 53 -8 11 -1 19 -5 17 -8 -2
-3 14 -14 36 -24 22 -10 40 -22 40 -28 0 -5 8 -6 17 -3 10 4 15 4 11 1 -3 -3
16 -28 43 -54 41 -40 57 -50 98 -55 55 -7 104 -37 174 -104 41 -41 47 -44 47
-24 0 12 6 22 14 22 8 0 16 7 20 15 3 8 11 15 18 15 13 0 48 -34 48 -46 0 -2
8 -13 18 -24 28 -30 77 -128 69 -137 -4 -4 -17 -2 -27 5 -26 16 -25 1 1 -29
38 -43 79 -149 95 -244 3 -16 12 -66 19 -109 8 -44 12 -83 9 -88 -13 -21 -33
-3 -59 52 -40 84 -54 93 -48 33 6 -54 42 -119 56 -100 6 8 7 5 3 -6 -3 -10 -1
-60 5 -110 12 -105 15 -409 5 -426 -4 -6 -3 -11 2 -11 4 0 15 15 23 33 16 37
56 47 51 12 -3 -18 -2 -18 13 3 10 13 20 51 23 84 4 53 3 61 -11 55 -9 -3 -18
1 -21 9 -9 23 -7 82 2 86 13 5 -3 145 -19 164 -7 9 -21 19 -31 23 -17 6 -17 8
2 43 15 30 19 58 21 157 1 107 3 123 20 131 14 8 21 5 33 -12 41 -57 -14 123
-92 304 -8 20 -20 34 -25 31 -6 -4 -7 -1 -3 6 12 19 -74 191 -95 191 -10 0
-53 33 -97 73 -74 67 -175 132 -191 123 -4 -3 -7 12 -7 32 l0 37 -54 7 c-87
10 -133 8 -158 -6z m-232 -100 c0 -3 -4 -8 -10 -11 -5 -3 -10 -1 -10 4 0 6 5
11 10 11 6 0 10 -2 10 -4z m258 -34 c2 -7 -3 -12 -12 -12 -9 0 -16 7 -16 16 0
17 22 14 28 -4z m-351 -88 c-3 -3 -12 -4 -19 -1 -8 3 -5 6 6 6 11 1 17 -2 13
-5z m-131 -226 c8 -13 -49 -68 -71 -68 -9 0 -18 7 -22 15 -6 18 25 58 38 49 5
-3 9 0 9 5 0 15 37 14 46 -1z m-142 -42 c-3 -7 -21 -21 -41 -30 -35 -17 -36
-17 -23 1 34 44 77 64 64 29z m386 -185 c0 -23 -15 -35 -63 -51 -53 -17 -70 0
-38 34 35 37 101 48 101 17z m867 -123 c-3 -8 -6 -5 -6 6 -1 11 2 17 5 13 3
-3 4 -12 1 -19z m-1024 -15 c-7 -2 -19 -2 -25 0 -7 3 -2 5 12 5 14 0 19 -2 13
-5z m941 -139 c3 -8 2 -12 -4 -9 -6 3 -10 10 -10 16 0 14 7 11 14 -7z m-1298
-145 c3 -6 -3 -20 -14 -32 -19 -18 -22 -19 -27 -4 -4 9 -1 23 7 31 16 18 25
20 34 5z m774 -673 c0 -2 -7 -7 -16 -10 -8 -3 -12 -2 -9 4 6 10 25 14 25 6z"/>
<path d="M9053 6689 c-3 -11 -9 -16 -12 -10 -4 6 -22 -6 -42 -29 -20 -22 -35
-41 -33 -43 2 -1 -13 -11 -32 -22 -19 -10 -33 -24 -30 -31 3 -7 -2 -10 -13 -7
-12 3 -20 -2 -24 -16 -2 -11 -3 -22 0 -25 9 -9 73 36 73 52 0 8 3 13 6 9 3 -3
19 9 35 27 15 18 46 45 68 60 47 33 60 56 30 56 -13 0 -23 -8 -26 -21z"/>
<path d="M9555 6630 c-12 -5 4 -6 40 -3 33 3 62 7 64 9 9 8 -85 2 -104 -6z"/>
<path d="M9004 6574 c-18 -14 -18 -15 4 -4 12 6 22 13 22 15 0 8 -5 6 -26 -11z"/>
<path d="M9605 6570 c-7 -12 32 -12 60 0 16 7 13 9 -17 9 -20 1 -40 -3 -43 -9z"/>
<path d="M9855 6528 c11 -7 26 -18 33 -25 12 -12 42 -18 42 -9 0 8 -67 46 -81
46 -9 0 -6 -5 6 -12z"/>
<path d="M9631 6466 c2 -2 18 -6 34 -10 22 -5 26 -4 15 4 -14 9 -59 15 -49 6z"/>
<path d="M10200 6418 c0 -3 9 -15 20 -28 11 -13 20 -19 20 -13 0 5 -9 18 -20
28 -11 10 -20 16 -20 13z"/>
<path d="M10015 6270 c-3 -5 6 -38 20 -72 15 -35 40 -103 57 -153 30 -87 60
-169 78 -210 22 -51 51 -157 60 -224 6 -41 13 -77 16 -80 3 -3 12 3 21 14 29
38 -8 308 -39 289 -7 -4 -8 -2 -4 5 7 11 2 32 -50 196 -28 86 -46 135 -75 203
-16 36 -24 42 -48 42 -17 0 -33 -4 -36 -10z"/>
<path d="M10530 6034 c0 -16 5 -49 11 -74 6 -25 14 -87 17 -139 4 -56 12 -96
18 -98 18 -6 23 21 13 66 -6 29 -6 48 2 63 13 23 3 144 -12 153 -5 4 -9 16 -9
27 0 12 -3 18 -7 15 -3 -4 -12 -2 -20 4 -10 9 -13 6 -13 -17z"/>
<path d="M8958 5998 c-20 -14 -28 -28 -28 -50 0 -17 -11 -51 -25 -75 -43 -72
-20 -48 35 37 57 89 63 122 18 88z"/>
<path d="M8610 5957 c7 -47 16 -67 31 -67 17 0 10 76 -9 93 -27 25 -30 22 -22
-26z"/>
<path d="M8507 5863 c3 -26 12 -55 19 -63 18 -18 19 -3 2 54 -17 60 -26 65
-21 9z"/>
<path d="M8968 5853 c-8 -10 -21 -34 -28 -53 -33 -90 -74 -160 -93 -160 -18 0
-19 5 -15 52 5 47 4 49 -8 27 -7 -13 -13 -34 -14 -46 0 -13 -4 -23 -10 -23 -5
0 -10 -4 -10 -9 0 -5 -13 -38 -29 -73 -34 -76 -52 -128 -44 -128 3 0 -2 -9
-12 -20 -13 -15 -21 -17 -31 -9 -16 13 -34 4 -34 -17 0 -8 -14 -45 -31 -82
-45 -97 -47 -103 -59 -151 -18 -69 -5 -142 31 -177 33 -32 40 -86 13 -115 -15
-17 -14 -20 12 -42 27 -23 27 -26 16 -64 -6 -22 -20 -48 -31 -57 -17 -15 -17
-21 -6 -42 7 -14 26 -40 43 -58 27 -29 31 -43 34 -99 1 -43 -2 -70 -11 -81
-12 -14 -9 -24 22 -74 20 -31 41 -56 46 -55 6 2 8 -3 6 -10 -5 -15 41 -51 55
-42 17 11 11 35 -9 35 -20 0 -23 8 -36 98 -6 34 -4 42 9 42 8 0 22 -12 30 -27
8 -16 26 -40 40 -55 69 -72 95 -138 56 -138 -24 0 -25 -6 -4 -27 10 -10 14
-27 12 -45 -5 -33 7 -36 31 -6 23 28 54 20 104 -25 36 -34 37 -34 37 -11 0 13
4 24 9 24 12 0 21 -26 21 -61 0 -19 4 -27 13 -23 14 5 58 -44 54 -61 -1 -5 16
-13 38 -17 22 -3 49 -9 60 -11 11 -3 23 -6 27 -6 4 -1 14 -19 24 -41 19 -43
30 -48 60 -25 40 30 76 14 70 -31 -2 -14 9 -23 46 -36 27 -9 83 -40 124 -68
41 -28 79 -48 84 -45 6 4 7 -2 4 -12 -4 -10 5 -2 19 18 27 38 45 49 78 49 13
0 19 7 19 24 0 26 13 27 90 5 25 -7 93 -13 153 -14 59 -1 110 -5 114 -8 3 -4
18 10 31 31 33 48 40 52 68 40 16 -7 26 -7 36 1 7 6 24 20 37 31 l23 19 -36
17 c-35 17 -48 42 -23 46 6 0 17 2 22 3 6 2 26 3 45 4 55 2 65 12 50 53 -17
47 -7 62 71 107 74 43 92 69 77 113 -15 42 -3 109 29 167 22 39 25 52 16 62
-18 19 -58 -3 -80 -43 -9 -18 -24 -60 -33 -93 -13 -53 -18 -60 -42 -63 -26 -3
-27 -2 -21 32 3 20 3 36 -1 36 -3 0 -25 -19 -48 -43 -53 -53 -93 -77 -183
-107 -39 -13 -89 -30 -113 -38 -53 -19 -73 -49 -46 -69 36 -26 61 -26 97 1 19
14 42 26 53 27 38 1 84 25 129 67 46 42 75 54 75 29 0 -24 -52 -82 -128 -143
-89 -71 -102 -83 -102 -95 0 -5 8 -9 19 -9 27 0 40 -21 30 -47 -10 -28 -52
-31 -71 -5 -25 35 -61 34 -163 -3 -94 -34 -140 -38 -156 -13 -3 5 -22 -7 -41
-26 -37 -37 -61 -39 -73 -8 -3 9 3 27 13 41 l19 26 -37 1 c-20 1 -50 9 -66 17
-28 15 -30 14 -55 -15 l-25 -31 -45 15 c-30 10 -43 20 -41 31 2 10 -23 35 -65
66 -101 73 -201 192 -233 276 -6 15 -15 23 -20 20 -21 -13 -50 6 -50 33 0 27
-19 63 -59 112 l-21 25 9 -30 c11 -39 57 -131 85 -170 46 -63 60 -130 30 -142
-41 -15 -112 112 -158 282 -14 55 -31 114 -36 131 -6 17 -10 46 -10 66 0 19
-3 38 -7 42 -16 15 -18 53 -12 176 1 25 -6 126 -16 225 -20 201 -22 238 -12
278 17 65 57 10 57 -78 0 -30 4 -56 8 -59 5 -3 8 78 8 179 -1 100 2 181 7 178
4 -2 7 26 7 64 -1 55 -3 64 -12 49 -6 -11 -12 -44 -13 -73 -4 -61 -7 -68 -31
-59 -13 5 -15 14 -10 49 4 23 7 61 6 85 -1 41 42 182 63 210 16 20 2 24 -15 5z
m-30 -430 c2 -8 -5 -13 -17 -13 -12 0 -21 6 -21 16 0 18 31 15 38 -3z m-358
-309 c0 -8 -19 -13 -24 -6 -3 5 1 9 9 9 8 0 15 -2 15 -3z m40 -49 c15 -18 6
-45 -13 -45 -20 0 -40 27 -33 45 7 19 30 19 46 0z m81 -176 c9 -17 8 -25 -4
-37 -18 -17 -45 -10 -54 14 -4 11 1 22 12 30 25 19 32 18 46 -7z m-6 -79 c3
-6 -1 -7 -9 -4 -18 7 -21 14 -7 14 6 0 13 -4 16 -10z m66 -120 c23 -13 25 -47
3 -78 -18 -26 -31 -28 -56 -5 -23 21 -24 69 0 82 22 13 29 13 53 1z m-51 -280
c0 -13 -7 -20 -20 -20 -19 0 -27 20 -13 33 13 14 33 6 33 -13z m1817 -192 c-3
-8 -6 -5 -6 6 -1 11 2 17 5 13 3 -3 4 -12 1 -19z m-187 -22 c0 -11 -19 -15
-25 -6 -3 5 1 10 9 10 9 0 16 -2 16 -4z m-1062 -146 c3 -37 -24 -53 -44 -25
-16 21 -10 33 20 45 11 5 21 9 21 9 1 1 2 -13 3 -29z m1093 14 c11 -14 10 -18
-6 -30 -32 -24 -52 -11 -40 26 8 24 28 26 46 4z m-1136 -64 c3 -5 1 -10 -4
-10 -6 0 -11 5 -11 10 0 6 2 10 4 10 3 0 8 -4 11 -10z m293 -139 c11 -7 10 -9
-3 -14 -9 -4 -14 -3 -10 2 3 5 -1 12 -7 14 -7 3 -8 6 -3 6 6 0 16 -3 23 -8z
m616 -12 c5 -4 -2 -6 -17 -6 -19 2 -23 5 -15 15 6 7 14 9 17 5 3 -4 10 -11 15
-14z m-476 -21 c17 -17 15 -28 -7 -28 -22 0 -35 15 -26 30 8 13 18 13 33 -2z
m95 -52 c22 -17 22 -26 -1 -26 -11 0 -27 9 -37 20 -17 19 -17 20 1 20 10 0 27
-7 37 -14z m-93 0 c0 -2 -7 -7 -16 -10 -8 -3 -12 -2 -9 4 6 10 25 14 25 6z"/>
<path d="M10613 5673 c-8 -21 7 -121 20 -131 16 -13 67 -3 74 14 3 8 0 28 -6
46 -9 25 -8 36 4 54 8 13 15 26 15 29 0 13 -102 1 -107 -12z"/>
<path d="M10329 5593 c-2 -21 -2 -58 1 -83 4 -39 6 -41 12 -20 11 35 10 140
-1 140 -5 0 -10 -17 -12 -37z"/>
<path d="M8580 5515 c-10 -12 -10 -21 1 -47 11 -27 14 -29 20 -12 11 27 11 74
0 74 -5 0 -14 -7 -21 -15z"/>
<path d="M10600 5388 c0 -71 13 -170 21 -156 4 7 4 45 -1 82 -5 38 -6 74 -4
81 3 7 1 16 -5 20 -7 4 -11 -6 -11 -27z"/>
<path d="M9797 5318 c-14 -11 -15 -19 -7 -50 16 -56 39 -78 90 -85 l45 -6 -39
35 c-34 32 -37 37 -26 58 10 18 9 24 -1 31 -7 4 -17 5 -21 3 -5 -3 -7 0 -6 7
4 17 -15 21 -35 7z"/>
<path d="M11093 5245 c0 -22 2 -30 4 -17 2 12 2 30 0 40 -3 9 -5 -1 -4 -23z"/>
<path d="M10580 5134 c-17 -50 -53 -89 -75 -80 -10 3 -15 12 -11 21 3 8 1 17
-4 20 -8 5 -18 -22 -36 -100 -10 -44 -89 -201 -129 -255 -19 -26 -53 -64 -75
-84 -22 -20 -37 -36 -34 -36 4 0 26 18 50 40 45 42 74 51 74 25 0 -18 -12 -34
-52 -72 -25 -24 -37 -53 -22 -53 3 0 27 7 53 16 54 17 127 81 137 119 3 14 9
25 14 25 4 0 15 28 25 63 11 34 29 83 42 108 24 48 33 149 13 149 -5 0 -7 7
-4 15 8 21 34 19 36 -2 0 -10 4 11 8 47 3 36 5 66 4 68 -1 2 -8 -14 -14 -34z"/>
<path d="M9560 5117 c0 -44 24 -80 77 -113 78 -50 77 -49 63 -25 -6 12 -16 18
-22 15 -6 -4 -8 -3 -4 4 3 6 -6 23 -21 40 -16 16 -43 46 -60 68 l-33 39 0 -28z"/>
<path d="M10148 5021 c-28 -24 -38 -41 -38 -62 0 -32 6 -35 34 -14 10 8 15 19
10 26 -4 7 -3 10 4 5 14 -9 34 29 30 56 -3 21 -5 20 -40 -11z"/>
<path d="M10342 4995 c-7 -14 -12 -33 -12 -41 0 -39 -93 -121 -102 -92 -3 7 1
19 9 26 7 7 13 18 13 23 0 10 -39 -12 -82 -47 -15 -13 -74 -37 -130 -54 -172
-53 -184 -69 -61 -77 91 -6 113 -11 113 -27 0 -7 -16 -21 -35 -32 -47 -25 -42
-48 11 -52 35 -3 48 3 95 39 105 83 162 169 189 287 17 72 13 94 -8 47z"/>
<path d="M9011 4828 c-5 -18 -13 -53 -16 -78 -6 -44 5 -80 53 -170 5 -8 18
-33 29 -55 23 -45 42 -51 60 -20 18 30 15 80 -7 121 -11 19 -27 68 -35 107 -9
40 -20 84 -26 100 -16 38 -45 35 -58 -5z"/>
<path d="M10414 4597 c-23 -18 -61 -48 -85 -68 -46 -37 -124 -80 -194 -107
-44 -16 -226 -32 -218 -18 5 8 -54 5 -185 -10 -41 -5 -65 -1 -108 16 -39 16
-58 20 -66 12 -11 -11 66 -56 118 -68 55 -12 209 -20 226 -12 70 34 266 49
289 22 39 -48 -141 -107 -367 -121 -62 -4 -82 0 -155 28 -46 17 -89 36 -96 41
-17 14 -72 27 -77 19 -11 -17 89 -144 122 -154 85 -26 171 -47 196 -47 16 0
67 15 115 34 47 18 120 41 161 51 136 31 326 142 304 177 -4 7 -3 8 4 4 19
-11 34 32 27 77 -5 31 -1 57 15 96 11 29 19 55 18 57 -2 1 -22 -12 -44 -29z
m-411 -214 c-7 -2 -19 -2 -25 0 -7 3 -2 5 12 5 14 0 19 -2 13 -5z m-310 -10
c-7 -2 -19 -2 -25 0 -7 3 -2 5 12 5 14 0 19 -2 13 -5z m577 -67 c0 -2 -8 -10
-17 -17 -16 -13 -17 -12 -4 4 13 16 21 21 21 13z m-403 -152 c-3 -3 -12 -4
-19 -1 -8 3 -5 6 6 6 11 1 17 -2 13 -5z"/>
<path d="M10605 4578 l-16 -33 21 24 c11 13 20 27 20 32 0 18 -10 8 -25 -23z"/>
<path d="M9490 4150 c0 -5 5 -12 10 -15 15 -9 12 -42 -5 -48 -8 -4 -17 -2 -21
4 -4 6 -11 6 -20 -2 -7 -6 -21 -8 -30 -5 -14 5 -14 9 -3 23 12 15 11 16 -9 11
-12 -4 -20 -2 -16 3 3 5 -7 9 -23 9 -27 0 -27 -1 22 -45 52 -48 59 -51 145
-59 62 -5 210 -79 210 -104 0 -9 6 -12 16 -8 8 3 24 1 35 -4 13 -7 19 -7 19 0
0 5 -4 10 -9 10 -5 0 -14 14 -21 31 -20 48 -5 55 87 41 43 -7 96 -12 118 -12
l40 0 -45 21 c-29 14 -70 22 -115 24 -47 2 -98 13 -158 34 -92 33 -97 35 -162
72 -44 26 -65 32 -65 19z"/>
<path d="M10625 3930 c-3 -5 1 -10 10 -10 9 0 13 5 10 10 -3 6 -8 10 -10 10
-2 0 -7 -4 -10 -10z"/>
<path d="M10001 3306 c2 -2 18 -6 34 -10 22 -5 26 -4 15 4 -14 9 -59 15 -49 6z"/>
<path d="M9563 3263 c9 -2 23 -2 30 0 6 3 -1 5 -18 5 -16 0 -22 -2 -12 -5z"/>
</g>
</svg>
