<?xml version="1.0" standalone="no"?>
<!DOCTYPE svg PUBLIC "-//W3C//DTD SVG 20010904//EN"
 "http://www.w3.org/TR/2001/REC-SVG-20010904/DTD/svg10.dtd">
<svg version="1.0" xmlns="http://www.w3.org/2000/svg"
 width="106.000000pt" height="230.000000pt" viewBox="0 0 106.000000 230.000000"
 preserveAspectRatio="xMidYMid meet">

<g transform="translate(0.000000,230.000000) scale(0.100000,-0.100000)"
fill="#000000" stroke="none">
<path d="M522 2245 c0 -16 2 -22 5 -12 2 9 2 23 0 30 -3 6 -5 -1 -5 -18z"/>
<path d="M584 2238 c23 -33 20 -54 -14 -78 l-30 -21 -1 38 -2 38 -6 -40 -7
-40 -7 37 c-9 44 -25 52 -58 27 -26 -20 -54 -24 -64 -9 -3 6 -25 10 -48 10
-33 0 -45 -5 -56 -22 -13 -21 -14 -21 -27 -3 -13 18 -14 17 -14 -8 0 -15 -5
-27 -11 -27 -7 0 -9 10 -5 25 4 14 2 25 -4 25 -5 0 -10 -7 -10 -15 0 -20 -10
-19 -26 3 -13 16 -13 16 -14 -3 0 -12 6 -27 12 -34 11 -10 10 -15 -4 -25 -22
-16 -28 -66 -15 -117 5 -21 6 -51 2 -66 l-7 -28 -24 30 c-23 29 -24 29 -41 12
-17 -17 -17 -19 6 -36 18 -13 23 -25 19 -44 -3 -17 -1 -24 8 -20 9 3 11 -6 7
-37 -4 -25 -1 -51 7 -66 15 -28 14 -31 -20 -36 -20 -2 -24 1 -22 17 3 17 1 16
-16 -5 -11 -14 -18 -27 -16 -30 3 -2 9 1 13 8 5 9 11 5 21 -12 10 -20 10 -31
0 -55 -6 -16 -9 -34 -6 -40 4 -6 3 -19 -3 -29 -5 -10 -6 -24 -1 -32 5 -8 3
-21 -5 -33 -12 -17 -11 -25 5 -57 14 -28 16 -40 7 -49 -8 -8 -7 -11 6 -11 9 0
17 -6 17 -12 0 -9 4 -8 11 2 8 12 9 9 5 -12 -3 -14 -9 -33 -12 -42 -4 -10 -2
-16 4 -14 6 2 18 -6 26 -17 8 -11 16 -15 16 -8 0 6 -6 18 -13 25 -8 7 -14 21
-14 31 0 22 34 22 40 0 3 -10 5 -5 6 12 0 16 11 69 23 118 18 75 25 90 46 98
33 13 37 6 16 -28 -18 -28 -18 -28 2 -10 35 29 36 19 2 -13 -31 -28 -32 -29
-10 -30 15 0 22 -6 22 -20 0 -18 7 -20 65 -20 l65 0 20 41 c21 40 22 40 41 23
10 -9 17 -19 15 -21 -5 -5 23 -40 67 -86 15 -16 27 -38 27 -50 0 -21 -1 -21
-13 3 -10 19 -20 24 -40 22 -19 -2 -27 2 -27 13 0 10 -9 15 -26 15 -22 0 -26
-4 -22 -24 5 -23 4 -24 -16 -11 -27 18 -46 6 -49 -31 -2 -22 2 -29 16 -28 21
2 21 -8 2 -46 -12 -23 -13 -30 -3 -30 7 0 -3 -14 -22 -30 -22 -19 -29 -30 -19
-30 8 0 19 4 25 9 5 6 46 7 94 4 74 -6 81 -8 50 -15 -44 -11 -110 -39 -110
-47 0 -16 34 -52 61 -66 52 -28 38 -43 -53 -58 -28 -5 -50 -29 -44 -50 4 -15
1 -18 -15 -14 -17 4 -18 3 -8 -9 7 -9 8 -14 1 -14 -6 0 -26 -14 -44 -30 -37
-34 -62 -38 -77 -12 -9 14 -10 14 -11 1 0 -22 51 -99 95 -144 47 -46 142 -92
223 -107 53 -10 64 -9 98 9 23 11 46 34 56 54 19 37 24 124 8 134 -5 3 -10 -2
-10 -12 -1 -10 -7 -3 -16 17 -11 25 -13 51 -9 93 7 61 8 61 -27 48 -23 -8 -23
-8 -21 52 3 53 0 63 -22 83 -25 23 -34 54 -15 54 5 0 17 -11 26 -25 12 -18 20
-22 29 -15 6 5 15 7 19 3 4 -4 9 3 13 15 3 12 9 22 13 22 13 0 59 96 64 135 3
21 11 45 19 52 12 12 15 8 20 -30 11 -80 -29 -254 -69 -298 -24 -27 3 -25 31
1 11 11 39 26 60 34 26 9 39 19 37 29 -1 8 2 18 8 22 14 9 13 31 -4 47 -11 12
-11 20 1 51 8 20 21 37 29 37 7 0 20 14 29 30 17 33 45 40 45 13 1 -16 2 -16
16 2 10 14 13 32 9 60 -5 32 -2 44 13 61 13 13 17 26 12 34 -11 17 -1 42 15
36 20 -7 12 65 -13 113 -13 23 -19 40 -13 36 11 -6 13 5 15 80 1 18 6 29 13
28 7 -2 10 4 6 12 -4 11 -9 13 -18 5 -9 -8 -14 -6 -19 5 -3 8 -2 15 3 15 4 0
6 12 4 28 -4 21 -2 24 6 12 8 -11 11 -12 11 -2 0 7 6 10 13 7 6 -4 1 3 -12 14
-13 12 -18 21 -12 21 7 0 9 5 6 10 -3 6 1 10 9 10 9 0 16 7 16 16 0 12 -7 14
-30 9 -30 -7 -31 -6 -25 22 5 22 4 25 -5 13 -9 -12 -10 -9 -6 15 24 126 16
205 -21 205 -15 0 -15 -2 0 -18 20 -22 22 -83 6 -148 -14 -54 -27 -57 -27 -6
1 173 -3 186 -65 196 -36 7 -38 6 -27 -13 6 -12 17 -21 25 -21 16 0 39 -92 33
-130 -4 -24 -5 -24 -12 5 -4 17 -11 37 -17 45 -12 19 -29 63 -29 73 1 11 -24
35 -32 31 -3 -2 -9 9 -13 26 -4 16 -11 32 -16 35 -13 9 -11 -6 6 -54 l15 -42
-58 6 c-68 9 -120 43 -129 85 -3 17 -10 27 -18 24 -7 -3 -15 2 -18 10 -4 9
-11 16 -17 16 -7 0 -5 -9 4 -22z m-18 -130 c-11 -15 -16 -18 -16 -7 0 16 21
42 28 34 2 -2 -3 -14 -12 -27z m294 -28 c23 -46 27 -71 8 -52 -12 12 -40 92
-32 92 2 0 13 -18 24 -40z m-280 0 c-6 -12 -14 -19 -17 -17 -2 3 1 15 7 27 6
12 14 19 17 17 2 -3 -1 -15 -7 -27z m200 20 c11 -7 7 -10 -17 -10 -18 0 -33 5
-33 10 0 13 30 13 50 0z m-556 -60 c3 -23 2 -49 -3 -59 -6 -10 -7 -22 -3 -26
4 -5 1 -5 -6 -1 -7 4 -10 12 -7 17 3 5 2 25 -4 45 -10 35 -6 64 9 64 4 0 10
-18 14 -40z m-29 -260 c3 -5 -1 -10 -9 -10 -9 0 -16 5 -16 10 0 6 4 10 9 10 6
0 13 -4 16 -10z m545 -391 c10 -18 9 -20 -6 -17 -9 1 -18 11 -20 21 -3 24 13
22 26 -4z m132 -181 c-7 -7 -12 -8 -12 -2 0 14 12 26 19 19 2 -3 -1 -11 -7
-17z m-12 -82 c0 -16 -18 -31 -27 -22 -8 8 5 36 17 36 5 0 10 -6 10 -14z"/>
<path d="M1022 1988 c-7 -7 -12 -21 -12 -32 0 -17 3 -16 15 8 17 32 15 42 -3
24z"/>
<path d="M45 1660 c3 -5 8 -10 11 -10 2 0 4 5 4 10 0 6 -5 10 -11 10 -5 0 -7
-4 -4 -10z"/>
<path d="M35 1629 c-4 -6 -5 -12 -2 -15 2 -3 7 2 10 11 7 17 1 20 -8 4z"/>
<path d="M357 1244 c-4 -4 -7 -19 -6 -33 l0 -26 10 24 c10 26 8 47 -4 35z"/>
<path d="M726 1078 c-18 -26 -20 -38 -6 -38 11 0 34 50 26 57 -2 2 -11 -6 -20
-19z"/>
<path d="M769 733 c0 -21 -2 -45 -4 -53 -25 -130 -47 -279 -49 -341 -1 -43
-19 -62 -77 -83 -24 -8 -37 -15 -29 -16 21 0 0 -17 -32 -25 -31 -8 -37 9 -17
47 12 23 5 34 -32 43 -21 5 -27 2 -37 -20 -7 -14 -16 -23 -22 -20 -5 3 -14 -4
-20 -15 -6 -11 -22 -23 -35 -26 -16 -4 -25 -13 -25 -26 0 -17 -2 -18 -15 -8
-9 7 -14 19 -11 27 3 7 0 13 -6 13 -15 0 -55 -45 -60 -67 -2 -10 -11 -16 -19
-14 -37 11 -92 12 -102 2 -16 -16 -27 -14 -21 4 4 10 0 15 -15 15 -18 0 -21 6
-21 44 0 25 5 48 10 51 6 4 10 -5 10 -21 0 -25 2 -26 36 -19 20 3 46 15 57 26
11 10 24 19 29 19 4 0 8 9 8 20 0 11 -4 20 -10 20 -5 0 -10 7 -10 15 0 8 -1
15 -2 16 -33 8 -88 8 -88 0 0 -6 -7 -11 -15 -11 -9 0 -18 -7 -21 -15 -4 -8
-16 -15 -29 -15 -12 0 -29 -8 -37 -17 -18 -21 -50 -155 -42 -176 3 -8 1 -18
-5 -22 -6 -3 -11 -18 -11 -32 0 -26 0 -26 21 -7 l21 19 -7 -33 c-6 -31 -5 -33
17 -30 16 2 24 10 26 28 6 54 13 70 31 70 16 0 17 -6 13 -50 -4 -46 -3 -50 16
-50 29 0 89 62 97 99 4 17 10 31 14 31 10 0 31 -22 31 -34 0 -5 -7 -1 -15 10
-14 18 -14 18 -15 -10 0 -23 3 -27 20 -23 17 4 20 0 20 -34 0 -32 4 -39 19
-39 24 0 31 29 20 77 -13 62 4 57 44 -12 35 -60 40 -65 72 -65 34 0 35 1 35
41 0 22 4 38 9 35 5 -4 11 0 14 6 3 7 4 3 4 -9 -1 -12 -5 -19 -9 -17 -4 3 -8
-2 -8 -10 0 -8 5 -18 10 -21 6 -4 8 -11 5 -16 -9 -13 29 -11 43 3 9 9 17 9 34
0 13 -7 42 -11 66 -10 32 2 42 6 42 20 0 35 44 33 55 -3 4 -10 13 -19 21 -19
20 0 18 43 -5 71 -18 25 -18 54 1 43 7 -5 8 -2 3 6 -4 7 -2 16 6 21 12 8 12
10 0 18 -8 5 -9 11 -3 15 6 4 15 -2 21 -11 13 -25 22 -13 24 34 1 37 2 38 19
21 21 -21 23 -29 6 -26 -6 2 -13 -9 -14 -24 -2 -19 2 -28 12 -28 8 0 14 -8 14
-17 0 -15 2 -16 10 -3 7 11 11 9 20 -14 9 -24 7 -36 -8 -67 l-19 -38 71 0 c53
1 77 6 97 20 20 14 29 16 32 7 3 -7 5 97 4 232 -2 209 -5 252 -21 294 -23 63
-63 124 -86 131 -10 3 -35 19 -56 36 -21 17 -40 26 -42 20 -7 -20 55 -137 91
-174 33 -33 37 -41 40 -105 2 -37 7 -74 12 -82 6 -10 -1 -12 -34 -7 l-42 5 22
-19 c12 -10 16 -19 9 -19 -7 0 -10 -7 -6 -15 3 -8 0 -15 -7 -15 -8 0 -6 -4 3
-10 13 -8 12 -10 -3 -10 -10 0 -15 -5 -12 -10 3 -5 -3 -10 -14 -10 -10 0 -21
5 -23 12 -3 9 -12 9 -36 -1 -18 -7 -32 -18 -32 -23 0 -5 -10 0 -22 12 -12 11
-25 20 -29 20 -11 0 -1 86 16 144 8 27 15 68 15 91 0 23 7 64 15 91 21 70 19
107 -8 132 -32 30 -37 28 -38 -15z m-697 -529 c-3 -24 -7 -32 -12 -23 -9 16
-1 71 9 64 4 -2 5 -20 3 -41z m668 30 c0 -8 -4 -12 -10 -9 -5 3 -10 10 -10 16
0 5 5 9 10 9 6 0 10 -7 10 -16z m200 -4 c-6 -11 -16 -20 -22 -20 -6 0 -17 -8
-24 -17 -12 -16 -12 -16 -7 5 3 12 9 22 14 22 5 0 9 7 9 15 0 8 9 15 20 15 18
0 19 -3 10 -20z m-517 -90 c7 0 23 9 37 20 34 27 36 26 36 -20 -1 -39 -2 -40
-28 -35 -26 6 -27 5 -30 -47 l-3 -53 -30 62 c-16 35 -36 63 -44 63 -8 0 -11 3
-8 6 3 4 2 15 -3 25 -15 28 11 30 38 3 13 -13 28 -24 35 -24z m447 36 c0 -3
-4 -8 -10 -11 -5 -3 -10 -1 -10 4 0 6 5 11 10 11 6 0 10 -2 10 -4z m-160 -21
c-7 -9 -15 -13 -19 -10 -3 3 1 10 9 15 21 14 24 12 10 -5z m-132 -50 c-3 -3
-9 2 -12 12 -6 14 -5 15 5 6 7 -7 10 -15 7 -18z m147 -45 c3 -6 -1 -7 -9 -4
-18 7 -21 14 -7 14 6 0 13 -4 16 -10z m287 -7 c-6 -2 -10 -9 -7 -13 3 -5 1
-11 -5 -15 -5 -3 -10 0 -10 8 0 17 10 27 24 26 6 0 5 -3 -2 -6z"/>
<path d="M974 706 c22 -18 46 -21 46 -6 0 6 -6 10 -14 10 -8 0 -23 3 -33 6
-16 5 -16 4 1 -10z"/>
<path d="M1010 675 c0 -3 10 -25 23 -48 l22 -42 3 39 c2 21 2 39 0 41 -8 7
-48 16 -48 10z"/>
<path d="M849 635 c-4 -3 -3 -22 0 -43 4 -20 7 -48 6 -62 0 -29 24 -59 43 -52
9 3 10 -2 2 -22 -11 -29 3 -36 18 -9 7 11 5 27 -6 50 -13 28 -14 36 -3 42 10
6 9 10 -3 14 -9 4 -16 15 -16 26 0 21 -32 66 -41 56z"/>
<path d="M573 553 c9 -2 23 -2 30 0 6 3 -1 5 -18 5 -16 0 -22 -2 -12 -5z"/>
<path d="M580 269 c0 -5 5 -7 10 -4 6 3 10 8 10 11 0 2 -4 4 -10 4 -5 0 -10
-5 -10 -11z"/>
<path d="M315 257 c-4 -10 -5 -21 -1 -24 10 -10 18 4 13 24 -4 17 -4 17 -12 0z"/>
<path d="M798 64 c3 -47 7 -64 18 -64 22 0 19 106 -3 119 -16 8 -18 3 -15 -55z"/>
</g>
</svg>
