<?xml version="1.0" standalone="no"?>
<!DOCTYPE svg PUBLIC "-//W3C//DTD SVG 20010904//EN"
 "http://www.w3.org/TR/2001/REC-SVG-20010904/DTD/svg10.dtd">
<svg version="1.0" xmlns="http://www.w3.org/2000/svg"
 width="2777.000000pt" height="2777.000000pt" viewBox="0 0 2777.000000 2777.000000"
 preserveAspectRatio="xMidYMid meet">
<metadata>
Created by potrace 1.16, written by Peter Selinger 2001-2019
</metadata>
<g transform="translate(0.000000,2777.000000) scale(0.100000,-0.100000)"
fill="#000000" stroke="none">
<path d="M13809 27329 c-8 -16 -14 -78 -17 -179 -4 -164 5 -235 28 -235 49 0
64 375 17 423 -13 13 -17 12 -28 -9z"/>
<path d="M14458 27280 c-43 -26 -8 -127 104 -300 110 -169 150 -274 151 -395
1 -145 -51 -246 -199 -383 -108 -101 -496 -375 -506 -358 -4 6 -8 76 -8 155 0
237 -24 700 -36 689 -2 -2 -17 -96 -34 -209 -34 -228 -109 -661 -115 -668 -7
-7 -13 18 -50 219 -86 468 -159 630 -304 679 -107 35 -216 -6 -455 -173 -194
-136 -349 -198 -496 -200 -121 -1 -163 14 -234 85 -109 107 -228 133 -611 133
-288 0 -345 -8 -462 -65 -85 -41 -144 -102 -235 -240 -42 -64 -89 -124 -104
-134 -44 -29 -79 -4 -177 127 -47 62 -99 127 -117 143 -31 29 -32 29 -46 11
-8 -11 -14 -31 -14 -45 -3 -137 -21 -346 -35 -389 -39 -127 -138 -164 -176
-65 -14 38 -11 145 7 220 36 153 35 263 -3 305 -36 40 -100 11 -138 -62 -9
-18 -21 -73 -25 -123 -20 -209 -111 -196 -298 41 -38 48 -85 105 -106 126 -35
37 -38 39 -54 22 -14 -14 -17 -37 -17 -149 1 -118 4 -141 29 -212 35 -102 84
-190 131 -235 96 -92 88 -157 -33 -254 -94 -74 -147 -137 -187 -221 -135 -283
-149 -691 -39 -1184 52 -236 74 -501 55 -676 -10 -103 -100 -487 -112 -483 -4
2 -99 118 -211 258 -222 277 -285 345 -336 367 -57 24 -93 4 -224 -125 -134
-131 -166 -182 -149 -235 13 -40 77 -102 191 -188 168 -125 230 -205 256 -329
13 -65 13 -84 -1 -183 -21 -155 -20 -239 4 -268 18 -23 21 -23 75 -12 68 14
82 10 102 -30 21 -40 20 -221 -1 -377 -23 -171 -29 -350 -16 -466 20 -168 46
-256 126 -425 43 -89 78 -176 81 -203 6 -43 5 -48 -29 -79 -55 -52 -250 -97
-422 -97 -159 0 -183 34 -163 227 6 62 8 116 4 120 -12 12 -38 -10 -119 -103
-147 -169 -277 -374 -277 -436 0 -24 4 -28 26 -28 41 0 89 35 128 95 39 58 60
71 97 56 71 -27 196 -228 234 -376 19 -74 19 -191 1 -270 -8 -33 -36 -116 -61
-185 -91 -242 -116 -426 -74 -532 28 -71 22 -170 -16 -259 -65 -152 -78 -201
-78 -289 -1 -74 3 -94 32 -158 58 -131 43 -240 -55 -402 -85 -141 -97 -174
-96 -255 0 -93 33 -187 154 -440 110 -229 148 -339 148 -426 0 -74 -15 -109
-74 -177 -50 -59 -59 -96 -25 -107 11 -4 58 -10 104 -14 133 -13 196 -59 210
-154 10 -66 25 -75 68 -37 19 16 54 57 78 90 42 57 68 75 70 48 8 -105 -43
-329 -151 -666 -41 -127 -49 -192 -27 -210 6 -5 42 -12 80 -14 61 -4 73 -8
140 -54 47 -33 98 -82 147 -142 82 -100 131 -142 167 -142 78 0 1 198 -139
356 -74 84 -123 178 -143 272 -18 80 -18 96 -5 144 24 87 102 137 210 138 119
0 218 -70 263 -185 39 -100 52 -87 67 69 29 289 47 406 121 766 65 313 226
987 295 1232 96 343 186 524 305 611 78 58 304 137 389 137 19 0 46 -7 59 -16
21 -15 23 -22 17 -68 -7 -62 -71 -198 -157 -333 -120 -189 -151 -243 -147
-255 2 -6 42 22 89 63 236 210 409 321 409 265 0 -43 -177 -235 -439 -476
-117 -108 -161 -159 -161 -187 0 -23 41 -34 163 -42 223 -16 268 -56 286 -252
14 -143 40 -173 177 -206 59 -14 165 -17 731 -20 l661 -4 141 286 c178 363
253 496 318 564 48 50 55 53 87 48 49 -8 113 -54 221 -161 117 -115 157 -175
149 -226 -7 -44 13 -88 94 -205 106 -153 282 -360 546 -644 226 -243 256 -279
332 -392 73 -110 127 -221 150 -310 16 -63 17 -249 2 -265 -15 -15 -47 29
-114 157 -83 157 -141 233 -213 276 -78 47 -136 55 -319 49 -135 -6 -164 -4
-207 11 -62 22 -91 63 -100 141 -10 79 -35 116 -103 149 -55 27 -62 28 -222
28 -175 0 -200 -5 -244 -54 -30 -33 -32 -118 -6 -252 25 -134 24 -202 -3 -207
-21 -4 -80 25 -202 102 -235 148 -411 122 -511 -76 -76 -149 -105 -489 -50
-574 32 -48 62 -59 188 -64 112 -5 119 -6 145 -33 58 -58 29 -169 -132 -507
-112 -235 -125 -267 -125 -315 0 -39 18 -56 68 -64 22 -4 38 -13 40 -22 6 -32
-83 -143 -216 -267 -310 -288 -385 -378 -351 -418 11 -13 26 -15 79 -11 82 6
166 35 244 86 34 22 79 44 101 50 174 44 737 42 1285 -5 347 -29 546 -57 576
-79 16 -11 15 -14 -13 -28 -16 -9 -86 -30 -154 -47 -483 -121 -1162 -393
-1321 -529 -37 -32 -40 -37 -35 -74 13 -93 121 -255 274 -410 168 -170 289
-265 467 -364 522 -291 469 -453 -198 -607 -83 -20 -230 -49 -326 -66 -96 -17
-206 -42 -243 -55 -210 -73 -382 -246 -418 -423 -11 -54 -11 -73 4 -145 21
-102 22 -151 1 -171 -22 -22 -88 -20 -214 6 -105 22 -140 21 -140 -4 0 -7 24
-45 54 -84 105 -138 114 -186 36 -197 -81 -11 -305 -162 -526 -356 -293 -258
-476 -357 -644 -349 -128 6 -195 53 -300 208 -32 47 -67 93 -78 103 -20 18
-21 18 -32 -3 -20 -37 -15 -148 9 -220 110 -321 525 -943 954 -1432 212 -242
370 -379 662 -573 623 -415 1441 -754 2155 -894 290 -57 410 -73 568 -78 233
-8 329 14 567 130 235 115 365 207 526 373 163 169 255 320 322 529 174 541
174 1378 0 1421 -51 13 -89 -34 -101 -124 -12 -83 -23 -94 -62 -57 -38 36
-150 261 -185 369 -89 280 -100 595 -39 1149 32 298 31 444 -4 479 -36 36 -93
28 -292 -41 -187 -65 -238 -73 -269 -42 -39 39 -44 114 -35 461 14 508 12 711
-10 803 -32 139 -72 203 -235 371 -215 221 -304 365 -318 513 -10 103 27 153
112 153 70 0 199 -119 316 -291 82 -121 166 -205 218 -219 50 -13 80 -6 139
35 26 17 62 37 81 43 47 16 113 15 137 -3 28 -21 58 -18 81 8 29 31 68 112 88
182 40 139 101 238 155 250 107 23 376 490 585 1015 106 267 151 422 205 707
52 279 140 483 243 564 93 74 129 46 166 -127 108 -498 72 -1217 -103 -2046
-98 -462 -235 -926 -372 -1254 -109 -263 -188 -404 -309 -554 -42 -52 -86
-112 -96 -132 -58 -114 19 -140 184 -61 87 42 169 100 293 209 157 136 414
279 740 409 322 129 437 224 418 343 -7 44 11 142 33 186 9 16 46 59 83 95 58
56 71 75 85 125 37 126 -13 272 -141 416 -85 94 -104 135 -104 225 0 86 17
160 71 307 105 288 261 515 367 534 61 11 110 42 178 110 58 59 103 123 254
360 152 239 383 330 454 179 10 -21 22 -79 26 -134 10 -110 16 -131 37 -131
33 0 166 167 215 268 16 35 39 108 50 161 17 83 19 118 14 256 -3 88 -11 185
-16 215 -21 119 -30 276 -20 359 19 146 63 232 204 395 87 102 133 188 141
267 6 48 2 62 -31 129 -61 125 -58 270 8 361 41 57 83 72 173 64 70 -7 73 -6
93 20 40 50 47 92 46 255 -1 168 -21 302 -74 510 -61 238 -125 403 -263 671
-91 177 -148 321 -134 335 4 4 23 2 44 -4 106 -33 131 76 153 673 15 427 31
525 93 600 26 32 33 35 81 35 94 0 111 58 51 183 -48 100 -95 107 -199 28 -64
-48 -88 -61 -119 -61 -48 0 -106 80 -127 175 -14 61 1 112 35 121 39 10 54 36
66 114 12 78 8 145 -17 318 -11 76 -12 108 -4 123 15 26 23 19 102 -83 80
-103 118 -115 118 -37 0 100 59 146 148 116 23 -8 42 -12 42 -8 0 3 -65 69
-144 146 -187 182 -242 267 -181 280 14 3 36 7 50 10 42 9 51 45 30 109 -17
51 -17 56 -2 80 18 27 70 46 125 46 44 0 105 33 136 73 50 65 51 176 3 225
-26 26 -32 27 -125 26 -68 -1 -140 -11 -240 -33 -166 -36 -251 -40 -275 -13
-25 28 -21 115 12 277 43 212 46 234 25 242 -13 5 -26 -4 -48 -32 -65 -82
-113 -128 -126 -120 -18 11 -9 97 50 440 90 530 119 796 127 1176 12 574 -59
894 -232 1047 -73 64 -181 88 -277 61 -62 -16 -54 -36 63 -171 125 -144 182
-285 215 -527 20 -155 20 -491 -1 -681 -55 -492 -194 -999 -304 -1104 -49 -47
-80 -18 -107 100 -14 58 -18 188 -24 814 -8 738 -15 917 -46 1140 -48 346
-145 525 -337 619 -95 46 -182 70 -415 112 -237 43 -303 50 -346 38 -31 -8
-36 -14 -36 -39 0 -30 61 -153 113 -229 66 -97 183 -181 251 -181 160 0 393
-747 413 -1325 5 -145 2 -188 -16 -293 -20 -121 -33 -162 -51 -162 -11 0 -42
94 -80 250 -62 248 -135 445 -205 555 -132 206 -355 766 -355 891 0 55 -58
153 -139 235 -95 95 -168 139 -233 139 -47 0 -48 1 -78 53 -29 50 -50 110
-120 347 -58 195 -143 340 -209 357 -42 11 -56 -8 -54 -73 3 -109 62 -304 253
-837 50 -142 89 -261 86 -264 -13 -13 -754 69 -906 101 -464 97 -859 295
-1099 552 -123 131 -199 270 -241 439 -58 236 -119 313 -225 286 -88 -22 -160
20 -212 124 -71 139 -175 221 -235 185z m6 -1533 c-2 -75 -120 -280 -227 -394
-64 -68 -93 -79 -103 -37 -21 84 28 229 119 349 96 127 214 173 211 82z m3144
-180 c59 -63 285 -483 382 -712 100 -233 146 -426 106 -441 -56 -22 -155 83
-236 250 -113 232 -241 595 -281 793 -27 130 -18 161 29 110z m-932 -117 c89
-23 226 -86 268 -125 66 -61 6 -85 -213 -86 -175 -1 -283 16 -368 57 -60 29
-73 55 -49 102 14 27 55 54 101 65 52 12 187 6 261 -13z m-2099 -67 c-16 -177
-187 -473 -273 -473 l-27 0 5 63 c6 72 59 219 109 303 51 86 128 164 163 164
l29 0 -6 -57z m-4513 -315 c28 -50 77 -203 105 -333 31 -141 44 -322 38 -495
-7 -177 -22 -250 -74 -365 -32 -70 -37 -90 -37 -160 -1 -69 2 -85 23 -113 13
-18 21 -36 18 -39 -10 -9 -50 5 -99 36 -79 50 -105 128 -73 216 31 87 12 272
-54 535 -54 210 -65 296 -58 453 6 156 22 212 78 268 30 30 47 39 74 39 30 0
37 -5 59 -42z m-323 -3481 c58 -31 111 -100 107 -140 -5 -48 -46 -72 -126 -72
-55 0 -75 5 -114 28 -55 32 -68 52 -68 102 0 29 8 45 34 71 28 28 41 34 78 34
28 0 62 -9 89 -23z m6505 -4592 c23 -14 64 -54 91 -90 56 -74 150 -254 159
-302 6 -28 3 -34 -20 -44 -21 -10 -42 -9 -105 3 -113 23 -183 75 -234 174 -60
116 -36 284 40 284 15 0 45 -11 69 -25z m1849 -2205 c16 -18 17 -25 6 -62 -32
-106 -163 -234 -213 -207 -45 24 -4 175 67 247 36 35 49 42 82 42 27 0 46 -6
58 -20z m-278 -1062 c17 -18 36 -50 43 -72 46 -143 -97 -356 -238 -356 -110 0
-138 125 -64 284 73 156 187 219 259 144z"/>
<path d="M19920 24082 c-96 -61 -176 -175 -214 -300 -33 -112 -33 -286 1 -299
24 -10 56 39 161 247 105 208 135 288 130 342 -4 43 -22 45 -78 10z"/>
<path d="M8024 20135 c-14 -22 -15 -32 -6 -63 14 -46 73 -117 115 -139 29 -15
32 -14 48 6 24 30 34 101 19 145 -23 71 -141 105 -176 51z"/>
<path d="M7974 19763 c-40 -43 -102 -154 -109 -196 -8 -40 13 -87 38 -87 16 0
59 45 77 79 24 47 60 165 60 198 0 27 -4 33 -20 33 -12 0 -32 -12 -46 -27z"/>
<path d="M11807 15028 c-39 -37 -60 -95 -77 -213 -11 -81 -14 -485 -2 -485 8
1 100 221 137 331 51 150 70 314 42 369 -19 38 -58 38 -100 -2z"/>
<path d="M16432 13220 c-124 -90 -348 -439 -360 -560 -4 -42 -1 -52 21 -74 21
-20 36 -26 72 -26 42 0 50 4 93 48 117 121 252 425 252 567 0 46 -12 75 -30
75 -4 0 -25 -13 -48 -30z"/>
<path d="M16863 9270 c-62 -25 -80 -119 -93 -480 -12 -360 -20 -432 -85 -780
-291 -1550 -499 -3006 -550 -3838 -8 -131 -21 -274 -30 -318 -32 -155 -92
-269 -200 -378 -134 -136 -339 -248 -708 -385 -277 -103 -387 -157 -371 -182
3 -5 15 -9 27 -9 12 0 39 -5 60 -11 53 -14 51 -45 -9 -98 -124 -109 -495 -235
-635 -216 -186 26 -196 201 -29 549 29 60 58 127 66 149 18 50 18 138 1 180
-33 78 -159 152 -348 206 -320 89 -388 65 -517 -185 -73 -140 -141 -229 -200
-262 -37 -21 -46 -22 -77 -12 -72 24 -150 -32 -239 -170 -106 -165 -235 -262
-433 -326 -219 -71 -289 -151 -300 -343 -3 -53 -10 -106 -14 -118 -13 -34 -48
-29 -117 17 -119 80 -186 182 -185 285 0 33 3 81 8 107 11 66 1 96 -38 114
-27 13 -41 14 -74 5 -127 -35 -397 -294 -556 -536 -75 -114 -99 -162 -132
-261 -27 -82 -51 -119 -97 -149 -54 -34 -91 -35 -216 -4 -352 86 -815 110
-1035 53 -78 -20 -84 -23 -154 -85 -58 -51 -142 -99 -175 -99 -10 0 -27 9 -38
20 -26 26 -26 75 0 165 37 129 5 162 -170 175 -159 12 -194 32 -231 129 -41
111 -44 550 -4 771 30 171 67 252 117 258 57 7 83 -67 93 -264 9 -174 13 -200
41 -233 44 -52 106 -51 394 6 153 30 274 69 405 132 129 61 193 103 296 192
153 132 287 219 338 219 50 0 93 114 93 243 -1 141 -45 228 -121 241 -76 12
-108 76 -121 237 -5 67 -13 125 -17 130 -4 4 -42 14 -83 23 -361 74 -932 71
-971 -4 -4 -8 -16 -33 -27 -55 -24 -51 -82 -81 -181 -94 -97 -13 -171 -61
-218 -141 -46 -80 -71 -109 -122 -142 -72 -45 -143 -67 -255 -77 -128 -13
-234 -50 -342 -123 -82 -55 -118 -97 -169 -198 -207 -412 -500 -1703 -444
-1965 34 -164 19 -249 -55 -310 -88 -71 -126 -204 -126 -432 0 -161 4 -189 28
-198 27 -10 63 19 386 309 42 38 78 67 81 65 2 -2 -12 -76 -31 -164 -53 -244
-84 -421 -84 -479 0 -65 25 -102 74 -112 41 -7 194 11 263 31 126 37 193 134
218 315 8 58 21 157 30 220 57 410 137 584 284 620 76 18 157 6 192 -29 56
-56 61 -150 28 -551 -25 -305 -23 -511 4 -553 33 -51 62 -62 167 -62 73 1 109
6 155 23 168 62 419 256 614 475 235 264 368 483 426 702 49 185 87 282 129
333 32 37 45 39 101 13 120 -54 279 -241 306 -361 24 -103 -70 -49 -196 115
-56 73 -107 125 -122 125 -23 0 -34 -81 -35 -254 -1 -186 8 -243 47 -282 29
-29 88 -32 212 -8 101 19 144 9 174 -39 31 -51 39 -119 49 -392 9 -286 19
-341 70 -399 37 -42 100 -61 179 -53 262 23 340 319 230 872 -63 318 -76 483
-44 545 59 114 232 -79 545 -605 354 -595 440 -708 590 -774 73 -32 194 -44
383 -39 191 6 238 17 282 69 39 48 46 90 55 364 9 271 25 392 58 449 19 32 25
33 88 20 45 -9 90 19 127 77 41 67 52 53 52 -64 -1 -108 -23 -192 -60 -227
-22 -20 -28 -22 -50 -12 -54 25 -91 -31 -89 -134 1 -84 43 -173 114 -239 78
-74 95 -125 64 -190 -36 -77 3 -109 131 -108 143 1 285 51 386 138 122 105
181 107 383 14 200 -93 415 -132 731 -132 215 0 356 16 462 52 97 34 143 102
143 212 0 104 59 207 144 252 32 17 58 22 121 22 71 0 88 -4 148 -34 88 -42
167 -122 207 -207 16 -35 43 -92 60 -127 50 -106 156 -196 233 -197 112 -1
176 118 164 305 -12 173 -77 344 -200 522 -86 125 -127 201 -155 293 -68 224
-3 341 142 256 82 -48 96 -29 46 64 -59 109 -34 188 88 279 70 52 91 83 79
116 -4 8 -40 39 -82 70 -91 68 -118 111 -95 153 9 15 32 35 53 46 36 17 41 17
80 2 64 -24 114 -71 172 -160 99 -153 152 -170 200 -64 43 97 68 272 80 578 7
172 21 274 41 291 29 24 69 -3 191 -125 125 -126 203 -231 203 -272 0 -35 -32
-47 -109 -39 -58 6 -70 4 -93 -14 -61 -49 -107 -204 -108 -367 0 -156 42 -229
143 -243 119 -16 166 -78 177 -234 10 -147 23 -149 113 -19 86 125 120 118
197 -42 94 -196 130 -359 110 -493 -22 -144 -73 -269 -265 -653 -63 -126 -115
-233 -115 -236 0 -11 1125 3 1260 16 272 24 487 73 625 142 33 17 116 67 184
111 137 88 201 117 261 117 32 0 43 -5 62 -31 l23 -30 7 27 c25 94 33 597 32
2074 0 2376 -30 3263 -125 3795 -53 293 -160 592 -354 984 -115 233 -180 345
-310 541 -169 253 -337 436 -448 486 -237 108 -440 235 -682 425 -281 220
-489 332 -540 289 -21 -17 -19 -97 5 -195 87 -360 527 -1196 882 -1678 84
-113 142 -180 291 -335 311 -325 356 -459 392 -1167 22 -438 82 -853 141 -984
34 -78 30 -102 -21 -119 -42 -15 -169 -11 -290 8 -106 16 -576 71 -585 68 -5
-2 39 -43 97 -93 228 -193 317 -293 300 -337 -3 -9 -23 -19 -44 -23 -46 -8
-80 -37 -88 -75 -4 -17 3 -57 15 -99 36 -117 8 -178 -85 -189 -85 -9 -67 -45
63 -134 118 -80 112 -97 -42 -108 -148 -11 -184 -38 -162 -122 12 -46 4 -64
-45 -93 -27 -16 -52 -20 -119 -20 -143 0 -236 47 -285 146 -31 60 -47 69 -126
69 -77 0 -227 -49 -386 -125 -172 -82 -282 -166 -303 -231 -13 -39 -20 -41
-75 -15 -44 21 -81 50 -241 190 -118 103 -243 189 -287 198 -52 11 -62 40 -65
213 -8 356 83 943 233 1495 113 418 168 733 186 1070 23 432 75 761 180 1139
66 237 117 445 138 561 94 526 19 832 -265 1090 -190 172 -278 226 -331 205z
m-497 -6281 c48 -45 68 -165 39 -234 -26 -64 -85 -65 -147 -3 -70 70 -96 158
-62 207 43 61 122 75 170 30z m2509 7 c32 -21 33 -58 1 -135 -68 -168 -202
-308 -312 -326 -88 -14 -211 -110 -315 -246 -87 -115 -98 -117 -79 -12 15 83
56 215 81 265 30 59 77 106 112 113 62 14 94 61 108 163 15 104 58 154 162
188 57 19 208 13 242 -10z m-10537 -69 c59 -122 15 -687 -60 -766 -36 -39 -74
7 -100 120 -18 77 -15 314 5 427 18 100 47 190 72 229 22 33 65 28 83 -10z
m3573 -759 c93 -44 163 -97 309 -233 123 -115 266 -217 329 -236 52 -15 91 -7
190 41 101 49 183 104 376 250 142 107 229 160 268 160 34 0 64 -43 76 -112
14 -81 15 -506 1 -617 -12 -90 -25 -124 -60 -156 -31 -28 -120 -25 -294 9 -82
17 -154 26 -174 22 -41 -6 -79 -39 -98 -81 -25 -59 -43 -243 -69 -680 -14
-242 -27 -444 -29 -450 -4 -12 -54 87 -211 415 -261 546 -351 712 -474 878
-74 100 -155 179 -189 186 -15 2 -44 7 -64 11 -21 3 -44 13 -53 22 -14 14 -14
18 -1 38 40 61 28 163 -36 315 -23 54 -43 118 -46 147 -4 48 -2 55 27 84 30
29 36 31 90 27 39 -3 81 -16 132 -40z m6049 -13 c40 -21 38 -46 -7 -96 -64
-71 -145 -98 -185 -62 -35 32 -16 110 38 152 33 26 111 28 154 6z m-1800 -127
c0 -37 -135 -207 -199 -250 -30 -22 -57 -32 -84 -32 -71 -2 -75 52 -10 125 32
36 184 138 237 159 31 13 56 12 56 -2z m-1807 -519 c87 -75 142 -181 118 -228
-39 -73 -129 36 -187 227 -12 38 -11 42 4 42 9 0 38 -19 65 -41z m1786 -688
c67 -35 126 -119 106 -152 -20 -32 -198 29 -271 93 -59 52 -38 77 64 78 43 0
75 -6 101 -19z m3635 -120 c8 -12 -33 -47 -75 -64 -39 -16 -76 -57 -86 -95 -3
-13 2 -47 12 -76 17 -50 17 -54 0 -90 -35 -74 -113 -108 -155 -66 -27 27 -34
61 -27 136 15 162 117 264 264 264 34 0 64 -4 67 -9z"/>
<path d="M19095 8671 c-3 -5 25 -37 63 -70 193 -174 362 -261 505 -261 91 0
137 37 137 111 0 80 -45 106 -209 124 -128 15 -286 47 -410 85 -72 23 -78 23
-86 11z"/>
<path d="M19684 8157 c-8 -21 69 -199 169 -388 45 -85 145 -276 222 -422 77
-147 143 -267 146 -267 10 0 54 617 54 771 0 185 1 182 -110 229 -162 67 -466
116 -481 77z"/>
<path d="M17734 7659 c-16 -18 -20 -40 -22 -147 -4 -133 7 -258 38 -437 35
-196 51 -356 60 -580 5 -144 14 -241 24 -280 28 -105 102 -239 176 -318 109
-117 202 -154 317 -127 73 18 89 8 86 -53 0 -25 -24 -113 -52 -194 -43 -125
-51 -160 -51 -221 0 -60 4 -76 21 -93 25 -25 58 -20 107 18 43 32 113 127 149
201 25 52 28 66 27 162 -1 127 -20 191 -129 439 -142 323 -148 399 -36 470
119 77 120 109 3 167 -98 49 -114 63 -158 131 -38 58 -64 145 -64 211 0 163
-226 547 -379 644 -53 33 -91 36 -117 7z"/>
<path d="M14412 6730 c-63 -10 -73 -17 -49 -35 48 -35 348 -47 406 -16 28 16
23 33 -15 43 -44 12 -282 18 -342 8z"/>
<path d="M14553 3360 c-74 -45 -86 -157 -19 -174 63 -16 196 84 196 147 0 20
-60 47 -107 47 -21 0 -52 -9 -70 -20z"/>
<path d="M11327 3183 c-47 -91 -77 -193 -77 -264 0 -67 11 -96 47 -123 59 -44
120 -11 144 77 16 59 5 196 -23 292 -30 104 -44 107 -91 18z"/>
<path d="M17145 1447 c-25 -39 -35 -122 -35 -301 0 -306 34 -739 70 -909 21
-98 51 -171 82 -204 23 -25 75 -39 107 -28 53 16 106 136 132 295 20 124 18
492 -4 640 -31 210 -88 383 -150 456 -57 67 -172 96 -202 51z"/>
</g>
</svg>
