<?xml version="1.0" standalone="no"?>
<!DOCTYPE svg PUBLIC "-//W3C//DTD SVG 20010904//EN"
 "http://www.w3.org/TR/2001/REC-SVG-20010904/DTD/svg10.dtd">
<svg version="1.0" xmlns="http://www.w3.org/2000/svg"
 width="1500.000000pt" height="500.000000pt" viewBox="0 0 1500.000000 500.000000"
 preserveAspectRatio="xMidYMid meet">

<g transform="translate(0.000000,500.000000) scale(0.100000,-0.100000)"
fill="#000000" stroke="none">
<path d="M3540 3629 c-19 -4 -100 -20 -180 -35 -80 -15 -148 -29 -151 -33 -4
-3 -9 -25 -13 -49 l-6 -43 35 7 c21 4 48 1 66 -6 55 -23 59 -43 59 -317 l0
-248 -152 0 c-177 0 -230 -14 -354 -91 -313 -193 -420 -635 -227 -931 70 -107
194 -184 329 -203 102 -14 120 -7 322 123 75 48 96 57 103 46 5 -8 9 -20 9
-27 0 -30 43 -94 79 -117 40 -27 121 -42 164 -31 38 9 121 79 168 141 40 53
41 56 25 80 l-16 24 -36 -24 c-37 -25 -94 -45 -129 -45 -39 0 -83 37 -96 80
-22 73 11 1238 43 1535 20 184 21 180 -42 164z m-325 -880 c33 -6 76 -20 97
-30 l38 -20 -2 -362 -3 -362 -70 -47 c-94 -64 -185 -93 -249 -78 -94 21 -159
67 -216 152 -122 182 -116 488 12 633 95 108 224 145 393 114z"/>
<path d="M13174 3625 c-22 -7 -103 -23 -180 -36 -76 -13 -142 -28 -146 -34 -4
-5 -8 -27 -8 -47 l0 -38 50 0 c64 0 96 -28 105 -91 3 -24 5 -371 3 -771 -3
-719 -3 -727 -24 -755 -16 -22 -65 -47 -111 -58 -1 0 -5 -23 -8 -50 l-7 -51
250 0 250 0 7 44 c4 25 9 51 12 58 4 11 -10 14 -65 14 -54 0 -75 4 -93 19
l-24 19 -3 369 -3 369 53 36 c143 97 282 132 371 94 53 -23 96 -73 114 -135
14 -49 15 -95 9 -365 -5 -220 -11 -318 -20 -340 -17 -39 -51 -71 -97 -90 -33
-14 -37 -19 -42 -63 -3 -26 -4 -49 -2 -51 2 -2 39 2 82 9 46 8 147 13 249 12
l171 -2 7 46 c10 76 13 73 -59 73 -76 0 -100 16 -111 76 -9 47 1 265 21 499
24 262 9 342 -79 430 -41 41 -65 56 -123 74 -137 44 -229 19 -440 -118 l-93
-60 0 78 c0 192 33 706 50 785 9 42 4 67 -14 65 -6 -1 -29 -7 -52 -14z"/>
<path d="M2000 3499 c-57 -23 -92 -78 -92 -145 0 -155 200 -182 264 -36 53
118 -52 229 -172 181z"/>
<path d="M4145 3496 c-104 -47 -125 -193 -36 -253 42 -28 82 -29 136 -3 126
61 106 254 -26 266 -25 3 -57 -2 -74 -10z"/>
<path d="M8670 3492 c-52 -26 -80 -74 -80 -138 0 -45 5 -59 31 -88 102 -117
296 21 235 167 -28 69 -113 96 -186 59z"/>
<path d="M1460 3380 c-30 -5 -153 -8 -272 -9 l-216 -1 -6 -27 c-3 -16 -8 -44
-11 -64 l-7 -36 76 5 c90 6 133 -8 144 -47 4 -14 6 -325 4 -691 -3 -717 -6
-761 -57 -862 -38 -75 -78 -121 -156 -179 -38 -29 -69 -54 -69 -56 0 -4 40
-86 45 -91 6 -7 124 59 181 102 131 98 205 231 233 421 6 39 15 248 21 465 17
645 28 867 45 899 14 28 42 44 98 57 32 7 34 10 40 77 5 53 11 51 -93 37z"/>
<path d="M7053 3373 c-360 -4 -325 5 -338 -80 l-7 -43 70 0 c54 0 75 -4 93
-19 l24 -19 3 -614 c2 -426 0 -629 -8 -665 -15 -68 -52 -104 -131 -128 -34
-11 -63 -24 -64 -29 -2 -6 -6 -33 -10 -60 l-7 -49 44 7 c168 24 261 28 390 17
311 -29 393 -25 536 23 309 106 543 382 601 710 15 85 13 263 -3 343 -35 162
-121 307 -244 409 -73 61 -231 141 -327 167 -63 17 -232 38 -275 34 -14 -1
-170 -3 -347 -4z m383 -144 c78 -12 205 -53 269 -87 62 -34 174 -138 214 -200
71 -111 103 -244 102 -427 -1 -322 -118 -551 -336 -655 -107 -52 -179 -64
-326 -57 -140 6 -210 32 -244 89 -29 49 -30 152 -10 728 20 589 21 600 55 618
27 14 155 10 276 -9z"/>
<path d="M2105 2894 c-27 -7 -105 -23 -172 -36 -131 -23 -133 -25 -133 -90 0
-25 2 -26 35 -21 19 3 47 0 63 -6 57 -24 57 -22 60 -444 3 -379 2 -390 -18
-433 -17 -34 -32 -49 -75 -69 -51 -26 -53 -28 -57 -73 -3 -26 -4 -48 -2 -50 1
-2 55 4 120 14 88 12 153 15 250 10 l131 -6 7 37 c13 83 13 83 -55 83 -73 0
-93 10 -108 51 -28 80 3 852 39 987 17 63 3 71 -85 46z"/>
<path d="M4205 2884 c-55 -13 -135 -29 -177 -35 l-78 -12 0 -33 c0 -18 -3 -39
-6 -48 -5 -13 2 -14 43 -9 67 7 99 -20 113 -96 12 -67 13 -692 0 -745 -12 -54
-39 -87 -93 -115 -42 -21 -47 -27 -53 -68 -3 -24 -4 -46 -1 -49 3 -4 39 0 79
7 44 9 141 14 245 14 123 -1 174 2 177 11 2 6 7 32 11 57 l7 46 -72 3 c-67 3
-75 5 -94 31 -20 27 -21 38 -18 255 3 279 18 553 38 690 8 56 12 107 9 112 -8
13 -13 12 -130 -16z"/>
<path d="M4885 2879 c-71 -16 -146 -32 -165 -36 -34 -8 -35 -10 -35 -53 l0
-45 45 -5 c58 -8 85 -23 99 -58 8 -20 11 -138 9 -425 -3 -396 -3 -397 -25
-419 -13 -12 -42 -30 -65 -39 -40 -16 -43 -19 -50 -65 -4 -27 -6 -49 -5 -50 1
-2 61 2 132 6 72 5 182 7 246 3 130 -7 122 -10 134 71 l7 46 -65 0 c-123 0
-129 19 -116 385 12 360 15 394 34 415 9 10 60 40 112 67 85 43 103 48 172 51
99 4 152 -21 196 -92 l30 -50 0 -345 c0 -309 -2 -349 -17 -378 -22 -39 -60
-70 -97 -78 -31 -7 -41 -26 -41 -84 l0 -34 48 7 c127 19 237 25 338 19 124 -6
117 -10 129 71 l7 46 -62 0 c-71 0 -97 11 -112 48 -14 36 -11 235 7 467 19
246 19 300 -3 367 -44 132 -170 218 -322 218 -65 0 -146 -35 -303 -132 -54
-33 -100 -58 -103 -55 -3 3 1 43 9 88 8 46 13 87 10 92 -7 11 -37 7 -178 -24z"/>
<path d="M8785 2894 c-27 -7 -105 -23 -172 -35 -120 -22 -121 -23 -127 -52
-12 -60 -9 -66 29 -60 19 3 49 0 66 -7 57 -24 59 -39 59 -462 0 -445 2 -433
-91 -481 -53 -27 -54 -29 -59 -77 -4 -33 -2 -50 5 -50 7 0 58 7 116 16 76 12
140 14 241 10 l136 -6 7 43 c4 23 9 50 11 60 5 15 -3 17 -64 17 -61 0 -71 3
-93 26 l-24 26 1 276 c1 285 16 541 38 672 19 108 17 111 -79 84z"/>
<path d="M9388 2872 l-168 -35 0 -47 0 -47 52 -5 c63 -6 94 -36 103 -100 3
-24 5 -205 3 -403 -3 -411 -1 -401 -88 -432 -50 -18 -60 -34 -60 -100 0 -24 1
-25 53 -17 28 4 140 7 249 7 l196 0 7 36 c3 20 9 46 12 59 5 21 3 22 -66 22
-83 0 -105 15 -117 77 -4 21 -2 189 5 373 11 294 14 337 29 348 38 30 150 91
195 106 58 20 156 21 200 2 48 -20 94 -78 113 -143 15 -50 16 -94 9 -362 -8
-366 -11 -376 -99 -417 -53 -24 -54 -26 -58 -72 -3 -26 -3 -49 -2 -51 2 -2 43
3 91 10 53 8 153 13 250 12 l161 -2 7 42 c4 23 9 50 11 60 5 15 -3 17 -65 17
-133 0 -136 19 -101 503 25 352 15 415 -84 505 -64 59 -122 83 -215 89 -69 5
-82 3 -141 -24 -36 -16 -113 -60 -173 -96 -59 -37 -110 -67 -114 -67 -6 0 -1
58 13 148 8 52 17 52 -208 4z"/>
<path d="M11079 2891 c-183 -59 -337 -221 -407 -428 -23 -69 -26 -94 -26 -218
-1 -103 4 -154 16 -191 62 -195 191 -321 376 -369 81 -22 197 -19 267 5 58 20
177 81 246 127 36 23 36 25 26 60 -6 19 -16 37 -23 40 -6 2 -50 -9 -97 -26
-364 -128 -591 20 -620 406 l-6 73 366 2 366 3 21 28 c18 24 21 42 20 120 -2
200 -73 313 -231 366 -80 27 -213 28 -294 2z m212 -142 c57 -32 89 -92 89
-169 0 -40 -5 -62 -16 -71 -15 -12 -73 -17 -388 -34 l-128 -6 7 38 c20 106
120 228 213 258 67 21 168 14 223 -16z"/>
<path d="M12196 2895 c-183 -47 -310 -174 -323 -324 -13 -146 58 -232 312
-376 182 -104 250 -158 265 -215 14 -53 4 -85 -38 -126 -48 -46 -123 -68 -217
-62 -141 9 -207 80 -221 237 l-7 73 -41 -6 c-22 -4 -43 -12 -47 -17 -3 -6 -9
-54 -12 -107 -4 -53 -9 -131 -13 -172 -6 -74 -6 -76 19 -87 85 -39 322 -57
423 -32 99 24 172 65 243 136 82 82 105 139 99 238 -7 115 -85 198 -288 310
-234 129 -295 186 -295 276 0 37 6 53 25 74 52 56 138 79 240 65 110 -15 153
-67 153 -181 0 -68 0 -69 26 -69 61 0 69 8 76 73 4 34 15 107 26 161 10 55 17
101 15 103 -2 3 -28 11 -57 19 -80 22 -290 27 -363 9z"/>
</g>
</svg>
