<?xml version="1.0" standalone="no"?>
<!DOCTYPE svg PUBLIC "-//W3C//DTD SVG 20010904//EN"
 "http://www.w3.org/TR/2001/REC-SVG-20010904/DTD/svg10.dtd">
<svg version="1.0" xmlns="http://www.w3.org/2000/svg"
 width="1080.000000pt" height="1080.000000pt" viewBox="0 0 1080.000000 1080.000000"
 preserveAspectRatio="xMidYMid meet">
<metadata>
Created by potrace 1.16, written by Peter Selinger 2001-2019
</metadata>
<g transform="translate(0.000000,1080.000000) scale(0.100000,-0.100000)"
fill="#000000" stroke="none">
<path d="M0 5400 l0 -5400 5400 0 5400 0 0 5400 0 5400 -5400 0 -5400 0 0
-5400z m6245 5005 c1833 -315 3339 -1590 3950 -3345 240 -689 330 -1498 249
-2225 -117 -1048 -558 -2032 -1264 -2819 -710 -791 -1610 -1321 -2658 -1566
-348 -81 -896 -140 -1191 -128 -92 3 -101 6 -119 28 -22 28 -48 58 -95 110
-55 61 -101 114 -137 160 -19 24 -41 49 -49 57 -61 62 -184 260 -265 428 -32
66 -62 128 -67 137 -5 10 -9 23 -9 29 0 6 -6 25 -13 42 -26 61 -40 102 -44
135 -3 18 -9 35 -14 38 -5 3 -9 16 -9 28 0 21 8 25 78 41 42 9 100 23 127 30
28 7 86 20 130 30 44 9 90 21 103 26 31 12 69 11 77 -1 8 -13 152 -132 226
-187 49 -36 79 -53 192 -109 16 -8 36 -14 46 -14 9 0 22 -5 28 -11 27 -27 311
-47 387 -27 l49 13 -1 515 c0 283 -4 548 -8 587 l-6 73 -107 0 c-58 0 -143 3
-188 6 -78 7 -82 6 -77 -12 6 -22 83 -54 128 -54 34 0 42 -20 22 -59 -44 -84
-95 -104 -266 -105 -191 -1 -275 20 -400 99 -73 46 -118 98 -143 163 -23 58
-22 143 3 192 22 43 98 110 124 110 16 0 15 -3 -3 -26 -37 -47 -23 -108 27
-119 16 -3 89 3 163 15 111 17 182 20 411 20 152 0 281 0 285 -1 34 -6 43 2
43 39 0 72 2 71 -255 78 -215 6 -259 4 -502 -23 -28 -3 -49 0 -65 11 -12 9
-38 16 -58 17 l-35 0 50 18 c111 41 185 50 515 61 179 7 328 14 332 16 9 6 11
315 2 338 -5 13 -26 16 -133 16 -132 0 -558 -26 -582 -35 -8 -3 -43 -9 -79
-14 -108 -15 -213 -50 -280 -92 -8 -5 -24 -13 -35 -18 -69 -30 -195 -169 -195
-214 0 -8 -6 -20 -13 -26 -17 -14 -44 8 -97 79 -40 54 -44 54 -55 2 -12 -55
-47 -40 -91 39 -10 19 -21 36 -24 39 -3 3 -14 23 -25 45 -49 100 -75 111 -75
34 0 -20 -3 -39 -6 -42 -19 -19 -140 140 -206 271 -22 44 -33 24 -28 -56 1
-17 -3 -32 -8 -32 -13 0 -88 85 -105 119 -7 14 -28 52 -45 83 -18 31 -32 66
-32 76 0 11 -7 36 -15 55 -8 20 -15 54 -15 76 0 22 -4 43 -10 46 -5 3 -10 24
-10 46 0 22 -7 56 -15 76 -8 19 -15 49 -15 65 0 16 -5 39 -11 50 -6 11 -15 44
-20 72 -18 110 -32 171 -40 181 -5 5 -9 27 -9 50 -1 22 -7 51 -15 65 -8 14
-15 41 -15 60 0 19 -7 53 -15 75 -18 52 -19 208 -1 271 39 137 49 192 67 387
14 142 -5 374 -38 477 -45 140 -52 194 -32 246 5 16 19 73 30 129 10 55 23
109 28 120 75 161 83 231 71 580 l-5 130 66 100 c61 91 119 196 132 236 3 9
23 25 45 37 133 69 210 128 320 246 40 42 48 46 90 46 45 0 173 37 224 65 19
11 59 15 145 15 108 0 259 20 308 40 11 5 31 11 45 13 14 3 50 15 80 26 38 15
61 19 75 13 78 -35 98 -42 113 -42 10 0 24 -6 30 -12 9 -9 72 -13 235 -13 202
0 226 2 262 20 l40 20 -1 65 c0 36 0 335 0 665 0 778 -2 1260 -7 1360 -2 44 0
91 5 105 11 27 11 600 1 627 -6 14 2 16 68 10 41 -4 142 -18 224 -32z m-1703
-58 c-85 -159 -115 -377 -71 -517 36 -117 91 -192 182 -251 71 -46 166 -76
267 -84 99 -8 109 -14 92 -57 -7 -18 -16 -67 -19 -108 l-6 -75 -58 -57 c-45
-46 -64 -58 -89 -58 -16 0 -38 -4 -48 -9 -9 -5 -44 -17 -77 -27 -138 -43 -288
-135 -402 -248 -64 -63 -110 -96 -136 -96 -9 0 -17 -3 -19 -7 -1 -5 -25 -18
-52 -31 -151 -71 -329 -224 -418 -358 -54 -81 -108 -185 -108 -208 0 -9 -4
-16 -9 -16 -5 0 -12 -18 -16 -40 -4 -22 -11 -42 -16 -46 -5 -3 -9 -19 -9 -35
0 -42 -15 -66 -80 -129 -63 -61 -140 -168 -140 -194 0 -9 -4 -16 -10 -16 -5 0
-10 -8 -10 -17 0 -10 -7 -31 -15 -47 -8 -15 -15 -41 -15 -56 0 -15 -7 -49 -15
-76 -10 -35 -13 -73 -8 -139 8 -118 8 -242 -2 -282 -5 -22 -41 -65 -124 -145
-129 -125 -173 -183 -197 -261 -10 -29 -20 -56 -24 -62 -4 -5 -11 -66 -14
-135 -11 -188 -33 -389 -49 -447 -29 -104 -70 -176 -199 -355 -99 -138 -142
-205 -168 -265 -12 -26 -25 -57 -30 -68 -39 -89 -45 -132 -45 -305 0 -183 16
-282 70 -430 7 -19 20 -60 30 -90 9 -30 20 -64 25 -75 24 -57 48 -168 65 -305
7 -59 -9 -173 -36 -251 -38 -110 -105 -211 -265 -399 -85 -100 -145 -193 -192
-300 -66 -146 -65 -347 3 -530 9 -25 43 -101 76 -169 155 -322 203 -481 204
-671 0 -121 -1 -127 -31 -179 -31 -56 -102 -124 -141 -135 -17 -6 -38 7 -100
60 -379 329 -684 677 -955 1094 -563 865 -845 1885 -815 2940 21 714 194 1398
522 2065 251 510 564 944 976 1355 648 645 1469 1107 2353 1325 169 42 386 85
394 79 2 -1 -10 -27 -26 -57z m-1243 -4929 c71 -43 90 -88 90 -215 1 -51 -3
-95 -9 -98 -5 -3 -10 -2 -10 3 0 16 -130 151 -176 182 -47 33 -89 39 -98 14
-10 -26 -7 -32 29 -54 19 -12 35 -26 35 -32 0 -6 14 -23 30 -38 17 -15 44 -45
59 -66 l29 -38 -29 -64 c-16 -35 -29 -72 -29 -82 0 -10 -5 -20 -11 -22 -17 -6
-31 -146 -24 -243 5 -68 13 -100 32 -134 19 -35 22 -49 14 -65 -5 -12 -12 -55
-15 -96 -16 -209 -19 -240 -27 -240 -12 0 -48 60 -86 140 -45 94 -65 159 -97
305 -9 39 -23 104 -33 145 -13 57 -17 122 -17 270 -1 178 1 200 22 259 31 85
45 111 79 142 74 69 157 78 242 27z m1436 -3563 c11 -8 37 -30 57 -47 l37 -33
-52 -13 c-29 -7 -79 -19 -112 -28 -164 -41 -170 -40 -162 12 8 47 35 72 109
99 74 28 96 30 123 10z m-331 -192 c8 -90 22 -180 34 -212 5 -14 18 -53 28
-86 10 -33 22 -64 26 -69 4 -6 8 -16 8 -24 0 -30 137 -306 217 -437 42 -69
133 -194 173 -239 16 -17 44 -53 65 -79 29 -39 34 -51 24 -63 -7 -9 -8 -14 -1
-14 6 0 13 6 15 13 6 12 88 -69 109 -107 9 -17 7 -18 -22 -12 -18 3 -53 6 -79
6 -65 0 -79 11 -61 47 8 15 16 32 18 36 3 5 -6 3 -19 -4 -13 -7 -42 -16 -64
-21 -135 -30 -144 -30 -263 -13 -155 22 -394 74 -409 88 -7 7 -17 55 -23 107
-6 52 -17 133 -25 180 -55 311 -69 580 -39 734 19 101 29 121 71 143 111 61
197 102 203 98 4 -2 10 -35 14 -72z m-377 -120 c-16 -59 -19 -90 -18 -193 1
-143 24 -371 49 -505 26 -137 42 -242 42 -272 0 -17 4 -43 10 -57 11 -31 15
-31 -79 -5 -309 84 -586 191 -885 341 -177 88 -456 247 -456 259 0 5 10 14 22
20 12 6 33 22 47 35 14 13 30 24 35 24 5 0 17 6 25 13 9 7 36 21 61 31 25 10
54 22 65 27 11 5 52 13 90 18 90 12 160 28 184 41 11 5 33 10 50 10 16 0 33 5
36 10 3 6 16 10 28 10 12 0 35 7 51 15 15 8 39 15 51 15 13 0 36 6 52 14 15 8
55 22 88 31 33 10 68 21 77 26 10 5 26 9 35 9 10 0 31 7 47 15 15 8 38 15 50
15 11 1 32 7 46 15 14 8 36 14 51 15 14 0 29 4 35 9 10 11 69 29 97 30 13 1
17 -4 14 -16z"/>
<path d="M4375 6010 c-3 -5 -17 -10 -29 -10 -21 0 -114 -44 -160 -76 -73 -51
-176 -180 -176 -221 0 -33 13 -35 61 -9 96 50 142 59 320 59 190 -1 319 -18
679 -93 54 -11 158 -24 293 -37 84 -7 110 5 131 61 20 53 20 108 0 166 -9 25
-18 52 -21 60 -3 11 -8 9 -18 -10 -13 -24 -14 -24 -21 -5 -20 53 -60 66 -219
76 -71 4 -220 12 -330 19 -110 6 -224 15 -254 20 -72 13 -248 13 -256 0z"/>
<path d="M4620 5454 c-121 -5 -266 -23 -304 -39 -129 -54 -287 -257 -252 -323
31 -58 179 -187 266 -233 143 -74 276 -103 475 -103 232 0 385 48 622 195 85
53 113 78 113 100 0 16 -28 77 -40 89 -3 3 -17 27 -30 53 -14 27 -42 68 -62
92 -21 24 -38 46 -38 50 0 5 27 5 59 2 56 -6 59 -5 54 14 -3 11 -21 32 -41 47
-71 54 -82 55 -422 57 -173 1 -353 0 -400 -1z m-85 -178 c-15 -71 -17 -106 -6
-154 37 -173 223 -282 387 -226 90 30 162 100 197 192 21 52 22 153 2 191 -8
16 -11 31 -8 35 4 3 30 6 58 6 63 0 113 -32 167 -106 42 -59 88 -140 88 -157
0 -15 -54 -67 -69 -67 -6 0 -11 -4 -11 -8 0 -4 -30 -23 -67 -41 -38 -18 -75
-36 -83 -40 -8 -4 -40 -15 -70 -24 -127 -38 -192 -47 -352 -47 -182 0 -229 9
-358 68 -71 33 -173 125 -206 185 -14 26 -14 31 10 71 14 24 48 64 75 88 40
36 62 47 108 56 128 26 148 22 138 -22z"/>
<path d="M5351 3840 c-49 -94 -36 -206 32 -268 34 -32 135 -42 171 -18 49 32
86 22 156 -44 104 -97 212 -147 236 -109 4 6 1 35 -6 63 -12 51 -13 52 -52 55
-38 2 -80 21 -103 45 -23 25 -92 73 -122 85 -36 14 -58 12 -145 -14 -106 -33
-145 5 -134 129 3 39 9 86 12 104 10 51 -11 38 -45 -28z"/>
</g>
</svg>
