<?xml version="1.0" standalone="no"?>
<!DOCTYPE svg PUBLIC "-//W3C//DTD SVG 20010904//EN"
 "http://www.w3.org/TR/2001/REC-SVG-20010904/DTD/svg10.dtd">
<svg version="1.0" xmlns="http://www.w3.org/2000/svg"
 width="425.000000pt" height="740.000000pt" viewBox="0 0 425.000000 740.000000"
 preserveAspectRatio="xMidYMid meet">
<metadata>
Created by potrace 1.16, written by Peter Selinger 2001-2019
</metadata>
<g transform="translate(0.000000,740.000000) scale(0.100000,-0.100000)"
fill="#000000" stroke="none">
<path d="M2081 7313 c4 -21 6 -47 3 -58 -3 -11 4 -70 15 -131 25 -139 45 -355
37 -389 -8 -32 -22 -25 -31 18 -4 17 -10 36 -13 41 -3 5 -6 24 -8 42 -2 25 0
32 12 27 23 -8 16 11 -8 22 -21 10 -49 78 -40 103 5 15 -14 33 -50 49 -16 7
-28 20 -28 29 0 13 -3 14 -14 5 -8 -7 -23 -11 -33 -9 -11 2 -22 -6 -28 -19 -5
-13 -15 -23 -22 -23 -7 0 -13 -4 -13 -10 0 -5 -21 -10 -47 -11 -27 0 -64 -7
-83 -15 -38 -15 -37 -15 53 3 29 6 39 -13 12 -23 -8 -4 -12 -11 -8 -17 3 -6 1
-7 -5 -3 -13 8 -64 -22 -57 -34 2 -4 -9 -7 -26 -8 -16 0 -27 4 -24 9 4 5 -5 9
-19 9 -13 0 -26 4 -28 8 -1 5 -34 23 -71 41 -59 28 -79 33 -160 34 -67 2 -91
6 -89 15 1 6 -5 12 -14 12 -13 0 -15 -6 -9 -27 6 -27 6 -27 -14 -9 -21 19 -21
19 -21 -2 0 -14 -5 -19 -17 -17 -10 2 -22 4 -26 4 -5 1 -5 6 -2 11 4 6 11 8
16 5 5 -4 6 2 2 11 -4 11 -8 13 -11 6 -2 -8 -9 -9 -23 -2 -19 10 -26 1 -11
-14 4 -4 7 -11 8 -14 0 -4 4 -15 9 -26 6 -13 3 -21 -10 -29 -11 -6 -38 -28
-61 -49 l-42 -39 -13 38 c-7 21 -13 50 -13 65 0 15 -4 24 -8 22 -4 -3 -8 12
-8 32 0 21 -3 34 -7 30 -4 -4 -6 -23 -5 -44 2 -27 0 -33 -8 -22 -5 8 -10 10
-10 4 0 -5 6 -16 12 -23 10 -10 10 -15 1 -18 -7 -2 -9 -11 -6 -19 3 -8 -2 -17
-12 -20 -17 -7 -17 -20 2 -104 5 -24 5 -25 -10 -5 -15 18 -16 18 -17 3 0 -23
-11 -23 -38 2 -28 26 -28 71 -2 95 20 18 28 51 10 40 -5 -3 -11 -1 -11 4 -1 6
-2 17 -3 24 -2 20 -31 14 -36 -8 -4 -13 -16 -21 -33 -23 -30 -4 -36 -17 -11
-26 22 -8 26 -8 19 4 -3 6 -2 10 3 10 20 0 19 -27 0 -39 -17 -11 -18 -15 -7
-22 10 -6 10 -9 2 -9 -7 0 -13 -7 -13 -17 0 -14 -2 -14 -20 2 -11 10 -20 26
-20 35 0 9 -5 21 -12 28 -9 9 -9 12 0 12 7 0 12 5 12 11 0 5 -5 7 -11 4 -12
-8 -37 17 -58 57 -8 15 -17 25 -21 23 -4 -3 -13 9 -20 25 -7 17 -15 29 -17 26
-7 -7 27 -66 38 -66 6 0 8 -9 4 -19 -4 -13 0 -23 12 -30 17 -10 17 -10 -1 -11
-15 0 -16 -3 -6 -15 21 -25 2 -30 -20 -5 -11 13 -20 19 -20 13 0 -5 9 -18 20
-28 19 -17 19 -20 5 -42 -9 -12 -13 -23 -10 -23 3 0 -1 -13 -10 -30 -9 -17
-11 -30 -5 -30 5 0 10 6 10 14 0 8 9 24 20 37 16 20 19 21 20 7 0 -10 9 -23
20 -30 11 -7 20 -18 20 -25 0 -6 5 -13 12 -15 21 -7 -11 -66 -43 -80 -16 -7
-29 -16 -29 -20 0 -5 -7 -8 -15 -8 -12 0 -15 13 -15 56 0 34 -4 53 -10 49 -6
-4 -10 -58 -9 -130 0 -69 -2 -129 -5 -133 -3 -5 -1 -26 5 -47 6 -20 8 -49 4
-64 l-7 -26 -13 25 c-8 14 -9 27 -4 31 6 3 5 18 -2 38 -11 30 -9 52 7 109 3
12 2 22 -3 22 -5 0 -15 -28 -21 -62 -12 -68 -13 -170 -1 -162 14 9 43 -60 46
-111 2 -27 8 -52 12 -55 15 -9 18 -70 4 -81 -20 -17 -16 -32 7 -26 21 5 26 -3
11 -18 -4 -6 -11 -25 -14 -42 -5 -25 -3 -33 8 -33 13 0 13 -3 3 -19 -7 -11
-16 -17 -20 -15 -4 3 -7 -3 -6 -13 3 -35 -2 -54 -12 -48 -6 3 -10 -1 -10 -9 0
-23 -20 -19 -46 9 -13 14 -21 25 -19 25 3 0 -4 9 -15 20 -11 11 -23 33 -26 49
-4 20 -18 35 -46 51 l-39 22 -23 -21 c-13 -12 -30 -21 -37 -19 -9 2 -13 -4
-11 -16 2 -12 -1 -16 -9 -10 -7 4 -18 0 -25 -11 -12 -15 -11 -20 4 -31 16 -13
16 -13 0 -14 -25 0 -22 -13 10 -48 22 -24 28 -38 24 -61 -5 -37 5 -41 18 -6
13 33 20 32 63 -12 26 -26 34 -40 27 -48 -7 -9 -6 -16 5 -25 17 -14 21 -60 5
-60 -5 0 -10 -4 -10 -9 0 -6 -11 -22 -24 -36 -23 -24 -25 -25 -34 -8 -6 10
-14 14 -18 10 -5 -4 4 -19 20 -33 32 -31 60 -27 99 12 l26 26 7 -26 c3 -15 1
-39 -5 -54 -19 -48 -48 -206 -46 -248 3 -49 22 -86 70 -138 l36 -39 -24 -46
c-17 -33 -29 -45 -43 -44 -52 6 -66 10 -74 22 -10 17 -30 6 -30 -16 0 -9 8
-25 17 -36 18 -19 18 -20 -14 -3 -32 16 -60 52 -55 70 2 5 -4 6 -12 3 -9 -4
-18 -2 -21 3 -12 19 31 10 53 -10 12 -12 22 -16 22 -11 0 5 -5 13 -11 16 -6 4
-8 14 -5 22 4 11 2 13 -9 9 -17 -6 -21 9 -4 19 13 9 -40 55 -63 55 -9 0 -25 2
-35 5 -10 3 -2 -2 17 -12 19 -9 36 -18 38 -19 9 -5 11 -54 2 -54 -6 0 -8 5 -5
10 3 6 -1 10 -9 10 -9 0 -16 -4 -16 -10 0 -5 -6 -10 -14 -10 -8 0 -16 -7 -20
-15 -4 -10 3 -17 22 -21 35 -8 72 -31 72 -45 0 -8 -4 -8 -14 0 -12 10 -13 8
-9 -8 3 -12 1 -21 -6 -21 -6 0 -11 6 -11 13 0 7 -9 18 -19 24 -15 10 -22 9
-31 -2 -7 -8 -23 -15 -35 -15 -12 0 -28 -7 -35 -15 -11 -13 -10 -14 6 -8 17 6
17 5 5 -10 -12 -15 -10 -17 17 -13 17 2 33 -2 35 -8 2 -7 9 -6 19 4 8 8 13 21
10 28 -2 6 1 12 7 12 6 0 11 -4 11 -10 0 -5 7 -10 16 -10 8 0 13 -3 10 -8 -5
-8 21 -47 32 -47 4 0 6 -4 4 -9 -2 -5 4 -4 12 3 12 10 14 9 9 -8 -3 -11 2 -27
10 -35 16 -16 21 -90 6 -80 -5 3 -9 0 -9 -5 0 -6 -7 -11 -15 -11 -9 0 -12 -6
-9 -15 4 -10 0 -15 -11 -15 -14 0 -15 -2 -2 -15 12 -12 13 -20 4 -40 -7 -13
-14 -20 -15 -15 -2 6 -11 10 -19 10 -13 0 -14 -7 -9 -37 10 -54 11 -57 20 -72
5 -8 8 -36 7 -63 -1 -38 -7 -55 -27 -75 -18 -18 -22 -28 -14 -38 8 -9 5 -14
-11 -18 l-21 -6 21 -22 c23 -25 27 -59 9 -77 -9 -9 -9 -12 0 -12 7 0 12 -9 12
-20 0 -10 8 -24 17 -29 15 -9 15 -10 2 -11 -8 0 -20 5 -27 12 -9 9 -12 5 -12
-18 0 -19 -3 -25 -9 -16 -7 11 -9 11 -14 -2 -4 -10 -1 -16 8 -16 22 0 18 -31
-5 -37 -20 -5 -28 -23 -10 -23 16 0 12 -30 -5 -36 -8 -4 -15 -10 -15 -16 0 -5
4 -7 9 -3 5 3 12 1 16 -5 8 -14 35 -13 35 1 0 6 -7 8 -16 5 -12 -5 -15 -2 -10
10 3 8 6 18 6 20 0 2 9 -5 20 -16 18 -18 19 -22 6 -36 -10 -9 -25 -13 -43 -9
-26 6 -27 5 -10 -8 10 -8 26 -13 36 -10 14 4 19 -1 19 -21 0 -14 -4 -26 -9
-26 -5 0 -9 -4 -9 -10 0 -5 7 -10 15 -10 8 0 15 -5 15 -11 0 -5 -6 -7 -12 -3
-9 5 -10 4 -3 -4 11 -12 55 -5 55 9 0 5 5 9 10 9 6 0 3 -14 -6 -31 -15 -29
-15 -31 0 -26 13 5 15 3 8 -11 -5 -9 -7 -22 -5 -29 2 -6 -2 -13 -9 -16 -7 -2
-3 -3 9 -1 20 4 20 2 10 -25 -6 -17 -14 -28 -19 -25 -4 3 -5 11 -2 19 4 10 0
12 -15 8 -20 -5 -20 -6 -4 -19 17 -13 17 -15 1 -25 -10 -5 -18 -18 -18 -27 0
-14 2 -14 9 -3 14 21 44 5 36 -19 -4 -11 -2 -20 4 -20 15 0 14 43 -1 58 -8 8
-8 12 -1 12 15 0 34 -25 25 -34 -4 -4 -2 -7 3 -6 23 5 30 -2 30 -29 0 -33 -14
-55 -16 -25 -1 10 0 25 1 33 1 11 -2 10 -15 -2 -15 -15 -15 -18 4 -38 11 -12
24 -18 30 -14 6 3 11 1 11 -5 0 -7 6 -10 14 -7 7 3 19 0 26 -6 10 -9 12 -8 7
5 -8 22 24 29 48 12 17 -13 17 -14 2 -14 -10 0 -22 -10 -27 -22 -5 -13 -9 -17
-9 -10 -1 7 -6 10 -11 7 -6 -4 -9 -31 -8 -61 1 -33 -3 -59 -10 -66 -11 -11
-12 -9 -6 5 6 17 5 18 -13 7 -12 -8 -20 -24 -20 -41 0 -34 4 -35 36 -13 15 11
25 13 30 6 4 -7 13 -6 25 4 11 7 17 17 13 20 -3 4 0 13 8 21 8 8 15 20 15 26
0 7 -5 4 -11 -5 -14 -25 -33 -24 -20 1 6 10 7 22 3 26 -4 5 2 5 12 1 18 -6 19
-5 5 11 -8 10 -15 25 -14 33 0 8 -4 18 -10 22 -6 5 -3 8 7 8 10 0 22 -9 28
-20 6 -11 20 -20 32 -20 21 0 21 0 2 15 -19 14 -19 14 1 14 11 0 31 -6 44 -13
28 -15 64 -9 57 9 -2 7 2 24 9 39 8 14 12 26 9 26 -3 0 1 10 8 23 7 12 11 25
10 29 -4 14 27 148 52 223 15 44 33 121 40 171 18 112 44 206 57 199 5 -4 9
11 9 33 0 21 3 42 8 46 4 4 8 11 8 14 8 36 19 52 38 52 17 0 18 -2 6 -10 -8
-5 -10 -10 -5 -10 6 0 16 5 23 12 9 9 12 9 12 -3 1 -11 3 -11 10 2 6 11 18 15
36 11 19 -3 25 -1 20 7 -5 7 4 11 26 11 19 0 39 5 45 11 7 7 12 6 16 -5 4 -9
2 -16 -4 -16 -6 0 -7 -4 -4 -10 3 -5 -3 -15 -15 -22 -37 -23 -21 -26 31 -7 28
11 53 18 55 16 2 -2 -17 -15 -43 -30 -64 -35 -117 -88 -145 -145 -13 -26 -27
-50 -33 -54 -7 -5 -6 -8 0 -8 6 0 17 6 24 13 10 10 11 9 6 -5 -4 -11 -2 -18 4
-18 6 0 11 13 11 28 0 33 47 103 84 127 14 9 45 23 70 30 39 12 45 12 50 -2 8
-21 8 -23 -8 -23 -7 0 -19 -7 -26 -15 -7 -9 -20 -13 -28 -10 -8 3 -16 -3 -19
-15 -3 -11 -9 -18 -13 -15 -4 2 -17 -9 -30 -25 -14 -18 -28 -26 -38 -23 -9 4
-13 2 -9 -4 4 -6 0 -18 -8 -26 -8 -9 -15 -21 -15 -27 0 -8 -12 -11 -34 -8 -30
3 -34 1 -31 -19 1 -14 -3 -23 -12 -23 -11 0 -11 -3 -1 -14 7 -8 15 -10 16 -5
2 5 8 9 13 9 4 0 6 -7 3 -15 -7 -17 11 -21 22 -4 3 6 15 9 25 6 10 -3 22 -1
25 4 3 5 10 7 15 3 5 -3 7 -10 4 -15 -4 -5 -1 -9 4 -9 6 0 11 8 11 18 1 16 1
16 11 0 5 -10 18 -18 27 -18 14 0 14 -2 3 -9 -8 -5 -20 -7 -27 -4 -6 2 -15 0
-19 -6 -4 -7 6 -11 27 -11 l33 -1 -22 -18 c-27 -23 -29 -31 -6 -31 15 0 15 -1
0 -18 -10 -10 -17 -20 -17 -23 0 -2 42 -4 93 -5 71 -1 100 -5 120 -19 24 -16
27 -16 21 -1 -4 11 -2 15 7 12 8 -2 42 -10 75 -16 52 -10 65 -10 85 3 29 18
97 29 104 17 8 -13 50 30 73 77 12 23 26 44 32 48 5 3 28 44 51 91 23 48 47
84 55 84 8 0 17 7 20 15 4 8 13 15 21 15 8 0 11 -5 8 -10 -7 -12 16 -80 27
-80 4 0 8 -7 8 -15 0 -9 6 -12 17 -8 10 4 14 2 10 -4 -4 -7 5 -14 23 -18 31
-7 42 -25 14 -25 -8 0 -13 -4 -9 -9 3 -6 14 -8 25 -6 11 2 20 0 20 -6 0 -8
-24 -12 -75 -12 -19 1 -19 1 0 -13 11 -8 25 -12 32 -10 7 3 12 0 10 -7 -1 -7
6 -11 16 -9 9 2 16 -1 15 -5 -8 -31 42 -99 66 -90 9 4 17 -1 21 -14 4 -10 10
-19 15 -19 5 0 7 -6 4 -14 -3 -7 1 -20 8 -28 19 -20 38 -56 38 -70 0 -6 -7 -3
-16 8 -14 18 -15 18 -4 -3 6 -13 18 -23 26 -23 8 0 32 -15 51 -34 20 -19 49
-37 64 -40 55 -11 89 -126 60 -200 l-12 -29 -18 39 c-10 21 -24 55 -31 74 -15
39 -63 90 -86 90 -8 0 -13 4 -10 9 10 16 -26 22 -43 8 -9 -8 -23 -12 -31 -9
-8 2 -12 1 -8 -3 9 -9 -16 -35 -34 -35 -15 -1 -50 -25 -49 -34 2 -19 0 -26
-10 -26 -12 0 -1 42 14 51 5 4 6 12 3 18 -4 6 -1 11 6 11 10 0 10 2 -1 9 -8 5
-11 16 -8 24 3 8 -4 22 -16 32 -21 18 -21 18 -2 26 19 6 19 7 2 14 -11 5 -24
1 -36 -9 -22 -20 -38 -21 -22 -2 12 14 -1 13 -106 -10 -13 -2 -23 -11 -23 -18
0 -8 -8 -17 -17 -20 -15 -6 -15 -8 -3 -16 10 -7 11 -10 3 -10 -18 0 -16 -15 3
-34 12 -12 12 -16 2 -16 -10 0 -9 -3 2 -10 8 -5 12 -10 8 -10 -3 0 2 -23 13
-50 27 -71 23 -84 -8 -25 -14 28 -35 61 -47 73 -23 27 -76 57 -76 45 0 -5 -5
0 -11 10 -14 25 -28 21 -61 -15 -16 -18 -28 -26 -28 -17 0 33 -40 -54 -43 -96
-2 -25 -11 -53 -19 -63 -11 -12 -13 -24 -7 -39 10 -26 54 -57 69 -48 5 3 13
-1 16 -10 5 -12 14 -15 33 -10 14 4 28 11 32 16 3 5 13 7 21 4 14 -6 14 -10 0
-46 -13 -35 -14 -42 -1 -50 12 -7 12 -9 -2 -9 -8 0 -20 5 -26 11 -18 18 -47
-45 -33 -70 7 -13 7 -22 0 -26 -5 -3 -10 -1 -10 5 0 6 -4 9 -10 5 -5 -3 -6
-13 -3 -22 4 -11 3 -14 -5 -9 -7 4 -12 3 -12 -2 0 -6 8 -13 17 -17 15 -5 12
-9 -14 -21 -22 -11 -30 -22 -29 -39 0 -13 6 -20 11 -17 6 4 20 5 31 4 13 -2
24 4 28 15 6 14 9 15 16 3 7 -11 11 -11 24 -1 8 7 24 10 36 6 14 -5 20 -2 20
10 0 9 5 13 10 10 19 -12 10 -22 -35 -41 -25 -10 -45 -22 -45 -26 0 -4 -6 -8
-14 -8 -7 0 -24 -11 -38 -24 -14 -12 -42 -33 -62 -45 -20 -13 -36 -27 -36 -32
0 -5 -7 -9 -15 -9 -9 0 -18 -7 -21 -15 -4 -8 -11 -15 -17 -15 -19 0 -67 -53
-67 -73 0 -16 4 -18 23 -12 12 4 41 12 65 18 23 7 42 16 42 22 1 17 52 48 84
51 17 2 66 1 109 -2 75 -6 77 -7 78 -33 0 -25 1 -25 9 -4 5 13 16 20 27 18 10
-2 18 -4 18 -5 0 -1 30 -4 67 -5 80 -4 88 -8 89 -43 1 -26 1 -26 10 5 8 29 13
32 43 29 45 -4 56 -13 56 -42 0 -21 -4 -24 -20 -19 -12 4 -20 2 -20 -5 0 -7
-8 -9 -21 -5 -15 5 -19 4 -15 -4 4 -6 2 -11 -3 -11 -6 0 -11 6 -12 13 0 6 -4
3 -9 -8 -8 -20 -9 -20 -9 0 -1 19 -1 19 -15 0 -10 -15 -24 -20 -50 -19 -20 1
-36 -3 -36 -8 0 -6 -6 -6 -14 1 -11 10 -17 8 -25 -6 -10 -17 -10 -17 -11 1 0
11 -3 16 -6 13 -4 -4 -20 3 -36 14 -16 12 -32 18 -35 15 -4 -3 -1 -6 5 -6 7 0
12 -4 12 -9 0 -5 -10 -7 -22 -3 -15 3 -19 2 -14 -7 4 -7 15 -11 24 -10 34 3
44 -1 39 -16 -4 -8 -2 -17 3 -20 4 -3 11 1 13 7 3 7 6 3 6 -9 1 -20 -4 -23
-40 -23 -30 0 -40 -4 -36 -13 3 -8 -2 -13 -12 -13 -63 -1 -73 -4 -68 -24 3
-11 1 -23 -4 -26 -19 -11 -8 -33 21 -39 24 -5 30 -11 28 -28 -2 -12 -7 -25
-13 -29 -5 -4 4 -8 20 -9 29 -1 30 -1 5 -9 l-25 -8 25 -2 c14 -1 29 -2 33 -1
4 1 7 -5 5 -13 -4 -17 61 -76 85 -76 9 0 17 -4 17 -10 0 -5 -9 -10 -20 -10
-11 0 -20 -4 -20 -10 0 -5 12 -10 28 -10 15 0 45 -5 67 -12 22 -6 46 -11 53
-9 6 1 12 -5 12 -14 0 -15 10 -19 41 -16 11 1 15 -7 15 -34 -1 -30 -4 -34 -21
-30 -18 5 -17 4 2 -6 22 -12 29 -51 7 -42 -8 3 -14 -7 -17 -24 -4 -27 -4 -27
-6 -2 -1 22 -6 25 -38 26 -21 1 -31 -2 -23 -7 20 -12 -7 -24 -69 -30 -37 -3
-56 -10 -58 -20 -4 -13 -3 -13 7 0 10 13 11 12 6 -3 -3 -10 -6 -21 -6 -23 0
-2 -4 -4 -10 -4 -5 0 -10 10 -10 23 l-1 22 -13 -24 c-9 -17 -15 -20 -18 -10
-4 12 -7 12 -21 1 -9 -8 -21 -11 -26 -8 -5 4 -14 -1 -19 -10 -8 -14 -10 -14
-26 2 -15 14 -19 15 -27 3 -6 -10 -9 -10 -9 -1 0 6 -5 12 -10 12 -6 0 -8 -11
-4 -27 6 -27 6 -27 -9 -8 -11 13 -16 15 -17 6 0 -7 -6 -11 -15 -7 -12 4 -15
-3 -15 -32 0 -25 -3 -32 -9 -23 -5 7 -6 23 -3 35 3 16 2 18 -7 10 -7 -6 -13
-21 -14 -33 -1 -11 -5 -21 -9 -21 -5 0 -6 -12 -2 -27 3 -16 2 -23 -3 -18 -4 6
-14 11 -21 13 -10 2 -10 -2 -2 -18 6 -12 8 -29 5 -40 -3 -10 0 -22 6 -26 8 -5
10 -3 5 7 -4 8 1 3 12 -11 22 -27 19 -48 -4 -29 -11 9 -14 8 -14 -7 0 -14 -3
-15 -12 -6 -18 18 -36 15 -49 -9 -6 -12 -7 -19 -1 -15 10 6 26 -23 17 -32 -3
-3 -18 -5 -35 -5 -24 0 -27 -3 -19 -14 9 -10 8 -13 0 -13 -7 0 -19 -7 -27 -15
-9 -8 -21 -15 -27 -15 -8 0 -8 3 1 9 11 6 9 9 -7 14 -11 3 -20 2 -19 -2 0 -3
0 -15 -1 -26 -1 -17 -3 -18 -11 -5 -8 13 -10 12 -10 -3 0 -10 -4 -15 -10 -12
-6 4 -10 -5 -10 -19 0 -18 -6 -26 -17 -27 -11 0 -13 -3 -6 -6 10 -3 10 -8 -1
-19 -8 -8 -20 -14 -26 -14 -6 0 -9 -4 -6 -8 6 -11 -34 -9 -51 1 -9 6 -13 2
-13 -12 0 -10 5 -22 10 -24 6 -3 5 -4 -2 -3 -7 1 -15 13 -19 27 -6 22 -7 21
-8 -8 -1 -22 4 -33 17 -36 11 -3 7 -5 -10 -6 -15 0 -30 -6 -34 -13 -5 -8 -10
-6 -15 8 -7 18 -8 18 -8 -3 -1 -12 5 -23 12 -26 6 -2 0 -4 -15 -3 -16 0 -28 7
-28 14 0 6 -5 12 -10 12 -6 0 -10 -7 -8 -16 2 -10 -5 -18 -14 -19 -13 -2 -18
3 -18 18 0 18 -2 19 -10 7 -15 -24 -54 25 -88 111 -8 19 -6 38 7 77 14 41 15
52 5 52 -8 0 -16 -12 -20 -27 -4 -16 -12 -33 -19 -38 -10 -9 -11 -20 -1 -57 6
-26 15 -50 19 -54 4 -4 7 -16 7 -26 0 -48 115 -253 187 -334 15 -17 35 -41 43
-54 63 -96 204 -232 316 -306 92 -60 303 -164 333 -164 6 0 19 -4 29 -10 61
-33 220 -84 317 -100 39 -7 77 -15 85 -18 35 -13 204 -1 262 18 114 37 256
135 297 205 46 78 65 187 66 365 0 91 -3 176 -7 190 -4 14 -22 41 -39 60 l-32
35 7 -55 c3 -30 9 -70 13 -89 5 -31 4 -33 -10 -20 -8 8 -15 16 -14 19 1 12
-23 57 -43 78 -12 12 -22 31 -23 42 -1 11 -4 20 -8 20 -6 0 -12 15 -23 50 -1
3 -4 10 -8 15 -7 12 16 48 25 38 4 -3 7 -3 7 1 0 5 -11 17 -25 28 -14 11 -22
24 -19 30 4 6 12 1 19 -12 10 -19 13 -20 18 -6 4 9 2 16 -4 16 -10 0 -9 11 7
75 4 16 3 17 -5 5 -9 -12 -11 -10 -11 11 0 24 21 55 31 45 2 -3 4 15 3 40 -1
24 2 47 7 50 5 3 9 10 9 15 0 6 -10 3 -22 -5 -12 -9 -29 -16 -38 -16 -9 0 -4
7 12 17 15 10 30 24 33 32 5 12 3 12 -12 0 -10 -7 -8 -2 5 13 14 15 19 28 14
32 -6 3 -13 0 -15 -6 -3 -8 -6 -8 -6 -2 -1 6 8 19 19 29 20 18 27 50 12 59 -5
3 -15 -4 -22 -15 -20 -27 -31 -24 -20 7 10 25 9 26 -17 19 -16 -3 -35 -12 -43
-19 -8 -7 -30 -18 -47 -26 -18 -7 -33 -15 -33 -19 0 -3 -12 -7 -26 -8 -15 0
-30 -7 -35 -15 -7 -10 -9 -9 -9 5 0 10 -4 16 -9 13 -5 -4 -7 4 -3 16 3 14 1
19 -6 14 -6 -3 -13 -2 -16 3 -3 5 1 11 9 15 8 3 15 2 15 -2 0 -14 38 -11 44 3
3 9 0 12 -10 8 -7 -3 -14 0 -14 6 0 6 5 11 10 11 17 0 11 22 -12 49 -14 15
-16 20 -5 12 21 -17 35 -6 42 30 4 23 4 23 -10 5 -8 -11 -16 -18 -16 -15 -2 5
-7 66 -8 98 -1 24 -1 24 -16 5 -11 -13 -14 -14 -13 -4 2 8 12 20 23 27 11 7
14 12 7 13 -7 0 -10 5 -7 11 4 6 13 8 21 5 12 -4 12 -2 4 14 -11 21 -1 27 16
10 7 -7 11 -6 11 4 0 8 -4 13 -8 10 -4 -2 -10 0 -14 6 -4 6 -11 8 -16 5 -5 -4
-9 -2 -9 4 0 5 6 12 13 14 9 4 8 8 -3 16 -13 10 -13 12 0 21 8 5 11 10 5 10
-5 0 -4 4 4 9 10 7 11 13 1 31 -6 12 -9 28 -6 37 6 15 -10 36 -31 40 -7 2 -10
-4 -7 -12 4 -8 10 -13 14 -10 5 3 12 1 15 -5 4 -7 -6 -10 -27 -8 -30 2 -37 7
-52 44 -15 38 -43 59 -69 55 -5 -1 -5 3 -2 9 4 6 -9 26 -29 43 -27 24 -33 36
-26 47 12 18 13 33 3 27 -5 -3 -9 6 -10 20 0 14 -7 29 -15 34 -10 7 -9 9 4 9
9 0 18 -6 21 -12 3 -9 9 -8 19 5 17 23 52 12 45 -14 -3 -10 -2 -18 2 -17 3 0
23 0 44 -1 28 -1 37 -5 37 -18 0 -15 -2 -16 -10 -3 -5 8 -10 10 -10 5 0 -18
22 -34 37 -28 13 5 13 2 3 -17 -9 -17 -9 -25 1 -34 9 -8 11 -7 5 9 l-6 20 16
-20 c8 -11 18 -33 21 -48 4 -18 10 -26 19 -23 8 3 14 1 14 -4 0 -6 10 0 22 12
13 13 22 27 20 31 -1 5 2 6 8 2 5 -3 11 2 11 12 1 10 5 5 9 -12 6 -25 8 -26 9
-7 1 18 6 22 26 18 15 -3 25 0 26 7 0 7 4 3 9 -8 6 -13 9 -15 9 -5 1 8 6 22
11 30 9 13 11 13 19 1 6 -10 8 0 5 30 -5 35 -3 41 6 29 10 -13 11 -12 5 5 -3
11 -7 25 -8 30 -1 6 -6 14 -12 18 -6 5 0 7 13 4 14 -3 26 1 32 11 5 10 10 12
10 5 0 -7 5 -13 11 -13 5 0 7 5 4 10 -3 6 -2 10 4 10 5 0 15 -8 20 -17 6 -10
11 -13 11 -7 0 5 -7 19 -15 30 -20 27 -20 50 1 30 21 -22 27 -20 14 5 -7 11
-9 23 -6 27 3 3 6 0 6 -6 0 -20 16 -13 28 11 6 12 11 16 11 10 1 -15 31 -18
31 -3 0 6 -3 10 -7 10 -5 0 -15 4 -23 10 -12 7 -11 12 7 28 23 19 27 57 10 80
-16 21 -2 23 16 2 9 -11 12 -22 7 -25 -11 -7 -2 -35 11 -35 4 0 6 7 3 15 -7
18 12 20 20 3 8 -16 1 16 -13 62 -10 33 -9 34 5 15 16 -20 16 -20 9 3 -5 19
-3 22 22 22 26 1 27 2 9 15 -10 8 -15 19 -11 25 4 7 1 16 -6 21 -11 7 -11 9
-1 9 7 0 16 -10 21 -22 7 -20 9 -17 16 22 4 25 13 48 19 52 7 5 5 8 -6 8 -10
0 -18 7 -18 15 0 18 13 19 43 4 20 -9 20 -9 5 4 -10 8 -18 19 -18 24 0 17 -27
35 -35 23 -3 -5 -1 -10 5 -10 6 0 8 -5 4 -11 -4 -8 -9 -7 -15 2 -9 16 8 52 22
44 5 -4 9 -1 9 4 0 6 -5 11 -12 11 -6 0 -9 2 -6 5 11 12 38 -8 38 -28 0 -17 3
-18 12 -9 10 10 10 17 0 33 -8 12 -9 18 -3 14 6 -3 11 -2 11 4 0 15 -18 23
-25 11 -4 -6 -11 -7 -17 -4 -5 4 4 13 21 21 17 9 31 19 31 24 0 14 -26 10 -40
-6 -7 -8 -16 -15 -21 -15 -5 0 0 9 11 20 11 11 20 27 20 36 0 11 6 14 22 8 21
-6 22 -6 4 12 -12 11 -15 19 -7 22 15 5 14 29 -1 35 -20 7 -4 17 32 22 32 4
55 15 31 15 -7 0 -9 5 -6 11 4 6 13 8 21 5 8 -3 14 -1 14 4 0 6 7 10 16 10 8
0 13 -4 9 -9 -3 -6 3 -15 12 -21 16 -10 15 -10 -4 -5 -27 7 -30 -3 -7 -20 15
-10 15 -13 2 -26 -14 -12 -14 -16 1 -38 11 -18 12 -26 3 -29 -9 -3 -9 -9 -1
-24 8 -16 8 -19 -1 -13 -9 5 -10 1 -6 -16 7 -23 7 -23 -8 -5 -21 26 -21 7 0
-22 18 -26 36 -29 28 -4 -5 14 -3 14 10 -2 11 -13 13 -23 6 -30 -13 -13 -13
-53 0 -61 6 -3 10 -11 10 -17 0 -7 -4 -7 -13 0 -9 8 -17 8 -27 0 -13 -8 -12
-9 2 -5 21 7 27 -9 22 -69 -1 -27 -3 -58 -4 -69 -1 -30 -48 -270 -71 -360 -31
-123 -75 -247 -124 -353 -25 -52 -45 -96 -45 -98 0 -2 11 1 25 6 16 6 25 6 25
0 0 -6 -7 -10 -15 -10 -8 0 -15 -4 -15 -9 0 -4 -14 -12 -31 -17 -18 -5 -40
-20 -50 -34 -23 -32 -29 -76 -10 -72 7 1 19 -2 26 -8 9 -8 14 -7 18 3 3 8 25
24 49 37 23 12 45 25 48 29 3 3 20 18 38 33 18 15 32 30 32 33 -1 20 3 24 30
30 17 4 30 10 30 14 0 11 63 31 98 31 29 0 48 20 20 20 -7 0 -5 5 5 11 11 6
30 9 44 6 29 -5 93 12 93 25 0 5 4 7 8 4 11 -7 43 30 60 67 15 34 15 47 2 47
-5 0 -10 -9 -10 -20 0 -16 -26 -40 -43 -40 -14 0 -13 54 2 69 9 9 17 23 18 31
6 42 26 116 35 127 6 7 4 14 -4 20 -7 4 -19 20 -25 36 -8 16 -20 27 -32 27
-34 0 -45 36 -25 78 13 28 14 39 5 55 -11 17 -10 18 9 12 11 -4 19 -3 18 2 -1
4 3 18 10 30 11 19 19 50 21 77 1 5 4 6 8 3 3 -4 12 1 19 11 9 12 9 19 1 24
-8 5 -4 15 12 32 24 25 61 41 61 25 0 -5 -5 -9 -12 -9 -6 0 -8 -3 -4 -7 3 -4
-4 -13 -16 -20 -15 -8 -18 -12 -8 -13 9 0 26 7 38 16 13 9 29 14 36 11 9 -4
23 15 40 51 35 73 49 98 69 120 10 10 17 22 17 27 0 5 -7 0 -15 -11 -8 -10
-15 -14 -15 -7 0 7 11 24 25 38 39 38 63 32 28 -8 -13 -15 -6 -12 27 8 25 16
50 35 56 43 9 13 14 9 28 -19 15 -31 15 -36 0 -80 -19 -53 -13 -89 11 -69 8 7
15 25 15 41 0 34 19 40 22 7 0 -13 2 -30 3 -38 1 -8 -8 -23 -19 -32 -21 -17
-21 -17 -1 -12 23 6 55 56 55 85 0 10 4 19 10 19 5 0 9 3 8 8 -1 4 2 20 7 36
4 16 3 43 -3 64 -9 28 -8 40 4 61 14 23 14 29 0 56 -11 21 -16 24 -16 12 0
-10 -5 -15 -10 -12 -7 4 -7 12 0 25 14 26 13 30 -7 23 -16 -6 -17 -5 -3 11 13
16 12 20 -3 31 -14 10 -15 14 -5 19 11 5 11 7 0 12 -10 5 -10 9 0 21 7 9 22
41 34 72 12 31 27 56 35 56 8 0 16 11 18 25 4 33 19 42 59 35 22 -4 32 -2 32
7 0 9 3 9 12 0 20 -20 58 -15 58 7 0 17 -5 19 -35 14 -39 -6 -65 9 -65 38 0
10 -6 22 -13 26 -7 4 -17 19 -22 33 -12 28 -8 83 5 75 5 -3 11 8 15 25 4 16
11 33 17 36 17 11 54 -16 76 -54 18 -31 22 -34 22 -14 0 12 -4 22 -10 22 -5 0
-10 5 -10 11 0 5 5 7 10 4 6 -3 10 -1 10 4 0 6 -9 11 -21 11 -12 0 -23 8 -26
20 -3 11 -9 17 -14 14 -5 -3 -6 2 -3 10 8 21 20 20 44 -4 20 -20 20 -20 20 9
0 22 -8 34 -32 50 -18 11 -28 21 -23 21 6 0 21 -7 33 -16 21 -14 22 -14 22 6
0 12 -18 39 -40 60 -22 21 -40 40 -40 42 0 2 16 4 36 4 26 1 34 -2 30 -12 -3
-8 -1 -14 5 -14 16 0 7 79 -9 85 -12 4 -12 9 3 25 16 17 16 20 2 20 -8 0 -17
-5 -19 -11 -3 -8 -10 -8 -26 2 -17 10 -21 20 -17 37 3 14 2 21 -3 18 -9 -5
-26 29 -23 47 1 4 -6 16 -15 25 -11 11 -13 17 -5 20 7 2 2 15 -14 34 -26 30
-33 58 -15 58 6 0 10 -4 10 -10 0 -5 5 -10 10 -10 6 0 -2 16 -17 35 l-28 35
-8 -25 c-9 -25 -27 -35 -27 -14 0 18 20 49 32 49 6 0 19 -9 29 -21 20 -24 43
-16 36 12 -3 12 -1 17 5 12 16 -9 1 59 -15 69 -8 6 -9 10 -1 16 19 13 26 46
25 125 -1 57 2 76 10 71 7 -4 10 -3 8 2 -32 63 -32 63 -19 93 17 42 34 55 51
38 8 -7 22 -16 33 -20 18 -7 18 -6 2 17 -9 14 -16 37 -16 50 0 18 -9 30 -30
41 -16 8 -35 25 -41 37 -6 11 -23 31 -37 43 -21 18 -26 32 -28 82 -3 48 0 62
12 67 17 7 28 -16 21 -44 -7 -26 -3 -25 23 2 l20 22 -6 -33 c-6 -26 -4 -33 7
-29 22 7 19 88 -3 99 -10 5 -26 13 -35 17 -9 5 -19 15 -21 23 -3 9 3 7 18 -6
12 -11 24 -18 26 -16 3 1 19 -3 35 -9 22 -9 29 -18 26 -31 -3 -12 0 -16 9 -12
9 3 14 -1 14 -12 0 -9 4 -14 10 -10 5 3 6 13 3 23 -10 24 -82 92 -99 92 -8 0
-14 5 -14 10 0 6 4 10 8 10 5 0 7 15 5 33 -3 24 -2 29 6 17 7 -10 11 -11 11
-2 0 7 15 12 38 13 30 0 33 2 17 9 -11 5 -35 6 -53 3 -31 -5 -33 -4 -30 18 2
20 13 26 58 38 64 17 69 19 51 30 -9 6 -10 11 -2 15 6 4 11 21 11 37 0 29 -1
30 -37 24 -21 -4 -57 -13 -80 -21 -69 -25 -165 12 -133 51 7 8 18 15 24 14 33
-4 41 2 22 16 -11 8 -16 18 -12 22 4 4 10 2 14 -4 5 -8 13 -9 22 -3 19 11 10
19 -23 22 -15 1 -26 5 -24 8 39 72 76 177 57 165 -5 -3 -10 -2 -10 4 0 5 3 11
8 14 4 2 1 2 -5 1 -18 -5 -16 18 3 42 15 18 15 18 9 -3 -4 -13 -2 -23 4 -23 5
0 13 16 17 35 4 24 12 35 24 35 17 0 35 25 31 44 -1 4 4 14 10 22 16 20 1 17
-27 -5 -13 -10 -21 -21 -17 -24 3 -4 -3 -10 -13 -14 -10 -4 -25 -13 -32 -20
-19 -18 -32 -16 -33 5 0 13 -3 12 -11 -5 -6 -13 -15 -23 -20 -23 -4 0 -8 -5
-8 -12 0 -6 7 -4 18 6 18 16 19 15 20 -16 0 -17 -4 -41 -10 -52 -10 -18 -9
-19 4 -8 13 10 17 10 21 -2 4 -9 2 -18 -3 -21 -5 -3 -12 -25 -15 -50 -4 -26
-12 -42 -19 -40 -6 3 -20 -10 -31 -27 -27 -43 -48 -49 -44 -12 2 16 10 37 18
47 9 11 10 17 3 17 -19 0 -14 18 23 81 31 53 32 64 3 60 -3 0 -2 14 4 32 5 17
11 39 12 47 1 9 5 20 8 25 3 6 9 34 12 64 6 59 10 67 41 74 18 4 18 5 -2 6
-21 1 -22 5 -19 54 2 28 5 54 6 57 5 13 -5 131 -13 165 -11 45 -56 126 -78
143 -22 16 -73 19 -146 10 -27 -3 -12 -27 16 -26 32 1 94 -33 73 -40 -6 -2
-11 -16 -11 -30 2 -24 2 -24 6 -4 5 27 38 48 49 30 4 -7 3 -8 -5 -4 -9 6 -10
0 -5 -20 4 -16 7 -34 7 -41 0 -7 7 -13 16 -13 14 -1 13 -2 -1 -11 -22 -12 -24
-31 -3 -23 17 7 18 3 16 -81 -3 -96 -17 -196 -57 -395 -12 -59 -41 -161 -50
-178 -3 -5 -54 21 -54 28 0 4 11 33 25 65 14 32 24 65 22 74 -4 12 -5 11 -6
-4 -1 -26 -30 -67 -41 -60 -10 6 -5 68 11 175 9 57 8 66 -7 77 -17 12 -17 14
0 26 15 11 16 17 7 35 -7 13 -9 42 -5 77 6 49 5 55 -10 49 -13 -5 -15 -2 -9
12 3 11 11 23 17 27 7 6 4 7 -6 4 -11 -4 -17 0 -17 11 0 9 -2 31 -6 47 -4 24
-3 26 4 10 8 -17 10 -15 10 15 1 46 -25 169 -40 186 -6 7 -8 17 -5 23 11 17
-78 49 -154 56 -52 5 -79 12 -89 23 -13 16 -13 16 -8 0 4 -10 2 -18 -3 -18 -6
0 -10 5 -10 10 0 7 -6 8 -17 2 -11 -7 -23 -6 -35 1 -14 10 -22 7 -40 -11 l-22
-22 31 0 c18 0 35 -5 38 -10 4 -6 11 -8 16 -4 6 3 5 -5 -3 -17 -7 -13 -14 -26
-15 -27 -1 -2 -17 -7 -36 -12 -30 -6 -36 -5 -40 11 -3 12 -1 17 6 12 7 -4 8 0
4 11 -4 10 -7 20 -7 22 0 2 -6 4 -14 4 -8 0 -23 19 -35 43 -14 27 -21 35 -21
22 0 -11 7 -30 15 -42 9 -12 17 -39 20 -60 2 -21 7 -49 11 -62 5 -17 4 -23 -6
-19 -8 2 -17 11 -21 19 -11 22 -69 201 -74 229 -7 36 -50 115 -65 118 -9 2
-11 -7 -8 -31 3 -25 0 -33 -9 -30 -15 6 14 -74 34 -95 7 -7 13 -21 13 -30 0
-9 15 -61 33 -115 32 -93 37 -133 10 -85 -12 23 -12 23 -13 -6 0 -21 -3 -26
-12 -18 -14 11 -85 32 -201 58 -65 14 -81 15 -102 4 -14 -8 -31 -9 -42 -5 -34
15 -62 15 -56 -1 9 -24 -25 -16 -43 11 -13 20 -20 23 -35 14 -18 -9 -19 -8 -7
10 8 13 16 17 22 11 6 -6 17 -10 26 -10 12 1 12 2 -2 11 -10 5 -18 16 -18 22
0 7 -8 13 -19 13 -12 0 -17 -5 -14 -16 3 -8 -7 -1 -23 16 -16 16 -44 39 -62
49 -17 11 -32 23 -32 27 0 15 -55 87 -66 88 -7 0 -15 16 -18 35 -4 19 -12 35
-18 35 -6 0 -8 13 -6 29 2 17 1 28 -4 25 -11 -7 -10 12 1 34 30 60 40 91 27
86 -8 -3 -20 -19 -26 -35 -19 -45 -32 -46 -25 -2 l7 38 -28 -40 c-15 -22 -29
-42 -31 -44 -7 -9 -50 41 -63 74 -7 19 -17 32 -22 29 -5 -3 -6 -11 -2 -17 3
-7 -2 -3 -11 8 -9 11 -20 20 -25 20 -4 0 -12 3 -16 8 -4 4 -13 7 -21 7 -11 0
-11 -4 -1 -20 7 -10 14 -17 16 -15 9 8 64 -66 59 -79 -3 -8 2 -20 11 -28 16
-12 16 -11 2 7 -14 19 -14 19 3 6 9 -8 15 -16 13 -19 -3 -3 2 -17 11 -32 14
-24 15 -36 5 -86 -15 -70 -32 -98 -75 -120 -17 -9 -60 -39 -94 -66 l-63 -50
-2 34 c-10 174 -16 234 -34 328 -9 52 -20 97 -24 100 -3 3 -6 19 -6 35 0 42
-15 105 -24 105 -4 0 -4 -17 1 -37z m1439 -653 c15 -115 53 -293 77 -357 6
-16 5 -16 -10 -4 -9 7 -17 21 -17 31 0 23 -19 67 -90 216 -75 154 -78 166 -48
186 28 18 60 27 70 19 4 -3 12 -44 18 -91z m42 73 c22 -26 54 -91 69 -141 7
-24 16 -38 19 -31 5 6 9 3 13 -10 3 -12 1 -19 -4 -15 -12 7 -11 0 7 -76 27
-112 29 -360 3 -360 -5 0 -8 3 -7 8 2 4 -3 25 -9 47 -7 22 -33 123 -58 224
-36 145 -43 186 -33 192 8 6 9 9 2 9 -9 0 -34 118 -34 160 0 15 15 12 32 -7z
m-143 -133 c24 -50 48 -93 53 -96 4 -3 6 -9 3 -14 -3 -4 11 -41 30 -82 20 -41
38 -99 42 -129 l6 -54 -41 35 c-22 19 -41 43 -41 53 -1 9 -20 59 -44 110 -55
118 -92 229 -84 250 13 34 33 15 76 -73z m-394 35 c81 -13 231 -92 212 -111
-4 -5 -20 -1 -35 8 -21 12 -49 14 -130 11 -84 -4 -108 -1 -128 12 -14 9 -23
23 -20 30 2 7 -3 16 -12 20 -15 6 -14 9 8 27 18 14 32 18 55 13 16 -3 39 -8
50 -10z m-2150 -198 c-11 -21 -14 -44 -10 -69 7 -39 -17 -151 -37 -176 -10
-12 -13 -11 -19 5 -4 10 -8 34 -8 53 -1 19 -7 58 -15 87 -11 39 -11 63 -4 93
6 22 14 40 18 40 4 0 12 11 18 24 6 13 23 30 39 38 28 13 28 13 31 -25 2 -21
-4 -52 -13 -70z m53 -128 c7 -14 10 -39 7 -59 -3 -19 -5 -43 -6 -52 0 -9 -14
-23 -30 -30 -23 -10 -29 -18 -24 -35 3 -12 0 -23 -7 -25 -7 -3 -13 -21 -15
-41 -1 -22 2 -35 8 -32 5 4 9 -3 9 -14 0 -10 -5 -21 -12 -23 -6 -2 -13 -24
-14 -48 -1 -25 -7 -46 -13 -48 -6 -2 -11 -12 -11 -22 0 -10 -4 -22 -10 -25
-13 -8 -13 21 0 65 6 19 11 66 11 103 1 39 9 92 18 120 10 29 26 85 36 125 18
76 30 85 53 41z m2530 -3581 c8 -23 9 -35 1 -45 -8 -9 -8 -13 0 -13 7 0 7 -8
-2 -27 -13 -31 -27 -44 -39 -37 -4 3 -8 -2 -8 -10 0 -20 -16 -21 -24 -1 -3 8
-12 12 -19 9 -8 -3 -22 2 -31 11 -17 18 -22 50 -6 40 6 -3 10 -2 10 4 0 6 8 8
18 4 12 -4 10 1 -7 15 -24 22 -24 22 -3 22 13 0 22 6 22 15 0 8 5 15 11 15 5
0 7 5 4 10 -3 6 1 10 9 10 10 0 13 -6 9 -17 -4 -12 0 -11 11 5 23 29 29 28 44
-10z"/>
<path d="M2940 2573 c0 -6 5 -15 10 -18 6 -3 10 -11 10 -17 0 -7 -6 -6 -15 2
-8 7 -15 11 -15 9 0 -2 -7 -22 -15 -44 l-14 -40 -1 35 c-1 28 -3 31 -9 15 -5
-11 -6 -25 -4 -32 3 -8 -3 -10 -17 -6 -22 6 -22 6 -4 -21 14 -22 15 -29 4 -36
-7 -4 -9 -13 -5 -20 4 -7 3 -15 -3 -19 -6 -3 -13 -20 -16 -36 -4 -17 -3 -23 1
-13 7 14 10 15 27 2 19 -14 19 -15 -3 -45 -17 -23 -20 -34 -12 -42 8 -8 11 -5
11 10 0 11 7 26 15 33 8 7 15 19 15 27 0 8 4 12 9 8 5 -3 13 -1 16 5 4 6 3 10
-2 9 -18 -3 -47 3 -36 8 7 2 15 4 18 4 6 -1 50 41 51 49 0 3 4 13 9 23 4 11 3
23 -3 29 -8 8 -6 16 7 27 22 20 33 49 24 64 -4 7 -9 3 -14 -9 -6 -15 -8 -11
-9 16 -1 19 -4 29 -7 21 -5 -11 -7 -11 -14 0 -6 9 -9 10 -9 2z"/>
<path d="M3088 1285 c-6 -11 -12 -146 -11 -282 0 -51 -3 -93 -8 -93 -5 0 -4
-12 2 -27 7 -19 6 -28 -2 -33 -6 -4 -11 -26 -11 -49 0 -22 -4 -41 -10 -41 -5
0 -7 -7 -4 -16 3 -9 -4 -25 -18 -39 -14 -14 -21 -27 -16 -30 10 -6 8 -65 -3
-83 -5 -7 -13 -10 -18 -7 -5 4 -9 -1 -9 -9 0 -9 7 -16 15 -16 8 0 15 -4 15
-10 0 -5 -7 -7 -15 -4 -11 5 -13 2 -8 -12 4 -11 3 -15 -4 -11 -7 5 -9 0 -6
-12 3 -11 0 -44 -7 -73 -6 -29 -13 -75 -16 -103 -2 -27 -9 -91 -15 -142 -6
-51 -9 -99 -6 -108 4 -8 2 -15 -3 -15 -6 0 -10 -16 -10 -35 l0 -35 124 0 124
0 4 25 c3 14 1 25 -4 25 -5 0 -6 5 -3 10 5 8 11 7 21 -1 15 -12 15 -12 20 121
1 30 5 76 8 103 3 35 2 46 -7 40 -7 -3 -3 4 8 17 11 13 15 20 8 17 -14 -9 -27
9 -13 18 6 4 8 10 5 15 -3 5 -1 11 4 14 5 3 7 15 4 26 -3 12 0 20 7 20 10 0
10 3 0 15 -10 12 -10 15 0 15 10 0 10 3 1 14 -10 11 -8 18 8 33 19 18 19 19 1
43 -17 22 -17 27 -4 52 9 17 20 26 26 22 7 -5 9 0 6 14 -4 12 -2 22 4 22 5 0
7 4 4 8 -3 5 1 20 8 34 9 18 10 31 3 43 -7 13 -6 16 2 11 6 -4 25 -4 42 -1
l31 7 -28 19 c-16 10 -24 19 -18 19 13 0 36 48 29 60 -3 5 -8 42 -11 81 -3 40
-12 85 -19 100 -8 14 -12 29 -9 32 10 9 -20 67 -33 67 -7 0 -13 5 -13 10 0 6
-7 10 -16 10 -9 0 -27 10 -39 23 -48 47 -73 67 -88 67 -8 0 -17 5 -19 12 -3 7
-7 8 -10 3z"/>
<path d="M3410 1156 c0 -4 -6 -6 -14 -3 -16 6 -7 -23 34 -108 10 -22 30 -67
44 -100 14 -33 34 -78 45 -100 12 -21 21 -45 21 -52 0 -8 7 -16 15 -19 8 -4
15 -10 15 -16 0 -5 -5 -6 -12 -2 -7 5 -8 3 -3 -7 17 -28 50 -74 57 -79 4 -3 9
-17 10 -30 2 -14 12 -30 23 -36 11 -5 19 -18 17 -27 -2 -12 4 -17 23 -17 15 0
23 -4 20 -10 -6 -10 5 -28 38 -58 9 -9 17 -24 17 -34 0 -10 6 -18 13 -18 8 0
22 -9 32 -20 10 -11 22 -17 27 -14 4 3 7 0 6 -8 -2 -8 8 -14 25 -16 15 -2 27
-8 27 -13 0 -5 7 -9 15 -9 8 0 17 -12 21 -27 3 -16 7 -32 8 -38 2 -5 -1 -20
-5 -32 -6 -17 -4 -25 9 -33 15 -8 15 -11 2 -20 -10 -6 -11 -10 -2 -10 6 0 12
-8 12 -19 0 -20 -33 -34 -47 -20 -4 4 -13 -3 -20 -17 -10 -21 -9 -24 7 -24 10
0 21 6 23 13 4 9 6 9 6 0 1 -7 7 -13 14 -13 8 0 14 -13 14 -32 1 -18 2 -45 4
-60 l4 -28 143 0 c160 0 154 -4 128 82 -8 25 -12 56 -9 69 4 15 3 20 -5 15 -9
-5 -13 7 -14 41 -2 72 -2 69 -25 130 -3 10 -5 26 -4 36 1 10 -3 24 -9 32 -7 8
-9 19 -6 24 4 5 2 13 -4 16 -10 6 -35 56 -61 125 -7 19 -27 56 -44 82 -16 26
-45 71 -63 101 -60 95 -139 169 -217 201 -69 29 -127 63 -133 78 -2 4 -10 8
-17 8 -8 0 -20 8 -27 19 -7 10 -23 21 -36 25 -15 5 -21 13 -18 22 3 8 2 13 -2
10 -5 -3 -15 4 -22 15 -8 10 -20 19 -28 19 -7 0 -11 3 -9 8 3 4 -10 7 -29 7
-19 0 -34 -4 -34 -9z"/>
<path d="M4055 881 c0 -37 74 -200 101 -222 8 -6 14 -23 14 -36 0 -16 7 -27
20 -30 11 -3 17 -9 15 -14 -3 -4 2 -12 10 -16 9 -5 18 -22 21 -38 11 -63 14
-31 13 161 0 129 -3 191 -9 177 -5 -13 -17 -23 -27 -22 -16 0 -15 1 2 9 16 7
13 9 -22 15 -34 6 -43 12 -43 27 0 15 -5 19 -20 15 -11 -3 -22 -2 -25 3 -2 4
-15 8 -28 8 -19 0 -22 -5 -22 -37z"/>
<path d="M3415 721 c-6 -30 -9 -32 -17 -16 -8 14 -12 15 -19 4 -12 -20 -11
-29 4 -29 21 0 39 -38 27 -60 -7 -12 -7 -27 0 -44 13 -34 2 -59 -21 -53 -11 3
-22 1 -25 -4 -5 -9 14 -13 53 -9 18 1 22 -2 16 -17 -3 -10 -10 -23 -15 -30 -6
-7 -4 -14 5 -20 8 -4 16 -23 19 -42 4 -27 1 -35 -14 -39 -18 -4 -26 -42 -8
-42 6 0 10 5 10 11 0 5 5 7 10 4 6 -3 7 -18 4 -33 -4 -21 -3 -24 5 -12 10 13
11 13 12 0 1 -8 1 -22 0 -30 -1 -8 5 -4 13 10 17 28 22 19 6 -10 -6 -11 -17
-17 -25 -14 -11 5 -15 -1 -15 -21 0 -17 -4 -24 -12 -19 -8 5 -9 2 -5 -10 4
-10 7 -20 7 -22 0 -14 22 0 31 19 9 20 9 20 4 -5 -5 -25 -2 -28 22 -30 16 -1
41 -1 56 0 l28 2 -25 -27 c-14 -15 -22 -31 -19 -36 3 -6 1 -7 -5 -3 -6 3 -14
2 -17 -4 -5 -8 11 -10 49 -9 31 1 56 6 56 11 0 5 5 6 12 2 8 -5 9 -2 5 9 -3 9
-1 19 5 23 7 5 8 2 3 -6 -5 -8 -3 -11 6 -8 17 6 19 68 2 86 -15 15 -27 16 -17
0 4 -7 3 -8 -4 -4 -15 9 -15 39 0 54 9 9 6 12 -16 12 -16 0 -25 4 -21 10 4 6
10 8 15 5 4 -3 5 10 1 28 l-8 32 54 -2 c61 -2 67 9 21 37 -31 18 -33 19 -40 2
-6 -16 -7 -16 -7 1 -1 9 -12 22 -25 29 -28 12 -41 35 -20 35 8 0 14 -4 14 -9
0 -5 5 -6 12 -2 7 5 5 11 -7 21 -11 7 -13 13 -7 13 7 0 12 5 12 11 0 6 -8 8
-17 5 -10 -3 -24 -2 -32 3 -11 7 -10 11 6 20 25 13 41 46 18 37 -9 -3 -15 0
-15 9 0 8 -5 15 -11 15 -5 0 -7 5 -3 11 11 19 -29 89 -51 89 -18 1 -19 2 -3
13 15 12 14 15 -10 31 -15 10 -31 17 -37 16 -5 -1 -12 7 -16 17 -5 14 -8 10
-14 -16z"/>
</g>
</svg>
