<?xml version="1.0" standalone="no"?>
<!DOCTYPE svg PUBLIC "-//W3C//DTD SVG 20010904//EN"
 "http://www.w3.org/TR/2001/REC-SVG-20010904/DTD/svg10.dtd">
<svg version="1.0" xmlns="http://www.w3.org/2000/svg"
 width="1500.000000pt" height="500.000000pt" viewBox="0 0 1500.000000 500.000000"
 preserveAspectRatio="xMidYMid meet">

<g transform="translate(0.000000,500.000000) scale(0.100000,-0.100000)"
fill="#000000" stroke="none">
<path d="M4675 3603 c-93 -18 -171 -36 -173 -38 -2 -2 -6 -21 -9 -44 l-5 -40
57 -3 c50 -3 61 -7 79 -31 20 -27 21 -43 24 -279 l3 -251 -89 7 c-130 10 -238
-7 -340 -54 -250 -117 -392 -343 -392 -624 0 -273 129 -462 360 -525 41 -12
90 -21 110 -21 45 0 130 41 248 119 96 63 122 73 122 44 0 -34 43 -105 79
-128 53 -36 131 -48 177 -29 43 18 130 97 169 155 26 37 27 40 11 58 -16 17
-18 17 -73 -11 -78 -39 -134 -38 -175 3 l-31 30 6 502 c7 597 29 1050 56 1144
11 37 4 53 -22 52 -12 -1 -98 -17 -192 -36z m-140 -843 c22 -6 57 -18 78 -27
l37 -16 0 -357 0 -357 -53 -36 c-112 -74 -156 -91 -237 -91 -64 -1 -82 3 -121
26 -91 53 -163 156 -194 275 -32 121 -15 315 35 414 38 73 125 144 210 170 37
11 199 10 245 -1z"/>
<path d="M13790 3619 c-41 -10 -118 -26 -170 -35 -52 -8 -96 -17 -97 -18 -1
-1 -5 -21 -9 -44 l-7 -42 47 0 c26 0 56 -5 68 -11 48 -26 48 -29 48 -811 0
-838 5 -790 -82 -819 -26 -8 -50 -17 -52 -20 -2 -2 -7 -25 -10 -51 l-7 -48
245 0 c135 0 247 4 250 8 3 5 8 32 12 61 l7 54 -47 -7 c-60 -9 -109 7 -125 40
-7 17 -11 134 -11 378 l0 354 48 30 c26 17 83 48 127 69 70 33 89 38 155 38
61 0 82 -4 113 -23 45 -28 81 -88 96 -159 15 -74 -4 -635 -23 -672 -18 -35
-44 -57 -88 -75 -40 -17 -48 -31 -48 -85 l0 -37 73 12 c39 7 149 13 244 14 94
0 174 4 177 8 3 5 8 32 12 61 l7 53 -49 -6 c-63 -9 -99 5 -120 46 -15 28 -16
53 -11 183 3 82 14 231 22 330 20 216 16 279 -26 363 -52 105 -151 162 -292
165 -54 2 -73 -3 -147 -39 -47 -23 -123 -67 -170 -97 l-85 -56 -3 52 c-8 119
29 723 48 795 18 67 3 72 -120 41z"/>
<path d="M3304 3500 c-27 -11 -72 -65 -80 -96 -20 -77 26 -157 97 -169 102
-17 196 85 169 186 -15 55 -60 89 -118 88 -26 0 -56 -4 -68 -9z"/>
<path d="M5412 3490 c-109 -66 -90 -233 29 -255 76 -14 159 48 175 130 8 43
-20 107 -55 128 -39 23 -108 22 -149 -3z"/>
<path d="M9382 3490 c-106 -65 -90 -230 25 -255 74 -15 165 45 179 120 9 49
-18 116 -55 138 -39 23 -108 22 -149 -3z"/>
<path d="M2846 3393 c-4 -4 -129 -10 -278 -13 l-272 -5 -7 -28 c-4 -16 -9 -42
-11 -59 l-3 -30 93 -2 c110 -1 117 -7 128 -95 4 -31 4 -335 1 -676 -7 -664
-10 -700 -60 -808 -31 -66 -90 -133 -161 -182 -31 -21 -56 -45 -56 -52 0 -8 9
-32 20 -53 l20 -40 58 29 c131 66 223 155 281 270 73 143 76 174 101 1071 11
390 19 490 41 516 6 8 35 21 64 30 57 16 65 27 65 97 0 35 -8 46 -24 30z"/>
<path d="M7466 3349 c-3 -17 -6 -44 -6 -60 0 -29 0 -29 65 -29 57 0 69 -3 90
-25 l25 -24 0 -613 c0 -410 -4 -626 -11 -653 -15 -56 -53 -92 -118 -112 -31
-9 -60 -20 -65 -25 -5 -4 -12 -31 -16 -59 l-7 -51 71 9 c99 11 468 8 543 -5
119 -21 323 18 458 86 294 148 495 477 495 811 0 222 -74 405 -222 552 -62 62
-97 86 -180 128 -186 93 -198 95 -689 99 l-426 3 -7 -32z m665 -103 c304 -41
503 -190 586 -439 26 -77 27 -92 28 -267 0 -164 -3 -194 -23 -265 -66 -229
-225 -393 -420 -434 -68 -14 -280 -14 -336 0 -64 16 -111 59 -125 113 -6 25
-11 93 -11 153 0 167 30 1033 38 1083 12 73 57 83 263 56z"/>
<path d="M1017 3299 c-149 -22 -279 -68 -411 -146 -112 -66 -293 -248 -358
-359 -90 -154 -144 -320 -156 -486 -25 -324 74 -615 276 -816 184 -183 384
-271 698 -307 l50 -5 37 52 37 53 -28 6 c-15 4 -72 14 -128 22 -343 53 -596
260 -703 575 -44 129 -54 200 -54 367 0 162 12 239 58 361 87 230 278 422 499
501 183 65 462 59 643 -14 169 -67 303 -201 364 -362 69 -182 62 -440 -15
-596 -65 -131 -153 -207 -289 -250 -85 -27 -202 -41 -211 -26 -15 23 56 386
146 753 33 136 58 254 55 262 -6 15 -77 56 -96 56 -5 0 -14 -15 -20 -33 l-11
-34 -113 19 c-171 27 -211 25 -297 -19 -173 -86 -330 -303 -405 -558 -33 -110
-45 -307 -26 -407 23 -117 85 -196 166 -212 26 -6 38 1 92 47 135 118 292 324
384 501 34 66 56 86 47 44 -3 -13 -29 -134 -58 -271 -45 -215 -51 -251 -40
-277 18 -45 57 -53 185 -40 394 40 669 302 726 692 65 442 -233 828 -696 903
-97 16 -254 18 -348 4z m204 -560 c109 -47 107 -36 40 -179 -185 -396 -399
-689 -473 -649 -44 23 -71 245 -49 397 30 202 127 380 243 445 46 26 163 19
239 -14z"/>
<path d="M3455 2919 c-16 -5 -97 -23 -180 -40 -82 -17 -151 -31 -151 -32 -1
-1 -5 -21 -9 -44 l-7 -43 54 0 c46 0 58 -4 79 -26 l24 -26 0 -403 c0 -461 5
-436 -91 -486 -47 -24 -49 -27 -52 -73 l-3 -48 33 6 c18 4 128 9 243 12 116 4
213 9 217 13 4 3 10 29 13 57 l7 51 -66 -1 c-55 -1 -69 2 -88 22 -22 21 -23
32 -26 180 -6 264 28 811 52 851 3 4 0 15 -7 23 -9 12 -19 13 -42 7z"/>
<path d="M5575 2919 c-16 -5 -97 -23 -180 -40 -82 -17 -150 -31 -151 -32 -1
-1 -4 -21 -7 -44 l-5 -43 52 0 c43 0 57 -4 77 -26 l24 -26 3 -397 3 -397 -23
-35 c-13 -18 -44 -45 -70 -59 -48 -25 -58 -41 -58 -97 0 -31 0 -31 33 -21 17
6 129 13 248 15 l217 5 6 37 c13 80 11 82 -41 76 -66 -9 -100 6 -120 52 -14
33 -15 75 -10 318 7 303 21 521 41 628 16 81 7 99 -39 86z"/>
<path d="M6250 2910 c-41 -10 -118 -26 -170 -36 -52 -9 -101 -21 -107 -27 -7
-5 -13 -26 -13 -47 l0 -37 51 -7 c60 -8 95 -37 104 -87 3 -19 5 -202 3 -406
l-3 -373 -26 -25 c-14 -15 -43 -32 -65 -40 -36 -12 -39 -16 -46 -61 -4 -27 -6
-49 -5 -49 1 -1 113 1 248 3 l247 4 10 52 c6 28 8 54 6 58 -3 4 -26 5 -52 2
-65 -8 -100 8 -119 53 -14 34 -15 72 -3 383 10 298 14 346 29 357 9 6 49 31
90 54 149 86 265 91 351 13 69 -62 73 -88 69 -457 -4 -316 -5 -323 -27 -359
-16 -25 -40 -45 -72 -60 -49 -22 -60 -41 -60 -102 0 -22 1 -22 83 -10 45 7
157 13 249 13 l167 1 8 48 c4 26 8 51 8 57 0 5 -31 10 -68 10 -59 0 -71 3 -87
22 -24 30 -33 105 -26 211 3 48 13 189 22 314 21 299 8 367 -87 452 -61 56
-120 79 -216 84 -80 4 -84 3 -165 -37 -46 -22 -121 -65 -168 -95 -98 -63 -99
-63 -80 51 8 44 9 77 4 82 -5 5 -43 0 -84 -9z"/>
<path d="M9545 2919 c-16 -5 -97 -23 -180 -40 -82 -17 -150 -31 -151 -32 -1
-1 -4 -21 -7 -44 l-5 -43 52 0 c43 0 57 -4 77 -26 l24 -26 3 -397 3 -397 -23
-35 c-13 -18 -44 -45 -70 -59 -48 -25 -58 -41 -58 -97 0 -31 0 -31 33 -21 17
6 129 13 248 15 l217 5 6 37 c13 80 11 82 -41 76 -66 -9 -100 6 -120 52 -31
74 4 894 42 995 3 7 0 21 -7 30 -10 12 -20 13 -43 7z"/>
<path d="M10220 2909 c-41 -10 -118 -25 -170 -34 -104 -19 -120 -30 -120 -82
0 -28 4 -33 23 -33 51 0 98 -21 118 -53 18 -31 19 -49 17 -424 l-3 -393 -26
-25 c-14 -15 -43 -32 -65 -40 -37 -12 -39 -16 -45 -62 -3 -26 -6 -48 -5 -49 1
0 112 1 247 4 l247 4 10 52 c6 28 8 54 6 58 -3 4 -26 5 -52 2 -65 -8 -100 8
-119 53 -14 34 -14 72 -3 383 11 297 15 346 29 357 48 36 170 98 214 110 137
35 244 -13 282 -128 15 -43 16 -93 13 -372 -3 -317 -3 -323 -26 -359 -15 -25
-40 -45 -72 -60 -41 -19 -49 -27 -54 -57 -12 -71 -15 -68 77 -55 45 7 157 13
249 13 l167 1 6 33 c14 84 15 82 -38 79 -63 -5 -102 12 -119 51 -17 41 -15
201 7 496 23 298 9 370 -86 455 -61 56 -120 79 -215 84 -78 4 -86 3 -155 -31
-41 -20 -117 -63 -169 -96 l-95 -60 -3 28 c-2 16 3 56 11 89 10 45 11 64 3 71
-7 5 -41 1 -86 -10z"/>
<path d="M11821 2919 c-116 -20 -265 -120 -344 -232 -97 -135 -137 -261 -137
-424 1 -315 173 -523 467 -564 117 -16 217 16 396 124 37 23 67 47 67 53 0 19
-22 74 -29 74 -4 0 -36 -11 -70 -25 -146 -60 -306 -70 -408 -25 -65 28 -146
111 -177 182 -31 71 -44 128 -52 226 l-7 82 360 0 c437 0 398 -16 398 164 0
109 -2 126 -26 176 -53 112 -135 171 -267 190 -77 11 -97 11 -171 -1z m136
-140 c38 -14 82 -57 99 -98 19 -46 18 -135 -2 -151 -15 -14 -106 -22 -372 -35
l-143 -7 7 28 c12 57 62 150 99 188 58 58 125 86 212 86 39 0 84 -5 100 -11z"/>
<path d="M12854 2901 c-178 -51 -297 -186 -298 -338 0 -130 70 -211 285 -332
244 -137 289 -177 289 -264 0 -90 -93 -150 -230 -150 -154 1 -220 60 -240 216
-5 39 -10 75 -10 80 0 9 -62 9 -76 -1 -13 -8 -47 -353 -36 -364 15 -15 165
-48 250 -54 320 -23 594 213 517 445 -28 84 -121 163 -320 271 -113 61 -200
124 -223 162 -49 81 -33 149 47 196 41 24 56 27 136 27 153 0 205 -45 205
-178 l0 -68 48 3 c46 3 47 4 50 38 1 19 12 85 22 147 11 62 20 121 20 131 0
47 -307 70 -436 33z"/>
</g>
</svg>
