<?xml version="1.0" standalone="no"?>
<!DOCTYPE svg PUBLIC "-//W3C//DTD SVG 20010904//EN"
 "http://www.w3.org/TR/2001/REC-SVG-20010904/DTD/svg10.dtd">
<svg version="1.0" xmlns="http://www.w3.org/2000/svg"
 width="118.000000pt" height="250.000000pt" viewBox="0 0 118.000000 250.000000"
 preserveAspectRatio="xMidYMid meet">

<g transform="translate(0.000000,250.000000) scale(0.100000,-0.100000)"
fill="#000000" stroke="none">
<path d="M490 2496 c0 -2 8 -10 18 -17 15 -13 16 -12 3 4 -13 16 -21 21 -21
13z"/>
<path d="M550 2496 c0 -2 8 -10 18 -17 15 -13 16 -12 3 4 -13 16 -21 21 -21
13z"/>
<path d="M679 2373 c-12 -16 -12 -17 2 -6 12 10 18 10 29 0 12 -10 12 -9 1 6
-7 9 -15 17 -16 17 -1 0 -9 -8 -16 -17z"/>
<path d="M424 2366 c-10 -26 0 -51 21 -51 16 0 20 7 20 30 0 33 -30 49 -41 21z
m36 0 c0 -2 -7 -9 -15 -16 -12 -10 -15 -10 -15 4 0 9 7 16 15 16 8 0 15 -2 15
-4z m0 -31 c0 -8 -7 -15 -16 -15 -14 0 -14 3 -4 15 7 8 14 15 16 15 2 0 4 -7
4 -15z"/>
<path d="M484 2366 c-10 -26 0 -51 21 -51 16 0 20 7 20 30 0 33 -30 49 -41 21z
m36 -21 c0 -16 -6 -25 -15 -25 -9 0 -15 9 -15 25 0 16 6 25 15 25 9 0 15 -9
15 -25z"/>
<path d="M557 2373 c-2 -5 0 -21 4 -38 7 -29 7 -29 8 8 1 35 -3 46 -12 30z"/>
<path d="M380 2320 c0 -5 5 -10 10 -10 6 0 10 5 10 10 0 6 -4 10 -10 10 -5 0
-10 -4 -10 -10z"/>
<path d="M620 2320 c0 -5 5 -10 10 -10 6 0 10 5 10 10 0 6 -4 10 -10 10 -5 0
-10 -4 -10 -10z"/>
<path d="M430 2265 c-10 -12 -10 -19 -2 -27 16 -16 15 -31 0 -22 -9 5 -8 2 1
-10 13 -15 16 -15 30 -2 12 12 13 19 3 28 -16 16 -15 31 1 22 8 -5 8 -2 -2 9
-16 21 -16 21 -31 2z"/>
<path d="M484 2256 c-10 -26 0 -51 21 -51 16 0 20 7 20 30 0 33 -30 49 -41 21z
m36 -21 c0 -16 -6 -25 -15 -25 -9 0 -15 9 -15 25 0 16 6 25 15 25 9 0 15 -9
15 -25z"/>
<path d="M541 2234 c1 -36 2 -37 8 -10 5 24 8 26 17 15 6 -8 14 -21 17 -29 3
-8 5 3 5 25 0 22 -2 32 -5 22 -5 -18 -6 -18 -24 -1 -18 17 -19 16 -18 -22z"/>
<path d="M677 2263 c-2 -5 0 -21 4 -38 7 -29 7 -29 8 8 1 35 -3 46 -12 30z"/>
<path d="M364 2225 c1 -13 8 -20 24 -21 18 -1 22 4 21 25 0 25 0 26 -9 4 -11
-27 -27 -30 -33 -5 -3 13 -4 12 -3 -3z"/>
<path d="M613 2243 c9 -2 23 -2 30 0 6 3 -1 5 -18 5 -16 0 -22 -2 -12 -5z"/>
<path d="M613 2223 c9 -2 23 -2 30 0 6 3 -1 5 -18 5 -16 0 -22 -2 -12 -5z"/>
<path d="M424 2146 c-10 -26 0 -51 21 -51 16 0 20 7 20 30 0 33 -30 49 -41 21z
m36 0 c0 -2 -7 -9 -15 -16 -12 -10 -15 -10 -15 4 0 9 7 16 15 16 8 0 15 -2 15
-4z m0 -31 c0 -8 -7 -15 -16 -15 -14 0 -14 3 -4 15 7 8 14 15 16 15 2 0 4 -7
4 -15z"/>
<path d="M484 2146 c-10 -26 0 -51 21 -51 16 0 20 7 20 30 0 33 -30 49 -41 21z
m36 0 c0 -2 -7 -9 -15 -16 -12 -10 -15 -10 -15 4 0 9 7 16 15 16 8 0 15 -2 15
-4z m0 -31 c0 -8 -7 -15 -16 -15 -14 0 -14 3 -4 15 7 8 14 15 16 15 2 0 4 -7
4 -15z"/>
<path d="M540 2125 c0 -32 3 -36 23 -33 17 2 22 10 22 33 0 23 -5 31 -22 33
-20 3 -23 -1 -23 -33z m40 15 c0 -5 -7 -10 -15 -10 -8 0 -15 5 -15 10 0 6 7
10 15 10 8 0 15 -4 15 -10z m0 -30 c0 -5 -7 -10 -15 -10 -8 0 -15 5 -15 10 0
6 7 10 15 10 8 0 15 -4 15 -10z"/>
<path d="M607 2154 c-4 -4 -6 -21 -6 -38 1 -17 3 -23 6 -13 2 9 11 17 18 17 7
0 16 -8 19 -17 2 -10 4 -2 3 17 -2 33 -23 51 -40 34z m33 -14 c0 -5 -7 -10
-15 -10 -8 0 -15 5 -15 10 0 6 7 10 15 10 8 0 15 -4 15 -10z"/>
<path d="M683 2125 c0 -22 2 -30 4 -17 2 12 2 30 0 40 -3 9 -5 -1 -4 -23z"/>
<path d="M373 2133 c18 -5 18 -6 1 -24 -16 -18 -16 -19 12 -18 18 1 22 3 11 6
-18 5 -18 6 -1 24 16 18 16 19 -12 18 -18 -1 -22 -3 -11 -6z"/>
<path d="M323 2015 c0 -22 2 -30 4 -17 2 12 2 30 0 40 -3 9 -5 -1 -4 -23z"/>
<path d="M546 2041 c-3 -4 4 -7 14 -8 11 -1 22 2 24 6 3 4 -4 7 -14 8 -11 1
-22 -2 -24 -6z"/>
<path d="M493 2023 c9 -2 23 -2 30 0 6 3 -1 5 -18 5 -16 0 -22 -2 -12 -5z"/>
<path d="M493 2003 c9 -2 23 -2 30 0 6 3 -1 5 -18 5 -16 0 -22 -2 -12 -5z"/>
<path d="M380 1990 c0 -5 5 -10 10 -10 6 0 10 5 10 10 0 6 -4 10 -10 10 -5 0
-10 -4 -10 -10z"/>
<path d="M440 1990 c0 -5 5 -10 10 -10 6 0 10 5 10 10 0 6 -4 10 -10 10 -5 0
-10 -4 -10 -10z"/>
<path d="M620 1990 c0 -5 5 -10 10 -10 6 0 10 5 10 10 0 6 -4 10 -10 10 -5 0
-10 -4 -10 -10z"/>
<path d="M441 1934 c0 -11 3 -14 6 -6 3 7 2 16 -1 19 -3 4 -6 -2 -5 -13z"/>
<path d="M501 1934 c0 -11 3 -14 6 -6 3 7 2 16 -1 19 -3 4 -6 -2 -5 -13z"/>
<path d="M561 1934 c0 -11 3 -14 6 -6 3 7 2 16 -1 19 -3 4 -6 -2 -5 -13z"/>
<path d="M386 1922 c-15 -18 -15 -20 6 -38 23 -19 23 -19 6 2 -17 19 -17 21
-1 37 10 9 15 17 12 17 -3 0 -13 -8 -23 -18z"/>
<path d="M250 1920 c0 -5 5 -10 10 -10 6 0 10 5 10 10 0 6 -4 10 -10 10 -5 0
-10 -4 -10 -10z"/>
<path d="M305 1909 c-4 -6 3 -13 16 -17 l24 -6 -25 -7 c-23 -6 -23 -7 -3 -8
31 -1 40 19 12 27 l-24 6 25 7 c23 6 23 7 3 8 -12 1 -25 -4 -28 -10z"/>
<path d="M253 1871 c0 -11 5 -17 9 -15 11 7 10 34 -1 34 -6 0 -9 -9 -8 -19z"/>
<path d="M610 1836 c0 -2 8 -10 18 -17 15 -13 16 -12 3 4 -13 16 -21 21 -21
13z"/>
<path d="M241 1794 c1 -36 2 -37 8 -10 5 24 8 26 17 15 6 -8 14 -21 17 -29 3
-8 5 3 5 25 0 22 -2 32 -5 22 -5 -18 -6 -18 -24 -1 -18 17 -19 16 -18 -22z"/>
<path d="M301 1793 c1 -21 3 -30 6 -20 2 9 11 17 18 17 7 0 16 -8 18 -17 3
-10 4 -2 3 17 -1 28 -6 36 -24 38 -20 3 -22 -1 -21 -35z m39 17 c0 -5 -7 -10
-15 -10 -8 0 -15 5 -15 10 0 6 7 10 15 10 8 0 15 -4 15 -10z"/>
<path d="M371 1813 c11 -18 10 -24 -1 -40 -12 -15 -12 -16 0 -6 11 10 17 10
29 0 14 -11 14 -10 2 6 -13 16 -13 22 -1 40 12 19 11 20 -2 10 -11 -10 -17
-10 -27 0 -11 10 -11 8 0 -10z"/>
<path d="M426 1821 c-3 -4 4 -7 14 -8 11 -1 22 2 24 6 3 4 -4 7 -14 8 -11 1
-22 -2 -24 -6z"/>
<path d="M493 1803 c9 -2 23 -2 30 0 6 3 -1 5 -18 5 -16 0 -22 -2 -12 -5z"/>
<path d="M553 1793 c9 -2 23 -2 30 0 6 3 -1 5 -18 5 -16 0 -22 -2 -12 -5z"/>
<path d="M493 1783 c9 -2 23 -2 30 0 6 3 -1 5 -18 5 -16 0 -22 -2 -12 -5z"/>
<path d="M439 1713 c-12 -16 -12 -17 2 -6 12 10 18 10 29 0 12 -10 12 -9 1 6
-7 9 -15 17 -16 17 -1 0 -9 -8 -16 -17z"/>
<path d="M619 1713 c-12 -16 -12 -17 2 -6 12 10 18 10 29 0 12 -10 12 -9 1 6
-7 9 -15 17 -16 17 -1 0 -9 -8 -16 -17z"/>
<path d="M304 1706 c-10 -26 0 -51 21 -51 16 0 20 7 20 30 0 33 -30 49 -41 21z
m36 0 c0 -2 -7 -9 -15 -16 -12 -10 -15 -10 -15 4 0 9 7 16 15 16 8 0 15 -2 15
-4z m0 -31 c0 -8 -7 -15 -16 -15 -14 0 -14 3 -4 15 7 8 14 15 16 15 2 0 4 -7
4 -15z"/>
<path d="M506 1702 c-15 -18 -15 -20 6 -38 23 -19 23 -19 6 2 -17 19 -17 21
-1 37 10 9 15 17 12 17 -3 0 -13 -8 -23 -18z"/>
<path d="M551 1703 c11 -18 10 -24 -1 -40 -12 -15 -12 -16 0 -6 11 10 17 10
29 0 14 -11 14 -10 2 6 -13 16 -13 22 -1 40 12 19 11 20 -2 10 -11 -10 -17
-10 -27 0 -11 10 -11 8 0 -10z"/>
<path d="M253 1693 c18 -5 18 -6 1 -24 -16 -18 -16 -19 12 -18 18 1 22 3 11 6
-18 5 -18 6 -1 24 16 18 16 19 -12 18 -18 -1 -22 -3 -11 -6z"/>
<path d="M363 1684 c-8 -20 10 -37 33 -31 16 4 15 5 -3 6 -14 1 -23 7 -23 17
0 11 6 15 20 11 11 -3 18 -1 14 4 -9 14 -34 10 -41 -7z"/>
<path d="M559 1603 c-12 -16 -12 -17 2 -6 12 10 18 10 29 0 12 -10 12 -9 1 6
-7 9 -15 17 -16 17 -1 0 -9 -8 -16 -17z"/>
<path d="M610 1616 c0 -2 8 -10 18 -17 15 -13 16 -12 3 4 -13 16 -21 21 -21
13z"/>
<path d="M246 1601 c-3 -4 4 -7 14 -8 11 -1 22 2 24 6 3 4 -4 7 -14 8 -11 1
-22 -2 -24 -6z"/>
<path d="M300 1575 c0 -32 3 -36 23 -33 17 2 22 10 22 33 0 23 -5 31 -22 33
-20 3 -23 -1 -23 -33z m40 15 c0 -5 -7 -10 -15 -10 -8 0 -15 5 -15 10 0 6 7
10 15 10 8 0 15 -4 15 -10z m0 -30 c0 -5 -7 -10 -15 -10 -8 0 -15 5 -15 10 0
6 7 10 15 10 8 0 15 -4 15 -10z"/>
<path d="M364 1596 c-10 -26 0 -51 21 -51 16 0 20 7 20 30 0 33 -30 49 -41 21z
m36 0 c0 -2 -7 -9 -15 -16 -12 -10 -15 -10 -15 4 0 9 7 16 15 16 8 0 15 -2 15
-4z m0 -31 c0 -8 -7 -15 -16 -15 -14 0 -14 3 -4 15 7 8 14 15 16 15 2 0 4 -7
4 -15z"/>
<path d="M486 1601 c-3 -4 4 -7 14 -8 11 -1 22 2 24 6 3 4 -4 7 -14 8 -11 1
-22 -2 -24 -6z"/>
<path d="M425 1579 c-4 -6 3 -13 16 -17 l24 -6 -25 -7 c-23 -6 -23 -7 -3 -8
31 -1 40 19 12 27 l-24 6 25 7 c23 6 23 7 3 8 -12 1 -25 -4 -28 -10z"/>
<path d="M307 1504 c-4 -4 -7 -22 -7 -41 0 -36 23 -54 42 -35 8 8 5 9 -11 5
-14 -4 -21 -1 -21 10 0 8 8 14 18 13 12 -1 17 6 17 24 0 24 -23 39 -38 24z
m32 -26 c0 -13 -3 -17 -6 -10 -2 6 -9 10 -14 6 -5 -3 -9 2 -9 10 0 9 7 16 15
16 9 0 15 -9 14 -22z"/>
<path d="M367 1504 c-4 -4 -7 -22 -7 -41 0 -36 23 -54 42 -35 8 8 5 9 -11 5
-14 -4 -21 -1 -21 10 0 8 8 14 18 13 12 -1 17 6 17 24 0 24 -23 39 -38 24z
m32 -26 c0 -13 -3 -17 -6 -10 -2 6 -9 10 -14 6 -5 -3 -9 2 -9 10 0 9 7 16 15
16 9 0 15 -9 14 -22z"/>
<path d="M430 1495 c-10 -12 -10 -19 -2 -27 16 -16 15 -31 0 -22 -9 5 -8 2 1
-10 13 -15 16 -15 30 -2 12 12 13 19 3 28 -16 16 -15 31 1 22 8 -5 8 -2 -2 9
-16 21 -16 21 -31 2z"/>
<path d="M621 1494 c0 -11 3 -14 6 -6 3 7 2 16 -1 19 -3 4 -6 -2 -5 -13z"/>
<path d="M482 1465 c0 -22 2 -32 5 -22 2 9 11 17 18 17 7 0 16 -8 18 -17 3
-10 5 0 5 22 0 22 -2 32 -5 23 -2 -10 -11 -18 -18 -18 -7 0 -16 8 -18 18 -3 9
-5 -1 -5 -23z"/>
<path d="M546 1491 c-3 -4 4 -7 14 -8 11 -1 22 2 24 6 3 4 -4 7 -14 8 -11 1
-22 -2 -24 -6z"/>
<path d="M310 1385 c-10 -12 -10 -19 -2 -27 16 -16 15 -31 0 -22 -9 5 -8 2 1
-10 13 -15 16 -15 30 -2 12 12 13 19 3 28 -16 16 -15 31 1 22 8 -5 8 -2 -2 9
-16 21 -16 21 -31 2z"/>
<path d="M730 1396 c0 -2 8 -10 18 -17 15 -13 16 -12 3 4 -13 16 -21 21 -21
13z"/>
<path d="M364 1376 c-10 -26 0 -51 21 -51 16 0 20 7 20 30 0 33 -30 49 -41 21z
m36 0 c0 -2 -7 -9 -15 -16 -12 -10 -15 -10 -15 4 0 9 7 16 15 16 8 0 15 -2 15
-4z m0 -31 c0 -8 -7 -15 -16 -15 -14 0 -14 3 -4 15 7 8 14 15 16 15 2 0 4 -7
4 -15z"/>
<path d="M491 1373 c11 -18 10 -24 -1 -40 -12 -15 -12 -16 0 -6 11 10 17 10
29 0 14 -11 14 -10 2 6 -13 16 -13 22 -1 40 12 19 11 20 -2 10 -11 -10 -17
-10 -27 0 -11 10 -11 8 0 -10z"/>
<path d="M541 1354 c1 -36 2 -37 8 -10 5 24 8 26 17 15 6 -8 14 -21 17 -29 3
-8 5 3 5 25 0 22 -2 32 -5 22 -5 -18 -6 -18 -24 -1 -18 17 -19 16 -18 -22z"/>
<path d="M610 1370 c0 -5 5 -10 10 -10 6 0 10 5 10 10 0 6 -4 10 -10 10 -5 0
-10 -4 -10 -10z"/>
<path d="M241 1341 c0 -25 0 -26 9 -3 12 27 27 29 33 2 4 -17 4 -16 3 2 -1 16
-8 23 -23 24 -19 1 -23 -4 -22 -25z"/>
<path d="M433 1363 c9 -2 23 -2 30 0 6 3 -1 5 -18 5 -16 0 -22 -2 -12 -5z"/>
<path d="M433 1343 c9 -2 23 -2 30 0 6 3 -1 5 -18 5 -16 0 -22 -2 -12 -5z"/>
<path d="M613 1321 c0 -11 5 -17 9 -15 11 7 10 34 -1 34 -6 0 -9 -9 -8 -19z"/>
<path d="M680 1330 c0 -5 5 -10 10 -10 6 0 10 5 10 10 0 6 -4 10 -10 10 -5 0
-10 -4 -10 -10z"/>
<path d="M801 1274 c0 -11 3 -14 6 -6 3 7 2 16 -1 19 -3 4 -6 -2 -5 -13z"/>
<path d="M850 1286 c0 -2 8 -10 18 -17 15 -13 16 -12 3 4 -13 16 -21 21 -21
13z"/>
<path d="M240 1245 c0 -32 3 -36 23 -33 17 2 22 10 22 33 0 23 -5 31 -22 33
-20 3 -23 -1 -23 -33z m40 15 c0 -5 -7 -10 -15 -10 -8 0 -15 5 -15 10 0 6 7
10 15 10 8 0 15 -4 15 -10z m0 -30 c0 -5 -7 -10 -15 -10 -8 0 -15 5 -15 10 0
6 7 10 15 10 8 0 15 -4 15 -10z"/>
<path d="M300 1245 c0 -32 3 -36 23 -33 17 2 22 10 22 33 0 23 -5 31 -22 33
-20 3 -23 -1 -23 -33z m40 15 c0 -5 -7 -10 -15 -10 -8 0 -15 5 -15 10 0 6 7
10 15 10 8 0 15 -4 15 -10z m0 -30 c0 -5 -7 -10 -15 -10 -8 0 -15 5 -15 10 0
6 7 10 15 10 8 0 15 -4 15 -10z"/>
<path d="M360 1245 c0 -32 3 -36 23 -33 17 2 22 10 22 33 0 23 -5 31 -22 33
-20 3 -23 -1 -23 -33z m40 15 c0 -5 -7 -10 -15 -10 -8 0 -15 5 -15 10 0 6 7
10 15 10 8 0 15 -4 15 -10z m0 -30 c0 -5 -7 -10 -15 -10 -8 0 -15 5 -15 10 0
6 7 10 15 10 8 0 15 -4 15 -10z"/>
<path d="M424 1266 c-10 -26 0 -51 21 -51 16 0 20 7 20 30 0 33 -30 49 -41 21z
m36 0 c0 -2 -7 -9 -15 -16 -12 -10 -15 -10 -15 4 0 9 7 16 15 16 8 0 15 -2 15
-4z m0 -31 c0 -8 -7 -15 -16 -15 -14 0 -14 3 -4 15 7 8 14 15 16 15 2 0 4 -7
4 -15z"/>
<path d="M543 1248 c1 -25 7 -33 22 -33 15 0 20 7 21 30 1 28 1 28 -3 3 -6
-37 -30 -36 -37 2 -6 30 -6 30 -3 -2z"/>
<path d="M617 1273 c-2 -5 0 -21 4 -38 7 -29 7 -29 8 8 1 35 -3 46 -12 30z"/>
<path d="M726 1271 c-3 -4 4 -7 14 -8 11 -1 22 2 24 6 3 4 -4 7 -14 8 -11 1
-22 -2 -24 -6z"/>
<path d="M202 1235 c0 -16 2 -22 5 -12 2 9 2 23 0 30 -3 6 -5 -1 -5 -18z"/>
<path d="M480 1254 c0 -5 6 -19 14 -29 13 -18 14 -18 25 4 7 13 10 25 8 28 -3
2 -8 -6 -12 -18 l-7 -22 -14 24 c-7 13 -13 19 -14 13z"/>
<path d="M673 1253 c9 -2 23 -2 30 0 6 3 -1 5 -18 5 -16 0 -22 -2 -12 -5z"/>
<path d="M673 1233 c9 -2 23 -2 30 0 6 3 -1 5 -18 5 -16 0 -22 -2 -12 -5z"/>
<path d="M190 1176 c0 -2 8 -10 18 -17 15 -13 16 -12 3 4 -13 16 -21 21 -21
13z"/>
<path d="M250 1165 c-10 -12 -10 -19 -2 -27 16 -16 15 -31 0 -22 -9 5 -8 2 1
-10 13 -15 16 -15 30 -2 12 12 13 19 3 28 -16 16 -15 31 1 22 8 -5 8 -2 -2 9
-16 21 -16 21 -31 2z"/>
<path d="M307 1174 c-4 -4 -7 -22 -7 -41 0 -36 23 -54 42 -35 8 8 5 9 -11 5
-14 -4 -21 -1 -21 10 0 8 8 14 18 13 12 -1 17 6 17 24 0 24 -23 39 -38 24z
m32 -26 c0 -13 -3 -17 -6 -10 -2 6 -9 10 -14 6 -5 -3 -9 2 -9 10 0 9 7 16 15
16 9 0 15 -9 14 -22z"/>
<path d="M670 1176 c0 -2 8 -10 18 -17 15 -13 16 -12 3 4 -13 16 -21 21 -21
13z"/>
<path d="M364 1156 c-10 -26 0 -51 21 -51 16 0 20 7 20 30 0 33 -30 49 -41 21z
m36 0 c0 -2 -7 -9 -15 -16 -12 -10 -15 -10 -15 4 0 9 7 16 15 16 8 0 15 -2 15
-4z m0 -31 c0 -8 -7 -15 -16 -15 -14 0 -14 3 -4 15 7 8 14 15 16 15 2 0 4 -7
4 -15z"/>
<path d="M424 1156 c-10 -26 0 -51 21 -51 16 0 20 7 20 30 0 33 -30 49 -41 21z
m36 0 c0 -2 -7 -9 -15 -16 -12 -10 -15 -10 -15 4 0 9 7 16 15 16 8 0 15 -2 15
-4z m0 -31 c0 -8 -7 -15 -16 -15 -14 0 -14 3 -4 15 7 8 14 15 16 15 2 0 4 -7
4 -15z"/>
<path d="M541 1133 c1 -21 3 -30 6 -20 2 9 11 17 18 17 7 0 16 -8 18 -17 3
-10 4 -2 3 17 -1 28 -6 36 -24 38 -20 3 -22 -1 -21 -35z m39 17 c0 -5 -7 -10
-15 -10 -8 0 -15 5 -15 10 0 6 7 10 15 10 8 0 15 -4 15 -10z"/>
<path d="M863 1135 c0 -22 2 -30 4 -17 2 12 2 30 0 40 -3 9 -5 -1 -4 -23z"/>
<path d="M483 1134 c-8 -20 10 -37 33 -31 16 4 15 5 -3 6 -14 1 -23 7 -23 17
0 11 6 15 20 11 11 -3 18 -1 14 4 -9 14 -34 10 -41 -7z"/>
<path d="M601 1120 l0 -25 10 24 c6 15 14 21 25 17 8 -3 12 -2 9 3 -3 6 -14 9
-25 8 -15 -1 -20 -8 -19 -27z"/>
<path d="M720 1144 c0 -5 6 -19 14 -29 13 -18 14 -18 25 4 7 13 10 25 8 28 -3
2 -8 -6 -12 -18 l-7 -22 -14 24 c-7 13 -13 19 -14 13z"/>
<path d="M784 1125 c1 -13 8 -20 24 -21 18 -1 22 4 21 25 0 25 0 26 -9 4 -11
-27 -27 -30 -33 -5 -3 13 -4 12 -3 -3z"/>
<path d="M741 1054 c0 -11 3 -14 6 -6 3 7 2 16 -1 19 -3 4 -6 -2 -5 -13z"/>
<path d="M241 1023 c1 -21 3 -30 6 -21 2 9 12 19 21 21 15 4 15 5 0 6 -26 2
-22 19 5 24 19 4 18 4 -5 6 -26 1 -28 -2 -27 -36z"/>
<path d="M307 1054 c-4 -4 -6 -21 -6 -38 1 -17 3 -23 6 -13 2 9 11 17 18 17 7
0 16 -8 19 -17 2 -10 4 -2 3 17 -2 33 -23 51 -40 34z m33 -14 c0 -5 -7 -10
-15 -10 -8 0 -15 5 -15 10 0 6 7 10 15 10 8 0 15 -4 15 -10z"/>
<path d="M362 1025 c0 -22 2 -32 5 -22 2 9 11 17 18 17 7 0 16 -8 18 -17 3
-10 5 0 5 22 0 22 -2 32 -5 23 -2 -10 -11 -18 -18 -18 -7 0 -16 8 -18 18 -3 9
-5 -1 -5 -23z"/>
<path d="M438 1051 l24 -6 -21 -19 c-28 -26 -26 -36 7 -35 26 1 26 1 4 8 l-24
6 21 19 c28 26 26 36 -6 35 -27 -1 -27 -1 -5 -8z"/>
<path d="M484 1015 c1 -13 8 -20 24 -21 18 -1 22 4 21 25 0 25 0 26 -9 4 -11
-27 -27 -30 -33 -5 -3 13 -4 12 -3 -3z"/>
<path d="M544 1025 c-7 -18 3 -35 21 -35 7 0 16 -6 18 -12 3 -7 6 4 6 25 1 31
-2 37 -19 37 -11 0 -23 -7 -26 -15z m36 -10 c0 -8 -7 -15 -15 -15 -8 0 -15 7
-15 15 0 8 7 15 15 15 8 0 15 -7 15 -15z"/>
<path d="M601 1010 l0 -25 10 24 c6 15 14 21 25 17 8 -3 12 -2 9 3 -3 6 -14 9
-25 8 -15 -1 -20 -8 -19 -27z"/>
<path d="M673 1023 c9 -2 23 -2 30 0 6 3 -1 5 -18 5 -16 0 -22 -2 -12 -5z"/>
<path d="M547 954 c-4 -4 -7 -22 -7 -41 0 -36 23 -54 42 -35 8 8 5 9 -11 5
-14 -4 -21 -1 -21 10 0 8 8 14 18 13 12 -1 17 6 17 24 0 24 -23 39 -38 24z
m32 -26 c0 -13 -3 -17 -6 -10 -2 6 -9 10 -14 6 -5 -3 -9 2 -9 10 0 9 7 16 15
16 9 0 15 -9 14 -22z"/>
<path d="M790 956 c0 -2 8 -10 18 -17 15 -13 16 -12 3 4 -13 16 -21 21 -21 13z"/>
<path d="M258 941 l24 -6 -21 -19 c-28 -26 -26 -36 7 -35 26 1 26 1 4 8 l-24
6 21 19 c28 26 26 36 -6 35 -27 -1 -27 -1 -5 -8z"/>
<path d="M318 941 l24 -6 -21 -19 c-28 -26 -26 -36 7 -35 26 1 26 1 4 8 l-24
6 21 19 c28 26 26 36 -6 35 -27 -1 -27 -1 -5 -8z"/>
<path d="M363 918 c1 -25 7 -33 22 -33 15 0 20 7 21 30 1 28 1 28 -3 3 -6 -37
-30 -36 -37 2 -6 30 -6 30 -3 -2z"/>
<path d="M421 913 c1 -21 3 -30 6 -21 2 9 12 19 21 21 15 4 15 5 0 6 -26 2
-22 19 5 24 19 4 18 4 -5 6 -26 1 -28 -2 -27 -36z"/>
<path d="M487 944 c-4 -4 -6 -21 -6 -38 1 -17 3 -23 6 -13 2 9 11 17 18 17 7
0 16 -8 19 -17 2 -10 4 -2 3 17 -2 33 -23 51 -40 34z m33 -14 c0 -5 -7 -10
-15 -10 -8 0 -15 5 -15 10 0 6 7 10 15 10 8 0 15 -4 15 -10z"/>
<path d="M601 913 c1 -21 3 -30 6 -21 2 9 12 19 21 21 15 4 15 5 0 6 -26 2
-22 19 5 24 19 4 18 4 -5 6 -26 1 -28 -2 -27 -36z"/>
<path d="M683 915 c0 -22 2 -30 4 -17 2 12 2 30 0 40 -3 9 -5 -1 -4 -23z"/>
<path d="M740 890 c0 -5 5 -10 10 -10 6 0 10 5 10 10 0 6 -4 10 -10 10 -5 0
-10 -4 -10 -10z"/>
<path d="M610 835 c-10 -12 -10 -19 -2 -27 16 -16 15 -31 0 -22 -9 5 -8 2 1
-10 13 -15 16 -15 30 -2 12 12 12 19 3 28 -16 16 -15 31 1 22 8 -5 8 -2 -2 9
-16 21 -16 21 -31 2z"/>
<path d="M739 833 c-12 -16 -12 -17 2 -6 12 10 18 10 29 0 12 -10 12 -9 1 6
-7 9 -15 17 -16 17 -1 0 -9 -8 -16 -17z"/>
<path d="M240 805 c0 -32 3 -36 23 -33 17 2 22 10 22 33 0 23 -5 31 -22 33
-20 3 -23 -1 -23 -33z m40 15 c0 -5 -7 -10 -15 -10 -8 0 -15 5 -15 10 0 6 7
10 15 10 8 0 15 -4 15 -10z m0 -30 c0 -5 -7 -10 -15 -10 -8 0 -15 5 -15 10 0
6 7 10 15 10 8 0 15 -4 15 -10z"/>
<path d="M301 803 c1 -21 3 -30 6 -20 2 9 11 17 18 17 7 0 16 -8 18 -17 3 -10
4 -2 3 17 -1 28 -6 36 -24 38 -20 3 -22 -1 -21 -35z m39 17 c0 -5 -7 -10 -15
-10 -8 0 -15 5 -15 10 0 6 7 10 15 10 8 0 15 -4 15 -10z"/>
<path d="M362 805 c0 -22 2 -32 5 -22 2 9 11 17 18 17 7 0 16 -8 18 -17 3 -10
5 0 5 22 0 22 -2 32 -5 23 -2 -10 -11 -18 -18 -18 -7 0 -16 8 -18 18 -3 9 -5
-1 -5 -23z"/>
<path d="M663 808 c1 -25 7 -33 22 -33 15 0 20 7 21 30 1 28 1 28 -3 3 -6 -37
-30 -36 -37 2 -6 30 -6 30 -3 -2z"/>
<path d="M190 820 c0 -5 5 -10 10 -10 6 0 10 5 10 10 0 6 -4 10 -10 10 -5 0
-10 -4 -10 -10z"/>
<path d="M420 814 c0 -5 6 -19 14 -29 13 -18 14 -18 25 4 7 13 10 25 8 28 -3
2 -8 -6 -12 -18 l-7 -22 -14 24 c-7 13 -13 19 -14 13z"/>
<path d="M541 791 c0 -25 0 -26 9 -3 12 27 27 29 33 2 4 -17 4 -16 3 2 -1 16
-8 23 -23 24 -19 1 -23 -4 -22 -25z"/>
<path d="M793 803 c9 -2 23 -2 30 0 6 3 -1 5 -18 5 -16 0 -22 -2 -12 -5z"/>
<path d="M193 771 c0 -11 5 -17 9 -15 11 7 10 34 -1 34 -6 0 -9 -9 -8 -19z"/>
<path d="M130 736 c0 -2 8 -10 18 -17 15 -13 16 -12 3 4 -13 16 -21 21 -21 13z"/>
<path d="M619 723 c-12 -16 -12 -17 2 -6 20 16 39 -1 39 -34 0 -26 26 -41 42
-25 8 8 5 9 -11 5 -14 -4 -21 -1 -21 10 0 8 8 14 17 13 24 -1 31 42 9 50 -9 4
-22 1 -29 -5 -9 -7 -17 -7 -24 0 -7 7 -14 4 -24 -8z m80 -15 c0 -13 -3 -17 -6
-10 -2 6 -9 10 -14 6 -5 -3 -9 2 -9 10 0 9 7 16 15 16 9 0 15 -9 14 -22z"/>
<path d="M187 724 c-4 -4 -6 -21 -6 -38 1 -17 3 -23 6 -13 2 9 11 17 18 17 7
0 16 -8 19 -17 2 -10 4 -2 3 17 -2 33 -23 51 -40 34z m33 -14 c0 -5 -7 -10
-15 -10 -8 0 -15 5 -15 10 0 6 7 10 15 10 8 0 15 -4 15 -10z"/>
<path d="M241 693 c1 -21 3 -30 6 -20 2 9 11 17 18 17 7 0 16 -8 18 -17 3 -10
4 -2 3 17 -1 28 -6 36 -24 38 -20 3 -22 -1 -21 -35z m39 17 c0 -5 -7 -10 -15
-10 -8 0 -15 5 -15 10 0 6 7 10 15 10 8 0 15 -4 15 -10z"/>
<path d="M301 694 c1 -36 2 -37 8 -10 5 24 8 26 17 15 6 -8 14 -21 17 -29 3
-8 5 3 5 25 0 22 -2 32 -5 22 -5 -18 -6 -18 -24 -1 -18 17 -19 16 -18 -22z"/>
<path d="M377 723 c-2 -5 0 -21 4 -38 7 -29 7 -29 8 8 1 35 -3 46 -12 30z"/>
<path d="M725 699 c-4 -6 3 -13 16 -17 l24 -6 -25 -7 c-23 -6 -23 -7 -3 -8 31
-1 40 19 12 27 l-24 6 25 7 c23 6 23 7 3 8 -12 1 -25 -4 -28 -10z"/>
<path d="M802 685 c0 -16 2 -22 5 -12 2 9 2 23 0 30 -3 6 -5 -1 -5 -18z"/>
<path d="M81 614 c0 -11 3 -14 6 -6 3 7 2 16 -1 19 -3 4 -6 -2 -5 -13z"/>
<path d="M861 614 c0 -11 3 -14 6 -6 3 7 2 16 -1 19 -3 4 -6 -2 -5 -13z"/>
<path d="M124 606 c-10 -26 0 -51 21 -51 16 0 20 7 20 30 0 33 -30 49 -41 21z
m36 -21 c0 -16 -6 -25 -15 -25 -9 0 -15 9 -15 25 0 16 6 25 15 25 9 0 15 -9
15 -25z"/>
<path d="M306 611 c-3 -4 4 -7 14 -8 11 -1 22 2 24 6 3 4 -4 7 -14 8 -11 1
-22 -2 -24 -6z"/>
<path d="M664 606 c-10 -26 0 -51 21 -51 16 0 20 7 20 30 0 33 -30 49 -41 21z
m36 -21 c0 -16 -6 -25 -15 -25 -9 0 -15 9 -15 25 0 16 6 25 15 25 9 0 15 -9
15 -25z"/>
<path d="M737 613 c-2 -5 0 -21 4 -38 7 -29 7 -29 8 8 1 35 -3 46 -12 30z"/>
<path d="M181 571 c0 -25 0 -26 9 -3 12 27 27 29 33 2 4 -17 4 -16 3 2 -1 16
-8 23 -23 24 -19 1 -23 -4 -22 -25z"/>
<path d="M240 594 c0 -5 6 -19 14 -29 13 -18 14 -18 25 4 7 13 10 25 8 28 -3
2 -8 -6 -12 -18 l-7 -22 -14 24 c-7 13 -13 19 -14 13z"/>
<path d="M800 560 c0 -5 5 -10 10 -10 6 0 10 5 10 10 0 6 -4 10 -10 10 -5 0
-10 -4 -10 -10z"/>
<path d="M850 516 c0 -2 8 -10 18 -17 15 -13 16 -12 3 4 -13 16 -21 21 -21 13z"/>
<path d="M124 496 c-10 -26 0 -51 21 -51 16 0 20 7 20 30 0 33 -30 49 -41 21z
m36 -21 c0 -16 -6 -25 -15 -25 -9 0 -15 9 -15 25 0 16 6 25 15 25 9 0 15 -9
15 -25z"/>
<path d="M63 474 c-8 -20 10 -37 33 -31 16 4 15 5 -3 6 -14 1 -23 7 -23 17 0
11 6 15 20 11 11 -3 18 -1 14 4 -9 14 -34 10 -41 -7z"/>
<path d="M184 475 c-7 -18 3 -35 21 -35 7 0 16 -6 18 -12 3 -7 6 4 6 25 1 31
-2 37 -19 37 -11 0 -23 -7 -26 -15z m36 -10 c0 -8 -7 -15 -15 -15 -8 0 -15 7
-15 15 0 8 7 15 15 15 8 0 15 -7 15 -15z"/>
<path d="M241 460 l0 -25 10 24 c6 15 14 21 25 17 8 -3 12 -2 9 3 -3 6 -14 9
-25 8 -15 -1 -20 -8 -19 -27z"/>
<path d="M661 460 l0 -25 10 24 c6 15 14 21 25 17 8 -3 12 -2 9 3 -3 6 -14 9
-25 8 -15 -1 -20 -8 -19 -27z"/>
<path d="M725 479 c-4 -6 3 -13 16 -17 l24 -6 -25 -7 c-23 -6 -23 -7 -3 -8 31
-1 40 19 12 27 l-24 6 25 7 c23 6 23 7 3 8 -12 1 -25 -4 -28 -10z"/>
<path d="M800 450 c0 -5 5 -10 10 -10 6 0 10 5 10 10 0 6 -4 10 -10 10 -5 0
-10 -4 -10 -10z"/>
<path d="M250 406 c0 -2 8 -10 18 -17 15 -13 16 -12 3 4 -13 16 -21 21 -21 13z"/>
<path d="M850 406 c0 -2 8 -10 18 -17 15 -13 16 -12 3 4 -13 16 -21 21 -21 13z"/>
<path d="M123 368 c1 -25 7 -33 22 -33 15 0 20 7 21 30 1 28 1 28 -3 3 -6 -37
-30 -36 -37 2 -6 30 -6 30 -3 -2z"/>
<path d="M183 368 c1 -25 7 -33 22 -33 15 0 20 7 21 30 1 28 1 28 -3 3 -6 -37
-30 -36 -37 2 -6 30 -6 30 -3 -2z"/>
<path d="M803 365 c0 -22 2 -30 4 -17 2 12 2 30 0 40 -3 9 -5 -1 -4 -23z"/>
<path d="M64 365 c-8 -20 3 -34 26 -32 28 2 28 47 0 47 -11 0 -23 -7 -26 -15z
m34 -7 c-6 -18 -28 -21 -28 -4 0 9 7 16 16 16 9 0 14 -5 12 -12z"/>
<path d="M724 355 c1 -13 8 -20 24 -21 18 -1 22 4 21 25 0 25 0 26 -9 4 -11
-27 -27 -30 -33 -5 -3 13 -4 12 -3 -3z"/>
<path d="M10 296 c0 -2 8 -10 18 -17 15 -13 16 -12 3 4 -13 16 -21 21 -21 13z"/>
<path d="M910 296 c0 -2 8 -10 18 -17 15 -13 16 -12 3 4 -13 16 -21 21 -21 13z"/>
<path d="M61 253 c1 -21 3 -30 6 -20 6 22 30 22 36 0 3 -10 4 -2 3 17 -1 28
-6 36 -24 38 -20 3 -22 -1 -21 -35z m39 17 c0 -5 -7 -10 -15 -10 -8 0 -15 5
-15 10 0 6 7 10 15 10 8 0 15 -4 15 -10z"/>
<path d="M124 276 c-10 -26 0 -51 21 -51 16 0 20 7 20 30 0 33 -30 49 -41 21z
m36 -21 c0 -16 -6 -25 -15 -25 -9 0 -15 9 -15 25 0 16 6 25 15 25 9 0 15 -9
15 -25z"/>
<path d="M800 270 c0 -5 5 -10 10 -10 6 0 10 5 10 10 0 6 -4 10 -10 10 -5 0
-10 -4 -10 -10z"/>
<path d="M193 253 c9 -2 23 -2 30 0 6 3 -1 5 -18 5 -16 0 -22 -2 -12 -5z"/>
<path d="M800 230 c0 -5 5 -10 10 -10 6 0 10 5 10 10 0 6 -4 10 -10 10 -5 0
-10 -4 -10 -10z"/>
<path d="M860 230 c0 -5 5 -10 10 -10 6 0 10 5 10 10 0 6 -4 10 -10 10 -5 0
-10 -4 -10 -10z"/>
<path d="M190 186 c0 -2 8 -10 18 -17 15 -13 16 -12 3 4 -13 16 -21 21 -21 13z"/>
<path d="M1150 186 c0 -2 8 -10 18 -17 15 -13 16 -12 3 4 -13 16 -21 21 -21
13z"/>
<path d="M126 171 c-3 -4 4 -7 14 -8 11 -1 22 2 24 6 3 4 -4 7 -14 8 -11 1
-22 -2 -24 -6z"/>
<path d="M966 171 c-3 -4 4 -7 14 -8 11 -1 22 2 24 6 3 4 -4 7 -14 8 -11 1
-22 -2 -24 -6z"/>
<path d="M1043 145 c0 -22 2 -30 4 -17 2 12 2 30 0 40 -3 9 -5 -1 -4 -23z"/>
<path d="M1 131 c0 -25 0 -26 9 -3 12 27 27 29 33 2 4 -17 4 -16 3 2 -1 16 -8
23 -23 24 -19 1 -23 -4 -22 -25z"/>
<path d="M61 131 c0 -25 0 -26 9 -3 12 27 27 29 33 2 4 -17 4 -16 3 2 -1 16
-8 23 -23 24 -19 1 -23 -4 -22 -25z"/>
<path d="M853 153 c9 -2 23 -2 30 0 6 3 -1 5 -18 5 -16 0 -22 -2 -12 -5z"/>
<path d="M793 143 c9 -2 23 -2 30 0 6 3 -1 5 -18 5 -16 0 -22 -2 -12 -5z"/>
<path d="M1093 143 c9 -2 23 -2 30 0 6 3 -1 5 -18 5 -16 0 -22 -2 -12 -5z"/>
<path d="M853 133 c9 -2 23 -2 30 0 6 3 -1 5 -18 5 -16 0 -22 -2 -12 -5z"/>
<path d="M920 120 c0 -5 5 -10 10 -10 6 0 10 5 10 10 0 6 -4 10 -10 10 -5 0
-10 -4 -10 -10z"/>
<path d="M139 63 c-12 -16 -12 -17 2 -6 12 10 18 10 29 0 12 -10 12 -9 1 6 -7
9 -15 17 -16 17 -1 0 -9 -8 -16 -17z"/>
<path d="M201 64 c0 -11 3 -14 6 -6 3 7 2 16 -1 19 -3 4 -6 -2 -5 -13z"/>
<path d="M370 76 c0 -2 8 -10 18 -17 15 -13 16 -12 3 4 -13 16 -21 21 -21 13z"/>
<path d="M790 76 c0 -2 8 -10 18 -17 15 -13 16 -12 3 4 -13 16 -21 21 -21 13z"/>
<path d="M970 76 c0 -2 8 -10 18 -17 15 -13 16 -12 3 4 -13 16 -21 21 -21 13z"/>
<path d="M77 63 c-2 -5 0 -21 4 -38 7 -29 7 -29 8 8 1 35 -3 46 -12 30z"/>
<path d="M13 43 c9 -2 23 -2 30 0 6 3 -1 5 -18 5 -17 0 -22 -2 -12 -5z"/>
<path d="M13 23 c9 -2 23 -2 30 0 6 3 -1 5 -18 5 -17 0 -22 -2 -12 -5z"/>
<path d="M260 10 c0 -5 5 -10 10 -10 6 0 10 5 10 10 0 6 -4 10 -10 10 -5 0
-10 -4 -10 -10z"/>
<path d="M320 10 c0 -5 5 -10 10 -10 6 0 10 5 10 10 0 6 -4 10 -10 10 -5 0
-10 -4 -10 -10z"/>
<path d="M860 10 c0 -5 5 -10 10 -10 6 0 10 5 10 10 0 6 -4 10 -10 10 -5 0
-10 -4 -10 -10z"/>
<path d="M920 10 c0 -5 5 -10 10 -10 6 0 10 5 10 10 0 6 -4 10 -10 10 -5 0
-10 -4 -10 -10z"/>
</g>
</svg>
