<?xml version="1.0" standalone="no"?>
<!DOCTYPE svg PUBLIC "-//W3C//DTD SVG 20010904//EN"
 "http://www.w3.org/TR/2001/REC-SVG-20010904/DTD/svg10.dtd">
<svg version="1.0" xmlns="http://www.w3.org/2000/svg"
 width="425.000000pt" height="922.000000pt" viewBox="0 0 425.000000 922.000000"
 preserveAspectRatio="xMidYMid meet">
<metadata>
Created by potrace 1.16, written by Peter Selinger 2001-2019
</metadata>
<g transform="translate(0.000000,922.000000) scale(0.100000,-0.100000)"
fill="#000000" stroke="none">
<path d="M2077 9160 c4 -25 7 -67 8 -95 1 -27 12 -111 23 -185 35 -231 40
-362 11 -345 -5 4 -9 12 -9 20 0 8 -5 26 -11 42 -6 15 -13 43 -15 61 -3 27 -1
32 10 23 10 -9 15 -8 20 4 3 10 -1 15 -13 15 -10 0 -23 6 -29 13 -12 15 -27
76 -23 99 1 11 -12 24 -38 37 -22 11 -42 29 -44 38 -4 16 -6 15 -12 -4 -6 -20
-9 -21 -22 -7 -12 11 -18 12 -29 3 -8 -6 -14 -18 -14 -25 0 -8 -7 -14 -15 -14
-8 0 -15 -4 -15 -10 0 -5 -21 -10 -47 -11 -27 0 -64 -7 -83 -15 -20 -8 -24
-12 -10 -9 78 17 93 18 88 4 -2 -8 -14 -18 -26 -24 -12 -5 -22 -18 -22 -27 0
-10 -5 -18 -11 -18 -5 0 -7 5 -3 11 4 7 1 10 -7 7 -8 -3 -13 -11 -11 -17 1 -6
-11 -11 -29 -11 -17 0 -28 4 -24 10 3 6 -5 10 -19 10 -13 0 -26 4 -28 8 -1 5
-34 24 -71 41 -60 29 -80 33 -160 35 -66 1 -91 5 -89 14 1 7 -5 12 -14 12 -13
0 -15 -6 -9 -27 6 -27 6 -27 -14 -9 -21 19 -21 19 -21 -5 0 -24 0 -24 -19 4
-12 19 -20 24 -23 15 -4 -11 -7 -11 -21 0 -15 12 -14 10 1 -29 14 -36 14 -43
2 -47 -8 -3 -35 -25 -61 -49 l-47 -44 -13 38 c-7 21 -13 50 -13 66 0 15 -4 27
-8 27 -4 0 -8 14 -8 31 0 16 -4 28 -8 25 -5 -3 -7 -28 -6 -56 2 -27 -1 -50 -6
-50 -5 0 -7 -7 -4 -15 4 -9 -1 -18 -11 -21 -17 -7 -16 -26 2 -103 4 -17 2 -22
-6 -17 -6 4 -9 12 -6 17 4 5 2 9 -3 9 -5 0 -12 -10 -15 -21 -6 -21 -6 -21 -31
6 -31 33 -33 73 -6 103 21 22 28 48 10 37 -9 -6 -12 1 -9 22 0 4 -8 10 -18 14
-13 4 -19 0 -23 -15 -4 -13 -16 -23 -34 -26 l-28 -5 21 -19 c21 -19 21 -19 21
0 0 15 2 16 9 4 7 -10 4 -18 -10 -28 -10 -7 -19 -19 -19 -25 0 -7 4 -6 10 3 5
8 10 11 10 5 -1 -5 -7 -18 -14 -27 -12 -17 -14 -17 -30 0 -9 10 -16 26 -16 35
0 9 -5 19 -10 22 -6 4 -8 11 -4 16 3 5 10 6 16 3 7 -4 8 -2 4 5 -4 6 -12 9
-17 5 -14 -8 -52 34 -46 51 5 11 -15 27 -33 26 -3 0 -13 14 -22 32 -9 18 -17
28 -18 24 0 -15 30 -65 42 -70 11 -4 11 -7 0 -18 -10 -11 -8 -16 10 -26 20
-11 21 -12 4 -13 -15 0 -16 -3 -6 -15 20 -24 3 -31 -22 -9 l-22 19 21 -28 c21
-28 21 -57 0 -57 -6 0 -8 -3 -5 -6 4 -3 -2 -25 -13 -49 -15 -34 -19 -65 -18
-164 0 -66 -2 -125 -5 -129 -3 -5 -1 -26 5 -47 6 -20 8 -49 4 -64 l-7 -26 -13
25 c-17 31 -19 43 -4 34 8 -4 9 1 3 17 -11 29 -10 95 1 128 5 15 5 22 -2 18
-16 -10 -32 -107 -31 -192 1 -50 3 -69 8 -50 l6 30 19 -35 c19 -35 25 -61 25
-112 0 -16 4 -28 9 -28 15 0 18 -70 4 -82 -20 -16 -16 -31 7 -25 21 5 26 -3
11 -18 -4 -6 -11 -25 -14 -42 -5 -25 -3 -33 8 -33 13 0 13 -3 3 -19 -7 -11
-16 -17 -21 -14 -5 3 -6 -4 -3 -15 4 -12 1 -26 -9 -35 -8 -9 -15 -20 -15 -26
0 -22 -26 -10 -55 25 -17 20 -40 40 -52 45 -13 5 -23 13 -23 19 0 14 17 13 23
-2 4 -10 6 -10 6 -1 1 6 -3 14 -9 18 -5 3 -7 11 -4 18 3 8 -13 23 -36 36 l-41
23 -23 -21 c-12 -12 -30 -21 -39 -21 -11 0 -14 -5 -10 -17 5 -12 2 -15 -10
-10 -11 4 -20 0 -27 -12 -8 -16 -4 -21 20 -31 17 -7 30 -17 30 -23 0 -7 -4 -7
-12 1 -15 15 -48 16 -48 2 0 -6 7 -13 15 -16 8 -4 12 -10 10 -15 -3 -4 3 -14
14 -21 15 -9 18 -19 14 -45 -7 -39 3 -44 17 -8 11 29 25 25 73 -20 21 -20 25
-30 17 -40 -7 -9 -6 -16 5 -25 21 -17 19 -52 -6 -78 -11 -12 -17 -27 -13 -34
4 -6 3 -8 -4 -4 -6 3 -13 2 -17 -4 -4 -6 -11 -7 -17 -4 -6 4 -5 10 3 15 10 6
8 9 -8 9 -29 0 -30 -26 -3 -35 11 -3 20 -11 20 -16 0 -20 48 -7 78 22 l31 31
7 -26 c3 -15 1 -39 -5 -54 -19 -46 -48 -205 -45 -247 3 -49 22 -86 69 -137
l37 -39 -24 -47 c-24 -45 -26 -47 -64 -44 -21 2 -45 11 -52 20 -11 15 -14 15
-22 2 -14 -21 -12 -31 8 -53 17 -19 16 -20 -8 -7 -14 7 -42 30 -62 52 -33 33
-35 38 -17 38 11 0 17 -4 14 -10 -3 -5 1 -10 9 -10 9 0 16 9 16 20 0 11 -4 20
-9 20 -5 0 -7 8 -4 18 6 23 -27 46 -77 55 l-35 6 28 -15 c15 -8 32 -12 37 -9
6 3 10 0 10 -9 0 -8 6 -17 13 -19 9 -4 9 -6 0 -6 -7 -1 -10 -8 -7 -16 7 -18
-12 -20 -19 -2 -4 9 -8 8 -16 -3 -6 -8 -11 -11 -11 -5 0 5 -4 5 -10 -1 -16
-16 -21 -55 -9 -73 8 -13 9 -11 4 7 -5 18 -2 22 17 21 36 -1 64 -14 49 -23 -7
-4 -9 -17 -6 -29 6 -21 5 -20 -13 3 -16 19 -23 22 -34 13 -9 -8 -19 -9 -28 -3
-8 6 -19 10 -25 10 -5 0 -3 -5 5 -10 14 -9 11 -12 -19 -14 -22 -2 -22 -34 0
-41 10 -4 23 -4 28 -1 5 4 11 1 13 -6 4 -10 8 -9 20 2 8 8 13 21 10 28 -2 6 0
12 5 12 13 -1 38 -24 41 -40 2 -8 8 -19 14 -25 8 -7 9 -6 4 2 -3 6 -2 15 4 18
6 4 10 3 9 -2 -3 -14 31 -83 41 -83 5 0 8 -18 8 -40 0 -22 -4 -37 -9 -34 -5 3
-9 0 -9 -5 0 -6 -7 -11 -15 -11 -9 0 -12 -6 -9 -15 4 -10 0 -15 -12 -15 -11 0
-15 -3 -8 -8 15 -10 25 -42 14 -42 -6 0 -10 -8 -11 -17 0 -11 -3 -13 -6 -5 -2
6 -12 12 -20 12 -12 0 -14 -7 -9 -32 3 -18 8 -43 10 -54 2 -12 9 -30 15 -41 5
-11 8 -23 5 -25 -2 -3 -5 -22 -6 -42 -1 -20 -4 -36 -7 -36 -4 0 -15 -13 -24
-30 -10 -16 -15 -30 -11 -30 4 0 0 -6 -10 -13 -16 -12 -16 -15 -4 -20 20 -7
31 -66 17 -83 -6 -8 -7 -14 -2 -14 16 0 12 -34 -7 -55 -26 -31 -33 -46 -19
-43 7 2 15 -6 17 -16 3 -14 0 -17 -13 -13 -11 5 -14 3 -9 -5 5 -8 2 -9 -9 -5
-16 6 -16 5 -1 -19 16 -23 15 -26 -2 -45 -10 -11 -14 -20 -9 -19 17 4 55 -12
55 -22 0 -5 -14 -7 -32 -3 -30 5 -31 5 -15 -8 10 -8 26 -13 37 -10 15 4 19 0
17 -18 0 -13 -6 -27 -12 -31 -6 -5 -5 -11 4 -17 8 -5 10 -14 6 -21 -6 -10 -1
-11 21 -6 16 4 32 13 36 19 4 6 11 8 15 3 4 -5 2 -11 -4 -13 -7 -3 -13 -11
-13 -19 0 -8 -7 -14 -15 -14 -8 0 -15 -8 -15 -17 0 -11 3 -14 8 -7 4 6 16 14
26 17 16 6 17 5 6 -8 -10 -12 -10 -15 2 -15 8 0 19 5 26 12 9 9 12 9 12 1 0
-7 -9 -15 -20 -18 -26 -8 -25 -19 2 -33 20 -10 20 -11 3 -8 -11 2 -28 6 -38
11 -10 4 -21 5 -24 1 -4 -3 0 -6 8 -6 8 0 20 -5 26 -11 12 -12 7 -39 -8 -39
-4 0 -6 7 -3 15 5 11 0 15 -17 14 -17 -1 -19 -3 -7 -6 14 -4 15 -8 6 -28 -6
-14 -15 -22 -19 -19 -5 3 -6 -2 -3 -10 3 -9 11 -16 18 -16 6 0 4 -5 -4 -10
-13 -8 -12 -10 3 -10 20 0 22 11 5 28 -9 9 -8 12 4 12 21 0 43 -27 26 -32 -7
-3 -8 -7 -2 -11 5 -3 16 3 23 15 7 11 8 17 3 14 -6 -3 -13 1 -16 10 -10 25 -7
26 16 4 12 -11 26 -20 30 -20 5 0 6 -5 3 -10 -4 -6 -1 -25 5 -44 8 -26 16 -33
35 -33 14 0 22 3 19 8 -3 5 6 9 20 9 30 0 30 0 13 -32 -7 -14 -18 -23 -25 -20
-6 2 -12 -1 -12 -7 0 -6 -5 -10 -12 -8 -6 1 -14 -7 -16 -18 -4 -17 -2 -18 12
-6 14 12 16 11 16 -7 0 -12 4 -24 10 -27 6 -4 5 -11 -3 -20 -15 -16 -30 -15
-39 5 -5 12 -7 11 -7 -4 -1 -11 -8 -28 -18 -38 -9 -10 -11 -18 -5 -18 6 0 13
6 16 13 3 6 4 0 1 -15 -6 -32 1 -35 34 -12 15 11 25 13 30 6 4 -7 13 -6 25 4
11 7 17 17 13 20 -4 4 -2 13 5 21 8 11 7 12 -6 7 -24 -9 -20 12 6 30 12 9 17
16 10 16 -7 0 -10 5 -7 10 3 6 2 10 -4 10 -5 0 -8 8 -7 18 2 9 -2 20 -8 24 -6
4 -1 6 11 5 12 0 24 -9 26 -19 3 -11 14 -18 28 -18 22 0 22 0 3 16 -18 15 -18
15 11 9 17 -3 43 -9 58 -12 29 -6 68 19 66 41 0 6 -3 6 -6 -2 -2 -6 -10 -9
-15 -6 -7 4 -8 2 -4 -4 4 -7 2 -12 -3 -12 -14 0 -14 1 7 52 11 24 25 75 32
113 7 39 27 117 46 175 18 58 36 132 39 165 4 33 14 85 22 115 9 30 18 62 19
70 2 8 8 16 13 18 6 2 11 17 11 32 0 16 5 32 11 35 6 4 8 13 5 20 -3 8 2 19 9
25 8 7 12 16 9 21 -3 5 2 9 11 9 9 0 13 -4 10 -10 -3 -5 -1 -10 4 -10 6 0 11
5 11 11 0 6 7 9 15 6 8 -4 17 -2 20 2 3 5 14 7 25 4 11 -3 20 0 20 6 0 6 14
11 31 11 17 0 28 4 24 10 -3 6 3 10 13 10 11 0 22 -7 26 -15 3 -8 1 -15 -4
-15 -5 0 -7 -6 -4 -14 3 -9 -3 -17 -16 -21 -12 -4 -19 -9 -16 -12 3 -3 26 2
52 11 55 19 54 18 54 9 0 -5 -20 -16 -43 -26 -56 -23 -117 -81 -150 -146 -29
-55 -32 -66 -17 -56 5 3 10 1 10 -5 0 -7 7 -9 16 -6 8 3 12 2 9 -4 -3 -6 -15
-10 -25 -10 -22 0 -64 -41 -52 -49 5 -3 12 -13 15 -21 4 -12 6 -11 6 3 1 17
21 25 21 8 0 -9 50 -8 66 2 5 3 27 -3 49 -13 35 -17 37 -19 15 -20 -14 0 -32
-5 -40 -10 -11 -7 -5 -10 23 -10 32 0 36 -2 25 -13 -7 -8 -20 -16 -28 -19 -11
-4 -9 -8 9 -15 21 -9 22 -11 7 -25 -9 -9 -16 -18 -16 -20 0 -2 43 -3 95 -4 52
-1 100 -6 108 -12 7 -6 23 -9 35 -5 13 3 49 0 81 -7 50 -11 62 -10 83 4 13 8
44 17 68 19 25 1 53 7 62 13 22 12 74 94 128 202 23 46 48 82 56 82 8 0 17 7
20 15 4 8 13 15 21 15 8 0 11 -5 8 -10 -7 -12 16 -80 27 -80 4 0 8 -7 8 -16 0
-8 5 -12 10 -9 6 3 10 2 10 -4 0 -5 14 -12 30 -16 33 -7 41 -25 11 -25 -11 0
-22 -4 -25 -8 -3 -5 11 -8 30 -7 18 1 34 -2 34 -6 0 -4 -21 -9 -47 -11 l-48
-3 35 -20 c19 -10 41 -18 48 -17 7 2 11 -1 10 -5 -8 -31 42 -99 66 -90 10 4
16 1 16 -9 0 -8 6 -17 14 -20 8 -3 13 -11 10 -19 -3 -7 2 -20 11 -29 10 -9 15
-25 12 -36 -3 -11 0 -18 7 -17 6 1 10 -6 10 -15 -1 -10 5 -18 13 -18 7 0 25
-10 38 -22 41 -38 50 -45 77 -51 54 -14 91 -147 57 -209 -13 -22 -13 -22 -17
-3 -2 11 -9 27 -16 35 -7 8 -18 33 -25 55 -14 42 -35 66 -89 103 -32 21 -36
22 -52 7 -10 -9 -26 -15 -37 -13 -12 2 -17 -2 -15 -14 2 -13 -4 -18 -23 -18
-15 0 -24 -4 -20 -10 3 -5 1 -10 -5 -10 -6 0 -15 -12 -21 -27 -8 -22 -12 -24
-19 -13 -5 8 -5 17 -1 20 33 21 37 96 7 125 -14 14 -15 20 -5 26 29 18 -4 22
-34 4 -23 -14 -29 -15 -20 -3 11 13 6 14 -52 3 -47 -9 -70 -19 -84 -36 -14
-17 -16 -26 -8 -31 9 -6 9 -8 0 -8 -6 0 -11 -9 -10 -20 1 -11 5 -20 10 -20 4
0 6 -4 3 -9 -4 -5 -3 -11 2 -13 8 -3 42 -107 42 -129 0 -8 -10 6 -21 31 -27
61 -64 107 -100 125 -16 9 -29 12 -29 8 0 -5 -5 0 -11 10 -14 24 -34 21 -57
-8 -11 -14 -24 -25 -30 -25 -17 0 -39 -44 -47 -95 -4 -27 -10 -54 -13 -60 -18
-28 -11 -54 20 -79 23 -17 35 -22 40 -13 5 8 9 6 14 -7 5 -13 13 -16 33 -11
14 4 28 11 32 16 3 5 13 7 22 3 15 -5 15 -9 2 -40 -19 -45 -19 -45 -3 -55 10
-7 10 -9 -3 -9 -8 0 -20 5 -26 11 -15 15 -44 -40 -36 -70 3 -12 2 -21 -3 -19
-5 2 -11 -2 -12 -7 -2 -6 -8 -16 -14 -22 -8 -10 -6 -13 6 -13 19 0 22 -20 4
-20 -7 0 -22 -7 -32 -15 -16 -12 -17 -17 -6 -30 14 -17 60 -21 60 -4 0 6 8 8
19 4 11 -3 22 -1 26 5 4 7 18 9 31 6 18 -5 24 -2 24 9 0 9 5 13 10 10 16 -10
-3 -28 -45 -45 -19 -7 -35 -17 -35 -22 0 -4 -6 -8 -14 -8 -7 0 -24 -10 -38
-22 -13 -13 -50 -40 -81 -62 -31 -21 -57 -42 -57 -47 0 -5 -6 -9 -12 -9 -23
-1 -68 -48 -68 -71 0 -18 4 -20 23 -14 12 4 41 12 65 18 23 7 42 16 42 22 0 5
15 20 34 32 30 19 45 21 124 18 102 -4 112 -7 113 -38 l0 -22 11 23 c11 23 32
29 43 12 3 -5 12 -7 20 -4 9 4 18 -1 21 -11 4 -10 9 -12 13 -6 8 12 72 18 89
7 7 -4 12 -17 13 -29 0 -19 2 -19 11 6 8 23 15 27 42 24 44 -4 56 -14 56 -44
0 -18 -4 -24 -15 -20 -8 4 -17 2 -21 -4 -3 -6 -12 -8 -19 -5 -7 2 -18 -1 -24
-7 -8 -8 -11 -7 -12 3 0 10 -4 7 -9 -5 -8 -19 -9 -19 -9 -1 -1 19 -2 19 -14 2
-9 -12 -29 -19 -65 -21 -28 -2 -56 -6 -61 -10 -6 -3 -11 -1 -11 4 0 6 -3 10
-7 10 -5 -1 -10 0 -13 1 -18 8 -80 7 -75 -1 4 -5 19 -9 36 -9 33 0 40 -23 12
-39 -17 -10 -17 -10 0 -11 9 0 17 5 17 10 0 6 5 10 10 10 6 0 10 -6 10 -14 0
-10 -13 -16 -37 -18 -21 -2 -37 -8 -36 -14 1 -6 -6 -10 -15 -10 -64 0 -74 -4
-69 -24 3 -11 1 -23 -4 -26 -19 -11 -8 -33 21 -39 24 -5 30 -11 28 -28 -2 -12
-7 -25 -13 -29 -5 -4 4 -8 20 -9 25 0 27 -2 10 -8 -17 -7 -15 -9 15 -16 19 -4
29 -10 21 -13 -19 -7 59 -72 87 -72 13 0 20 -4 17 -10 -3 -5 -15 -10 -26 -10
-10 0 -19 -4 -19 -9 0 -12 84 -20 89 -8 2 4 10 -1 18 -13 8 -12 21 -19 28 -17
6 3 20 -4 29 -14 10 -13 24 -18 35 -14 20 6 37 -20 20 -31 -6 -3 -8 -12 -5
-20 3 -8 1 -14 -4 -14 -6 0 -10 5 -10 11 0 5 -5 7 -11 3 -8 -4 -5 -10 7 -17
28 -15 28 -15 12 -34 -9 -10 -18 -27 -21 -38 -4 -16 -5 -15 -6 6 -1 23 -5 26
-35 25 -21 -1 -32 -5 -29 -12 7 -18 -15 -27 -70 -28 -36 -1 -51 -5 -54 -16 -4
-13 -3 -13 7 0 10 13 11 12 6 -3 -3 -10 -6 -21 -6 -23 0 -2 -4 -4 -10 -4 -5 0
-10 10 -10 23 l-1 22 -13 -24 c-12 -21 -14 -21 -20 -6 -6 17 -7 17 -20 -1 -8
-10 -18 -16 -22 -12 -4 4 -13 3 -21 -3 -10 -9 -17 -8 -29 2 -13 10 -17 10 -25
-2 -6 -10 -9 -10 -9 -1 0 6 -5 12 -10 12 -6 0 -8 -11 -4 -25 4 -15 2 -25 -5
-25 -6 0 -8 7 -5 15 4 8 1 15 -5 15 -6 0 -11 -5 -11 -11 0 -6 -7 -9 -15 -5
-12 4 -15 -3 -16 -32 l-2 -37 -6 35 -7 35 -17 -39 c-10 -22 -15 -49 -12 -60 3
-12 2 -16 -1 -9 -3 7 -12 9 -20 6 -11 -4 -12 -9 -3 -19 6 -7 8 -22 4 -33 -4
-14 0 -23 15 -31 11 -6 20 -18 19 -28 0 -10 -3 -12 -6 -4 -8 21 -26 13 -20 -9
5 -19 4 -19 -11 -6 -9 7 -25 17 -36 21 -15 5 -17 2 -13 -14 3 -11 0 -20 -6
-20 -6 0 -2 -6 9 -14 24 -18 13 -29 -26 -29 -22 0 -27 -3 -20 -13 8 -8 4 -13
-15 -18 -14 -4 -25 -11 -25 -16 0 -6 -5 -10 -11 -10 -5 0 -8 4 -5 9 3 5 -2 12
-11 15 -10 4 -15 4 -11 1 3 -3 -5 -18 -18 -32 -13 -14 -24 -34 -24 -44 0 -11
-7 -19 -16 -19 -8 0 -13 -4 -9 -9 7 -12 -24 -43 -36 -36 -5 4 -9 2 -9 -4 0
-11 -19 -9 -38 3 -9 5 -13 3 -11 -5 1 -8 1 -21 0 -29 -1 -13 -2 -13 -11 0 -8
13 -10 12 -10 -2 0 -10 7 -18 16 -18 8 0 12 -5 9 -10 -4 -7 -13 -7 -26 0 -14
8 -19 7 -19 -1 0 -8 -5 -7 -17 2 -9 8 -14 9 -10 2 4 -6 0 -19 -9 -28 -15 -15
-17 -14 -30 2 -13 17 -13 17 -14 -3 0 -12 -7 -21 -15 -21 -8 0 -15 6 -15 13 0
8 -6 11 -13 8 -16 -6 -69 68 -84 117 -8 29 -7 45 7 83 15 37 15 46 4 46 -7 0
-16 -12 -20 -28 -4 -15 -13 -32 -21 -39 -12 -10 -13 -18 -3 -50 7 -21 16 -46
21 -55 5 -10 9 -25 9 -34 0 -47 112 -243 186 -326 18 -21 45 -56 60 -79 43
-68 203 -220 299 -283 89 -59 265 -148 319 -162 15 -3 50 -17 77 -30 27 -13
53 -24 58 -24 5 0 42 -11 82 -24 41 -13 106 -30 144 -36 39 -7 77 -15 85 -18
35 -13 204 -1 262 18 115 38 256 136 298 207 41 69 61 176 66 338 4 175 -5
229 -48 276 l-31 34 7 -55 c3 -30 9 -71 13 -90 5 -31 5 -33 -10 -18 -9 8 -19
27 -22 40 -4 14 -17 36 -31 51 -13 14 -24 35 -24 47 0 11 -4 20 -10 20 -5 0
-10 6 -10 14 0 8 -6 17 -12 19 -10 4 -10 8 1 15 11 8 10 12 -5 20 -18 10 -13
27 9 27 5 0 12 7 15 15 3 8 1 12 -3 8 -10 -9 -45 34 -38 46 3 5 11 -1 18 -14
10 -19 13 -20 18 -6 4 9 2 16 -4 16 -6 0 -8 9 -4 19 4 13 0 24 -12 31 -16 10
-16 11 -1 6 24 -7 33 12 18 39 -11 20 -10 26 4 40 9 9 16 21 16 28 0 6 -6 3
-13 -8 -10 -13 -16 -15 -21 -6 -5 7 0 19 10 27 11 9 13 13 7 9 -8 -4 -13 0
-13 9 0 8 6 13 13 11 6 -3 18 4 25 15 14 22 10 25 -19 10 -23 -13 -27 5 -3 18
8 5 18 23 20 41 4 26 3 31 -8 25 -7 -4 -4 3 7 16 l20 23 -22 -12 c-32 -17 -38
-14 -18 9 10 12 25 18 32 16 7 -3 13 1 13 9 0 19 -15 19 -34 0 -21 -21 -24
-19 -18 11 4 24 2 26 -19 19 -13 -4 -31 -13 -39 -20 -8 -7 -32 -18 -52 -26
-21 -7 -34 -17 -31 -23 3 -6 3 -8 -1 -4 -4 3 -20 3 -36 -2 -31 -9 -52 4 -43
26 4 10 0 12 -13 7 -17 -6 -17 -5 -5 10 13 16 14 16 26 0 10 -14 10 -20 2 -25
-7 -4 -7 -8 -2 -8 6 0 17 5 25 10 12 8 12 10 1 10 -11 0 -10 5 4 20 17 18 17
20 2 14 -20 -7 -23 6 -5 24 9 9 9 15 1 23 -8 8 -5 17 13 34 l24 22 -25 13
c-17 9 -23 21 -23 41 l1 28 35 -14 c43 -18 41 -19 37 3 -2 9 -4 19 -4 22 -1 3
-5 -1 -9 -8 -7 -10 -15 -10 -37 -2 -16 6 -34 9 -42 6 -7 -3 -13 1 -13 10 0 10
6 14 14 11 8 -3 13 1 13 11 0 24 14 62 22 62 4 0 13 -6 20 -12 9 -9 12 -9 7
-1 -3 6 -3 13 1 16 5 2 3 2 -4 1 -15 -4 -35 20 -26 30 4 4 1 11 -7 17 -13 8
-13 10 0 18 10 7 17 6 23 -2 5 -7 6 -1 2 13 -4 14 -14 31 -23 37 -9 7 -11 13
-6 13 19 0 8 43 -14 58 -20 13 -22 13 -16 -1 3 -9 13 -18 22 -21 10 -2 1 -4
-19 -3 -32 1 -37 5 -53 44 -10 24 -25 43 -33 43 -8 0 -11 4 -8 10 3 6 -1 7 -9
4 -10 -4 -16 -1 -16 7 0 8 -16 27 -35 43 -28 24 -32 32 -24 47 6 12 6 19 0 19
-5 0 -7 8 -4 19 2 10 -3 25 -12 35 -15 14 -15 16 -1 16 9 0 16 -5 16 -10 0 -7
8 -6 23 2 22 12 38 12 67 1 12 -4 12 -6 -3 -12 -15 -5 -11 -9 17 -22 20 -9 33
-12 30 -8 -3 5 0 9 6 9 6 0 10 -10 8 -22 -2 -17 1 -22 15 -20 20 3 22 -9 5
-26 -9 -9 -9 -15 0 -24 7 -7 13 -21 13 -33 1 -16 2 -16 6 -3 2 9 -1 26 -7 37
-6 12 -7 21 -3 21 16 -1 41 -68 29 -80 -7 -7 -7 -10 2 -10 6 0 16 8 21 18 9
15 10 14 11 -7 0 -13 3 -21 7 -18 3 4 13 1 22 -5 11 -9 11 -7 -2 8 -17 21 -17
22 4 27 13 4 18 10 13 18 -4 8 -3 10 4 5 7 -4 12 -2 12 3 0 17 19 13 37 -9 21
-24 38 -26 29 -4 -10 25 4 37 21 17 8 -10 12 -12 8 -6 -3 7 -1 23 6 35 12 22
12 22 21 3 6 -16 7 -14 3 7 -4 20 1 33 20 52 24 24 35 53 15 41 -5 -3 -10 -13
-10 -21 0 -8 -4 -14 -10 -14 -9 0 -12 8 -9 26 0 4 -5 11 -13 16 -9 7 -7 8 9 5
13 -3 26 -1 29 4 3 5 10 7 15 3 12 -7 41 15 34 27 -3 4 -12 6 -20 2 -8 -3 -15
0 -15 7 0 6 5 8 12 4 8 -5 9 -2 5 9 -3 10 -2 17 3 17 6 0 10 -4 10 -9 0 -5 7
-11 15 -15 13 -4 13 -2 5 14 -12 23 -13 40 0 20 8 -12 11 -12 27 2 10 8 24 13
31 11 6 -3 12 -1 12 5 0 13 -49 33 -62 26 -7 -4 -8 -2 -4 4 4 7 15 12 24 12
10 0 24 9 31 19 9 12 20 17 30 13 14 -5 14 -2 -2 21 -9 15 -13 27 -7 27 5 0
10 -4 10 -9 0 -5 7 -12 16 -15 12 -5 15 -2 9 11 -16 41 -23 73 -14 68 5 -4 9
-1 9 4 0 6 12 11 26 11 l26 0 -23 20 c-15 12 -18 19 -9 18 8 -2 18 -7 22 -13
4 -5 8 5 8 23 0 17 4 32 9 32 5 0 7 10 3 22 -4 16 -2 19 9 14 8 -4 6 -1 -3 7
-22 18 -23 37 -2 37 8 0 13 -4 10 -8 -2 -4 4 -8 15 -8 18 0 18 2 5 12 -9 6
-16 18 -16 27 0 18 -27 30 -35 17 -4 -6 -1 -10 5 -10 6 0 8 -5 4 -11 -4 -8 -9
-7 -14 2 -9 14 10 50 22 43 4 -3 8 0 8 5 0 6 5 11 10 11 6 0 10 -9 10 -21 0
-11 4 -18 9 -14 6 3 8 14 6 25 -2 11 1 20 7 20 6 0 3 9 -7 20 -16 18 -16 20
-1 26 23 9 20 27 -4 21 -18 -4 -20 -2 -14 16 4 12 11 25 17 28 5 4 6 12 3 18
-4 6 -2 11 3 11 6 0 11 7 11 15 0 8 -4 15 -10 15 -5 0 -10 5 -10 11 0 5 4 8 9
4 5 -3 12 -1 16 5 3 5 20 8 38 6 29 -4 30 -3 12 10 -18 13 -9 20 19 15 5 -1 6
13 3 31 -6 28 -5 30 5 13 6 -11 16 -23 22 -27 6 -4 7 -8 2 -8 -6 0 -1 -7 10
-15 18 -13 18 -14 -6 -8 -24 6 -24 5 -9 -13 19 -22 14 -44 -9 -44 -11 0 -13
-3 -6 -8 15 -10 39 -57 25 -48 -14 9 -14 0 0 -26 6 -11 7 -18 2 -15 -4 3 -13
-1 -20 -8 -10 -11 -8 -18 7 -38 11 -13 16 -27 12 -31 -3 -4 2 -4 13 0 11 5 14
9 7 12 -7 2 -12 11 -12 20 1 15 2 15 15 -2 8 -10 11 -24 7 -30 -12 -19 -12
-47 -2 -67 6 -11 8 -24 4 -30 -4 -6 -8 -30 -9 -53 -8 -151 -63 -410 -127 -601
-36 -107 -107 -265 -120 -265 -5 0 -7 -4 -3 -10 4 -6 15 -6 30 0 14 5 25 6 25
1 0 -9 -61 -41 -77 -41 -28 0 -69 -85 -53 -110 6 -10 9 -9 12 1 4 12 7 12 21
0 14 -11 18 -11 23 4 4 9 16 21 28 26 47 20 136 97 136 117 0 6 14 13 30 17
17 4 30 12 30 19 0 6 8 13 18 14 75 9 108 15 116 23 6 6 2 9 -10 9 -18 1 -18
1 -1 11 11 6 30 9 44 6 28 -5 93 12 93 24 0 5 6 6 13 3 8 -3 23 15 40 48 30
58 32 68 17 68 -5 0 -10 -11 -10 -24 0 -32 -46 -43 -54 -13 -5 20 12 57 27 57
4 0 5 4 2 10 -3 5 -1 18 4 29 6 11 14 37 17 58 3 21 10 43 16 50 6 7 5 14 -4
20 -7 4 -19 20 -25 36 -8 17 -20 27 -33 27 -32 0 -43 42 -22 80 14 25 15 33 4
50 -11 17 -10 21 0 18 8 -2 15 2 18 7 2 6 10 16 17 23 7 7 13 19 14 25 2 33 9
49 31 68 12 11 17 18 11 14 -26 -13 -12 24 18 49 33 28 59 36 39 11 -7 -8 -9
-15 -4 -16 5 0 -2 -5 -16 -11 -21 -9 -22 -12 -7 -15 10 -3 27 3 37 12 11 10
26 15 33 12 10 -4 23 13 41 51 15 31 34 68 41 82 8 14 15 33 15 42 0 19 45 68
62 68 6 0 3 -11 -6 -25 l-17 -26 43 27 c24 15 48 34 54 42 19 25 48 -46 34
-82 -5 -15 -7 -32 -4 -38 4 -6 2 -8 -3 -5 -13 8 -23 -26 -13 -43 4 -7 13 -9
19 -6 6 4 9 12 6 17 -4 5 -1 9 4 9 6 0 11 11 11 25 0 31 20 33 21 3 2 -40 -3
-63 -15 -70 -7 -5 -6 -8 4 -8 17 0 50 53 50 81 0 10 4 19 8 19 14 0 19 77 10
135 -4 20 0 34 10 41 14 10 14 15 -1 45 -10 22 -17 27 -17 16 0 -10 -5 -15
-10 -12 -7 4 -7 12 0 25 13 24 13 33 0 25 -7 -4 -9 2 -4 19 5 21 3 26 -12 26
-16 0 -17 2 -4 11 12 8 12 12 2 16 -10 4 -10 8 0 20 7 9 22 41 34 72 12 31 27
56 35 56 8 0 16 11 18 25 4 33 19 42 59 35 22 -4 32 -2 32 7 0 9 3 9 12 0 20
-20 58 -15 58 7 0 16 -6 18 -38 14 -39 -5 -61 9 -66 42 -1 9 -7 20 -12 23 -25
18 -38 122 -13 107 5 -4 12 8 15 25 4 17 10 33 15 35 16 10 57 -18 77 -53 18
-31 22 -34 22 -14 0 12 -4 22 -10 22 -5 0 -10 5 -10 11 0 5 5 7 10 4 6 -3 10
-1 10 4 0 6 -9 11 -20 11 -17 0 -40 32 -40 56 0 11 21 2 40 -18 l20 -22 0 31
c0 24 -7 36 -32 52 -18 11 -28 21 -23 21 6 0 21 -7 33 -16 21 -14 22 -14 22 6
0 12 -18 39 -40 60 -22 21 -40 40 -40 42 0 11 40 5 51 -8 20 -24 30 -15 27 26
-1 23 -8 42 -16 45 -12 4 -12 9 3 25 16 17 16 20 2 20 -8 0 -17 -5 -19 -11 -7
-20 -50 13 -44 34 2 9 1 17 -4 17 -4 0 -11 10 -15 23 -4 12 -8 24 -9 27 -1 3
-7 15 -14 28 -9 15 -9 22 -2 22 7 0 1 13 -12 29 -13 15 -26 27 -30 25 -3 -2
-4 5 -1 16 5 20 23 28 23 10 0 -5 5 -10 10 -10 6 0 -2 16 -17 35 l-28 35 -8
-25 c-9 -25 -27 -35 -27 -14 0 18 20 49 32 49 6 0 19 -9 29 -21 20 -24 43 -16
36 12 -3 12 -1 17 5 12 16 -9 1 59 -15 69 -8 6 -9 10 -1 16 19 13 26 46 25
125 -1 57 2 76 10 71 7 -4 10 -3 8 2 -32 63 -32 63 -19 93 18 44 34 55 54 36
9 -9 16 -13 16 -9 0 3 8 0 17 -7 17 -13 17 -13 0 13 -9 15 -17 39 -17 52 0 17
-9 30 -27 40 -16 9 -46 36 -67 61 -35 40 -40 52 -43 104 -2 53 -1 59 22 69 41
19 56 6 50 -45 -3 -32 -1 -43 8 -40 18 6 16 88 -3 97 -43 20 -54 28 -58 41 -3
9 3 7 18 -6 12 -11 24 -18 26 -16 3 1 19 -3 35 -9 22 -9 29 -18 26 -31 -3 -12
0 -16 9 -12 9 3 14 -1 14 -12 0 -9 4 -14 10 -10 5 3 6 13 3 23 -8 20 -81 92
-93 92 -5 0 -12 5 -16 12 -4 6 -3 8 4 4 7 -4 9 5 6 31 -4 29 -3 34 5 23 7 -10
11 -11 11 -2 0 6 3 11 8 11 4 -1 21 -1 37 1 26 1 27 3 10 10 -11 5 -35 6 -53
3 -31 -5 -33 -4 -30 18 2 20 13 26 58 38 l56 14 2 49 2 50 -42 -7 c-24 -4 -59
-14 -79 -22 -62 -24 -160 14 -130 51 13 15 58 18 67 5 3 -5 10 -9 16 -9 9 0
-1 9 -51 47 -2 2 -1 6 3 10 4 4 11 2 15 -5 6 -10 11 -10 21 3 11 13 9 15 -11
16 -13 1 -27 1 -31 0 -5 0 -8 3 -8 8 0 5 3 11 8 13 7 3 44 91 57 137 5 16 4
21 -4 17 -6 -4 -11 -2 -11 3 0 6 4 11 9 11 5 0 15 20 22 45 7 25 17 45 21 45
4 0 11 0 14 -1 10 -1 33 35 27 44 -2 4 1 14 7 22 17 21 3 19 -26 -4 -13 -10
-21 -21 -17 -24 3 -4 -2 -10 -13 -14 -33 -13 -64 -46 -64 -70 0 -14 -5 -34
-12 -46 -10 -20 -10 -21 5 -8 14 11 17 11 17 0 -2 -37 -26 -115 -36 -112 -6 2
-16 -8 -22 -22 -9 -19 -9 -24 -1 -19 7 4 10 2 7 -6 -2 -7 -16 -14 -31 -16 -22
-2 -27 1 -27 19 0 13 7 32 15 44 11 16 12 22 2 26 -8 3 -2 22 21 66 30 54 35
90 12 76 -5 -3 -4 9 2 27 10 35 11 39 31 138 11 55 17 65 37 71 22 6 23 7 4 8
-21 1 -21 5 -18 126 1 71 -1 127 -7 130 -5 4 -9 14 -9 25 0 30 -46 119 -71
137 -13 10 -40 18 -59 17 -91 -2 -100 -4 -100 -20 0 -11 6 -15 20 -11 11 3 34
0 50 -6 26 -10 29 -15 26 -47 -2 -19 -1 -27 1 -17 6 23 39 41 49 25 4 -7 3 -8
-5 -4 -9 6 -10 0 -5 -20 4 -16 7 -34 7 -41 0 -7 7 -13 16 -14 14 0 14 -1 1 -7
-19 -9 -24 -33 -5 -26 35 14 18 -193 -41 -476 -12 -59 -41 -161 -50 -178 -3
-6 -54 22 -54 30 0 5 4 17 10 27 15 29 52 127 45 119 -4 -3 -14 -21 -23 -40
-10 -18 -21 -32 -27 -30 -12 3 -9 91 6 177 10 53 9 61 -8 73 -17 13 -17 14 1
27 15 11 16 17 7 28 -12 15 -13 36 -7 107 2 25 2 39 -1 33 -9 -24 -18 -13 -20
25 -1 20 -5 51 -8 67 -4 24 -3 26 4 10 8 -17 10 -15 10 15 1 46 -25 169 -40
186 -6 7 -8 17 -5 22 10 17 -79 50 -154 57 -48 4 -79 12 -87 21 -10 13 -12 13
-16 -3 -5 -17 -5 -17 -6 0 -1 17 -2 17 -18 1 -11 -11 -18 -13 -21 -5 -5 14
-39 15 -47 1 -3 -5 2 -11 12 -11 10 -1 5 -5 -12 -9 l-30 -8 32 -1 c17 0 35 -6
38 -11 4 -6 10 -8 15 -5 4 3 3 -6 -3 -20 -7 -14 -19 -27 -27 -29 -8 -3 -25 -7
-36 -10 -16 -5 -23 -1 -27 14 -3 11 -1 18 4 14 21 -12 7 18 -17 39 -15 12 -33
36 -40 52 -10 23 -13 26 -14 10 0 -11 6 -30 14 -41 8 -11 20 -49 26 -85 7 -35
15 -66 20 -69 4 -3 26 -44 49 -92 24 -48 47 -90 52 -94 5 -3 7 -9 4 -14 -3 -4
11 -41 30 -82 20 -41 38 -99 42 -129 l6 -54 -41 35 c-22 19 -41 43 -41 53 -1
9 -5 25 -10 35 -59 108 -125 294 -117 326 3 14 2 26 -2 28 -8 3 -79 209 -88
253 -6 31 -47 104 -63 110 -10 4 -12 -3 -9 -29 2 -19 0 -32 -4 -30 -4 3 -8 1
-8 -4 0 -17 23 -77 32 -83 5 -3 13 -21 18 -40 19 -73 29 -106 48 -156 11 -29
17 -55 12 -58 -4 -3 -11 5 -15 18 -7 21 -8 21 -12 -6 -3 -20 -8 -25 -16 -19
-13 11 -80 30 -195 57 -60 14 -79 14 -103 5 -16 -7 -36 -9 -46 -4 -34 14 -62
14 -56 -2 9 -24 -25 -16 -43 11 -14 21 -19 23 -38 14 -20 -11 -20 -10 -5 6 14
14 21 15 38 6 26 -14 27 -7 3 17 -27 27 -52 35 -45 14 3 -9 -7 -3 -23 14 -16
16 -44 39 -62 49 -17 11 -32 24 -32 30 0 6 -13 25 -29 42 -16 18 -26 34 -23
37 3 3 -2 6 -10 6 -10 0 -18 13 -22 35 -4 19 -12 35 -18 35 -6 0 -8 11 -6 25
3 13 0 26 -6 28 -8 3 -8 10 1 28 17 35 34 92 29 97 -3 2 -14 -14 -26 -37 -26
-51 -34 -52 -26 -3 l7 37 -27 -40 c-15 -22 -29 -42 -31 -44 -7 -9 -54 44 -65
75 -6 18 -15 31 -20 28 -5 -3 -6 -11 -2 -17 3 -7 -2 -3 -11 8 -9 11 -19 20
-23 20 -4 1 -17 6 -29 13 -28 16 -29 5 -2 -28 11 -14 18 -18 14 -10 -4 8 6 -1
24 -20 17 -19 29 -43 27 -52 -2 -10 3 -23 13 -30 15 -12 15 -11 1 7 -14 19
-14 19 2 6 10 -7 16 -17 13 -21 -2 -4 2 -16 10 -26 18 -23 18 -38 4 -105 -12
-53 -47 -101 -84 -113 -11 -3 -47 -28 -80 -55 -33 -27 -61 -48 -62 -47 -3 3
-11 97 -17 206 -4 54 -31 210 -43 240 -3 8 -7 33 -8 55 -2 22 -10 60 -19 85
l-15 45 6 -45z m1443 -680 c15 -115 53 -293 77 -357 6 -16 5 -16 -10 -4 -9 7
-17 21 -17 31 0 23 -19 67 -90 216 -75 154 -78 166 -48 186 28 18 60 27 70 19
4 -3 12 -44 18 -91z m42 73 c22 -26 54 -91 69 -141 7 -24 16 -38 19 -31 5 6 9
3 13 -10 3 -12 1 -19 -4 -15 -12 7 -11 -2 7 -71 25 -99 29 -387 5 -358 -27 31
-141 546 -141 635 0 14 16 9 32 -9z m-500 -109 c15 -8 35 -14 45 -14 22 0 133
-68 133 -81 0 -17 -27 -9 -54 16 -15 14 -32 25 -39 24 -9 0 -9 -2 1 -6 30 -12
5 -18 -84 -21 -76 -3 -100 0 -120 13 -14 9 -23 23 -20 30 2 7 -3 16 -12 20
-15 6 -14 9 6 25 19 16 33 18 70 13 26 -3 59 -12 74 -19z m-2172 -121 c0 -21
-7 -51 -16 -68 -10 -19 -13 -42 -9 -66 7 -40 -17 -152 -37 -177 -10 -12 -13
-11 -19 5 -4 10 -8 34 -8 53 -1 19 -7 58 -14 85 -13 50 -5 135 12 135 4 0 13
11 19 25 10 22 40 42 65 44 4 1 7 -16 7 -36z m36 -188 c11 -17 14 -36 10 -62
-3 -21 -6 -46 -7 -57 0 -11 -12 -23 -30 -29 -24 -9 -29 -16 -25 -34 4 -12 1
-23 -6 -25 -7 -3 -13 -21 -15 -41 -1 -22 2 -35 7 -32 6 3 9 -5 8 -19 -1 -13
-6 -22 -10 -20 -9 6 -10 3 -13 -51 -1 -21 -7 -41 -14 -43 -6 -2 -11 -12 -11
-22 0 -10 -4 -22 -10 -25 -13 -8 -13 21 0 65 6 19 11 66 11 103 1 39 9 92 18
120 10 29 26 85 36 125 9 39 21 72 26 72 5 0 16 -11 25 -25z m2532 -3587 c8
-23 9 -35 1 -45 -8 -9 -8 -13 0 -13 7 0 7 -8 -2 -27 -13 -31 -27 -44 -39 -37
-4 3 -8 -2 -8 -10 0 -20 -16 -21 -24 -1 -3 8 -12 12 -19 9 -8 -3 -22 2 -31 11
-17 18 -22 50 -6 40 6 -3 10 -2 10 4 0 6 8 7 18 4 15 -6 15 -4 -2 13 -17 16
-17 19 -4 22 9 2 19 15 23 29 5 22 10 25 36 19 19 -3 28 -2 24 4 -3 6 -2 10 2
10 5 0 14 -14 21 -32z"/>
<path d="M3080 3002 c-2 -53 -3 -134 -2 -179 0 -46 -4 -85 -9 -89 -5 -3 -5
-13 1 -24 7 -13 5 -27 -6 -49 -9 -19 -13 -42 -10 -56 5 -18 2 -25 -9 -25 -18
0 -20 -17 -3 -22 8 -3 5 -11 -8 -24 -14 -14 -19 -32 -18 -67 1 -37 -3 -50 -17
-58 -23 -12 -25 -29 -4 -29 8 0 15 -4 15 -10 0 -5 -7 -6 -17 -3 -9 4 -14 2
-10 -3 3 -5 -1 -41 -8 -80 -7 -39 -16 -98 -20 -130 -3 -32 -10 -96 -16 -142
-6 -46 -9 -92 -6 -102 3 -11 1 -20 -3 -22 -5 -2 -11 -32 -14 -68 -4 -36 -10
-87 -15 -115 -6 -32 -5 -54 1 -62 6 -7 7 -29 4 -49 -4 -19 -3 -41 2 -47 13
-16 3 -77 -12 -77 -6 0 -11 14 -11 30 0 17 4 30 8 30 5 0 5 5 2 10 -10 16 -24
2 -23 -23 0 -51 8 -68 27 -62 11 3 23 0 27 -7 4 -7 4 -10 -1 -6 -4 4 -14 3
-21 -2 -6 -6 -18 -9 -25 -8 -21 5 -23 -42 -2 -57 10 -7 15 -17 10 -21 -4 -4
-7 -2 -7 5 0 7 -4 9 -10 6 -12 -8 -13 -45 -1 -45 5 0 11 -9 14 -20 3 -11 1
-18 -3 -15 -5 3 -14 -3 -20 -14 -9 -18 -7 -19 27 -14 25 4 34 3 29 -5 -4 -6
-14 -8 -23 -5 -13 5 -15 1 -9 -23 4 -19 3 -24 -3 -15 -7 11 -11 10 -22 -7 -10
-15 -17 -18 -26 -10 -9 7 -17 5 -28 -6 -15 -14 -12 -20 7 -17 4 0 5 -6 1 -15
-4 -12 -8 -12 -13 -4 -10 16 -33 2 -27 -14 11 -27 -11 -38 -73 -39 -53 0 -63
-3 -70 -21 -4 -12 -3 -26 2 -33 6 -8 4 -11 -6 -9 -9 1 -18 5 -21 8 -4 3 -17
-4 -31 -17 -18 -17 -35 -22 -64 -21 -21 1 -37 -2 -34 -6 10 -16 -17 -7 -36 12
-20 20 -20 20 -35 -10 -20 -38 -20 -36 17 -44 21 -4 35 -2 40 6 6 8 7 5 3 -9
-5 -18 -2 -21 14 -18 14 2 19 -2 18 -14 -1 -18 -33 -26 -42 -11 -3 5 -12 7
-21 3 -11 -4 -8 -11 13 -30 24 -21 25 -24 8 -21 -11 2 -23 8 -27 13 -4 6 -8 2
-8 -7 0 -21 -11 -23 -27 -7 -18 18 -61 2 -65 -23 -3 -20 -4 -21 -19 -5 -9 9
-19 13 -23 10 -3 -4 -6 -1 -6 6 0 8 -6 11 -15 7 -8 -3 -21 -8 -29 -12 -8 -3
-18 6 -26 25 -7 17 -18 31 -24 31 -6 1 0 7 14 15 14 8 19 14 13 15 -15 0 -18
30 -3 30 6 0 10 7 10 15 0 8 4 15 8 15 5 0 8 17 7 38 -1 38 0 39 34 40 20 1
43 -3 51 -8 13 -8 13 -11 -2 -22 -15 -11 -15 -17 -3 -43 14 -31 13 -31 19 25
0 8 11 17 24 20 21 5 22 6 7 27 -13 18 -23 22 -50 18 -30 -3 -35 -1 -35 15 0
22 16 27 22 8 3 -9 6 -9 12 0 4 8 -2 16 -18 22 -15 5 -25 14 -24 20 2 5 -8 16
-22 23 -13 7 -30 23 -36 36 -8 14 -14 19 -19 11 -4 -6 -15 -8 -25 -5 -10 3
-27 1 -38 -6 -14 -9 -24 -9 -38 -1 -18 11 -18 11 2 12 12 0 24 7 28 15 3 8 1
15 -3 15 -5 0 -16 2 -23 5 -8 3 -25 -3 -38 -15 -21 -18 -40 -25 -62 -21 -4 0
-5 -13 -1 -29 3 -18 1 -30 -5 -30 -6 0 -13 -14 -17 -31 -4 -17 -13 -33 -21
-36 -8 -3 -14 -14 -14 -24 0 -10 -6 -19 -14 -19 -24 0 -46 12 -46 24 0 18 -21
35 -35 30 -7 -3 -10 -15 -8 -28 4 -17 -3 -29 -26 -45 -17 -13 -29 -27 -25 -32
8 -14 -6 -49 -21 -49 -7 0 -16 -7 -19 -16 -3 -8 -11 -12 -17 -8 -6 3 -14 3
-18 -2 -13 -20 -62 -44 -73 -38 -8 5 -9 2 -5 -9 8 -21 -7 -22 -27 -2 -20 21
-25 19 -19 -7 5 -19 3 -21 -8 -10 -7 6 -19 12 -26 12 -11 0 -11 -4 -2 -22 6
-12 13 -46 16 -76 3 -50 2 -54 -13 -41 -16 13 -17 11 -12 -13 6 -33 5 -33 -17
-12 -9 9 -19 14 -22 10 -8 -8 17 -36 33 -36 8 0 15 -4 15 -10 1 -5 3 -13 4
-17 2 -5 6 -18 10 -30 9 -28 10 -28 47 -2 20 15 29 17 27 8 -1 -8 3 -26 9 -41
9 -22 16 -26 38 -22 14 3 32 0 39 -6 10 -8 14 -4 19 15 5 18 12 24 28 22 14
-1 23 4 23 13 0 9 9 14 20 13 10 -1 27 7 36 18 9 10 23 19 32 19 8 0 14 8 13
17 -1 23 53 51 64 33 6 -9 9 -8 13 6 4 16 5 17 6 2 1 -18 16 -24 24 -10 2 4 2
1 0 -7 -3 -12 -1 -12 13 0 15 12 17 12 12 -1 -3 -9 -16 -14 -32 -13 -24 2 -37
-19 -18 -30 4 -2 2 -2 -5 -1 -27 7 -22 -16 7 -31 34 -18 32 -36 -3 -28 l-22 5
23 -17 c17 -12 20 -20 13 -29 -6 -7 -8 -16 -4 -19 3 -4 -2 -7 -11 -7 -15 0
-17 -5 -12 -27 4 -16 8 -37 10 -48 3 -11 7 -27 10 -35 5 -12 -2 -15 -36 -13
-24 1 -65 8 -93 17 -27 9 -53 16 -58 16 -18 0 -27 -62 -31 -231 -3 -100 -7
-183 -10 -186 -5 -5 -75 100 -115 172 -12 22 -48 100 -80 172 -32 73 -61 130
-64 126 -4 -3 -7 -1 -7 4 0 6 -19 15 -42 19 -24 4 -35 9 -25 12 18 4 24 22 7
22 -5 0 -10 4 -10 10 0 5 7 7 16 3 14 -5 14 -2 0 32 -9 20 -14 41 -11 46 3 4
-8 6 -24 4 -25 -3 -29 0 -33 26 -3 16 -2 33 2 39 7 11 40 3 40 -9 0 -3 9 -12
20 -19 19 -12 20 -11 8 8 -7 11 -16 20 -20 20 -5 0 -8 5 -8 11 0 6 7 8 16 5
14 -5 16 -1 10 25 -5 27 -4 30 9 19 8 -7 15 -21 15 -31 0 -11 4 -19 9 -19 15
0 20 27 8 39 -8 8 -6 11 7 11 10 0 20 -9 23 -20 3 -11 9 -17 14 -14 14 8 -9
43 -43 64 -18 10 -33 27 -34 37 -2 10 -8 19 -13 21 -6 2 -11 13 -11 23 0 11 5
17 10 14 6 -4 7 -12 3 -18 -4 -7 5 -4 20 6 15 10 32 15 37 12 6 -3 10 -4 10 0
0 14 -49 22 -98 15 -50 -6 -54 -5 -73 21 -17 24 -18 31 -7 50 10 17 10 23 1
26 -20 7 -15 23 7 23 11 0 20 3 20 8 -1 19 -18 29 -46 25 -25 -4 -33 -11 -42
-41 -6 -19 -9 -39 -6 -44 3 -4 -2 -5 -10 -2 -9 3 -16 1 -16 -5 0 -6 -8 -8 -17
-4 -11 4 -8 -2 7 -14 29 -24 70 -38 70 -25 0 17 30 9 36 -10 3 -10 9 -18 14
-18 9 0 8 -56 -3 -66 -4 -4 -7 -2 -7 4 0 7 -4 12 -10 12 -5 0 -10 -9 -10 -21
0 -22 -22 -49 -41 -49 -8 0 -9 -3 0 -14 9 -11 2 -13 -41 -10 -29 2 -45 1 -35
-2 9 -3 14 -10 11 -15 -3 -6 3 -13 14 -16 13 -3 18 -11 15 -24 -4 -14 -9 -16
-23 -9 -10 6 -29 10 -42 9 -19 -1 -16 -4 15 -17 27 -12 37 -22 33 -35 -2 -9 0
-15 4 -12 12 7 23 -12 15 -25 -4 -7 -14 -3 -25 10 -23 26 -29 25 -24 -3 l5
-22 -12 22 c-12 24 -29 31 -29 13 0 -5 4 -10 9 -10 5 0 11 -9 14 -20 3 -11 1
-18 -3 -15 -5 3 -10 0 -12 -5 -2 -7 -25 -1 -60 14 -125 55 -248 67 -333 31
-21 -8 -42 -12 -48 -8 -6 3 -7 1 -3 -5 4 -7 1 -12 -8 -12 -9 0 -16 -5 -16 -12
0 -6 -3 -8 -7 -5 -3 4 -12 -1 -19 -11 -12 -15 -15 -15 -24 -2 -9 13 -14 7 -11
-12 2 -12 -17 -10 -24 2 -3 6 -1 10 6 10 8 0 10 13 6 40 -3 27 -1 43 9 51 13
10 14 7 9 -19 -3 -17 0 -34 5 -37 6 -4 10 5 8 22 -1 16 2 34 6 41 5 8 -2 14
-23 18 -17 4 -32 10 -32 15 -1 5 -2 13 -3 18 -3 22 -14 20 -12 -2 2 -17 -1
-24 -10 -20 -7 2 -15 -5 -19 -16 -6 -21 -25 -29 -25 -11 0 6 4 10 8 10 5 0 9
7 9 14 0 12 -5 13 -21 4 -15 -8 -21 -8 -24 1 -2 6 -15 11 -29 11 l-25 0 23 20
c24 20 24 20 4 36 -19 15 -19 16 -2 29 17 12 17 14 -4 29 l-23 15 25 10 c18 7
20 10 6 10 -13 1 -17 6 -13 19 8 26 9 84 1 110 -5 13 -3 22 4 22 5 0 26 16 46
35 32 33 55 39 55 14 0 -6 -4 -8 -9 -5 -5 3 -12 -1 -15 -10 -3 -8 -2 -13 3
-10 13 8 20 -56 9 -77 -7 -13 -5 -17 9 -17 15 0 15 -2 4 -9 -22 -14 7 -37 44
-35 17 1 42 -5 57 -12 23 -12 29 -12 43 3 14 14 18 14 27 2 7 -11 9 -9 5 6 -3
11 -8 29 -12 40 -4 11 -3 16 2 10 8 -10 18 -13 91 -21 38 -5 43 -3 40 13 -2
10 2 17 10 15 7 -1 12 8 12 22 0 14 5 28 10 31 6 3 10 -1 10 -10 0 -9 5 -13
10 -10 6 4 7 11 4 17 -4 6 1 8 16 3 19 -6 22 -4 17 9 -4 11 -3 15 4 11 5 -4
16 -2 23 4 7 6 20 9 29 5 8 -3 18 -1 22 5 3 6 0 11 -8 11 -8 0 -20 6 -27 14
-9 12 -8 15 9 13 12 -1 21 -6 21 -11 0 -6 5 -5 11 1 6 6 17 9 24 7 17 -7 15
160 -2 178 -10 9 -13 8 -13 -10 0 -20 -2 -21 -26 -9 l-27 12 24 6 c23 7 22 7
-6 9 -18 1 -23 4 -13 7 10 2 18 11 18 19 0 14 -11 18 -40 15 -11 -1 -12 0 -3
6 7 5 10 18 6 31 -4 17 -10 21 -29 16 -14 -4 -24 -2 -24 4 0 13 -27 22 -81 27
-23 3 -48 10 -56 17 -11 9 -16 9 -22 0 -6 -9 -15 -8 -39 4 -30 15 -58 12 -47
-6 8 -13 -22 -19 -35 -7 -10 9 -11 9 -6 0 4 -7 2 -13 -4 -13 -6 0 -9 -3 -7 -7
3 -5 -5 -23 -18 -41 -13 -19 -26 -29 -29 -23 -4 7 -15 7 -30 1 -13 -5 -27 -6
-30 -3 -6 6 -9 -12 -3 -22 1 -2 -8 -12 -21 -21 -15 -10 -21 -22 -17 -34 6 -20
-10 -37 -19 -21 -6 9 -65 5 -96 -6 -8 -4 -19 -5 -24 -4 -17 4 -86 -10 -83 -17
1 -4 -1 -7 -4 -7 -10 0 -49 -37 -49 -46 0 -5 8 -6 17 -3 10 2 7 -1 -7 -8 -43
-22 -52 -37 -61 -106 -5 -37 -14 -85 -20 -107 -6 -22 -16 -62 -22 -90 -6 -27
-15 -53 -20 -56 -5 -4 -6 -16 -2 -28 4 -12 2 -21 -4 -21 -7 0 -10 -23 -9 -58
2 -61 -8 -87 -32 -87 -10 0 -14 -8 -12 -27 2 -16 0 -28 -5 -28 -5 0 -9 -12 -8
-27 0 -24 5 -28 30 -31 56 -5 57 -9 29 -54 -15 -24 -40 -60 -56 -80 -28 -35
-29 -41 -26 -129 l3 -91 74 91 c40 50 75 91 78 91 2 0 1 -19 -2 -42 -4 -24 -6
-56 -6 -72 0 -15 -6 -41 -15 -57 -8 -16 -13 -33 -10 -38 3 -4 1 -22 -4 -40
l-9 -31 88 0 87 0 23 163 c33 234 30 224 54 233 64 22 126 0 107 -37 -10 -17
1 -35 14 -22 10 10 7 53 -4 53 -5 0 -10 5 -10 10 0 6 8 10 18 10 27 0 42 20
42 54 0 22 3 27 9 17 5 -7 14 -10 20 -7 6 4 11 1 11 -8 0 -10 -6 -13 -15 -10
-10 4 -13 2 -10 -8 3 -8 -5 -49 -19 -92 -30 -92 -56 -231 -56 -303 l0 -53 90
0 90 0 0 43 c0 50 14 80 23 48 2 -11 0 -22 -6 -24 -6 -2 -3 -6 6 -10 12 -4 17
-1 17 9 0 11 5 14 18 9 49 -20 48 -20 34 -3 -8 10 -9 19 -3 22 5 3 12 0 14 -6
3 -7 6 -3 6 9 1 23 34 48 50 38 5 -3 7 3 4 14 -5 18 31 63 59 74 7 3 3 6 -9 6
-13 1 -23 5 -23 11 0 5 7 7 15 4 10 -4 15 0 15 11 0 9 4 14 8 11 15 -9 30 9
33 39 2 17 12 43 22 58 10 15 20 33 21 40 1 7 4 17 7 22 3 6 3 21 -2 35 -4 14
-7 19 -8 11 -1 -8 -4 -11 -8 -7 -4 4 3 16 17 26 21 16 22 20 10 36 -14 16 -13
17 3 11 10 -4 27 -7 38 -7 10 0 37 -16 58 -36 54 -49 105 -156 62 -129 -6 3
-11 15 -11 26 0 10 -5 19 -11 19 -6 0 -8 7 -5 16 5 12 2 15 -12 12 -15 -4 -18
0 -15 21 2 14 0 20 -3 13 -5 -10 -9 -10 -20 -1 -8 7 -17 9 -21 5 -3 -3 -1 -6
5 -6 7 0 12 -5 12 -11 0 -6 -7 -8 -16 -5 -13 5 -14 -1 -11 -37 2 -23 2 -34 0
-24 -2 9 -9 17 -15 17 -5 0 -8 -7 -5 -15 4 -8 2 -17 -3 -20 -4 -3 -11 1 -13 7
-4 8 -6 7 -6 -4 -1 -9 8 -20 20 -23 15 -5 19 -13 16 -26 -6 -22 18 -78 25 -58
3 9 9 9 26 0 18 -10 23 -9 28 3 3 8 11 13 17 10 7 -2 18 5 25 17 11 18 12 23
1 30 -8 4 -11 10 -8 13 2 3 10 1 18 -3 19 -12 26 -70 26 -213 l0 -128 71 0 72
0 7 52 c11 75 7 163 -9 237 -8 35 -12 71 -9 80 4 9 2 12 -2 8 -5 -4 -17 13
-27 38 -18 45 -16 71 3 60 15 -10 10 12 -6 25 -8 7 -15 17 -15 23 0 5 9 2 20
-8 21 -19 21 -18 43 6 26 28 60 38 51 14 -4 -10 0 -15 11 -15 13 0 15 -3 7
-13 -14 -16 100 -245 190 -384 50 -77 58 -95 48 -108 -11 -13 4 -15 129 -15
166 0 149 -19 153 172 2 85 7 131 16 140 9 10 12 0 12 -48 0 -33 6 -68 13 -79
19 -28 29 -57 17 -50 -6 3 -10 12 -10 20 0 7 -8 12 -17 11 -17 -3 -26 -26 -10
-26 4 0 17 -9 29 -20 25 -23 39 -25 56 -8 12 12 13 12 16 -32 1 -8 -4 -21 -11
-28 -18 -18 -16 -32 3 -32 8 0 12 -5 9 -10 -5 -7 17 -10 67 -8 72 3 73 4 76
31 2 16 8 25 14 21 6 -4 8 1 3 16 -5 14 -3 20 3 16 6 -3 13 0 15 6 4 10 6 10
6 1 1 -7 8 -10 16 -7 9 4 18 -1 21 -11 5 -11 9 -13 14 -5 8 13 60 -7 60 -23 0
-5 6 -7 14 -4 8 3 17 -1 20 -9 8 -22 7 -26 -4 -19 -5 3 -10 1 -10 -5 0 -8 36
-10 123 -7 136 6 147 7 147 19 0 9 69 6 85 -4 6 -3 25 -9 43 -13 33 -7 33 -6
22 15 -9 18 -9 24 0 30 16 10 4 30 -17 30 -15 0 -14 2 0 18 10 10 17 26 17 36
0 9 5 14 10 11 6 -3 10 0 10 8 0 14 27 32 43 29 4 -1 7 3 7 9 0 7 9 9 22 6 14
-4 27 0 36 11 12 15 13 15 9 1 -6 -19 18 -59 36 -59 6 0 22 -12 34 -27 17 -19
23 -39 23 -75 l0 -48 59 0 c33 0 62 3 64 8 9 15 -23 189 -43 235 -12 26 -39
65 -62 87 -33 33 -38 43 -28 55 10 12 10 18 0 30 -9 11 -9 15 -1 15 6 0 16 12
22 27 7 20 12 24 18 14 6 -9 11 -10 15 -2 4 6 2 11 -3 11 -6 0 -11 5 -11 10 0
18 22 10 27 -10 3 -11 19 -26 36 -35 40 -20 40 -19 10 11 -26 26 -26 27 -8 40
10 8 14 14 9 14 -6 0 -16 -6 -23 -12 -10 -11 -15 -10 -25 5 -7 9 -18 17 -25
17 -6 0 -11 8 -11 18 0 10 3 13 8 6 12 -17 49 -11 63 11 11 18 11 19 -4 6 -15
-12 -17 -11 -17 3 0 17 7 19 58 16 17 -1 32 3 32 9 0 6 -3 10 -7 10 -28 -5
-42 2 -36 19 5 14 3 13 -10 -3 -15 -18 -16 -18 -17 -2 0 10 -6 20 -12 22 -7 3
-14 16 -14 30 -1 14 2 22 7 19 5 -3 9 -1 9 4 0 15 40 22 51 9 41 -50 49 -62
49 -79 0 -10 7 -18 16 -18 10 0 14 -6 10 -15 -7 -19 13 -19 37 -1 20 16 28 59
16 93 -5 14 -4 23 4 27 7 3 4 7 -8 11 -31 9 -28 39 7 60 21 12 26 20 18 25 -7
4 -9 13 -5 20 14 22 12 80 -2 91 -17 15 -17 25 2 33 10 4 19 -2 25 -17 35 -88
45 -107 57 -107 7 0 13 5 13 10 0 18 29 10 44 -12 11 -16 12 -24 4 -29 -7 -4
-3 -11 11 -18 11 -7 21 -16 21 -22 0 -6 -4 -7 -10 -4 -5 3 -10 -3 -10 -14 0
-21 14 -28 24 -12 3 5 15 7 27 4 20 -6 20 -6 -4 -22 -13 -9 -22 -22 -20 -28 7
-19 -25 -46 -44 -39 -16 7 -10 21 10 21 5 0 12 6 15 14 3 10 0 12 -12 8 -15
-6 -17 -3 -11 23 7 33 -1 70 -16 70 -6 0 -17 7 -25 15 -19 19 -44 19 -44 1 0
-8 -6 -16 -12 -18 -9 -3 -12 -29 -11 -86 1 -63 -2 -80 -12 -76 -24 9 -26 -14
-4 -48 12 -18 19 -25 16 -16 -4 10 -2 20 3 23 6 4 10 1 10 -5 0 -6 16 -9 38
-8 32 2 38 6 34 21 -2 9 -8 20 -13 23 -5 3 -9 10 -9 16 0 6 8 1 19 -10 10 -12
22 -18 26 -14 5 4 5 2 2 -5 -4 -6 -3 -23 3 -37 6 -17 6 -26 0 -26 -6 0 -10 6
-10 13 0 6 -5 4 -11 -6 -8 -14 -8 -22 0 -30 6 -6 11 -21 11 -34 0 -16 4 -21
15 -17 11 5 12 11 4 26 -7 14 -7 23 2 34 15 18 53 19 46 0 -3 -7 0 -13 6 -13
48 1 58 -18 60 -123 1 -30 7 -58 12 -62 6 -4 1 -8 -9 -8 -18 0 -18 -1 -3 -18
19 -20 23 -37 7 -27 -5 3 -7 0 -4 -8 7 -20 -104 -235 -124 -240 -10 -3 104 -5
251 -6 273 -1 301 3 289 37 -2 6 1 12 6 12 5 0 13 -11 16 -25 4 -14 14 -25 23
-25 19 0 42 28 43 53 0 9 5 17 11 17 5 0 8 -4 4 -10 -3 -5 7 -3 21 5 15 8 31
12 36 9 18 -11 7 16 -12 29 l-21 14 21 6 c16 4 20 2 16 -9 -6 -17 -1 -18 25
-4 10 6 19 19 19 28 0 10 5 23 11 29 10 10 16 31 19 68 1 18 3 17 12 -5 11
-23 15 -71 19 -189 1 -29 4 -39 10 -30 13 21 11 476 -2 501 -8 15 -8 19 0 14
8 -5 11 172 10 641 0 591 -2 654 -18 717 -10 38 -16 78 -13 89 3 14 1 18 -6
13 -9 -5 -12 9 -14 46 -1 60 -2 65 -12 93 -5 11 -10 27 -14 35 -3 8 -4 21 -3
29 2 8 -2 24 -7 35 -34 73 -62 136 -73 166 -7 19 -27 56 -44 82 -16 26 -45 71
-63 101 -46 73 -143 173 -186 191 -20 8 -36 13 -36 11 0 -2 -21 8 -47 22 -27
14 -58 31 -70 38 -13 7 -20 15 -16 18 3 4 0 7 -9 7 -8 0 -24 11 -36 25 -12 14
-29 25 -38 25 -8 0 -13 4 -10 8 7 12 -38 50 -69 58 -14 3 -37 3 -51 0 -30 -8
-28 -17 17 -113 16 -34 29 -64 29 -67 0 -3 16 -40 35 -81 20 -42 40 -87 45
-100 5 -14 13 -25 17 -25 5 0 9 -12 10 -27 0 -14 8 -30 17 -35 9 -5 16 -15 16
-23 0 -7 4 -15 9 -17 6 -1 12 -16 14 -33 3 -21 9 -29 21 -27 15 3 20 -8 17
-35 -1 -8 9 -13 24 -13 15 0 23 -4 20 -10 -6 -10 5 -28 38 -58 9 -9 17 -24 17
-34 0 -10 6 -18 13 -18 8 0 22 -9 32 -20 10 -11 22 -17 27 -14 4 3 7 0 6 -8
-2 -8 5 -12 20 -11 13 2 25 -4 28 -12 4 -8 12 -15 20 -15 7 0 16 -12 20 -27 3
-16 7 -32 8 -38 2 -5 -1 -20 -5 -32 -6 -17 -4 -25 9 -33 15 -8 15 -11 2 -20
-10 -6 -11 -10 -2 -10 6 0 12 -9 12 -20 0 -18 -14 -25 -45 -21 -6 0 -16 -8
-23 -19 -11 -17 -10 -20 7 -20 11 0 22 6 24 13 4 10 6 10 6 0 1 -7 8 -13 17
-13 10 0 13 -6 10 -18 -3 -9 -1 -33 4 -52 8 -29 7 -37 -7 -47 -16 -12 -16 -13
0 -13 9 0 17 -4 17 -10 0 -5 -6 -7 -14 -4 -7 3 -16 -2 -20 -11 -4 -11 -1 -16
12 -14 33 3 42 -1 42 -20 0 -13 -7 -18 -22 -17 -14 1 -23 -5 -23 -14 0 -8 5
-15 12 -15 19 0 24 -11 26 -57 2 -35 -1 -45 -13 -44 -9 1 -15 -7 -15 -19 0
-14 9 -22 30 -26 27 -6 28 -7 5 -8 -14 -1 -32 -6 -40 -12 -13 -9 -12 -10 2 -5
10 3 20 1 23 -4 4 -6 -1 -10 -9 -10 -10 0 -13 -6 -10 -15 7 -17 -9 -19 -37 -5
-12 7 -19 7 -19 1 0 -11 -63 -8 -92 4 -9 3 -30 0 -46 -9 -36 -19 -49 -10 -20
14 l21 17 -21 5 c-17 5 -25 -1 -37 -25 -19 -38 -19 -37 4 -37 16 0 18 -3 8
-23 -6 -13 -19 -24 -29 -24 -10 -1 -16 2 -13 7 10 16 -10 18 -30 4 -18 -14
-18 -14 3 -14 12 0 22 -4 22 -10 0 -5 18 -3 41 5 23 8 46 12 52 8 6 -3 7 -1 3
5 -4 7 -16 12 -27 12 -18 0 -19 2 -5 15 15 16 61 12 72 -6 3 -5 -2 -6 -10 -3
-12 4 -13 -2 -9 -36 6 -45 -14 -71 -49 -62 -10 2 -18 -1 -18 -8 0 -7 6 -10 13
-7 21 8 60 -12 53 -28 -4 -10 1 -15 15 -15 15 0 19 -5 15 -15 -5 -13 5 -20 27
-16 4 0 7 -6 7 -14 0 -8 -6 -12 -13 -9 -8 3 -19 -2 -26 -9 -9 -12 -8 -18 4
-30 8 -9 15 -20 15 -26 0 -15 -20 -14 -20 2 -1 7 -6 5 -14 -6 -12 -15 -15 -15
-26 -2 -10 12 -16 12 -34 3 -11 -6 -23 -12 -26 -12 -3 -1 -4 -5 -2 -9 1 -4 -7
-3 -18 3 -19 10 -20 9 -9 -8 8 -12 21 -18 38 -16 14 2 18 1 9 -2 -24 -7 -23
-28 1 -21 19 5 58 -29 46 -41 -3 -4 -9 -2 -13 4 -4 5 -24 15 -44 21 -30 9 -36
8 -31 -3 6 -17 -17 -18 -52 -2 -19 8 -24 16 -19 32 4 17 3 18 -5 6 -10 -13
-11 -13 -11 0 0 12 -2 12 -9 2 -6 -10 -10 -10 -20 1 -9 11 -8 17 4 27 22 18
18 30 -10 30 -14 0 -25 5 -25 11 0 6 -7 3 -16 -5 -8 -9 -31 -16 -50 -16 -19 0
-34 -4 -34 -10 0 -5 7 -7 15 -4 8 3 20 2 27 -2 15 -10 -19 -21 -72 -24 -29 -1
-31 -3 -15 -10 19 -8 19 -8 -5 -18 -14 -6 -18 -11 -10 -12 13 0 13 -2 0 -9 -8
-6 -19 -7 -24 -3 -21 13 -108 5 -117 -11 -6 -9 -17 -13 -29 -10 -22 6 -26 18
-10 28 6 3 10 12 9 18 0 9 -2 9 -6 0 -8 -21 -26 -15 -20 7 3 11 0 23 -5 27 -6
3 -8 1 -5 -4 4 -7 -3 -10 -18 -9 -14 0 -25 7 -25 14 0 7 -7 15 -15 18 -8 4
-15 14 -15 23 -1 14 -2 14 -11 -1 -5 -10 -18 -18 -27 -18 -15 1 -15 2 2 11 12
8 15 14 7 18 -14 9 24 62 41 58 6 -1 12 3 15 10 6 15 -21 11 -43 -7 -9 -8 -20
-14 -23 -12 -3 2 -8 -5 -12 -15 -6 -14 -8 -12 -8 10 -1 15 3 27 9 27 5 0 7 6
4 13 -6 17 24 88 45 104 15 12 14 14 -7 31 -25 19 -22 52 4 52 12 0 12 4 3 21
-9 18 -8 24 5 31 24 14 20 30 -6 22 -21 -6 -21 -5 -9 10 8 10 16 29 17 43 2
14 12 32 24 40 11 8 17 19 14 25 -11 17 -13 59 -3 52 5 -3 9 1 9 9 0 8 7 20
15 27 9 7 13 21 10 31 -10 31 6 109 21 109 14 0 15 4 20 120 1 30 4 76 7 102
3 33 1 45 -7 41 -6 -4 -5 0 2 9 9 12 10 18 2 23 -8 5 -8 11 0 19 5 7 12 32 14
55 2 24 7 45 10 48 3 4 1 12 -5 19 -7 9 -5 18 9 32 18 18 18 20 2 42 -14 18
-15 27 -6 46 6 13 17 24 25 24 8 0 11 7 8 20 -3 11 -1 20 5 20 5 0 7 4 4 8 -3
5 1 20 8 34 8 16 10 31 5 41 -7 12 -5 14 10 10 11 -3 27 -1 36 5 15 8 16 11 2
23 -13 12 -13 17 0 42 7 15 11 32 8 37 -3 5 -8 42 -11 82 -3 40 -10 81 -16 92
-6 11 -12 27 -13 36 -4 38 -18 70 -31 70 -8 0 -14 5 -14 10 0 6 -9 10 -21 10
-12 0 -23 8 -26 20 -3 11 -11 20 -18 20 -7 0 -23 11 -36 23 -13 13 -36 27 -50
30 l-27 7 -2 -98z m-2789 -1989 c8 -10 9 -14 2 -10 -6 4 -14 3 -18 -3 -3 -5
-1 -10 5 -10 7 0 10 -6 7 -14 -3 -8 1 -17 9 -20 9 -4 14 -15 12 -28 -2 -17
-10 -23 -29 -23 -17 1 -25 -4 -22 -12 3 -7 10 -11 16 -10 7 1 13 -13 15 -32 3
-32 2 -33 -23 -27 -23 6 -25 5 -14 -7 8 -7 22 -16 32 -20 9 -3 17 -12 17 -18
0 -8 -4 -8 -15 1 -8 7 -15 11 -16 9 -6 -31 -6 -40 2 -45 15 -9 0 -24 -19 -17
-12 4 -11 1 5 -14 39 -35 -7 -48 -48 -13 l-24 19 25 2 c17 1 20 3 8 6 -10 2
-18 8 -18 13 0 5 7 7 16 3 13 -5 15 -2 8 18 -12 38 -4 86 17 100 8 5 9 9 3 9
-14 0 -26 53 -18 75 4 8 13 15 21 15 13 0 13 3 3 15 -10 12 -10 15 0 15 8 0
10 3 7 7 -4 3 -2 12 4 20 14 16 14 16 30 -4z m3381 2 c15 -1 28 2 28 7 0 5 5
6 11 2 7 -4 19 -8 28 -9 53 -5 99 -35 55 -35 -14 0 -14 -3 -4 -16 11 -13 10
-16 -8 -21 -22 -5 -31 -23 -12 -23 6 0 10 -5 10 -11 0 -5 -4 -8 -9 -4 -13 8
-52 -50 -45 -68 6 -16 -17 -17 -49 -2 -15 6 -16 10 -5 16 10 7 9 9 -4 9 -10 0
-18 -5 -18 -10 0 -6 -11 -16 -25 -22 -30 -13 -33 -28 -6 -28 11 0 23 -5 27
-11 9 -15 -16 -30 -38 -23 -12 3 -18 0 -18 -9 0 -9 -9 -14 -22 -13 -13 1 -26
-3 -30 -9 -5 -6 -8 -3 -8 7 0 9 14 21 33 28 22 9 27 14 15 17 -13 3 -15 12
-11 41 7 47 2 42 53 51 3 1 -2 6 -10 11 -10 7 -11 10 -2 10 7 0 15 -7 18 -15
4 -8 11 -15 17 -15 6 0 8 3 4 6 -3 3 -2 17 3 30 7 16 6 24 -1 24 -8 0 -7 5 1
15 7 8 16 12 21 9 5 -3 9 0 9 6 0 6 4 8 10 5 6 -4 7 1 3 11 -4 10 -8 13 -10 8
-2 -6 -18 -8 -36 -6 -27 4 -29 6 -12 13 19 8 19 8 -2 15 -13 3 -20 10 -17 15
3 5 10 6 17 2 6 -3 23 -7 39 -8z"/>
<path d="M4056 2697 c2 -40 54 -156 97 -217 9 -13 17 -33 17 -43 0 -10 9 -21
20 -24 11 -3 20 -12 20 -19 0 -8 4 -14 9 -14 5 0 13 -17 19 -37 7 -29 10 11
10 162 0 110 -2 193 -5 183 -2 -9 -11 -19 -19 -22 -8 -3 -13 -2 -10 3 7 10
-17 21 -45 21 -12 0 -19 7 -19 20 0 14 -7 20 -22 21 -13 1 -34 3 -49 4 -24 3
-25 1 -23 -38z"/>
<path d="M3416 2547 c-5 -22 -10 -26 -20 -18 -14 12 -26 5 -26 -16 0 -7 8 -13
18 -14 10 0 12 -3 5 -6 -7 -2 -12 -17 -12 -31 2 -24 2 -24 6 -4 2 12 9 22 14
22 16 0 22 -29 9 -45 -10 -12 -10 -18 0 -30 7 -8 9 -15 4 -15 -4 0 -3 -5 3
-11 15 -15 -11 -43 -32 -35 -8 3 -15 1 -15 -4 0 -6 14 -10 31 -10 30 0 31 -1
25 -34 -4 -19 -3 -36 2 -38 5 -1 12 -18 15 -36 6 -29 4 -35 -14 -39 -25 -7
-21 -39 4 -35 15 2 16 -2 11 -24 -5 -18 -3 -25 4 -20 6 3 14 1 18 -5 4 -8 9
-7 15 2 5 8 9 10 9 4 0 -13 -16 -37 -24 -36 -20 3 -26 -1 -26 -19 0 -11 -4
-20 -10 -20 -12 0 -13 -11 0 -30 8 -13 11 -12 23 4 13 17 14 17 20 2 4 -10 3
-15 -3 -11 -6 3 -10 2 -10 -3 0 -14 19 -19 66 -17 35 1 39 -1 28 -13 -8 -7
-18 -11 -23 -7 -5 3 -12 1 -16 -5 -3 -5 -1 -10 4 -10 6 0 10 -3 10 -7 -4 -28
3 -33 41 -31 22 2 40 7 40 11 0 5 5 5 10 2 6 -4 8 -16 5 -28 -5 -18 -4 -19 4
-7 10 13 12 13 22 0 8 -12 9 -10 4 8 -8 28 11 30 20 1 9 -26 8 -27 -42 -32
-23 -2 -49 -10 -57 -17 -9 -7 -24 -9 -33 -6 -12 5 -15 4 -8 -3 12 -12 76 -18
91 -8 7 4 10 -2 7 -17 -4 -18 0 -25 14 -28 10 -2 1 -6 -20 -9 -28 -4 -43 0
-58 14 -29 27 -35 14 -7 -15 29 -31 48 -38 72 -26 14 8 17 7 10 -4 -4 -7 2 -5
14 6 17 14 20 26 16 51 -3 21 0 36 7 41 9 5 10 2 6 -9 -3 -9 -2 -19 3 -22 6
-4 10 4 10 15 0 15 5 20 14 17 9 -4 16 3 20 16 9 33 7 37 -10 37 -11 0 -14 5
-10 16 5 12 1 14 -16 8 -17 -5 -20 -3 -14 11 5 14 2 16 -14 12 -11 -3 -20 0
-20 6 0 6 -8 19 -17 30 -16 18 -16 20 -1 14 22 -8 32 19 10 29 -9 4 -20 6 -24
6 -13 -3 -9 33 5 47 10 10 9 12 -3 11 -28 -4 -41 0 -35 10 4 6 11 8 16 5 11
-7 11 -7 0 30 l-8 30 53 -2 c60 -2 65 4 31 33 -30 25 -47 28 -47 9 0 -13 -2
-14 -14 -3 -8 7 -12 16 -10 20 3 4 -5 12 -16 18 -27 15 -26 33 3 25 21 -6 21
-6 3 9 -11 9 -14 16 -8 16 7 0 12 5 12 11 0 6 -8 8 -17 5 -10 -3 -24 -2 -32 3
-11 7 -9 11 8 20 11 7 21 21 21 33 0 12 -3 19 -6 15 -10 -9 -32 16 -27 31 3 7
-6 30 -21 52 -14 22 -26 43 -26 48 0 12 -44 52 -57 52 -6 0 -13 6 -15 12 -3 7
-8 0 -12 -15z"/>
<path d="M3185 521 c7 -12 13 -69 19 -181 3 -47 11 -142 18 -212 l12 -128 28
0 c15 0 41 8 57 18 24 15 27 21 19 36 -7 12 -13 14 -17 8 -4 -6 -8 14 -9 44
-3 64 9 94 19 49 l7 -30 1 32 c1 41 -8 63 -26 63 -11 0 -14 16 -13 78 3 145 3
142 -30 153 -16 6 -30 17 -30 25 0 8 -4 14 -9 14 -5 0 -13 9 -16 20 -3 11 -13
20 -21 20 -8 0 -13 -4 -9 -9z"/>
</g>
</svg>
