<?xml version="1.0" standalone="no"?>
<!DOCTYPE svg PUBLIC "-//W3C//DTD SVG 20010904//EN"
 "http://www.w3.org/TR/2001/REC-SVG-20010904/DTD/svg10.dtd">
<svg version="1.0" xmlns="http://www.w3.org/2000/svg"
 width="1500.000000pt" height="500.000000pt" viewBox="0 0 1500.000000 500.000000"
 preserveAspectRatio="xMidYMid meet">

<g transform="translate(0.000000,500.000000) scale(0.100000,-0.100000)"
fill="#000000" stroke="none">
<path d="M3055 3533 c-47 -9 -113 -13 -197 -11 l-128 4 0 -27 c0 -24 4 -27 46
-32 54 -6 91 -30 119 -78 19 -32 20 -55 23 -335 l3 -301 -49 47 c-65 63 -144
90 -260 90 -286 0 -500 -188 -564 -497 -17 -82 -19 -123 -15 -253 8 -238 55
-386 159 -496 94 -100 184 -141 328 -151 176 -12 310 55 383 192 16 29 16 27
17 -77 0 -60 1 -108 3 -108 1 0 38 7 82 15 44 8 140 14 213 15 l132 0 0 24 c0
20 -6 24 -41 30 -60 10 -94 30 -121 73 l-23 38 -3 928 c-2 872 -3 927 -20 926
-9 -1 -48 -8 -87 -16z m-302 -717 c54 -20 105 -62 138 -115 l30 -46 -3 -420
-3 -420 -26 -56 c-76 -161 -220 -226 -373 -169 -100 38 -177 151 -213 315 -14
62 -18 125 -18 285 0 232 13 313 70 435 67 144 153 205 284 205 42 -1 93 -7
114 -14z"/>
<path d="M13410 3535 c-30 -7 -121 -14 -202 -14 l-148 -1 0 -25 c0 -21 5 -25
28 -25 48 0 114 -41 136 -85 21 -39 21 -55 24 -840 2 -440 0 -819 -3 -843 -10
-66 -46 -100 -122 -115 -55 -10 -63 -14 -63 -34 l0 -23 300 0 300 0 0 24 c0
21 -6 24 -49 30 -60 8 -97 36 -111 84 -8 25 -10 165 -8 432 l3 395 33 77 c75
174 211 258 376 234 60 -9 108 -51 132 -114 16 -42 18 -95 22 -495 2 -307 0
-465 -8 -502 -14 -66 -50 -101 -115 -111 -39 -5 -45 -10 -45 -30 l0 -24 300 0
300 0 0 24 c0 20 -6 24 -49 29 -66 8 -107 30 -128 70 -16 29 -19 78 -23 507
-6 469 -6 476 -29 534 -30 76 -78 128 -149 163 -53 26 -65 28 -187 28 -130 0
-130 0 -206 -37 -88 -43 -161 -115 -203 -200 l-26 -52 0 477 c0 376 -3 477
-12 476 -7 -1 -38 -7 -68 -14z"/>
<path d="M1455 3496 c-17 -7 -45 -29 -62 -49 -54 -61 -56 -148 -6 -207 35 -42
73 -60 128 -60 143 0 216 160 122 267 -52 59 -118 77 -182 49z"/>
<path d="M3714 3491 c-110 -50 -134 -187 -48 -268 65 -61 163 -58 227 6 37 36
41 46 45 101 4 53 1 65 -22 101 -29 43 -91 79 -136 79 -14 0 -43 -9 -66 -19z"/>
<path d="M8533 3491 c-26 -12 -52 -35 -69 -60 -23 -35 -26 -48 -22 -99 6 -84
53 -139 128 -149 60 -8 106 5 144 40 86 81 62 218 -48 268 -52 23 -80 23 -133
0z"/>
<path d="M390 3334 c0 -18 9 -23 66 -32 36 -6 77 -18 91 -27 55 -37 54 -11 50
-963 -3 -951 -2 -927 -59 -1049 -44 -93 -135 -158 -240 -170 -42 -5 -48 -9
-48 -29 0 -28 12 -29 109 -13 93 15 161 41 223 87 99 73 171 172 208 285 40
125 42 167 49 982 6 763 7 791 26 830 22 43 53 59 138 70 40 5 47 10 47 28 l0
22 -330 0 c-329 0 -330 0 -330 -21z"/>
<path d="M6470 3333 c0 -18 7 -23 48 -28 84 -11 115 -27 137 -70 19 -39 20
-63 23 -750 3 -744 0 -820 -38 -860 -23 -24 -88 -45 -139 -45 -27 0 -31 -4
-31 -26 l0 -25 443 3 c418 4 446 5 522 26 277 76 463 229 567 467 88 199 110
516 53 740 -89 346 -325 541 -710 585 -51 5 -261 9 -482 7 l-393 -2 0 -22z
m895 -47 c101 -27 205 -84 265 -145 143 -146 210 -406 197 -761 -13 -333 -69
-512 -202 -639 -116 -111 -267 -162 -490 -165 -132 -1 -157 7 -192 61 -17 25
-18 81 -21 783 -2 549 0 766 9 797 13 47 33 70 75 83 43 14 289 4 359 -14z"/>
<path d="M1590 2871 c-35 -9 -113 -14 -212 -15 l-158 -1 0 -26 c0 -24 4 -27
49 -31 65 -6 98 -29 124 -86 22 -46 22 -56 22 -532 0 -455 -1 -487 -19 -523
-22 -45 -54 -63 -124 -73 -46 -6 -52 -9 -52 -30 l0 -24 315 0 315 0 0 24 c0
20 -6 24 -49 29 -66 8 -107 30 -128 70 -16 29 -18 83 -23 632 l-5 600 -55 -14z"/>
<path d="M3855 2871 c-33 -10 -104 -14 -213 -15 l-163 0 3 -25 c3 -23 9 -27
50 -31 58 -7 97 -34 123 -86 19 -37 20 -59 20 -534 0 -454 -1 -498 -18 -527
-21 -40 -62 -62 -128 -70 -43 -5 -49 -9 -49 -29 l0 -24 315 0 315 0 0 24 c0
21 -6 24 -52 30 -70 10 -102 28 -124 73 -18 36 -19 76 -24 633 l-5 595 -50
-14z"/>
<path d="M4615 2871 c-32 -8 -109 -14 -213 -15 l-163 -1 3 -25 c3 -22 9 -26
52 -32 60 -8 93 -31 120 -84 20 -38 21 -53 21 -534 0 -454 -1 -498 -18 -527
-21 -40 -62 -62 -128 -70 -46 -5 -50 -8 -47 -30 l3 -24 298 -2 297 -2 0 26 c0
23 -5 27 -42 32 -23 3 -53 14 -67 25 -55 41 -56 45 -56 457 0 340 2 386 18
440 42 135 107 223 202 273 43 23 63 27 135 27 98 0 133 -13 166 -63 40 -59
44 -112 44 -593 0 -493 -1 -508 -51 -543 -13 -9 -45 -19 -72 -22 -44 -6 -48
-9 -45 -31 l3 -24 300 0 300 0 3 24 c3 22 -1 25 -48 30 -63 8 -97 24 -124 60
-20 28 -21 42 -27 500 -5 449 -6 475 -27 537 -29 86 -68 132 -150 172 -65 32
-70 33 -192 33 -123 0 -126 -1 -200 -36 -90 -43 -157 -108 -203 -196 l-32 -63
-5 148 -5 147 -50 -14z"/>
<path d="M9806 2879 c-107 -25 -227 -123 -280 -231 l-26 -52 0 142 c0 88 -4
142 -10 142 -5 0 -52 -7 -102 -16 -65 -11 -128 -15 -211 -12 l-118 5 3 -26 c3
-23 9 -27 52 -33 57 -8 93 -31 121 -79 19 -33 20 -52 20 -541 0 -498 0 -507
-21 -535 -27 -36 -61 -52 -124 -60 -47 -5 -51 -8 -48 -30 l3 -24 300 0 300 0
3 24 c3 22 -1 25 -45 31 -60 8 -91 28 -109 72 -21 50 -20 753 1 842 42 177
163 298 310 310 128 10 188 -24 221 -125 18 -54 19 -94 19 -528 0 -510 0 -506
-56 -547 -14 -11 -44 -22 -67 -25 -37 -5 -42 -9 -42 -32 l0 -26 297 2 298 2 3
24 c3 22 -1 25 -47 30 -66 8 -107 30 -128 70 -16 29 -19 78 -24 502 -6 506 -8
525 -62 605 -32 49 -100 97 -159 115 -57 17 -208 19 -272 4z"/>
<path d="M11061 2865 c-277 -90 -429 -392 -399 -797 18 -242 132 -427 318
-516 100 -47 163 -62 268 -62 95 1 148 12 232 52 80 38 172 129 218 215 38 72
39 81 10 92 -19 7 -26 1 -56 -48 -76 -127 -173 -189 -311 -198 -68 -5 -89 -2
-142 17 -90 34 -168 110 -219 214 -53 107 -70 191 -70 354 l0 132 405 0 405 0
0 68 c-1 197 -84 365 -221 445 -106 62 -301 76 -438 32z m222 -26 c106 -29
173 -162 192 -381 l7 -78 -286 0 c-157 0 -286 1 -286 3 0 26 34 178 49 222 42
119 130 213 218 234 52 12 63 12 106 0z"/>
<path d="M12245 2876 c-181 -57 -273 -209 -235 -387 16 -75 71 -162 138 -217
26 -21 119 -87 207 -145 165 -109 242 -174 272 -230 24 -44 25 -189 1 -233
-48 -87 -136 -131 -247 -120 -169 15 -254 117 -297 357 -22 125 -19 119 -54
119 l-30 0 0 -187 c0 -104 -3 -218 -7 -255 l-6 -68 32 0 c21 0 33 6 37 18 11
38 31 67 47 70 9 2 36 -10 60 -27 69 -50 141 -73 247 -79 213 -11 393 82 449
234 18 47 22 75 19 139 -7 168 -88 265 -384 460 -204 135 -257 180 -280 240
-38 102 -1 210 88 256 56 29 169 28 238 -2 93 -40 169 -150 205 -300 16 -66
19 -69 46 -69 l29 0 0 123 c0 67 3 166 7 220 l6 97 -31 0 c-26 0 -31 -4 -37
-32 -9 -44 -32 -78 -52 -78 -9 0 -39 16 -67 35 -81 56 -150 75 -263 74 -54 0
-116 -6 -138 -13z"/>
<path d="M8620 2863 c-52 -10 -111 -13 -192 -9 l-118 6 0 -30 c0 -28 2 -30 39
-30 47 0 97 -32 125 -80 20 -34 21 -52 24 -520 2 -316 0 -497 -7 -521 -16 -52
-50 -79 -120 -92 -53 -10 -61 -14 -61 -34 l0 -23 310 0 310 0 0 23 c0 20 -8
24 -61 34 -33 6 -70 20 -81 30 -48 42 -48 46 -48 673 l0 590 -22 -1 c-13 -1
-57 -8 -98 -16z"/>
</g>
</svg>
