<svg width="858.9199707031249px" height="185.639990234375px" xmlns="http://www.w3.org/2000/svg" viewBox="-179.45998535156247 -17.819995117187503 858.9199707031249 185.639990234375" style="background: rgb(255, 255, 255) none repeat scroll 0% 0%;" preserveAspectRatio="xMidYMid"><defs><filter id="editing-hover" x="-100%" y="-100%" width="300%" height="300%"><feFlood flood-color="#000000" result="flood"></feFlood><feComposite operator="in" in2="SourceAlpha" in="flood" result="shadow"></feComposite><feOffset dx="0.1" dy="0" in="SourceGraphic" result="offset-1"></feOffset><feOffset dx="-0.1" dy="0" in="shadow" result="offset-2"></feOffset><feMerge><feMergeNode in="offset-2"></feMergeNode><feMergeNode in="offset-1"></feMergeNode></feMerge></filter></defs><g filter="url(#editing-hover)"><g transform="translate(-59.65497064590454, 117.02000045776367)"><path d="M52.37-12.21L52.37-12.21L52.37-18.13L52.09-18.22L52.09-18.22Q48.88-14.09 47-12.21L47-12.21L47-12.21Q45.12-10.33 42.82-9.34L42.82-9.34L42.82-9.34Q40.53-8.35 37.32-8.35L37.32-8.35L37.32-8.35Q34.33-8.35 32.15-9.57L32.15-9.57L32.15-9.57Q29.97-10.79 28.76-12.92L28.76-12.92L28.76-12.92Q27.54-15.05 26.97-17.63L26.97-17.63L26.97-17.63Q26.39-20.20 26.39-23.22L26.39-23.22L26.39-23.22Q26.39-26.44 27.13-29.60L27.13-29.60L27.13-29.60Q27.86-32.77 29.42-36.03L29.42-36.03L29.42-36.03Q30.98-39.29 33.67-42.02L33.67-42.02L33.67-42.02Q36.35-44.75 39.91-46.84L39.91-46.84L39.91-46.84Q43.47-48.93 48.61-50.01L48.61-50.01L48.61-50.01Q53.75-51.08 59.90-50.86L59.90-50.86L59.90-14.46L59.90-14.46Q63.20-14.46 65.86-15.77L65.86-15.77L65.86-15.77Q68.53-17.07 70.32-19.30L70.32-19.30L70.32-19.30Q72.11-21.53 73.32-24.62L73.32-24.62L73.32-24.62Q74.54-27.72 75.07-31.19L75.07-31.19L75.07-31.19Q75.59-34.65 75.59-38.55L75.59-38.55L75.59-38.55Q75.59-48.65 67.79-54.96L67.79-54.96L67.79-54.96Q59.99-61.27 47.55-61.27L47.55-61.27L47.55-61.27Q42.18-61.27 37.20-59.71L37.20-59.71L37.20-59.71Q32.22-58.15 28.04-55.12L28.04-55.12L28.04-55.12Q23.87-52.09 20.77-47.96L20.77-47.96L20.77-47.96Q17.67-43.83 15.93-38.42L15.93-38.42L15.93-38.42Q14.18-33.00 14.18-26.90L14.18-26.90L14.18-26.90Q14.18-20.61 15.93-15.38L15.93-15.38L15.93-15.38Q17.67-10.14 20.75-6.47L20.75-6.47L20.75-6.47Q23.82-2.80 28.00-0.25L28.00-0.25L28.00-0.25Q32.17 2.29 36.99 3.49L36.99 3.49L36.99 3.49Q41.81 4.68 47.09 4.68L47.09 4.68L47.09 4.68Q55.35 4.68 64.67 0.73L64.67 0.73L66.19 3.67L66.19 3.67Q60.95 6.88 55.26 8.61L55.26 8.61L55.26 8.61Q49.57 10.33 44.48 10.33L44.48 10.33L44.48 10.33Q38.55 10.33 33.00 8.93L33.00 8.93L33.00 8.93Q27.45 7.53 22.44 4.52L22.44 4.52L22.44 4.52Q17.44 1.51 13.72-2.78L13.72-2.78L13.72-2.78Q10.01-7.07 7.83-13.31L7.83-13.31L7.83-13.31Q5.65-19.55 5.65-26.99L5.65-26.99L5.65-26.99Q5.65-35.53 8.84-43.01L8.84-43.01L8.84-43.01Q12.03-50.49 17.53-55.79L17.53-55.79L17.53-55.79Q23.04-61.09 30.80-64.14L30.80-64.14L30.80-64.14Q38.55-67.20 47.37-67.20L47.37-67.20L47.37-67.20Q57.65-67.20 65.61-63.43L65.61-63.43L65.61-63.43Q73.58-59.67 77.91-52.97L77.91-52.97L77.91-52.97Q82.25-46.27 82.25-37.77L82.25-37.77L82.25-37.77Q82.25-24.74 75.11-16.45L75.11-16.45L75.11-16.45Q67.98-8.17 56.23-8.17L56.23-8.17L56.23-8.17Q54.48-8.17 53.43-9.41L53.43-9.41L53.43-9.41Q52.37-10.65 52.37-12.21ZM40.02-15.15L40.02-15.15L40.02-15.15Q43.05-15.15 45.74-16.87L45.74-16.87L45.74-16.87Q48.42-18.59 51.77-22.95L51.77-22.95L51.77-45.85L51.77-45.85Q48.74-45.85 45.97-44.48L45.97-44.48L45.97-44.48Q43.19-43.10 41.15-40.83L41.15-40.83L41.15-40.83Q39.11-38.55 37.54-35.71L37.54-35.71L37.54-35.71Q35.98-32.86 35.20-29.79L35.20-29.79L35.20-29.79Q34.42-26.71 34.42-23.87L34.42-23.87L34.42-23.87Q34.42-19.87 36.03-17.51L36.03-17.51L36.03-17.51Q37.64-15.15 40.02-15.15ZM115.80-65.82L107.82-62.51L107.82-10.51L107.82-10.51Q107.82-1.65 102.95 3.95L102.95 3.95L102.95 3.95Q98.08 9.55 87.99 12.39L87.99 12.39L87.67 9.41L87.67 9.41Q94.18 5.69 96.52 1.31L96.52 1.31L96.52 1.31Q98.87-3.08 98.87-11.29L98.87-11.29L98.87-62.51L90.42-65.82L90.42-67.70L115.80-67.70L115.80-65.82ZM138.84-5.19L147.29-1.88L147.29 0L121.91 0L121.91-1.88L130.35-5.19L130.35-39.66L121.91-42.96L121.91-44.84L137.88-48.15L138.84-47.18L138.84-5.19ZM127.28-61.96L127.28-61.96L127.28-61.96Q127.28-64.35 128.95-66.02L128.95-66.02L128.95-66.02Q130.63-67.70 133.11-67.70L133.11-67.70L133.11-67.70Q135.49-67.70 137.17-66.02L137.17-66.02L137.17-66.02Q138.84-64.35 138.84-61.96L138.84-61.96L138.84-61.96Q138.84-59.48 137.17-57.81L137.17-57.81L137.17-57.81Q135.49-56.13 133.11-56.13L133.11-56.13L133.11-56.13Q130.63-56.13 128.95-57.81L128.95-57.81L128.95-57.81Q127.28-59.48 127.28-61.96ZM195.30-6.38L203.74-4.04L203.74-2.34L187.77 1.15L186.85 0.18L186.85-4.22L186.85-4.22Q181.34 1.15 173.86 1.15L173.86 1.15L173.86 1.15Q170.05 1.15 166.52-0.57L166.52-0.57L166.52-0.57Q162.99-2.29 160.28-5.39L160.28-5.39L160.28-5.39Q157.57-8.49 155.94-13.20L155.94-13.20L155.94-13.20Q154.31-17.90 154.31-23.50L154.31-23.50L154.31-23.50Q154.31-28.96 156.17-33.60L156.17-33.60L156.17-33.60Q158.03-38.23 161.20-41.38L161.20-41.38L161.20-41.38Q164.36-44.52 168.68-46.29L168.68-46.29L168.68-46.29Q172.99-48.06 177.81-48.06L177.81-48.06L177.81-48.06Q182.17-48.06 186.85-46.54L186.85-46.54L186.85-63.16L178.36-66.46L178.36-68.34L194.38-71.65L195.30-70.68L195.30-6.38ZM186.85-9.23L186.85-9.23L186.85-41.08L186.85-41.08Q182.58-43.42 178.77-43.42L178.77-43.42L178.77-43.42Q172.30-43.42 168.10-37.71L168.10-37.71L168.10-37.71Q163.90-31.99 163.90-23.50L163.90-23.50L163.90-23.50Q163.90-14.60 167.37-9.18L167.37-9.18L167.37-9.18Q170.83-3.76 177.08-3.76L177.08-3.76L177.08-3.76Q182.81-3.76 186.85-9.23ZM227.29-5.19L235.73-1.88L235.73 0L210.35 0L210.35-1.88L218.80-5.19L218.80-39.66L210.35-42.96L210.35-44.84L226.33-48.15L227.29-47.18L227.29-5.19ZM215.72-61.96L215.72-61.96L215.72-61.96Q215.72-64.35 217.40-66.02L217.40-66.02L217.40-66.02Q219.07-67.70 221.55-67.70L221.55-67.70L221.55-67.70Q223.94-67.70 225.61-66.02L225.61-66.02L225.61-66.02Q227.29-64.35 227.29-61.96L227.29-61.96L227.29-61.96Q227.29-59.48 225.61-57.81L225.61-57.81L225.61-57.81Q223.94-56.13 221.55-56.13L221.55-56.13L221.55-56.13Q219.07-56.13 217.40-57.81L217.40-57.81L217.40-57.81Q215.72-59.48 215.72-61.96ZM258.73-5.19L266.72-1.88L266.72 0L241.84 0L241.84-1.88L250.28-5.19L250.28-39.66L241.84-42.96L241.84-44.84L257.81-48.15L258.73-47.18L258.73-41.63L258.73-41.63Q261.99-44.66 266.35-46.40L266.35-46.40L266.35-46.40Q270.71-48.15 274.93-48.15L274.93-48.15L274.93-48.15Q281.08-48.15 285.14-44.38L285.14-44.38L285.14-44.38Q289.21-40.62 289.21-33.18L289.21-33.18L289.21-5.19L297.65-1.88L297.65 0L272.73 0L272.73-1.88L280.76-5.19L280.76-30.38L280.76-30.38Q280.76-36.99 278.40-39.56L278.40-39.56L278.40-39.56Q276.03-42.13 270.30-42.13L270.30-42.13L270.30-42.13Q263.46-42.13 258.73-38.05L258.73-38.05L258.73-5.19ZM304.26-65.82L304.26-67.70L332.72-67.70L332.72-67.70Q339.92-67.70 345.89-65.52L345.89-65.52L345.89-65.52Q351.86-63.34 356.24-59.16L356.24-59.16L356.24-59.16Q360.62-54.99 363.08-48.49L363.08-48.49L363.08-48.49Q365.54-42.00 365.54-33.74L365.54-33.74L365.54-33.74Q365.54-23.82 361.36-16.13L361.36-16.13L361.36-16.13Q357.18-8.45 349.70-4.22L349.70-4.22L349.70-4.22Q342.22 0 332.63 0L332.63 0L304.26 0L304.26-1.88L312.71-5.19L312.71-62.51L304.26-65.82ZM332.08-62.79L332.08-62.79L321.66-62.79L321.66-4.87L332.35-4.87L332.35-4.87Q336.99-4.87 341.19-6.66L341.19-6.66L341.19-6.66Q345.39-8.45 348.67-11.84L348.67-11.84L348.67-11.84Q351.95-15.24 353.90-20.65L353.90-20.65L353.90-20.65Q355.85-26.07 355.85-32.82L355.85-32.82L355.85-32.82Q355.85-47.28 349.65-55.03L349.65-55.03L349.65-55.03Q343.46-62.79 332.08-62.79ZM390.92-5.19L399.36-1.88L399.36 0L373.98 0L373.98-1.88L382.43-5.19L382.43-39.66L373.98-42.96L373.98-44.84L389.95-48.15L390.92-47.18L390.92-5.19ZM379.35-61.96L379.35-61.96L379.35-61.96Q379.35-64.35 381.03-66.02L381.03-66.02L381.03-66.02Q382.70-67.70 385.18-67.70L385.18-67.70L385.18-67.70Q387.57-67.70 389.24-66.02L389.24-66.02L389.24-66.02Q390.92-64.35 390.92-61.96L390.92-61.96L390.92-61.96Q390.92-59.48 389.24-57.81L389.24-57.81L389.24-57.81Q387.57-56.13 385.18-56.13L385.18-56.13L385.18-56.13Q382.70-56.13 381.03-57.81L381.03-57.81L381.03-57.81Q379.35-59.48 379.35-61.96ZM422.36-5.19L430.34-1.88L430.34 0L405.47 0L405.47-1.88L413.91-5.19L413.91-39.66L405.47-42.96L405.47-44.84L421.44-48.15L422.36-47.18L422.36-41.63L422.36-41.63Q425.62-44.66 429.98-46.40L429.98-46.40L429.98-46.40Q434.34-48.15 438.56-48.15L438.56-48.15L438.56-48.15Q444.71-48.15 448.77-44.38L448.77-44.38L448.77-44.38Q452.83-40.62 452.83-33.18L452.83-33.18L452.83-5.19L461.28-1.88L461.28 0L436.36 0L436.36-1.88L444.39-5.19L444.39-30.38L444.39-30.38Q444.39-36.99 442.02-39.56L442.02-39.56L442.02-39.56Q439.66-42.13 433.92-42.13L433.92-42.13L433.92-42.13Q427.08-42.13 422.36-38.05L422.36-38.05L422.36-5.19ZM507.45-24.56L506.12-23.22L476.43-23.22L476.43-23.22Q476.47-18.08 477.89-14.27L477.89-14.27L477.89-14.27Q479.32-10.46 481.75-8.31L481.75-8.31L481.75-8.31Q484.18-6.15 487.10-5.14L487.10-5.14L487.10-5.14Q490.01-4.13 493.45-4.13L493.45-4.13L493.45-4.13Q498.23-4.13 503.69-7.34L503.69-7.34L505.11-4.59L505.11-4.59Q501.26-1.19 497.40-0.02L497.40-0.02L497.40-0.02Q493.55 1.15 488.63 1.15L488.63 1.15L488.63 1.15Q484.37 1.15 480.42-0.67L480.42-0.67L480.42-0.67Q476.47-2.48 473.49-5.67L473.49-5.67L473.49-5.67Q470.50-8.86 468.71-13.49L468.71-13.49L468.71-13.49Q466.92-18.13 466.92-23.50L466.92-23.50L466.92-23.50Q466.92-28.59 468.23-32.79L468.23-32.79L468.23-32.79Q469.54-36.99 471.70-39.79L471.70-39.79L471.70-39.79Q473.86-42.59 476.72-44.52L476.72-44.52L476.72-44.52Q479.59-46.45 482.60-47.30L482.60-47.30L482.60-47.30Q485.61-48.15 488.73-48.15L488.73-48.15L488.73-48.15Q492.63-48.15 495.96-46.70L495.96-46.70L495.96-46.70Q499.28-45.26 501.88-42.43L501.88-42.43L501.88-42.43Q504.47-39.61 505.96-35.02L505.96-35.02L505.96-35.02Q507.45-30.43 507.45-24.56L507.45-24.56ZM488.91-43.70L488.91-43.70L488.91-43.70Q483.63-43.70 480.49-39.52L480.49-39.52L480.49-39.52Q477.34-35.34 476.61-28.09L476.61-28.09L498.50-28.09L498.50-28.09Q498.50-35.43 496.02-39.56L496.02-39.56L496.02-39.56Q493.55-43.70 488.91-43.70ZM516.86-15.51L519.20-15.51L524.11-5.09L524.11-5.09Q524.71-4.73 525.58-4.43L525.58-4.43L525.58-4.43Q526.46-4.13 527.46-3.90L527.46-3.90L527.46-3.90Q528.47-3.67 529.53-3.53L529.53-3.53L529.53-3.53Q530.59-3.40 531.60-3.40L531.60-3.40L531.60-3.40Q533.94-3.40 535.84-3.88L535.84-3.88L535.84-3.88Q537.75-4.36 539.12-5.26L539.12-5.26L539.12-5.26Q540.50-6.15 541.23-7.46L541.23-7.46L541.23-7.46Q541.97-8.77 541.97-10.42L541.97-10.42L541.97-10.42Q541.97-12.58 540.20-14.53L540.20-14.53L540.20-14.53Q538.43-16.48 535.22-18.31L535.22-18.31L530.31-21.07L530.31-21.07Q527.69-22.44 525.42-23.91L525.42-23.91L525.42-23.91Q523.15-25.38 521.45-27.13L521.45-27.13L521.45-27.13Q519.75-28.87 518.77-30.98L518.77-30.98L518.77-30.98Q517.78-33.09 517.78-35.71L517.78-35.71L517.78-35.71Q517.78-38.88 519.02-41.22L519.02-41.22L519.02-41.22Q520.26-43.56 522.55-45.10L522.55-45.10L522.55-45.10Q524.85-46.63 528.08-47.39L528.08-47.39L528.08-47.39Q531.32-48.15 535.27-48.15L535.27-48.15L535.27-48.15Q541.33-48.15 547.38-46.17L547.38-46.17L547.20-32.91L545.32-32.91L540.45-43.70L540.45-43.70Q538.71-43.92 537.45-44.06L537.45-44.06L537.45-44.06Q536.19-44.20 535.36-44.20L535.36-44.20L535.36-44.20Q532.88-44.20 531.07-43.63L531.07-43.63L531.07-43.63Q529.25-43.05 528.08-42.11L528.08-42.11L528.08-42.11Q526.91-41.17 526.34-39.98L526.34-39.98L526.34-39.98Q525.77-38.78 525.77-37.50L525.77-37.50L525.77-37.50Q525.77-35.98 526.34-34.77L526.34-34.77L526.34-34.77Q526.91-33.55 528.04-32.45L528.04-32.45L528.04-32.45Q529.16-31.35 530.86-30.27L530.86-30.27L530.86-30.27Q532.56-29.19 534.81-28.00L534.81-28.00L534.81-28.00Q538.02-26.25 540.11-25.15L540.11-25.15L540.11-25.15Q542.20-24.05 543.12-23.41L543.12-23.41L543.12-23.41Q550.32-18.59 550.32-12.30L550.32-12.30L550.32-12.30Q550.32-8.90 548.69-6.36L548.69-6.36L548.69-6.36Q547.06-3.81 544.42-2.09L544.42-2.09L544.42-2.09Q541.79-0.37 538.48 0.48L538.48 0.48L538.48 0.48Q535.18 1.33 531.83 1.33L531.83 1.33L531.83 1.33Q530.08 1.33 528.06 1.10L528.06 1.10L528.06 1.10Q526.04 0.87 524.02 0.46L524.02 0.46L524.02 0.46Q522.00 0.05 520.14-0.53L520.14-0.53L520.14-0.53Q518.29-1.10 516.86-1.79L516.86-1.79L516.86-15.51ZM574.74-5.19L582.73-1.88L582.73 0L557.80 0L557.80-1.88L566.29-5.19L566.29-63.16L557.80-66.46L557.80-68.34L573.82-71.65L574.74-70.68L574.74-41.63L574.74-41.63Q577.95-44.66 582.31-46.40L582.31-46.40L582.31-46.40Q586.67-48.15 590.90-48.15L590.90-48.15L590.90-48.15Q597.09-48.15 601.15-44.38L601.15-44.38L601.15-44.38Q605.22-40.62 605.22-33.18L605.22-33.18L605.22-5.19L613.66-1.88L613.66 0L588.74 0L588.74-1.88L596.73-5.19L596.73-30.38L596.73-30.38Q596.73-36.99 594.38-39.56L594.38-39.56L594.38-39.56Q592.04-42.13 586.31-42.13L586.31-42.13L586.31-42.13Q579.47-42.13 574.74-38.05L574.74-38.05L574.74-5.19Z" fill="#000000"></path></g></g><style>text {
  font-size: 64px;
  font-family: Arial Black;
  dominant-baseline: central;
  text-anchor: middle;
}</style></svg>