<?xml version="1.0" standalone="no"?>
<!DOCTYPE svg PUBLIC "-//W3C//DTD SVG 20010904//EN"
 "http://www.w3.org/TR/2001/REC-SVG-20010904/DTD/svg10.dtd">
<svg version="1.0" xmlns="http://www.w3.org/2000/svg"
 width="1280.000000pt" height="1280.000000pt" viewBox="0 0 1280.000000 1280.000000"
 preserveAspectRatio="xMidYMid meet">
<metadata>
Created by potrace 1.16, written by Peter Selinger 2001-2019
</metadata>
<g transform="translate(0.000000,1280.000000) scale(0.100000,-0.100000)"
fill="#000000" stroke="none">
<path d="M5420 11960 c-14 -4 -61 -22 -104 -39 -44 -18 -105 -38 -135 -46
l-56 -13 38 -16 c20 -9 37 -22 37 -30 0 -12 -145 -96 -165 -96 -4 0 -4 16 -1
35 4 19 3 35 -1 35 -5 0 -55 -27 -113 -61 -58 -33 -143 -80 -191 -104 -109
-55 -113 -61 -104 -130 6 -53 5 -55 -20 -65 -14 -5 -36 -10 -49 -10 -12 0 -27
-5 -34 -12 -19 -19 5 -45 59 -63 89 -30 178 -128 164 -182 -4 -16 -79 -101
-183 -207 -189 -193 -292 -306 -411 -451 -105 -128 -170 -194 -214 -216 -22
-12 -49 -38 -65 -64 -15 -24 -38 -62 -51 -84 -17 -27 -37 -44 -65 -55 -48 -18
-194 -144 -268 -231 -67 -78 -94 -141 -108 -245 -16 -126 -45 -240 -85 -335
-50 -121 -56 -157 -64 -370 -8 -185 -17 -235 -44 -235 -6 0 -33 21 -59 47
l-48 47 0 -29 c0 -17 16 -66 36 -110 88 -196 107 -245 129 -330 58 -227 39
-356 -76 -526 -93 -135 -145 -298 -156 -480 -8 -136 -1 -169 36 -191 47 -26
46 -91 -3 -149 -31 -37 -32 -58 -7 -187 25 -129 40 -182 51 -182 11 0 25 46
41 130 7 36 14 67 16 69 1 3 45 -39 97 -91 51 -53 120 -116 154 -141 l61 -45
-31 -48 c-17 -27 -44 -77 -61 -112 -33 -71 -31 -106 8 -124 20 -9 35 -6 85 16
33 15 68 26 78 24 26 -5 42 -48 42 -116 0 -65 -8 -90 -42 -126 -26 -28 -19
-52 14 -48 61 7 77 -77 82 -433 5 -274 10 -303 48 -268 31 27 43 3 47 -98 1
-49 0 -101 -3 -114 -11 -45 -98 -72 -171 -54 -88 22 -159 108 -264 315 -134
265 -204 508 -285 983 -19 112 -39 208 -44 213 -20 20 -39 -1 -136 -144 -53
-78 -142 -201 -198 -273 -120 -156 -177 -250 -214 -356 -15 -43 -35 -87 -44
-97 -32 -34 -40 -61 -51 -169 -12 -117 0 -346 24 -438 11 -45 17 -52 57 -71
25 -12 84 -58 132 -103 49 -44 95 -81 103 -81 19 0 19 23 1 58 -41 80 -36 152
7 100 12 -14 39 -33 59 -41 48 -20 67 -52 78 -126 5 -33 21 -83 36 -111 30
-55 99 -124 114 -115 6 4 7 23 4 44 -7 44 4 56 41 47 15 -4 27 -16 31 -32 l6
-25 23 21 c26 25 28 23 74 -74 20 -40 41 -71 52 -73 11 -3 19 -9 19 -14 0 -5
-27 -38 -59 -74 -69 -76 -81 -114 -81 -253 2 -293 109 -460 330 -512 75 -18
267 -15 365 5 95 20 197 65 290 129 37 25 75 47 84 48 9 0 21 2 27 2 23 2 44
29 44 55 0 45 -25 122 -97 302 -102 253 -132 358 -207 727 -51 249 -89 470
-106 612 -18 156 -30 530 -30 980 0 642 18 915 71 1085 40 130 88 207 261 417
42 51 89 118 105 148 28 54 28 57 33 278 l5 224 27 21 c15 12 47 37 72 54 26
19 46 42 48 55 2 14 11 24 23 26 50 7 64 14 116 55 61 47 154 92 233 113 78
21 107 18 132 -13 26 -33 50 -26 59 19 3 18 9 41 12 52 6 22 71 52 134 61 25
4 52 10 59 15 14 9 14 8 -36 77 -14 19 -14 24 0 51 9 17 31 46 49 66 38 40 66
45 124 21 74 -31 94 -11 46 45 -21 26 -24 33 -12 41 25 16 68 -7 83 -45 2 -6
17 4 34 22 35 36 57 39 125 16 61 -21 76 -16 92 28 22 65 123 164 178 175 21
4 33 15 41 34 5 16 22 33 36 39 31 13 180 17 198 6 8 -5 22 -28 33 -53 23 -53
23 -53 149 3 129 57 157 57 288 -5 98 -46 119 -53 204 -60 101 -8 118 -14 118
-37 0 -21 9 -18 53 22 34 32 44 35 76 30 25 -4 46 -17 71 -46 39 -44 75 -62
165 -80 66 -14 115 -35 115 -51 0 -5 24 -21 54 -34 59 -26 68 -40 59 -86 l-6
-30 54 2 c30 2 64 -2 76 -9 29 -16 103 -165 103 -207 0 -22 -7 -37 -22 -47
-25 -17 -18 -35 18 -48 13 -5 78 -14 145 -19 67 -6 124 -13 127 -16 3 -3 -7
-19 -23 -35 -16 -16 -27 -32 -24 -34 2 -2 19 -11 37 -20 39 -20 40 -29 5 -55
-23 -16 -26 -23 -17 -38 14 -24 260 -148 345 -174 56 -17 72 -27 89 -54 22
-35 27 -105 9 -105 -34 0 30 -192 107 -325 26 -44 66 -114 90 -155 68 -118 99
-228 129 -448 14 -107 35 -239 46 -295 32 -163 39 -338 48 -1137 8 -690 15
-845 34 -790 26 72 42 174 52 313 7 96 20 146 43 164 14 11 14 15 0 30 -27 32
-27 50 -7 155 15 76 19 125 15 186 -3 45 -3 89 0 97 4 8 35 24 70 35 81 25
104 37 104 55 0 8 12 17 28 20 38 8 75 28 80 43 3 10 -7 11 -47 6 -48 -6 -51
-5 -60 19 -6 16 -21 29 -37 33 -22 6 -32 2 -50 -19 -13 -15 -27 -27 -32 -27
-16 0 -72 69 -72 89 0 14 6 17 29 13 58 -8 249 107 294 179 19 28 19 31 2 49
-20 22 -22 18 59 122 37 48 46 67 51 115 10 92 14 103 42 114 62 23 161 -48
184 -133 34 -129 -43 -738 -146 -1148 -42 -166 -63 -228 -154 -449 -76 -185
-130 -274 -204 -335 -93 -76 -152 -73 -261 13 -22 17 -43 28 -48 23 -4 -4 -19
-66 -33 -137 -85 -429 -247 -850 -422 -1091 -132 -183 -139 -206 -103 -324 23
-70 20 -108 -11 -136 -30 -27 -23 -51 24 -85 61 -46 156 -87 265 -115 54 -14
113 -36 132 -48 47 -32 76 -37 144 -26 73 12 149 47 205 94 64 54 104 67 218
75 57 4 105 10 108 13 4 3 -12 42 -34 87 -23 44 -41 86 -41 92 0 6 11 8 28 5
15 -3 58 -8 95 -12 64 -6 69 -5 74 15 5 19 12 21 74 21 50 0 81 6 114 22 45
22 46 22 116 4 38 -10 81 -15 94 -12 13 3 42 27 65 53 42 47 110 173 110 203
0 29 30 61 51 55 10 -4 19 -2 19 4 0 17 -36 31 -77 28 -32 -2 -38 1 -38 18 0
14 7 20 25 21 14 0 31 1 37 2 20 3 73 104 73 140 0 44 -16 72 -40 72 -26 0
-26 30 -1 57 13 14 32 21 55 21 20 0 55 11 80 26 44 25 106 88 106 107 0 16
-30 22 -55 11 -36 -16 -40 -3 -37 130 3 176 44 349 92 393 26 24 37 13 50 -50
7 -31 17 -55 24 -55 15 0 122 92 158 135 60 72 73 138 39 197 -11 18 -29 71
-41 117 -43 170 -92 229 -202 245 -61 9 -104 39 -150 105 -45 65 -98 207 -98
265 0 58 -33 102 -169 222 l-109 96 40 112 c21 61 56 149 77 196 39 88 65 177
77 267 5 44 3 57 -16 88 -20 33 -21 41 -11 75 7 25 19 41 34 46 12 4 25 12 29
18 4 6 5 67 2 136 -6 120 -5 126 18 160 33 49 84 81 125 78 52 -3 58 10 57
130 -2 123 -25 248 -52 275 -12 11 -44 22 -88 28 -93 13 -189 61 -231 116 -54
72 -93 300 -64 375 5 13 27 42 49 64 43 44 62 88 44 106 -7 7 -19 4 -38 -11
-30 -24 -49 -27 -61 -8 -4 6 -8 118 -8 247 -1 213 -4 254 -33 435 -17 110 -34
237 -38 281 -7 87 -8 84 50 132 19 16 15 39 -27 136 -39 92 -104 200 -192 316
-69 91 -95 131 -95 145 0 4 25 3 55 0 32 -4 55 -3 55 2 0 18 -55 61 -141 112
-48 28 -98 64 -112 80 -17 21 -31 28 -45 24 -44 -11 -133 70 -181 164 -14 28
-21 61 -21 97 0 52 -3 58 -43 98 -45 46 -137 214 -137 252 0 13 -28 53 -70
101 -74 82 -90 115 -70 140 18 22 52 18 90 -10 41 -30 40 -30 40 -5 0 31 -40
49 -131 60 -46 6 -123 24 -172 41 -57 19 -116 31 -170 35 -118 7 -163 22 -216
67 -25 22 -75 54 -111 70 l-65 29 39 34 c40 35 93 51 123 39 10 -3 84 -19 164
-35 80 -16 153 -32 162 -36 26 -10 20 12 -9 35 -31 24 -121 54 -234 77 -105
21 -196 15 -285 -21 -105 -41 -234 -75 -287 -75 -96 0 -185 50 -418 236 -232
185 -308 273 -294 342 5 25 2 30 -20 36 -57 14 -340 -66 -476 -134 -41 -21
-91 -54 -109 -74 -19 -20 -41 -36 -48 -36 -7 0 -38 20 -69 45 -86 70 -176 110
-349 154 -183 46 -392 65 -465 41z"/>
<path d="M7955 7495 c-22 -8 -41 -15 -43 -15 -2 0 -2 -10 0 -22 2 -16 18 -31
52 -48 92 -47 62 -67 -83 -56 -320 23 -501 16 -564 -23 -18 -11 -48 -19 -68
-18 -28 1 -55 -12 -122 -56 -97 -65 -138 -107 -130 -136 3 -11 -7 -39 -21 -63
-37 -64 -35 -68 33 -68 134 0 501 45 606 75 44 12 455 83 575 99 42 6 49 3
102 -38 69 -55 158 -160 158 -187 0 -49 70 -27 102 33 27 50 22 96 -18 177
-61 121 -220 264 -378 337 -59 28 -139 31 -201 9z"/>
<path d="M4474 7482 c-8 -11 -34 -21 -78 -29 -133 -23 -321 -141 -345 -216
-32 -104 -19 -212 31 -259 35 -32 48 -29 48 12 0 20 9 35 29 50 16 11 31 30
33 43 6 40 59 57 185 57 198 0 446 -42 865 -146 291 -72 444 -96 477 -75 49
31 -168 323 -330 446 -33 24 -85 56 -117 72 l-57 28 -310 0 c-274 0 -315 2
-349 18 -49 22 -68 22 -82 -1z"/>
<path d="M4775 6730 c-33 -10 -87 -26 -120 -35 -67 -19 -294 -143 -295 -161
-1 -30 87 -32 172 -3 33 11 92 36 130 55 37 19 91 43 118 54 l50 20 19 -30
c10 -17 23 -54 30 -83 28 -126 109 -211 199 -211 56 1 119 30 156 74 41 49 74
111 84 158 9 38 8 46 -15 72 -29 34 -107 62 -241 84 -156 26 -221 27 -287 6z"/>
<path d="M7621 6719 c-46 -5 -113 -16 -150 -24 -67 -16 -171 -62 -171 -76 0
-11 67 -135 98 -182 47 -71 120 -97 216 -77 93 19 132 66 186 223 13 37 27 67
31 67 4 0 55 -33 113 -74 139 -97 211 -121 296 -97 22 6 19 10 -41 37 -36 17
-88 52 -117 77 -36 32 -70 52 -110 63 -31 9 -75 27 -97 40 -49 28 -136 36
-254 23z"/>
<path d="M6150 4211 c-62 -10 -83 -23 -175 -108 -97 -91 -160 -133 -195 -133
-38 0 -55 -22 -39 -52 38 -74 247 -292 333 -347 156 -101 298 -91 470 33 33
25 123 107 200 184 l138 140 -63 42 c-35 23 -104 82 -154 131 -49 48 -103 93
-120 100 -35 13 -329 21 -395 10z"/>
<path d="M5204 2705 c-16 -40 29 -118 80 -139 18 -8 51 -35 72 -62 80 -97 108
-125 141 -139 19 -8 59 -37 90 -64 31 -28 70 -53 87 -57 17 -3 41 -16 54 -27
21 -20 38 -22 270 -28 136 -4 297 -12 357 -19 61 -6 156 -12 212 -12 l102 -1
118 57 c65 31 130 56 143 56 62 1 172 77 197 137 29 70 -30 130 -101 103 -15
-5 -54 -32 -88 -59 -87 -70 -152 -103 -201 -103 -23 1 -91 -15 -152 -35 -94
-30 -128 -36 -230 -41 -118 -4 -123 -4 -190 26 -46 20 -121 39 -220 57 -257
45 -330 70 -439 152 -33 24 -72 47 -88 50 -23 4 -28 11 -28 34 0 24 -4 29 -24
29 -46 0 -87 22 -112 61 -26 41 -41 49 -50 24z"/>
<path d="M3256 2367 c-68 -99 -137 -334 -151 -520 -6 -72 -12 -94 -31 -116
-41 -49 -173 -92 -513 -166 -113 -25 -246 -57 -296 -70 -80 -21 -198 -39 -390
-60 -109 -12 -259 -46 -308 -70 -69 -35 -111 -44 -250 -55 -94 -7 -148 -17
-217 -40 -103 -34 -196 -49 -310 -50 -41 0 -103 -7 -137 -15 -68 -16 -203 -80
-243 -115 l-25 -21 90 6 c125 9 361 50 421 73 50 20 140 37 254 47 108 10 182
26 222 46 57 29 150 46 370 69 108 11 255 31 326 45 72 13 178 29 238 35 122
12 205 26 457 75 98 19 209 38 246 41 66 6 68 6 74 -17 4 -13 11 -112 17 -219
29 -536 35 -590 65 -590 20 0 35 32 35 75 0 20 12 62 27 93 27 55 28 64 28
212 0 127 -3 165 -19 212 -20 59 -19 72 16 120 10 14 8 22 -10 47 -27 37 -28
61 -3 92 10 13 22 35 26 49 5 14 9 174 10 355 1 307 3 335 23 399 32 103 15
116 -42 33z"/>
<path d="M9720 2122 c0 -5 19 -58 41 -118 56 -146 90 -287 87 -349 -3 -46 -5
-50 -29 -53 -15 -2 -53 6 -85 18 -92 34 -109 35 -149 10 -20 -12 -37 -21 -38
-19 -21 40 -27 44 -61 47 -22 2 -47 -3 -61 -12 -24 -16 -51 -78 -41 -95 4 -5
41 -17 84 -26 333 -72 367 -83 398 -130 11 -18 18 -65 25 -172 8 -135 19 -242
79 -823 11 -102 20 -217 20 -257 0 -63 -2 -72 -20 -78 -64 -20 -786 -27 -3607
-32 l-3113 -5 0 290 c0 325 1 322 -69 322 -70 0 -72 -4 -82 -216 -8 -167 -20
-301 -35 -371 l-4 -23 -563 -3 c-309 -1 1533 -3 4093 -3 2662 0 4469 3 4220 7
-504 10 -696 21 -718 42 -12 13 -12 16 7 22 35 11 44 71 38 265 -6 171 -16
272 -57 575 -11 83 -23 221 -27 308 l-6 158 24 -5 c13 -3 62 -12 109 -21 47
-9 117 -25 155 -35 74 -20 107 -25 440 -66 328 -40 475 -68 626 -118 138 -46
169 -53 169 -37 0 34 -466 173 -965 287 -344 79 -517 123 -533 136 -25 21 -62
95 -97 194 -61 169 -126 294 -193 367 -24 25 -62 37 -62 19z"/>
</g>
</svg>
