<?xml version="1.0" standalone="no"?>
<!DOCTYPE svg PUBLIC "-//W3C//DTD SVG 20010904//EN"
 "http://www.w3.org/TR/2001/REC-SVG-20010904/DTD/svg10.dtd">
<svg version="1.0" xmlns="http://www.w3.org/2000/svg"
 width="1500.000000pt" height="500.000000pt" viewBox="0 0 1500.000000 500.000000"
 preserveAspectRatio="xMidYMid meet">

<g transform="translate(0.000000,500.000000) scale(0.100000,-0.100000)"
fill="#000000" stroke="none">
<path d="M4750 3478 c-80 -16 -155 -31 -167 -34 -20 -4 -23 -11 -23 -47 l0
-43 40 4 c52 5 86 -17 99 -65 6 -21 11 -135 11 -254 l0 -216 -132 1 c-150 1
-207 -12 -319 -70 -138 -72 -246 -203 -303 -363 -27 -77 -30 -99 -30 -206 -1
-172 35 -279 127 -380 109 -121 301 -179 410 -124 23 12 88 51 145 86 98 62
122 69 122 37 0 -28 39 -92 69 -114 17 -11 55 -26 85 -32 47 -10 60 -10 91 5
45 21 119 89 156 143 26 38 27 43 12 63 -14 20 -17 21 -32 7 -28 -25 -88 -46
-134 -46 -49 0 -83 24 -93 67 -9 35 3 899 16 1138 5 105 15 240 22 300 17 160
17 170 -7 171 -11 1 -85 -11 -165 -28z m-155 -808 c22 -6 57 -18 78 -27 l37
-16 0 -338 0 -339 -42 -31 c-77 -56 -177 -99 -233 -99 -202 0 -355 257 -317
530 22 154 99 264 216 309 58 23 194 28 261 11z"/>
<path d="M13456 3495 c-27 -8 -92 -21 -145 -30 -153 -26 -141 -20 -141 -65 0
-38 2 -40 30 -40 57 0 98 -25 109 -67 15 -52 15 -1383 0 -1436 -11 -41 -56
-77 -95 -77 -23 0 -34 -23 -34 -72 l0 -28 205 -2 c113 -1 217 -2 232 -2 24 -1
28 4 38 52 14 62 8 68 -51 59 -48 -8 -90 9 -103 41 -8 18 -10 134 -9 362 l3
335 55 37 c140 93 286 120 367 66 26 -17 49 -45 64 -75 29 -59 34 -164 21
-485 -9 -248 -11 -255 -95 -296 -42 -22 -47 -28 -53 -68 -3 -25 -5 -46 -3 -48
2 -2 45 3 94 10 56 9 145 14 235 12 l145 -3 6 30 c4 17 7 42 8 58 1 27 1 27
-60 25 -56 -3 -63 -1 -85 25 -22 26 -24 36 -24 140 1 62 9 212 19 335 25 311
13 374 -84 460 -57 50 -129 75 -216 76 -56 1 -76 -4 -140 -36 -41 -20 -113
-62 -159 -92 l-85 -55 -3 67 c-4 83 15 479 30 627 17 161 17 170 -7 172 -11 1
-42 -5 -69 -12z"/>
<path d="M3413 3370 c-65 -39 -89 -118 -58 -184 23 -47 65 -70 121 -63 89 10
150 96 125 177 -24 81 -115 115 -188 70z"/>
<path d="M5443 3374 c-47 -23 -73 -71 -73 -133 0 -41 5 -56 28 -82 37 -42 110
-51 160 -20 65 42 91 126 57 191 -29 56 -107 76 -172 44z"/>
<path d="M9233 3374 c-47 -23 -73 -71 -73 -133 0 -41 5 -56 28 -82 37 -42 110
-51 160 -20 65 42 91 126 57 191 -29 56 -107 76 -172 44z"/>
<path d="M2945 3269 c-33 -4 -155 -7 -272 -8 l-211 -1 -6 -30 c-3 -16 -9 -43
-12 -60 l-6 -30 87 3 c139 3 126 76 123 -712 -3 -648 -4 -668 -24 -728 -12
-34 -33 -82 -48 -106 -26 -46 -107 -124 -157 -154 -16 -10 -29 -25 -29 -34 0
-21 32 -79 44 -79 4 0 40 17 80 37 91 47 201 156 239 236 16 32 37 93 48 135
21 81 21 81 49 962 6 190 16 362 21 382 11 43 39 66 91 74 33 6 38 11 44 39 3
17 4 43 2 56 -3 23 -5 24 -63 18z"/>
<path d="M7397 3223 c-14 -80 -14 -80 51 -75 51 4 62 1 88 -21 l29 -25 -3
-604 c-3 -470 -7 -610 -17 -635 -16 -37 -48 -60 -119 -84 -54 -19 -63 -32 -65
-97 -1 -29 2 -32 22 -27 121 27 283 30 483 9 171 -18 249 -13 371 22 152 44
262 113 378 236 148 156 222 335 232 559 7 154 -12 252 -74 379 -85 175 -250
307 -463 371 -72 22 -93 23 -491 27 l-416 3 -6 -38z m743 -108 c158 -41 311
-144 385 -260 80 -125 115 -304 95 -496 -19 -194 -72 -320 -180 -430 -114
-116 -229 -154 -442 -147 -107 3 -129 7 -167 28 -81 45 -86 63 -84 307 4 365
32 995 46 1011 16 20 255 10 347 -13z"/>
<path d="M1290 3189 c-632 -57 -1063 -680 -904 -1307 61 -243 200 -435 409
-563 132 -82 304 -136 486 -152 l55 -5 34 49 c18 27 31 51 29 53 -2 1 -44 8
-92 15 -351 48 -602 232 -711 523 -51 135 -61 200 -60 388 0 161 3 182 28 264
15 50 48 131 74 180 38 74 63 108 142 186 106 106 187 159 301 195 219 69 458
52 658 -46 154 -76 266 -217 311 -395 25 -98 27 -291 5 -379 -45 -173 -143
-289 -291 -344 -64 -24 -214 -45 -227 -32 -18 18 88 551 166 838 38 136 36
142 -28 169 -36 15 -40 15 -52 -2 -7 -10 -13 -24 -13 -31 0 -17 3 -17 -146 7
-119 20 -128 20 -182 5 -78 -23 -136 -59 -207 -130 -150 -147 -251 -365 -276
-592 -26 -230 38 -407 156 -429 42 -8 75 16 192 139 86 92 172 211 254 357 31
55 55 88 57 78 2 -9 -15 -99 -37 -200 -22 -101 -46 -216 -53 -257 l-12 -73 29
-25 c28 -25 33 -26 125 -20 364 23 630 241 711 582 45 189 22 387 -63 547
-154 290 -478 442 -868 407z m112 -528 c46 -16 115 -46 126 -56 2 -2 -20 -54
-49 -116 -61 -135 -169 -331 -241 -437 -68 -100 -167 -202 -196 -202 -74 0
-99 313 -41 505 41 137 111 248 186 295 57 36 131 40 215 11z"/>
<path d="M3549 2815 c-25 -7 -101 -23 -170 -35 -68 -13 -125 -24 -126 -25 -1
0 -5 -20 -9 -43 l-7 -42 47 0 c26 0 56 -4 66 -10 36 -19 40 -62 40 -432 0
-417 2 -409 -85 -454 -52 -28 -53 -29 -57 -77 -3 -44 -1 -47 17 -43 68 16 214
28 325 24 l128 -3 10 50 c6 27 8 53 6 57 -3 4 -30 6 -62 5 -68 -1 -79 4 -98
49 -29 70 -2 791 36 931 13 50 -4 63 -61 48z"/>
<path d="M5612 2823 c-7 -3 -85 -19 -175 -37 l-162 -33 -3 -41 -3 -41 52 -3
c44 -3 55 -8 73 -31 20 -28 21 -38 21 -407 0 -431 4 -413 -88 -458 -42 -22
-47 -28 -53 -68 -3 -25 -5 -47 -3 -49 3 -2 47 3 99 11 58 9 150 14 235 12
l140 -2 6 29 c4 17 7 43 8 59 1 28 0 29 -43 23 -60 -9 -101 7 -117 44 -24 59
0 758 32 916 11 54 3 83 -19 76z"/>
<path d="M6289 2826 c-2 -3 -74 -19 -159 -37 -85 -17 -158 -37 -162 -43 -4 -6
-8 -25 -8 -42 0 -30 2 -32 48 -38 103 -14 102 -9 102 -443 0 -347 -1 -370 -20
-400 -13 -22 -32 -36 -61 -44 -44 -14 -44 -14 -53 -70 l-6 -36 235 1 c163 1
236 4 239 12 2 6 7 32 11 57 l7 46 -67 -2 c-114 -3 -120 18 -105 358 5 127 10
264 10 307 l0 76 57 38 c79 53 166 86 238 91 103 8 178 -48 206 -151 7 -27 10
-143 8 -341 -5 -345 -5 -347 -94 -395 -48 -26 -50 -29 -53 -74 -3 -42 -1 -47
15 -43 56 16 215 29 326 26 141 -4 130 -10 142 68 l7 43 -67 -2 c-80 -3 -98
12 -110 88 -7 48 -6 73 20 439 11 153 13 225 5 264 -27 145 -147 241 -303 244
-66 1 -79 -2 -152 -40 -44 -23 -116 -64 -160 -91 -92 -58 -94 -56 -72 50 7 36
11 70 9 77 -4 11 -24 15 -33 7z"/>
<path d="M9402 2823 c-7 -3 -85 -19 -175 -37 l-162 -33 -3 -41 -3 -41 52 -3
c44 -3 55 -8 73 -31 20 -28 21 -38 21 -407 0 -431 4 -413 -88 -458 -42 -22
-47 -28 -53 -68 -3 -25 -5 -47 -3 -49 3 -2 47 3 99 11 58 9 150 14 235 12
l140 -2 6 29 c4 17 7 43 8 59 1 28 0 29 -43 23 -60 -9 -101 7 -117 44 -24 59
0 758 32 916 11 54 3 83 -19 76z"/>
<path d="M10079 2826 c-2 -3 -74 -19 -159 -37 -85 -17 -158 -37 -162 -43 -4
-6 -8 -25 -8 -42 0 -30 2 -32 48 -38 103 -14 102 -9 102 -443 0 -347 -1 -370
-20 -400 -13 -22 -32 -36 -61 -44 -44 -14 -44 -14 -53 -70 l-6 -36 235 1 c163
1 236 4 239 12 2 6 7 32 11 57 l7 46 -67 -2 c-114 -3 -120 18 -105 358 5 127
10 264 10 307 l0 76 57 38 c79 53 166 86 238 91 103 8 178 -48 206 -151 7 -27
10 -143 8 -341 -5 -345 -5 -347 -94 -395 -48 -26 -50 -29 -53 -74 -3 -42 -1
-47 15 -43 56 16 215 29 326 26 141 -4 130 -10 142 68 l7 43 -67 -2 c-80 -3
-98 12 -110 88 -7 48 -6 73 20 439 11 153 13 225 5 264 -27 145 -147 241 -303
244 -66 1 -79 -2 -152 -40 -44 -23 -116 -64 -160 -91 -92 -58 -94 -56 -72 50
7 36 11 70 9 77 -4 11 -24 15 -33 7z"/>
<path d="M11550 2820 c-192 -40 -377 -231 -436 -450 -22 -80 -24 -252 -5 -330
36 -146 136 -278 253 -333 187 -88 343 -71 551 63 l77 49 -13 33 c-17 40 -32
40 -137 3 -98 -36 -223 -44 -302 -21 -150 43 -242 188 -255 399 l-6 87 346 0
347 0 14 23 c21 33 28 125 16 201 -28 175 -137 269 -327 280 -43 3 -98 1 -123
-4z m164 -149 c20 -13 46 -42 58 -64 23 -47 30 -139 11 -158 -12 -12 -100 -20
-360 -34 -152 -7 -146 -12 -112 82 33 87 114 166 199 194 48 16 164 4 204 -20z"/>
<path d="M12605 2820 c-155 -28 -276 -112 -328 -228 -28 -64 -28 -162 0 -218
43 -81 96 -123 311 -244 124 -70 185 -117 207 -161 33 -62 10 -124 -62 -165
-37 -23 -62 -29 -130 -32 -139 -7 -206 32 -238 140 -8 29 -15 74 -15 101 l0
50 -41 -6 c-22 -3 -42 -7 -44 -9 -2 -1 -8 -68 -15 -148 -6 -80 -14 -155 -17
-168 -4 -18 1 -25 33 -38 52 -22 175 -43 250 -44 253 -1 464 157 465 348 1
137 -52 188 -400 386 -126 71 -180 158 -145 231 56 119 316 126 374 10 8 -17
14 -58 15 -92 l0 -63 42 0 c49 0 42 -15 68 155 9 61 19 122 22 136 5 26 3 27
-68 44 -91 20 -217 27 -284 15z"/>
</g>
</svg>
