<?xml version="1.0" standalone="no"?>
<!DOCTYPE svg PUBLIC "-//W3C//DTD SVG 20010904//EN"
 "http://www.w3.org/TR/2001/REC-SVG-20010904/DTD/svg10.dtd">
<svg version="1.0" xmlns="http://www.w3.org/2000/svg"
 width="1280.000000pt" height="1562.000000pt" viewBox="0 0 1280.000000 1562.000000"
 preserveAspectRatio="xMidYMid meet">
<metadata>
Created by potrace 1.16, written by Peter Selinger 2001-2019
</metadata>
<g transform="translate(0.000000,1562.000000) scale(0.100000,-0.100000)"
fill="#000000" stroke="none">
<path d="M5344 14732 c-54 -27 -120 -57 -146 -67 -26 -10 -53 -24 -59 -31 -9
-12 -4 -14 32 -14 l44 0 -25 -20 c-38 -30 -161 -93 -168 -86 -3 4 2 22 11 41
l17 35 -43 -21 c-23 -12 -100 -55 -170 -96 -71 -41 -149 -84 -174 -95 l-46
-20 6 -64 6 -63 -48 -7 c-94 -12 -94 -38 1 -89 30 -16 71 -42 90 -57 44 -34
83 -106 75 -139 -8 -31 -71 -98 -162 -170 -39 -31 -90 -80 -115 -109 -25 -29
-95 -103 -156 -164 -62 -61 -120 -127 -129 -146 -38 -76 -175 -235 -225 -260
-46 -24 -102 -86 -134 -148 -21 -41 -31 -50 -67 -61 -32 -10 -68 -39 -159
-129 -64 -65 -139 -147 -167 -184 l-50 -67 -6 -108 c-9 -158 -21 -205 -85
-338 l-57 -120 -7 -205 c-9 -285 -16 -304 -86 -231 -37 39 -82 55 -82 30 0 -6
16 -36 35 -67 50 -82 98 -207 138 -362 42 -159 48 -197 49 -282 0 -73 -17
-121 -66 -181 -119 -146 -206 -394 -211 -601 l-2 -109 48 -54 c59 -64 65 -99
19 -115 -19 -6 -32 -19 -36 -35 -9 -36 3 -195 21 -277 25 -118 47 -115 70 10
8 43 18 85 21 93 3 10 31 -11 92 -70 48 -47 112 -105 142 -129 30 -24 59 -47
64 -51 5 -4 -5 -29 -22 -56 -71 -111 -93 -201 -53 -223 28 -14 74 -12 97 5 26
20 100 20 112 -1 5 -9 7 -50 4 -92 -4 -69 -7 -80 -34 -109 -35 -36 -32 -63 7
-63 36 0 61 -30 74 -89 15 -73 14 -125 -6 -165 -15 -33 -15 -40 0 -111 11 -50
17 -122 17 -215 0 -149 6 -164 46 -119 18 20 18 20 26 0 4 -11 8 -70 9 -132
l1 -112 -33 -14 c-48 -21 -127 -19 -179 4 -87 39 -108 65 -206 268 -176 364
-205 455 -269 845 -47 291 -65 394 -70 399 -9 9 -41 -29 -145 -173 -59 -83
-133 -182 -164 -221 -129 -160 -248 -365 -260 -446 -4 -30 -16 -54 -31 -69
-37 -35 -46 -79 -52 -255 -4 -141 -3 -169 16 -239 12 -44 21 -90 21 -102 0
-13 4 -34 10 -49 8 -22 12 -24 29 -13 16 10 25 7 58 -17 57 -44 92 -83 119
-138 22 -42 29 -48 52 -45 37 4 40 43 8 107 -24 46 -34 91 -21 91 3 0 28 -16
56 -35 28 -19 55 -35 59 -35 15 0 48 -65 55 -110 11 -67 44 -149 65 -160 10
-6 22 -20 26 -32 8 -28 22 -38 52 -38 20 0 22 5 22 45 0 41 2 45 25 45 18 0
28 -7 35 -25 11 -29 18 -30 47 -10 24 17 25 16 43 -40 17 -54 55 -103 82 -107
40 -5 28 -39 -29 -78 -64 -44 -79 -68 -94 -154 -15 -91 -7 -295 15 -361 43
-124 145 -219 286 -266 97 -31 266 -34 378 -5 69 17 237 96 332 156 25 16 57
32 71 35 15 4 38 19 52 33 l24 27 -73 174 c-172 405 -215 567 -339 1296 l-56
329 4 826 c3 546 8 844 16 881 17 87 77 261 117 341 20 40 64 105 99 143 151
170 230 296 236 375 2 19 -1 56 -5 82 -6 33 -3 62 8 102 15 52 15 60 -1 122
l-18 66 36 31 c19 18 57 47 83 65 27 18 50 41 53 52 3 10 33 33 66 51 34 18
82 54 107 79 40 41 51 47 101 53 31 4 75 14 99 22 63 22 97 19 116 -10 9 -14
26 -25 39 -25 19 0 23 7 28 42 8 60 46 94 130 114 38 10 71 24 74 31 8 20 -16
61 -40 69 -18 6 -18 7 6 32 14 15 32 41 41 59 33 65 88 80 138 38 26 -22 68
-34 68 -19 0 3 -13 25 -30 49 -50 73 -41 80 52 38 63 -28 77 -24 78 19 0 28
13 28 66 3 27 -13 66 -27 86 -31 l37 -6 12 46 c22 86 107 174 191 196 34 10
38 14 36 38 l-3 27 100 7 c55 4 105 6 110 4 6 -2 20 -24 33 -49 34 -69 43 -73
95 -43 24 14 51 26 61 26 9 0 46 14 83 30 36 17 70 30 74 30 5 0 80 -34 166
-75 87 -42 163 -73 170 -71 7 3 13 12 13 21 0 23 65 20 90 -5 11 -11 20 -24
20 -30 0 -20 21 -9 59 30 l38 40 41 -23 c23 -12 44 -32 47 -44 4 -17 19 -26
63 -38 31 -9 71 -22 88 -30 17 -7 56 -16 88 -20 49 -6 59 -11 72 -37 10 -18
32 -36 61 -49 45 -19 45 -19 41 -64 l-3 -46 65 7 65 6 48 -94 c53 -103 58
-140 25 -175 -28 -30 -16 -40 62 -48 30 -3 65 -8 76 -10 23 -5 175 -132 181
-152 3 -8 -11 -13 -38 -15 -23 -2 -44 -8 -46 -15 -3 -7 18 -23 46 -37 28 -15
77 -43 110 -65 36 -23 103 -52 163 -71 57 -17 112 -35 124 -40 18 -7 25 -23
62 -148 3 -9 -3 -10 -21 -3 -14 5 -27 7 -30 4 -7 -7 54 -177 92 -258 16 -33
58 -109 95 -170 134 -219 138 -232 166 -535 6 -63 19 -147 29 -185 46 -171 61
-509 61 -1385 0 -400 4 -689 9 -680 16 26 63 203 66 245 2 22 8 60 14 85 5 25
10 75 11 111 0 53 5 73 25 102 22 34 23 38 7 47 -43 25 -43 23 -11 116 29 85
30 94 24 201 -7 127 -11 121 85 143 39 9 66 23 95 50 22 21 53 44 69 51 16 8
32 20 34 27 3 11 0 12 -16 3 -34 -18 -72 -13 -104 14 -36 30 -67 32 -101 5
l-25 -20 -36 43 c-44 53 -45 62 -6 42 37 -19 38 -19 42 7 2 16 12 24 35 29 49
10 139 68 189 121 43 47 53 71 34 83 -18 11 -10 36 20 62 42 35 69 91 86 180
17 88 18 91 51 104 62 23 161 -39 182 -116 23 -84 6 -332 -45 -665 -57 -369
-120 -616 -201 -790 -19 -41 -51 -122 -70 -180 -41 -127 -103 -230 -180 -300
l-57 -52 -71 4 c-62 3 -77 7 -110 33 -58 46 -64 50 -70 43 -4 -3 -35 -118 -70
-255 -151 -595 -182 -669 -454 -1061 -77 -111 -78 -122 -30 -283 9 -30 8 -43
-6 -73 -10 -20 -24 -36 -31 -36 -22 0 -16 -27 9 -47 47 -37 234 -125 292 -138
33 -7 87 -23 119 -35 36 -13 96 -24 148 -27 97 -7 105 -3 220 88 82 65 205
101 254 76 26 -14 32 -14 56 1 16 9 28 20 28 24 0 4 -13 30 -30 56 -16 27 -30
59 -30 70 0 28 40 38 187 50 90 7 122 14 166 36 l54 28 68 -21 c75 -23 115
-27 115 -10 0 6 23 37 52 68 51 56 87 120 88 154 0 10 7 31 16 48 14 28 14 31
-5 47 -32 28 -30 50 8 69 56 29 76 65 76 138 0 35 3 67 8 71 16 17 5 25 -28
18 -41 -7 -44 2 -14 40 19 24 26 27 59 21 31 -5 42 -2 67 19 17 14 35 26 40
26 5 0 27 18 48 41 l40 40 -24 20 c-24 19 -24 19 -58 -1 -19 -11 -37 -20 -40
-20 -11 0 6 73 22 89 13 16 13 28 -5 125 l-20 108 29 61 c15 34 37 85 47 112
14 36 25 50 39 50 16 0 22 -11 30 -55 17 -84 37 -81 138 24 144 149 150 161
103 241 -14 23 -28 66 -31 96 -21 176 -89 257 -243 289 -71 16 -104 52 -166
180 -45 94 -51 112 -51 172 0 63 -2 69 -35 103 -19 21 -74 71 -123 112 -48 41
-94 88 -102 103 -14 26 -13 34 4 77 10 26 21 66 25 88 4 22 28 77 53 123 32
59 47 102 54 149 5 36 23 97 39 137 17 39 30 75 30 81 0 5 -14 18 -30 27 -50
28 -35 98 24 118 41 13 41 15 22 61 -15 37 -20 76 -17 157 1 50 5 57 53 108
53 57 55 57 116 39 18 -6 22 -4 22 16 0 13 7 32 15 42 26 35 29 94 6 155 -11
31 -25 91 -31 132 -6 41 -15 79 -20 84 -5 5 -44 14 -87 21 -94 16 -183 48
-222 81 -33 27 -45 53 -66 148 -8 38 -23 84 -32 103 -15 33 -15 35 6 64 l22
30 -25 30 c-23 27 -26 59 -5 59 16 0 100 82 115 112 26 50 -6 66 -46 23 -52
-55 -60 -33 -60 171 0 188 -14 360 -45 574 -24 162 -32 305 -17 325 4 6 16 15
27 21 32 18 23 62 -39 186 -36 73 -93 162 -161 253 -58 77 -105 143 -105 147
0 5 22 8 48 8 27 0 56 6 67 14 17 12 13 16 -46 48 -245 135 -355 200 -364 215
-5 10 -22 30 -37 44 -14 15 -32 46 -38 70 -7 24 -18 62 -26 84 -8 23 -14 47
-14 55 0 8 -20 44 -45 81 -57 86 -109 194 -102 217 3 9 8 24 11 33 5 12 -4 20
-37 33 -46 17 -78 46 -121 111 -34 52 -33 62 11 74 34 10 40 8 64 -15 44 -42
67 -10 29 39 -19 24 -24 25 -89 20 -61 -5 -80 -2 -174 30 -69 24 -138 40 -203
47 -134 14 -132 13 -196 63 -31 24 -82 54 -112 67 -31 12 -56 26 -56 30 0 23
92 79 131 80 8 0 33 -13 55 -30 48 -36 52 -36 64 -5 9 24 10 24 57 10 110 -34
173 -49 180 -41 10 10 -15 24 -117 64 -191 76 -272 81 -402 28 -128 -52 -244
-86 -298 -86 -67 0 -141 31 -240 100 -47 32 -123 85 -169 117 -105 72 -233
192 -255 238 -11 23 -24 35 -37 35 -27 0 -34 24 -20 72 19 63 9 66 -117 41
-59 -12 -152 -38 -207 -57 -55 -19 -120 -42 -145 -50 -25 -9 -57 -18 -72 -21
-17 -3 -40 -22 -60 -50 -18 -24 -39 -44 -47 -45 -8 0 -46 22 -85 49 -39 26
-90 58 -113 70 -78 39 -398 111 -495 111 -21 0 -55 7 -75 15 -57 24 -93 18
-199 -33z m3983 -2004 c81 -60 163 -133 169 -152 3 -12 25 -46 49 -76 23 -30
50 -69 59 -87 15 -30 22 -83 11 -83 -16 0 -129 64 -185 105 -70 52 -270 251
-270 270 0 17 60 44 100 44 22 1 48 -8 67 -21z"/>
<path d="M8030 10310 c-49 -14 -110 -51 -110 -66 0 -8 23 -29 51 -47 l51 -31
-26 -23 -27 -23 -38 20 c-34 17 -40 17 -59 4 -19 -13 -29 -12 -94 8 -60 19
-95 23 -203 23 -124 0 -134 -1 -209 -33 -65 -27 -87 -32 -122 -26 -40 6 -44 4
-56 -21 -7 -15 -37 -41 -72 -62 -79 -45 -116 -81 -116 -110 0 -13 -7 -40 -16
-61 -48 -111 -42 -118 70 -92 48 11 139 25 204 30 123 11 307 41 405 66 71 18
291 49 453 64 138 12 165 7 189 -40 8 -16 22 -30 29 -30 17 0 95 -85 118 -128
20 -37 45 -41 75 -12 47 43 54 146 17 227 -26 57 -178 203 -274 265 -140 91
-192 112 -240 98z"/>
<path d="M4475 10280 c-3 -5 -4 -14 -1 -19 3 -5 -21 -11 -53 -13 -88 -6 -318
-123 -355 -180 -19 -31 -40 -207 -28 -239 20 -51 92 -104 92 -67 0 6 18 42 41
80 36 59 45 68 77 74 21 3 50 10 66 15 36 11 238 -5 366 -31 52 -10 136 -26
185 -35 50 -9 221 -47 380 -85 485 -115 492 -116 480 -57 -10 46 -85 168 -168
272 -82 102 -172 175 -294 237 l-82 41 -231 -18 c-246 -19 -317 -16 -388 15
-49 22 -78 25 -87 10z"/>
<path d="M9455 9583 c-78 -41 -82 -73 -31 -214 50 -138 60 -131 71 46 3 55 8
119 11 143 6 47 -2 51 -51 25z"/>
<path d="M7803 9530 c-12 -5 -90 -16 -174 -25 -169 -17 -276 -48 -318 -89
l-25 -25 67 -101 c91 -136 168 -191 219 -156 12 9 41 16 64 16 36 0 47 6 77
39 46 51 57 72 78 155 10 38 22 73 27 78 5 5 46 -15 98 -48 182 -116 206 -129
246 -129 21 0 45 7 54 16 14 15 7 22 -86 83 -55 36 -128 80 -161 96 -33 17
-77 46 -98 65 -21 19 -40 35 -42 34 -2 0 -14 -4 -26 -9z"/>
<path d="M4590 9481 c-9 -35 -16 -41 -83 -70 -82 -37 -147 -77 -147 -91 0 -5
12 -17 26 -26 24 -16 29 -16 81 0 30 10 110 43 177 73 168 77 192 85 205 69 6
-7 17 -46 26 -87 28 -134 46 -165 122 -203 47 -24 146 -21 192 5 84 47 156
214 121 280 -27 50 -136 79 -323 86 -119 5 -164 2 -236 -12 -82 -17 -90 -17
-112 -2 -33 24 -37 22 -49 -22z"/>
<path d="M3209 8903 c-12 -32 4 -117 33 -180 35 -75 176 -213 217 -213 20 0
12 18 -39 93 -27 40 -69 119 -94 176 -42 96 -77 151 -98 151 -5 0 -13 -12 -19
-27z"/>
<path d="M9227 8806 c-9 -13 -38 -74 -66 -135 -27 -62 -68 -141 -90 -176 -23
-36 -41 -69 -41 -75 0 -5 12 -10 27 -10 80 0 232 221 233 338 0 76 -32 106
-63 58z"/>
<path d="M6333 6969 c-30 -19 -34 -19 -62 -5 -37 20 -123 21 -159 2 -59 -31
-328 -323 -320 -348 6 -18 267 -212 318 -237 50 -24 66 -26 180 -26 119 0 128
1 190 31 75 36 327 221 322 237 -6 21 -133 177 -196 241 -114 115 -203 150
-273 105z m140 -151 c127 -61 110 -68 -173 -68 -266 0 -291 7 -204 58 69 40
123 52 215 49 74 -3 95 -8 162 -39z m87 -350 c-19 -16 -60 -42 -90 -57 -51
-24 -65 -26 -185 -26 -123 0 -133 2 -180 27 -27 15 -66 41 -85 57 l-35 30 305
0 305 0 -35 -31z"/>
<path d="M7603 5805 c-12 -8 -45 -48 -74 -88 -29 -39 -103 -133 -164 -207
-136 -166 -186 -232 -181 -237 2 -3 25 4 50 15 59 27 138 101 181 172 19 31
61 79 93 107 53 47 62 61 95 147 21 53 37 98 37 101 0 9 -15 5 -37 -10z"/>
<path d="M3899 5525 c-93 -29 -165 -130 -214 -301 -43 -148 -27 -218 21 -92
63 168 104 225 239 327 39 29 70 58 70 64 0 18 -63 18 -116 2z"/>
<path d="M5200 5481 c0 -38 36 -89 88 -124 24 -16 60 -52 81 -80 47 -63 92
-106 147 -140 22 -13 59 -43 83 -66 23 -22 48 -41 55 -41 7 0 34 -11 60 -25
60 -32 120 -42 151 -25 16 8 41 10 77 6 29 -4 94 -8 143 -10 117 -4 380 -32
425 -46 74 -22 114 -13 233 49 76 39 133 62 177 69 40 7 77 22 100 38 19 14
50 35 68 46 76 47 42 191 -42 174 -17 -4 -62 -31 -101 -60 -105 -81 -132 -94
-235 -115 -52 -10 -123 -30 -158 -45 -44 -19 -77 -26 -115 -25 -28 1 -70 -3
-93 -10 -38 -12 -45 -11 -114 19 -48 21 -113 38 -190 51 -64 10 -132 25 -152
33 -19 8 -82 24 -139 36 -57 11 -114 23 -127 25 -12 3 -47 28 -78 56 -31 28
-76 59 -100 69 -36 16 -46 26 -51 51 -6 31 -7 31 -50 25 -42 -5 -44 -4 -41 17
2 18 -2 23 -24 25 -30 4 -36 20 -16 40 9 9 4 12 -25 12 -34 0 -37 -2 -37 -29z"/>
<path d="M8606 5469 c-14 -11 -26 -26 -26 -33 0 -8 48 -47 107 -87 59 -41 127
-93 149 -115 50 -50 111 -171 125 -251 6 -32 13 -68 15 -80 3 -13 9 -23 14
-23 27 0 24 173 -5 285 -25 95 -70 179 -123 225 -49 43 -66 46 -139 25 -17 -6
-25 -1 -39 27 -27 53 -39 57 -78 27z"/>
<path d="M3279 5188 c-69 -70 -126 -242 -164 -500 -14 -94 -30 -177 -36 -184
-27 -33 -216 -87 -619 -178 -351 -79 -366 -82 -570 -101 -191 -18 -217 -24
-325 -73 -75 -34 -88 -36 -215 -43 -126 -6 -141 -9 -225 -44 -89 -37 -93 -38
-280 -47 l-190 -10 -123 -59 c-67 -33 -125 -66 -129 -75 -10 -27 12 -37 46
-20 19 10 101 24 209 36 214 24 218 25 253 55 24 20 43 24 136 29 59 4 137 12
173 17 36 6 77 12 92 14 15 2 48 16 73 31 41 23 63 28 205 39 114 9 167 17
185 29 20 13 47 16 123 15 80 -2 112 2 186 24 48 15 101 27 117 27 17 0 46 7
65 15 32 13 42 13 90 -1 54 -15 56 -15 157 15 56 17 158 40 227 51 69 12 153
28 188 36 69 15 121 18 138 6 17 -10 23 -78 34 -363 10 -255 21 -375 41 -437
9 -26 16 -32 32 -30 19 3 25 15 38 81 9 42 22 84 29 92 14 17 21 361 8 409 -4
16 -17 35 -28 43 -20 14 -20 14 5 51 30 45 31 71 4 106 l-20 26 51 59 50 58
-21 89 c-16 66 -23 132 -27 256 -5 190 7 298 44 396 38 100 30 117 -27 60z"/>
<path d="M9716 4922 c-2 -4 7 -34 20 -67 66 -162 131 -407 118 -447 -8 -25
-45 -22 -157 12 -89 28 -97 26 -141 -39 -15 -23 -30 -41 -31 -39 -2 2 2 23 8
47 10 38 10 44 -8 57 -33 24 -65 17 -106 -25 -45 -44 -54 -91 -18 -91 11 0 28
-4 38 -9 10 -6 97 -26 195 -45 178 -36 203 -44 224 -69 16 -19 30 -125 42
-322 11 -174 58 -630 86 -835 9 -63 15 -128 14 -145 -7 -89 -4 -475 3 -482 9
-8 55 40 88 92 10 17 19 45 19 63 0 19 7 49 16 68 15 32 15 36 -7 88 -18 45
-20 58 -10 70 7 8 10 24 6 36 -4 11 1 41 11 66 15 39 16 69 11 232 -4 103 -13
243 -21 312 -47 395 -55 477 -62 596 l-7 131 69 -9 c38 -5 128 -22 200 -38 73
-16 190 -36 260 -45 71 -8 188 -22 259 -30 196 -23 394 -62 555 -110 80 -24
159 -47 175 -51 27 -7 29 -6 17 9 -8 9 -60 34 -115 55 -186 72 -473 149 -1032
277 -159 37 -313 76 -341 86 l-52 20 -52 152 c-65 188 -98 258 -160 333 -51
62 -106 109 -114 96z"/>
<path d="M3152 3420 c-12 -5 -27 -21 -32 -35 -22 -58 -51 -630 -53 -1047 -2
-266 -1 -277 19 -305 39 -53 83 -36 120 45 19 42 10 70 -24 79 -35 8 -42 19
-42 70 0 52 12 61 35 26 17 -25 18 -25 29 -7 14 25 12 170 -3 217 -9 26 -9 42
-2 56 8 14 8 22 0 26 -7 5 -5 13 5 24 19 21 32 110 46 311 17 253 17 332 -2
359 -16 23 -16 26 3 53 l20 28 -22 31 c-22 31 -22 32 -4 45 10 8 16 16 13 20
-11 11 -83 14 -106 4z"/>
<path d="M6579 2116 c-15 -13 -32 -33 -38 -44 -13 -24 -30 -184 -31 -279 0
-65 15 -92 26 -48 7 30 39 55 70 55 12 0 28 7 35 16 11 13 11 21 -3 44 -14 25
-14 31 -2 49 13 18 13 22 -5 40 -25 25 -17 56 20 78 54 32 27 41 -50 17 -18
-5 -23 -4 -19 7 2 8 23 20 46 27 43 14 51 29 30 50 -18 18 -50 14 -79 -12z"/>
<path d="M3083 1943 c-12 -2 -24 -12 -27 -21 -3 -9 -8 -164 -12 -343 l-7 -327
24 -7 c46 -14 52 -26 28 -51 -12 -13 -20 -26 -17 -29 11 -11 78 -17 113 -11
48 9 45 39 -5 46 -38 6 -42 23 -13 66 8 13 13 32 11 43 -3 20 -5 20 -32 6 -15
-8 -32 -15 -36 -15 -8 0 -33 61 -28 65 2 1 23 8 48 16 60 19 69 40 77 188 5
105 4 124 -11 139 -11 13 -17 43 -20 103 -3 46 -9 96 -15 112 -11 27 -23 31
-78 20z"/>
<path d="M9955 1861 c-4 -13 -4 -39 0 -59 7 -34 8 -35 16 -14 5 12 13 22 19
22 21 0 21 -29 -2 -82 -21 -49 -23 -66 -21 -217 1 -160 2 -165 25 -183 33 -26
68 -34 79 -17 5 8 9 37 9 66 l0 52 -35 3 c-47 4 -48 19 -2 41 20 10 37 25 37
32 0 8 -18 24 -40 36 -58 33 -71 80 -39 143 12 25 26 46 30 46 14 0 70 92 65
106 -4 10 -23 14 -60 14 -41 0 -57 4 -64 17 -9 14 -10 14 -17 -6z"/>
<path d="M9560 1241 c0 -66 100 -92 184 -47 27 14 55 26 62 26 19 0 18 -19 -2
-41 -15 -16 -14 -19 15 -33 19 -10 56 -16 105 -16 111 0 122 9 91 70 -20 38
-53 46 -95 25 -32 -16 -35 -16 -78 5 l-44 23 -77 -21 -76 -21 -35 24 c-43 30
-50 31 -50 6z"/>
<path d="M6535 1203 c14 -27 25 -51 25 -55 0 -13 -29 -9 -62 8 -30 15 -32 15
-45 -2 -13 -18 -15 -17 -37 11 -13 17 -26 28 -28 25 -2 -3 -12 -17 -21 -32
-16 -26 -47 -39 -47 -19 0 4 -19 21 -41 36 -30 20 -49 25 -70 21 -16 -3 -62 5
-110 19 -75 23 -100 25 -263 25 -140 0 -187 -4 -206 -15 -14 -8 -31 -17 -37
-21 -7 -3 -32 3 -56 15 -55 26 -87 27 -121 0 -17 -13 -57 -26 -112 -35 -89
-14 -103 -19 -90 -31 13 -14 189 -9 234 6 52 17 75 8 82 -34 6 -34 22 -42 40
-20 15 19 44 19 59 1 10 -12 79 -22 241 -34 89 -6 103 -6 284 6 113 7 165 7
183 -1 17 -7 27 -7 35 1 14 14 62 -9 74 -35 4 -10 9 -249 12 -530 l4 -513 69
0 68 0 8 38 c4 20 7 91 7 157 -1 93 -5 129 -18 157 -11 23 -15 45 -11 59 6 19
0 29 -31 56 l-39 33 32 0 c63 0 63 0 63 137 0 68 -5 133 -10 144 -8 15 -6 25
10 47 21 29 21 29 2 63 -34 59 -35 74 -6 109 31 36 25 45 -33 56 -69 13 -24
52 132 114 29 11 29 12 10 26 -10 8 -42 14 -69 14 -34 0 -61 7 -81 20 -50 33
-58 25 -30 -27z"/>
<path d="M11588 1193 c-23 -27 -48 -79 -48 -102 0 -11 12 -29 27 -41 25 -20
28 -20 40 -4 7 9 14 22 16 28 5 11 7 10 60 -28 39 -27 90 -35 218 -36 106 0
119 2 145 22 16 13 48 32 71 44 l44 20 -38 27 -38 27 -3 -25 c-2 -14 -5 -25
-6 -25 -2 0 -24 11 -49 25 -25 14 -67 28 -94 31 -45 6 -50 4 -82 -30 -41 -43
-53 -44 -93 -11 -16 14 -36 25 -43 25 -7 0 -34 16 -59 35 -26 19 -48 35 -50
35 -1 0 -10 -8 -18 -17z"/>
</g>
</svg>
