<?xml version="1.0" standalone="no"?>
<!DOCTYPE svg PUBLIC "-//W3C//DTD SVG 20010904//EN"
 "http://www.w3.org/TR/2001/REC-SVG-20010904/DTD/svg10.dtd">
<svg version="1.0" xmlns="http://www.w3.org/2000/svg"
 width="1500.000000pt" height="500.000000pt" viewBox="0 0 1500.000000 500.000000"
 preserveAspectRatio="xMidYMid meet">

<g transform="translate(0.000000,500.000000) scale(0.100000,-0.100000)"
fill="#000000" stroke="none">
<path d="M1481 3423 c-84 -17 -128 -130 -87 -226 24 -57 50 -72 127 -72 64 0
71 2 101 32 29 29 33 40 36 101 4 76 -11 121 -51 146 -25 16 -91 26 -126 19z"/>
<path d="M2720 3375 l0 -55 52 0 c65 0 127 -29 153 -72 18 -30 20 -60 26 -303
3 -148 5 -271 4 -273 -1 -1 -22 24 -48 57 -86 111 -193 161 -345 161 -209 0
-348 -83 -427 -255 -61 -132 -70 -186 -70 -430 0 -255 12 -326 76 -454 86
-173 226 -248 446 -239 88 3 107 7 166 36 68 34 129 93 169 164 12 21 25 38
29 38 3 0 9 -28 13 -62 4 -35 9 -84 13 -110 l6 -48 213 0 214 0 0 49 c0 55 -8
61 -86 61 -51 0 -103 33 -126 80 -17 33 -18 95 -18 873 l0 837 -230 0 -230 0
0 -55z m36 -673 c137 -71 186 -206 186 -507 0 -243 -28 -361 -106 -443 -53
-57 -100 -75 -204 -80 -119 -6 -164 10 -226 79 -76 84 -106 210 -106 445 0
292 55 444 183 509 47 24 60 26 142 23 67 -3 101 -10 131 -26z"/>
<path d="M3811 3423 c-84 -17 -128 -130 -87 -226 24 -57 50 -72 127 -72 64 0
71 2 101 32 29 29 33 40 36 101 4 76 -11 121 -51 146 -25 16 -91 26 -126 19z"/>
<path d="M8673 3420 c-70 -16 -97 -64 -91 -162 3 -61 7 -72 36 -101 30 -30 37
-32 101 -32 55 0 74 4 91 20 68 60 65 213 -4 258 -28 19 -93 27 -133 17z"/>
<path d="M13237 3423 c-4 -3 -7 -28 -7 -55 l0 -48 50 0 c70 0 125 -25 152 -69
l23 -36 0 -735 c0 -717 0 -736 -20 -769 -24 -41 -77 -71 -125 -71 -71 0 -80
-7 -80 -61 l0 -49 336 0 335 0 -3 53 -3 52 -57 6 c-63 7 -99 26 -125 66 -16
24 -18 61 -21 342 -2 188 1 341 8 382 31 200 128 299 294 299 116 0 184 -35
228 -115 44 -81 48 -138 48 -628 l0 -457 216 0 215 0 -3 53 -3 52 -52 5 c-30
3 -64 14 -80 26 -57 43 -58 44 -64 489 -6 430 -7 442 -55 537 -35 69 -76 111
-141 146 -75 39 -161 56 -270 50 -137 -6 -241 -65 -310 -174 -15 -24 -30 -44
-33 -44 -3 0 -4 171 -2 380 l3 380 -224 0 c-123 0 -227 -3 -230 -7z"/>
<path d="M320 3261 l0 -48 69 -7 c82 -8 128 -31 153 -77 17 -32 18 -79 18
-880 0 -916 -1 -943 -54 -1046 -49 -97 -143 -153 -258 -153 l-48 0 0 -62 0
-61 98 6 c269 18 412 120 488 347 17 51 19 115 24 935 5 823 6 882 23 913 26
47 70 70 149 78 l68 7 0 48 0 49 -365 0 -365 0 0 -49z"/>
<path d="M6600 3261 l0 -48 68 -7 c79 -8 123 -31 149 -78 17 -31 18 -77 18
-703 0 -730 1 -715 -57 -756 -23 -17 -107 -36 -170 -39 -5 0 -8 -22 -8 -50 l0
-50 419 0 c246 0 452 4 497 11 180 25 314 89 431 206 193 194 274 553 207 923
-64 351 -285 574 -626 630 -36 5 -250 10 -495 10 l-433 0 0 -49z m890 -96
c127 -39 239 -126 303 -235 65 -112 107 -312 107 -505 -1 -357 -105 -596 -306
-702 -93 -49 -166 -63 -346 -63 l-158 0 0 766 0 767 173 -6 c120 -3 189 -10
227 -22z"/>
<path d="M5022 2874 c-29 -7 -62 -19 -74 -25 -34 -18 -108 -91 -140 -137 -16
-24 -33 -41 -36 -37 -4 4 -14 48 -22 98 l-15 92 -203 3 -202 2 0 -55 0 -55 48
0 c59 0 110 -25 139 -69 l23 -34 0 -451 c0 -409 -2 -454 -18 -486 -24 -48 -75
-80 -128 -80 -67 0 -74 -6 -74 -61 l0 -49 336 0 335 0 -3 53 -3 52 -62 6 c-70
7 -106 26 -128 70 -14 27 -16 78 -13 402 3 363 4 373 27 431 49 122 141 186
267 186 127 0 200 -43 246 -144 23 -51 23 -53 26 -553 l3 -503 220 0 220 0 -3
53 -3 52 -57 6 c-69 8 -99 26 -122 72 -14 30 -16 81 -16 389 0 194 -5 383 -10
421 -36 249 -173 368 -420 366 -47 0 -109 -7 -138 -15z"/>
<path d="M9892 2874 c-29 -7 -62 -19 -74 -25 -34 -18 -108 -91 -140 -137 -16
-24 -33 -41 -36 -37 -4 4 -14 48 -22 98 l-15 92 -203 3 -202 2 0 -55 0 -55 48
0 c59 0 110 -25 139 -69 l23 -34 0 -451 c0 -409 -2 -454 -18 -486 -24 -48 -75
-80 -128 -80 -67 0 -74 -6 -74 -61 l0 -49 336 0 335 0 -3 53 -3 52 -62 6 c-70
7 -106 26 -128 70 -14 27 -16 78 -13 402 3 363 4 373 27 431 49 122 141 186
267 186 127 0 200 -43 246 -144 23 -51 23 -53 26 -553 l3 -503 220 0 220 0 -3
53 -3 52 -57 6 c-69 8 -99 26 -122 72 -14 30 -16 81 -16 389 0 194 -5 383 -10
421 -36 249 -173 368 -420 366 -47 0 -109 -7 -138 -15z"/>
<path d="M11260 2874 c-184 -49 -312 -185 -364 -389 -40 -156 -44 -368 -9
-520 53 -239 192 -392 400 -441 105 -24 286 -16 381 18 123 44 200 118 209
200 4 34 0 49 -17 71 l-22 28 -40 -45 c-74 -86 -243 -146 -363 -131 -207 25
-308 167 -328 458 l-4 57 414 0 c368 0 414 2 420 16 11 30 -16 287 -37 354
-58 175 -167 281 -335 325 -74 19 -231 19 -305 -1z m268 -143 c84 -43 138
-161 149 -323 l6 -88 -287 0 -286 0 0 23 c1 45 28 174 49 228 35 93 103 158
186 180 48 13 138 3 183 -20z"/>
<path d="M12545 2884 c-157 -24 -279 -101 -326 -207 -20 -43 -24 -69 -24 -147
0 -84 3 -102 28 -152 46 -94 105 -137 342 -253 278 -135 305 -159 305 -270 0
-93 -37 -157 -115 -198 -50 -26 -203 -36 -260 -17 -86 28 -149 122 -162 240
-7 66 -18 74 -71 46 -119 -62 -119 -250 -1 -336 78 -56 140 -73 290 -78 115
-3 149 -1 219 17 92 23 153 55 205 107 76 75 115 208 96 325 -27 162 -118 243
-424 374 -129 54 -172 80 -214 128 -69 79 -49 221 40 276 18 11 59 24 92 29
101 16 179 -5 227 -62 23 -28 48 -110 48 -159 l0 -40 41 7 c93 15 139 65 139
151 0 90 -68 165 -184 201 -50 16 -231 27 -291 18z"/>
<path d="M1202 2818 l3 -53 55 -6 c63 -7 85 -16 120 -54 l25 -27 3 -471 c2
-460 2 -473 -18 -505 -22 -36 -72 -62 -118 -62 -16 0 -44 -3 -61 -6 -30 -6
-31 -9 -31 -55 l0 -49 355 0 355 0 0 49 0 50 -47 6 c-97 12 -112 16 -138 37
-55 43 -55 41 -55 643 l0 555 -226 0 -225 0 3 -52z"/>
<path d="M3532 2818 l3 -53 55 -6 c63 -7 85 -16 120 -54 l25 -27 3 -471 c2
-460 2 -473 -18 -505 -22 -36 -72 -62 -118 -62 -16 0 -44 -3 -61 -6 -30 -6
-31 -9 -31 -55 l0 -49 355 0 355 0 0 49 0 50 -47 6 c-97 12 -112 16 -138 37
-55 43 -55 41 -55 643 l0 555 -226 0 -225 0 3 -52z"/>
<path d="M8400 2815 l0 -55 48 0 c59 0 110 -25 139 -69 l23 -34 0 -456 c0
-423 -1 -459 -18 -490 -22 -42 -74 -71 -123 -71 -20 0 -51 -3 -68 -6 -30 -6
-31 -9 -31 -55 l0 -49 355 0 355 0 0 49 c0 54 -9 61 -85 61 -49 0 -99 29 -125
72 -19 32 -20 52 -20 596 l0 562 -225 0 -225 0 0 -55z"/>
</g>
</svg>
