<?xml version="1.0" standalone="no"?>
<!DOCTYPE svg PUBLIC "-//W3C//DTD SVG 20010904//EN"
 "http://www.w3.org/TR/2001/REC-SVG-20010904/DTD/svg10.dtd">
<svg version="1.0" xmlns="http://www.w3.org/2000/svg"
 width="1024.000000pt" height="1024.000000pt" viewBox="0 0 1024.000000 1024.000000"
 preserveAspectRatio="xMidYMid meet">
<metadata>
Created by potrace 1.11, written by Peter Selinger 2001-2013
</metadata>
<g transform="translate(0.000000,1024.000000) scale(0.100000,-0.100000)"
fill="#000000" stroke="none">
<path d="M855 7886 c-87 -18 -202 -54 -265 -84 -54 -26 -160 -89 -170 -101 -3
-3 -21 -18 -40 -33 -66 -50 -151 -142 -207 -223 -62 -91 -129 -256 -160 -395
-4 -19 -9 -1087 -10 -2372 l-3 -2338 5120 0 5120 0 -3 2348 c-3 2136 -5 2352
-19 2402 -9 30 -23 78 -31 105 -23 80 -65 164 -123 250 -108 161 -248 281
-424 363 -59 27 -209 71 -285 82 -98 14 -8427 10 -8500 -4z"/>
</g>
</svg>
